/* XPM */
static char * title_4_inactive_xpm[] = {
"16 18 9 1",
" 	c None",
".	c #000000",
"+	c #BDB7B3 s inactive_hilight_1",
"@	c #7C7976 s inactive_color_1",
"#	c #FFFFFF s inactive_hilight_2",
"$	c #8A8683 s inactive_mid_1",
"%	c #63615F s inactive_shadow_1",
"&	c #D6D6CC s inactive_color_2",
"*	c #9B9B8A s inactive_shadow_2",
"................",
"+++++++++@.#####",
"@@@@@@@@@%.#&&&&",
"$$$$$$$$$%.#&&&&",
"@@@@@@@@@%.#&&&&",
"$$$$$$$$$%.#&&&&",
"@@@@@@@@@%.#&&&&",
"$$$$$$$$$%.#&&&&",
"@@@@@@@@@%.#&&&&",
"$$$$$$$$$%.#&&&&",
"@@@@@@@@@%.#&&&&",
"$$$$$$$$$%.#&&&&",
"@@@@@@@@@%.#&&&&",
"$$$$$$$$$%.#&&&&",
"@@@@@@@@@%.#&&&&",
"$$$$$$$$$%.#&&&&",
"@@@@@@@@@%.#&&&&",
"%%%%%%%%%%.*****"};
