/* XPM */
static char * bottom_right_inactive_xpm[] = {
"22 22 5 1",
"       c None",
".      c #444F94 s inactive_shadow_1",
"+      c #6671B2 s inactive_color_1",
"@      c #000000",
"#      c #8D95C6 s inactive_hilight_1",
"                .#++.@",
"                .#++.@",
"                .#++.@",
"                .#++.@",
"                .#++.@",
"                .#++.@",
"                .#++.@",
"                .#++.@",
"                .#++.@",
"                .#++.@",
"                .#++.@",
"                .#++.@",
"                .#++.@",
"                .#++.@",
"                .#++.@",
"                .#++.@",
".................#++.@",
"#################++.@ ",
"+++++++++++++++++++.@ ",
"+++++++++++++++++..@  ",
".................@@   ",
"@@@@@@@@@@@@@@@@@     "};
