/* XPM */
static char * bottom_left_active_xpm[] = {
"22 22 6 1",
"       c None",
".      c #000000",
"+      c #6671B2 s active_color_1",
"@      c #444F94 s active_shadow_1",
"#      c #8D95C6 s active_hilight_1",
"%      c #A1A1A1 s active_mid_1",
".#++%@                ",
".#++%@                ",
".#++%@                ",
".#++%@                ",
".#++%@                ",
".#++%@                ",
".#++%@                ",
".#++%@                ",
".#++%@                ",
".#++%@                ",
".#++%@                ",
".#++%@                ",
".#++%@                ",
".#++%@                ",
".#++%@                ",
".#++%@                ",
".#+++%################",
" .#+++++++++++++++++++",
" .#%%+++++++++++++++++",
"  .@@%%%%%%%%%%%%%%%%%",
"   ..@@@@@@@@@@@@@@@@@",
"     ................."};
