/* XPM */
static char * bottom_right_active_xpm[] = {
"22 22 6 1",
"       c None",
".      c #444F94 s active_shadow_2",
"+      c #6671B2 s active_color_2",
"@      c #000000",
"#      c #8D95C6 s active_hilight_2",
"%      c #A1A1A1 s active_mid_2",
"                #++%.@",
"                #++%.@",
"                #++%.@",
"                #++%.@",
"                #++%.@",
"                #++%.@",
"                #++%.@",
"                #++%.@",
"                #++%.@",
"                #++%.@",
"                #++%.@",
"                #++%.@",
"                #++%.@",
"                #++%.@",
"                #++%.@",
"                #++%.@",
"################+++%.@",
"++++++++++++++++++%.@ ",
"+++++++++++++++++%%.@ ",
"%%%%%%%%%%%%%%%%%..@  ",
".................@@   ",
"@@@@@@@@@@@@@@@@@     "};
