/* XPM */
static char * hide_pressed_xpm[] = {
"20 19 4 1",
" 	c None",
".	c #000000",
"+	c #CBCBCB s active_mid_2",
"@	c #A7A7A7 s active_shadow_2",
"....................",
"@++++++++++++++++++@",
"@++++++++++++++++++@",
"@++++++++++++++++++@",
"@++++++++++++++++++@",
"@++++++++++++++++++@",
"@++++++++++++++++++@",
"@++++++++++++++++++@",
"@++++++++++++++++++@",
"@++++++++++++++++++@",
"@++++++++++++++++++@",
"@++++@........@++++@",
"@++++..........++++@",
"@++++..........++++@",
"@++++@........@++++@",
"@++++++++++++++++++@",
"@++++++++++++++++++@",
"@++++++++++++++++++@",
"@@@@@@@@@@@@@@@@@@@@"};
