/* XPM */
static char * maximize_pressed_xpm[] = {
"21 20 5 1",
" 	c None",
".	c #000000",
"+	c #CBCBCB s inactive_mid_2",
"@	c #A7A7A7 s inactive_shadow_2",
"#	c #828282 s inactive_shadow_2",
".....................",
"++++++++++++++++++++@",
"++++++++++++++++++++@",
"++++++++++++++++++++@",
"++++++++++++++++++++@",
"+++++#........#+++++@",
"+++++..........+++++@",
"+++++..........+++++@",
"+++++..........+++++@",
"+++++.++++++++.+++++@",
"+++++.++++++++.+++++@",
"+++++.++++++++.+++++@",
"+++++.++++++++.+++++@",
"+++++.++++++++.+++++@",
"+++++#........#+++++@",
"++++++++++++++++++++@",
"++++++++++++++++++++@",
"++++++++++++++++++++@",
"++++++++++++++++++++@",
"@@@@@@@@@@@@@@@@@@@@@"};
