/* XPM */
static char * bottom_left_active_xpm[] = {
"25 25 5 1",
" 	c None",
".	c #000000",
"+	c #4A91BD",
"@	c #10699C",
"#	c #084873",
".+@#.                    ",
".+@#.                    ",
".+@#.                    ",
".+@#.                    ",
".+@#.                    ",
".+@#.                    ",
".+@#.                    ",
".+@#.                    ",
".+@#.                    ",
".+@#.                    ",
".+@#.                    ",
".+@#.                    ",
".+@#.                    ",
".+@#.                    ",
".+@#.                    ",
".+@#.                    ",
".+@#.                    ",
".+@#.                    ",
".+@#.                    ",
".+@#.....................",
".+@@+++++++++++++++++++++",
".+@@@@@@@@@@@@@@@@@@@@@@@",
".@#######################",
".........................",
" ........................"};
