/* XPM */
static char * maximize_active_xpm[] = {
"14 14 31 1",
" 	c None",
".	c #737173",
"+	c #6A696A",
"@	c #626562",
"#	c #626162",
"$	c #5A5D5A",
"%	c #FFFFFF",
"&	c #CDCECD",
"*	c #525052",
"=	c #DEDEDE",
"-	c #7B7D7B",
";	c #414041",
">	c #525552",
",	c #DEDADE",
"'	c #393839",
")	c #D5D6D5",
"!	c #000000",
"~	c #313031",
"{	c #D5D2D5",
"]	c #CDCACD",
"^	c #292C29",
"/	c #4A4C4A",
"(	c #C5C6C5",
"_	c #C5C2C5",
":	c #4A484A",
"<	c #BDBEBD",
"[	c #292829",
"}	c #BDBABD",
"|	c #414441",
"1	c #393C39",
"2	c #202420",
".+@#$$$$$$$$#@",
"@%%%%%%%%%%%&*",
"$%==========-;",
">%,,,,,,,,,,-'",
">%))!!!!!!))-~",
"*%{{!!!!!!{{-~",
"*%&&!!!!!!&&-~",
"*%]]!]]]]!]]-^",
"/%((!((((!((-^",
"/%__!!!!!!__-^",
":%<<<<<<<<<<-[",
":%}}}}}}}}}}-[",
"|&-----------^",
"|1~[22222222[~"};
