/* XPM */
static char * menu_inactive_xpm[] = {
"14 14 23 1",
" 	c None",
".	c #949594",
"+	c #949194",
"@	c #8B8D8B",
"#	c #D5D2D5",
"$	c #C5C6C5",
"%	c #8B898B",
"&	c #9C9D9C",
"*	c #838183",
"=	c #CDCECD",
"-	c #C5C2C5",
";	c #9C999C",
">	c #7B7D7B",
",	c #BDBEBD",
"'	c #7B797B",
")	c #CDCACD",
"!	c #838583",
"~	c #BDBABD",
"{	c #B4B6B4",
"]	c #B4B2B4",
"^	c #737573",
"/	c #ACAEAC",
"(	c #ACAAAC",
".+@@@@@@@@@@@@",
"+###########$%",
"@#$$$$$$$$$$&*",
"%=----------;>",
"%=,,,,,,,,,,;'",
"%),,,,,,,,,,;'",
"!)~~~~~~~~~~.'",
"!${{{{{{{{{{.'",
"!${{{{{{{{{{.'",
"*-]]]]]]]]]]+^",
"*-//////////+^",
"*,//////////@^",
"*(@@@@@@@@@@@^",
"*>'^^^^^^^^^^'"};
