/* XPM */
static char * title_4_inactive_xpm[] = {
"50 22 34 1",
" 	c None",
".	c #626562",
"+	c #DEDADE",
"@	c #CDCACD",
"#	c #9C999C",
"$	c #D5D6D5",
"%	c #DEDEDE",
"&	c #E6E6E6",
"*	c #EEEAEE",
"=	c #ACAEAC",
"-	c #949194",
";	c #CDCECD",
">	c #EEEEEE",
",	c #8B8D8B",
"'	c #F6F2F6",
")	c #F6F6F6",
"!	c #ACAAAC",
"~	c #8B898B",
"{	c #BDBEBD",
"]	c #D5D2D5",
"^	c #C5C6C5",
"/	c #838183",
"(	c #9C9D9C",
"_	c #A4A5A4",
":	c #A4A1A4",
"<	c #949594",
"[	c #E6E2E6",
"}	c #C5C2C5",
"|	c #838583",
"1	c #BDBABD",
"2	c #B4B2B4",
"3	c #7B7D7B",
"4	c #B4B6B4",
"5	c #7B797B",
"..................................................",
"++++++++++@#$%&***********************************",
"@@@@@@@@@@=-;%&>>>>>>>>>>>>>>>>>>>>>>>>>>>>>>>>>>>",
"@@@@@@@@@@=,@+*''')))'''''''))))))))))))))))))))))",
"@@@@@@@@@@!~{]%**>'''>*****>')))))))))))))))))))))",
"^^^^^^^^^^!/~-#((%&&_:(((((%&*>>>>>>>>>>>>>>>>>>>>",
"^^^^^^^^^^^]]]]^<;+%(]]]]^<;+[&*******************",
"}}}}}}}}}}}}}}}_,}]$#]}}}_,}]%&&&&&&&&&&&&&&&&&&&&",
"{{{{{{{{{{{{{{{_|1@;<]{{{_|1@+[[[&&&&&&&&&&&&&&&&&",
"{{{{{{{{{{{{{{{:/2}^-;{{{:/2};$+%[[[&&&&&&&&&&&&&&",
"111111111111111:3|,,,1::::/~,<<#$+%[[[[[[[[[[[[[[[",
"4444444444444444@@@@4|////@@@@4-@]+%[[[[[[[[[[[[[[",
"44444444444444444444(/_!!|^444(~{@$%%%%%%%%%%%%%%%",
"22222222222222222222#/_=2~^222#|2};$++++++++$+++++",
"====================#3_24~^===#/!1^@;]]$]];;;;;]$$",
"====================#3/~~~=<<##3|~,-<^@;#<<---<^;]",
"!!!!!!!!!!!!!!!!!!!!!}}}}!/3333}}}}!,1}}-}}}}!,1}@",
"!!!!!!!!!!!!!!!!!!!!!!!!!<3#((/{!!!<|=11,{!!!<|=1}",
"_________________________-3#:_|{___-3_24~{___-3_2{",
"_________________________-3(_!|{___-3:=2~{___-3:=1",
"--------------------------5#:_|:----5#:_|:----5#_=",
".................................................."};
