/* XPM */
static char * bottom_right_active_xpm[] = {
"16 16 4 1",
"       c None",
".      c #000000",
"+      c #E6E6E6 s active_color_2",
"@      c #A4A19C s active_shadow_2",
"          .+++@.",
"          .+++@.",
"          .+++@.",
"          .+++@.",
"          .+++@.",
"          .+++@.",
"          .+++@.",
"          .+++@.",
"          .+++@.",
"          .+++@.",
"...........+++@.",
"++++++++++++++@.",
"++++++++++++++@.",
"++++++++++++++@.",
"@@@@@@@@@@@@@@@.",
"................"};
