/* XPM */
static char * right_inactive_xpm[] = {
"6 32 4 1",
" 	c None",
".	c #E6E6E6 s inactive_color_2",
"+	c #A4A19C s inactive_shadow_2",
"@	c #000000",
"....+@",
"....+@",
"....+@",
"....+@",
"....+@",
"....+@",
"....+@",
"....+@",
"....+@",
"....+@",
"....+@",
"....+@",
"....+@",
"....+@",
"....+@",
"....+@",
"....+@",
"....+@",
"....+@",
"....+@",
"....+@",
"....+@",
"....+@",
"....+@",
"....+@",
"....+@",
"....+@",
"....+@",
"....+@",
"....+@",
"....+@",
"....+@"};
