/* XPM */
static char * title_3_active_xpm[] = {
"8 18 8 1",
" 	c None",
".	c #000000",
"+	c #FFFFFF s active_hilight_2",
"@	c #373534 s active_shadow_1",
"#	c #7C7976 s active_color_1",
"$	c #8A8683 s active_mid_1",
"%	c #D6D6CC s active_color_2",
"&	c #9B9B8A s active_shadow_2",
"........",
"++++++++",
"@@@@@@@@",
"########",
"$$$$$$$$",
"########",
"$$$$$$$$",
"########",
"$$$$$$$$",
"########",
"$$$$$$$$",
"########",
"$$$$$$$$",
"########",
"$$$$$$$$",
"########",
"@@@@@@@@",
"%%%%%%%%"};
