/* XPM */
static char * title_1_inactive_xpm[] = {
"5 25 7 1",
" 	c None",
".	c #FFFFFF s inactive_hilight_2",
"+	c #CCCCC7 s inactive_color_2",
"@	c #919189 s inactive_shadow_2",
"#	c #000000 s inactive_border_color",
"$	c #EBEBE9 s inactive_hilight_1",
"%	c #81817B s inactive_shadow_1",
".....",
"+++++",
"+++++",
"@@@@@",
"#####",
"$$$$$",
"+++++",
"+++++",
"+++++",
"+++++",
"+++++",
"+++++",
"+++++",
"+++++",
"+++++",
"+++++",
"+++++",
"+++++",
"+++++",
"+++++",
"+++++",
"+++++",
"+++++",
"%%%%%",
"#####"};
