/* XPM */
static char * close_active_xpm[] = {
"20 20 113 2",
"  	c None",
". 	c #FFFFFF",
"+ 	c #FF8159",
"@ 	c #FE7952",
"# 	c #FC754E",
"$ 	c #FC734C",
"% 	c #FC7149",
"& 	c #FC7047",
"* 	c #FC6E44",
"= 	c #FC6D42",
"- 	c #FC6B40",
"; 	c #FC6A3D",
"> 	c #FC683B",
", 	c #FC6639",
"' 	c #FC6437",
") 	c #FC6334",
"! 	c #FB6031",
"~ 	c #F75B2E",
"{ 	c #FF7F57",
"] 	c #F9724D",
"^ 	c #ED6B47",
"/ 	c #E76743",
"( 	c #E76541",
"_ 	c #E7633F",
": 	c #E7623D",
"< 	c #E7613B",
"[ 	c #E75F38",
"} 	c #E75E36",
"| 	c #E75C34",
"1 	c #E75B32",
"2 	c #E75930",
"3 	c #E7582E",
"4 	c #E7562C",
"5 	c #E7552A",
"6 	c #EA5529",
"7 	c #E45125",
"8 	c #FD7650",
"9 	c #EC6A47",
"0 	c #E66643",
"a 	c #E66441",
"b 	c #E6633E",
"c 	c #E6613C",
"d 	c #E6603A",
"e 	c #E65F38",
"f 	c #E65D36",
"g 	c #E65C34",
"h 	c #E65A32",
"i 	c #E65930",
"j 	c #E6572E",
"k 	c #E6562C",
"l 	c #E6542A",
"m 	c #E65328",
"n 	c #E65225",
"o 	c #E24F23",
"p 	c #F8704B",
"q 	c #E76643",
"r 	c #E65023",
"s 	c #E14D21",
"t 	c #F86E48",
"u 	c #E64F21",
"v 	c #E04C1F",
"w 	c #F86D46",
"x 	c #E64D1F",
"y 	c #E04A1D",
"z 	c #F86B44",
"A 	c #E64C1D",
"B 	c #E0491B",
"C 	c #F86A42",
"D 	c #E64A1B",
"E 	c #E04719",
"F 	c #F8693F",
"G 	c #E64919",
"H 	c #E04617",
"I 	c #F8673D",
"J 	c #E64717",
"K 	c #E04414",
"L 	c #F8653B",
"M 	c #E64615",
"N 	c #E04312",
"O 	c #F86339",
"P 	c #E64513",
"Q 	c #E04211",
"R 	c #F86237",
"S 	c #E64311",
"T 	c #E0400E",
"U 	c #F86034",
"V 	c #E6420E",
"W 	c #E03F0C",
"X 	c #F85F32",
"Y 	c #E6400C",
"Z 	c #E03D0A",
"` 	c #F65C2F",
" .	c #E63F0A",
"..	c #DE3C08",
"+.	c #EA562B",
"@.	c #E43D08",
"#.	c #D23706",
"$.	c #D84D23",
"%.	c #DD4D22",
"&.	c #DE4D21",
"*.	c #DE4B1E",
"=.	c #DE491C",
"-.	c #DE481A",
";.	c #DE4719",
">.	c #DE4517",
",.	c #DE4414",
"'.	c #DE4312",
").	c #DE4110",
"!.	c #DE400E",
"~.	c #DE3E0C",
"{.	c #DE3D0A",
"].	c #DD3B08",
"^.	c #D03606",
"  . . . . . . . . . . . . . . . . . .   ",
". . + @ # $ % & * = - ; > , ' ) ! ~ . . ",
". { ] ^ / ( _ : < [ } | 1 2 3 4 5 6 7 . ",
". 8 9 0 a b c d e f g h i j k l m n o . ",
". p q a b c d e f g h i j k l m n r s . ",
". t ( b c . . f g h i j k . . n r u v . ",
". w _ c d . . . h i j k . . . r u x y . ",
". z : d e f . . . j k . . . r u x A B . ",
". C < e f g h . . . . . . r u x A D E . ",
". F [ f g h i j . . . . r u x A D G H . ",
". I } g h i j k . . . . u x A D G J K . ",
". L | h i j k . . . . . . A D G J M N . ",
". O 1 i j k . . . r u . . . G J M P Q . ",
". R 2 j k . . . r u x A . . . M P S T . ",
". U 3 k l . . r u x A D G . . P S V W . ",
". X 4 l m n r u x A D G J M P S V Y Z . ",
". ` l m n r u x A D G J M P S V Y  .... ",
". +.m n r u x A D G J M P S V Y  .@.#.. ",
". . $.%.&.*.=.-.;.>.,.'.).!.~.{.].^.. . ",
"  . . . . . . . . . . . . . . . . . .   "};
