/* XPM */
static char * close_inactive_xpm[] = {
"20 20 174 2",
"  	c None",
". 	c #FFD0C6",
"+ 	c #FE8A8A",
"@ 	c #FE8888",
"# 	c #FE8686",
"$ 	c #FE8484",
"% 	c #FE8282",
"& 	c #FE8181",
"* 	c #FE7F7F",
"= 	c #FE7D7D",
"- 	c #FD7B7B",
"; 	c #FC7979",
"> 	c #F98A8A",
", 	c #F68989",
"' 	c #F48989",
") 	c #F48888",
"! 	c #F48787",
"~ 	c #F38585",
"{ 	c #F38383",
"] 	c #F38181",
"^ 	c #F37F7F",
"/ 	c #F27D7D",
"( 	c #F27C7C",
"_ 	c #F27A7A",
": 	c #F17878",
"< 	c #EA7575",
"[ 	c #E07272",
"} 	c #F58989",
"| 	c #F18888",
"1 	c #EE8888",
"2 	c #EE8787",
"3 	c #ED8585",
"4 	c #ED8484",
"5 	c #ED8282",
"6 	c #EC8080",
"7 	c #EC7E7E",
"8 	c #EB7C7C",
"9 	c #EB7A7A",
"0 	c #EB7979",
"a 	c #E17272",
"b 	c #D76E6E",
"c 	c #EF8888",
"d 	c #E88484",
"e 	c #E78383",
"f 	c #E78181",
"g 	c #E67F7F",
"h 	c #E67D7D",
"i 	c #E67B7B",
"j 	c #E57979",
"k 	c #E57878",
"l 	c #DC6F6F",
"m 	c #D46B6B",
"n 	c #EB8888",
"o 	c #E58080",
"p 	c #E57F7F",
"q 	c #E47D7D",
"r 	c #E47B7B",
"s 	c #E47979",
"t 	c #E37777",
"u 	c #DF6F6F",
"v 	c #DA6D6D",
"w 	c #D46A6A",
"x 	c #EB8787",
"y 	c #E78484",
"z 	c #E27070",
"A 	c #DE6E6E",
"B 	c #DA6B6B",
"C 	c #D36868",
"D 	c #EF8787",
"E 	c #EB8585",
"F 	c #E16E6E",
"G 	c #DE6C6C",
"H 	c #DA6969",
"I 	c #D36666",
"J 	c #F58888",
"K 	c #EF8686",
"L 	c #EA8383",
"M 	c #E68181",
"N 	c #E16C6C",
"O 	c #DE6A6A",
"P 	c #DA6767",
"Q 	c #D36464",
"R 	c #F58787",
"S 	c #EE8484",
"T 	c #EA8181",
"U 	c #E16A6A",
"V 	c #DD6868",
"W 	c #D96565",
"X 	c #D36262",
"Y 	c #F48585",
"Z 	c #EE8282",
"` 	c #EA7F7F",
" .	c #E06868",
"..	c #DD6666",
"+.	c #D96363",
"@.	c #D26060",
"#.	c #F48383",
"$.	c #EE8080",
"%.	c #E97E7E",
"&.	c #E57B7B",
"*.	c #E16868",
"=.	c #E06666",
"-.	c #DD6464",
";.	c #D86161",
">.	c #D25E5E",
",.	c #F48181",
"'.	c #ED7E7E",
").	c #E97C7C",
"!.	c #E06464",
"~.	c #DD6262",
"{.	c #D86060",
"].	c #D25C5C",
"^.	c #ED7D7D",
"/.	c #E87A7A",
"(.	c #E47878",
"_.	c #DF6363",
":.	c #DC6060",
"<.	c #D85D5D",
"[.	c #D15A5A",
"}.	c #F37D7D",
"|.	c #ED7B7B",
"1.	c #E87878",
"2.	c #DC5F5F",
"3.	c #D75C5C",
"4.	c #D15959",
"5.	c #F37C7C",
"6.	c #EC7979",
"7.	c #D75A5A",
"8.	c #D15757",
"9.	c #F37A7A",
"0.	c #EB7777",
"a.	c #DE6F6F",
"b.	c #DD6D6D",
"c.	c #DD6B6B",
"d.	c #DD6A6A",
"e.	c #DC6868",
"f.	c #DC6666",
"g.	c #DC6464",
"h.	c #DC6262",
"i.	c #DB6060",
"j.	c #DB5E5E",
"k.	c #D65858",
"l.	c #F27878",
"m.	c #E57474",
"n.	c #DE7171",
"o.	c #D96E6E",
"p.	c #D86C6C",
"q.	c #D76B6B",
"r.	c #D76969",
"s.	c #D76767",
"t.	c #D76565",
"u.	c #D66363",
"v.	c #D66161",
"w.	c #D55F5F",
"x.	c #D55D5D",
"y.	c #D55B5B",
"z.	c #D45959",
"A.	c #D45858",
"B.	c #D35858",
"C.	c #D05757",
"D.	c #DA7070",
"E.	c #D26D6D",
"F.	c #CF6A6A",
"G.	c #CF6868",
"H.	c #CF6767",
"I.	c #CE6565",
"J.	c #CE6363",
"K.	c #CD6161",
"L.	c #CD5F5F",
"M.	c #CD5D5D",
"N.	c #CD5B5B",
"O.	c #CC5959",
"P.	c #CC5757",
"Q.	c #CD5757",
"    . . . . . . . . . . . . . . . .     ",
"  . + + + + + + + @ # $ % & * = - ; .   ",
". > , ' ' ' ' ) ! ~ { ] ^ / ( _ : < [ . ",
". } | . . 1 2 3 4 5 6 7 8 9 0 . . a b . ",
". } c . . . d e f g h i j k . . . l m . ",
". } c n . . . o p q r s t . . . u v w . ",
". } c x y . . . q r s t . . . z A B C . ",
". } D E e o . . . s t . . . z F G H I . ",
". J K L M p q . . . . . . z F N O P Q . ",
". R S T g q r s . . . . z F N U V W X . ",
". Y Z ` h r s t . . . . F N U  ...+.@.. ",
". #.$.%.&.s t . . . . . . U *.=.-.;.>.. ",
". ,.'.).j t . . . z F . . . =.!.~.{.].. ",
". ^ ^./.(.. . . z F N U . . . _.:.<.[.. ",
". }.|.1.. . . z F N U *.=.. . . 2.3.4.. ",
". 5.6.. . . z F N U  .=.!._.. . . 7.8.. ",
". 9.0.. . a.b.c.d.e.f.g.h.i.j.. . k.8.. ",
". l.m.n.o.p.q.r.s.t.u.v.w.x.y.z.A.B.C.. ",
"  . D.E.F.G.H.I.J.K.L.M.N.O.P.P.P.Q..   ",
"    . . . . . . . . . . . . . . . .     "};
