/* XPM */
static char * close_active_xpm[] = {
"16 16 204 2",
"  	c None",
". 	c #FFF9F4",
"+ 	c #FFEEE3",
"@ 	c #FFEBE1",
"# 	c #FFE9DF",
"$ 	c #FFE9DE",
"% 	c #FFE8DE",
"& 	c #FFE8DD",
"* 	c #FFE7DC",
"= 	c #FFE7DB",
"- 	c #FFE6DB",
"; 	c #FFE6DA",
"> 	c #FFE5D9",
", 	c #FFE4D8",
"' 	c #FFF4EF",
") 	c #FFF8F4",
"! 	c #FFC7A5",
"~ 	c #FF9E6B",
"{ 	c #FF9060",
"] 	c #FF8A5A",
"^ 	c #FF8856",
"/ 	c #FF8653",
"( 	c #FF844F",
"_ 	c #FF814B",
": 	c #FF7E47",
"< 	c #FF7C44",
"[ 	c #FF7941",
"} 	c #FF763D",
"| 	c #FF7139",
"1 	c #FE9D7B",
"2 	c #FFF2EE",
"3 	c #FF9464",
"4 	c #FF8659",
"5 	c #FF7D51",
"6 	c #FF784C",
"7 	c #FF7548",
"8 	c #FF7345",
"9 	c #FF7142",
"0 	c #FF6F3F",
"a 	c #FF6C3C",
"b 	c #FF6A39",
"c 	c #FF6836",
"d 	c #FF6432",
"e 	c #FE612E",
"f 	c #F35728",
"g 	c #FBDDD3",
"h 	c #FFE6DE",
"i 	c #FF8055",
"j 	c #FF784F",
"k 	c #FF7349",
"l 	c #FE6D43",
"m 	c #FB6A3F",
"n 	c #FB683C",
"o 	c #FB663A",
"p 	c #FB6337",
"q 	c #FB6134",
"r 	c #FB5F32",
"s 	c #FB5D2F",
"t 	c #F85A2B",
"u 	c #F15526",
"v 	c #DD4C21",
"w 	c #F6DBD2",
"x 	c #FFE5DC",
"y 	c #FF784E",
"z 	c #FF7147",
"A 	c #FB6A41",
"B 	c #FFFFFF",
"C 	c #F8CBBF",
"D 	c #EB6A45",
"E 	c #E95B33",
"F 	c #E9592F",
"G 	c #EB653E",
"H 	c #F8C9BB",
"I 	c #E85224",
"J 	c #E14E21",
"K 	c #CA441B",
"L 	c #F2D9D1",
"M 	c #FFE4DC",
"N 	c #FF764B",
"O 	c #FF6D43",
"P 	c #F6663D",
"Q 	c #FEFEFE",
"R 	c #F5C3B4",
"S 	c #E7653F",
"T 	c #E7633D",
"U 	c #F5C1B2",
"V 	c #F6C6B8",
"W 	c #E44E21",
"X 	c #DC4A1E",
"Y 	c #C24018",
"Z 	c #F0D8D0",
"` 	c #FFE4DB",
" .	c #FF7448",
"..	c #FF6B41",
"+.	c #F5643B",
"@.	c #E96944",
"#.	c #F6C8BB",
"$.	c #F6C8BA",
"%.	c #F5BFAF",
"&.	c #E75D33",
"*.	c #E44C1E",
"=.	c #DB481B",
"-.	c #C13E16",
";.	c #FFE4DA",
">.	c #FF7244",
",.	c #FF693D",
"'.	c #F56238",
").	c #E75A32",
"!.	c #E54D1F",
"~.	c #E44B1C",
"{.	c #DB4619",
"].	c #C13D14",
"^.	c #F0D7D0",
"/.	c #FFE3DA",
"(.	c #FF7041",
"_.	c #FF673A",
":.	c #F56035",
"<.	c #E7582F",
"[.	c #F6C6B7",
"}.	c #E75B30",
"|.	c #E54B1C",
"1.	c #E44819",
"2.	c #DB4416",
"3.	c #C13B12",
"4.	c #F0D7CF",
"5.	c #FFE3D9",
"6.	c #FF6E3E",
"7.	c #FF6538",
"8.	c #F55E32",
"9.	c #E9643E",
"0.	c #F5BEAD",
"a.	c #E7572C",
"b.	c #E44717",
"c.	c #DB4314",
"d.	c #C13A0F",
"e.	c #FFE2D9",
"f.	c #FF6B3C",
"g.	c #FF6335",
"h.	c #F55C30",
"i.	c #F7C9BB",
"j.	c #F6C4B4",
"k.	c #E44514",
"l.	c #DB4112",
"m.	c #C1380D",
"n.	c #F0D6CE",
"o.	c #FFE2D8",
"p.	c #FF6938",
"q.	c #FF6132",
"r.	c #F55A2D",
"s.	c #E44412",
"t.	c #DB3F0F",
"u.	c #C1370B",
"v.	c #FFE1D7",
"w.	c #FF6735",
"x.	c #FD5E2F",
"y.	c #F05629",
"z.	c #E55124",
"A.	c #E34E21",
"B.	c #E44A1C",
"C.	c #E44617",
"D.	c #E0410F",
"E.	c #D73C0B",
"F.	c #BF3408",
"G.	c #FFE0D6",
"H.	c #FE6231",
"I.	c #F5592A",
"J.	c #E65124",
"K.	c #DB4B20",
"L.	c #D8481D",
"M.	c #D7461B",
"N.	c #D74519",
"O.	c #D74316",
"P.	c #D74114",
"Q.	c #D74011",
"R.	c #D73E0F",
"S.	c #D43C0B",
"T.	c #CA3709",
"U.	c #B43006",
"V.	c #EED5CD",
"W.	c #F49376",
"X.	c #DB4D23",
"Y.	c #CB461F",
"Z.	c #BD3F19",
"`.	c #B63C17",
" +	c #B53A15",
".+	c #B53913",
"++	c #B53710",
"@+	c #B5360E",
"#+	c #B5340C",
"$+	c #B5330A",
"%+	c #B43108",
"&+	c #AE2E06",
"*+	c #C5775F",
"=+	c #F7EEEB",
"-+	c #FCF1ED",
";+	c #F5DAD2",
">+	c #F2D9D2",
",+	c #EFD8D1",
"'+	c #EDD7D0",
")+	c #EDD6CF",
"!+	c #EDD6CE",
"~+	c #EDD5CE",
"{+	c #EDD5CD",
"]+	c #ECD4CD",
"  . + @ # $ % & * = - ; > , '   ",
") ! ~ { ] ^ / ( _ : < [ } | 1 2 ",
"@ 3 4 5 6 7 8 9 0 a b c d e f g ",
"h i j k l m n o p q r s t u v w ",
"x y z A B C D E F G H B I J K L ",
"M N O P C Q R S T U Q V W X Y Z ",
"`  ...+.@.R Q #.$.Q %.&.*.=.-.Z ",
";.>.,.'.).S #.Q Q V &.!.~.{.].^.",
"/.(._.:.<.T $.Q Q [.}.|.1.2.3.4.",
"5.6.7.8.9.U Q V [.Q 0.a.b.c.d.4.",
"e.f.g.h.i.Q %.&.}.0.Q j.k.l.m.n.",
"o.p.q.r.B V &.!.|.a.j.Q s.t.u.n.",
"v.w.x.y.z.A.*.B.1.C.k.s.D.E.F.n.",
"G.H.I.J.K.L.M.N.O.P.Q.R.S.T.U.V.",
"2 W.X.Y.Z.`. +.+++@+#+$+%+&+*+=+",
"  -+;+>+,+'+'+)+)+!+~+~+{+]+=+  "};
