/* XPM */
static char * maximize_active_xpm[] = {
"16 16 204 2",
"  	c None",
". 	c #F5FCFF",
"+ 	c #E4F4FF",
"@ 	c #E1F1FF",
"# 	c #E0F0FF",
"$ 	c #E0EFFF",
"% 	c #DFEFFF",
"& 	c #DFEEFF",
"* 	c #DEEDFF",
"= 	c #DDEDFF",
"- 	c #DDECFF",
"; 	c #DCEBFF",
"> 	c #DBEAFF",
", 	c #F0F6FF",
"' 	c #F4FBFF",
") 	c #A8DCFF",
"! 	c #70BEFF",
"~ 	c #65AEFF",
"{ 	c #60A7FF",
"] 	c #5EA5FF",
"^ 	c #5BA3FF",
"/ 	c #59A1FF",
"( 	c #569EFF",
"_ 	c #549BFF",
": 	c #5199FF",
"< 	c #4F97FF",
"[ 	c #4C94FF",
"} 	c #488EFF",
"| 	c #85AEFB",
"1 	c #EFF4FE",
"2 	c #68B1FF",
"3 	c #5EA2FF",
"4 	c #5697FF",
"5 	c #5291FF",
"6 	c #4F8FFF",
"7 	c #4E8DFF",
"8 	c #4B8AFF",
"9 	c #4988FF",
"0 	c #4786FF",
"a 	c #4584FF",
"b 	c #4382FF",
"c 	c #3F7FFD",
"d 	c #3C79F7",
"e 	c #366EE6",
"f 	c #D6E1F8",
"g 	c #DEEBFF",
"h 	c #599AFF",
"i 	c #5392FF",
"j 	c #4F8CFF",
"k 	c #4A85FE",
"l 	c #4781FB",
"m 	c #457FF8",
"n 	c #437DF7",
"o 	c #417BF5",
"p 	c #3F79F4",
"q 	c #3D77F3",
"r 	c #3B75F0",
"s 	c #3871EC",
"t 	c #356CE2",
"u 	c #2F61CD",
"v 	c #D5DEF3",
"w 	c #DDEAFF",
"x 	c #5492FF",
"y 	c #4D88FF",
"z 	c #4882FC",
"A 	c #FFFFFF",
"B 	c #3267D9",
"C 	c #2F63D1",
"D 	c #2957BB",
"E 	c #D4DCEF",
"F 	c #5190FF",
"G 	c #4A85FF",
"H 	c #457DF6",
"I 	c #FEFEFE",
"J 	c #2F64D4",
"K 	c #2C5FCA",
"L 	c #2652B2",
"M 	c #D3DBED",
"N 	c #DCE9FF",
"O 	c #4F8DFF",
"P 	c #4983FF",
"Q 	c #437AF4",
"R 	c #E7EEFB",
"S 	c #88A8EB",
"T 	c #87A7EA",
"U 	c #86A5E9",
"V 	c #85A4E8",
"W 	c #84A3E7",
"X 	c #83A2E6",
"Y 	c #E5ECF9",
"Z 	c #2D62D2",
"` 	c #2A5CC7",
" .	c #2450AF",
"..	c #4D8BFF",
"+.	c #4681FD",
"@.	c #4179F2",
"#.	c #D7E2F8",
"$.	c #386DDD",
"%.	c #376BDC",
"&.	c #3569DA",
"*.	c #3367D8",
"=.	c #3166D6",
"-.	c #3064D5",
";.	c #D5DFF6",
">.	c #2C60D0",
",.	c #285AC6",
"'.	c #234EAD",
").	c #D2DBEC",
"!.	c #DCE8FF",
"~.	c #4B89FF",
"{.	c #447FFC",
"].	c #3F77EF",
"^.	c #366BDB",
"/.	c #2E62D3",
"(.	c #D4DFF5",
"_.	c #295ECE",
":.	c #2658C4",
"<.	c #204DAC",
"[.	c #D2DAEC",
"}.	c #DBE8FF",
"|.	c #4987FF",
"1.	c #427DFB",
"2.	c #3D75EE",
"3.	c #D7E1F8",
"4.	c #2C60D1",
"5.	c #D4DEF5",
"6.	c #285CCC",
"7.	c #2557C2",
"8.	c #1F4CAA",
"9.	c #DBE7FF",
"0.	c #4685FF",
"a.	c #407BF9",
"b.	c #3B73EC",
"c.	c #D6E1F7",
"d.	c #2A5ECF",
"e.	c #D3DEF4",
"f.	c #265BCA",
"g.	c #2355C1",
"h.	c #1E4AA9",
"i.	c #DAE7FF",
"j.	c #4583FE",
"k.	c #3F79F8",
"l.	c #3971E9",
"m.	c #F7F9FD",
"n.	c #D5E0F6",
"o.	c #F5F8FC",
"p.	c #2459C8",
"q.	c #2254BF",
"r.	c #1D49A8",
"s.	c #D1DAEB",
"t.	c #DAE6FF",
"u.	c #4280FD",
"v.	c #3B76F3",
"w.	c #366DE3",
"x.	c #3266D6",
"y.	c #2F63D3",
"z.	c #2D62D1",
"A.	c #295ECD",
"B.	c #2255C3",
"C.	c #1F50B9",
"D.	c #1B47A4",
"E.	c #D1D9EB",
"F.	c #D9E5FE",
"G.	c #3E7AF8",
"H.	c #376FE9",
"I.	c #3266D7",
"J.	c #2E60CB",
"K.	c #2B5DC6",
"L.	c #295BC4",
"M.	c #2859C2",
"N.	c #2657C0",
"O.	c #2456BF",
"P.	c #2254BD",
"Q.	c #2153BC",
"R.	c #1F4FB7",
"S.	c #1C4BAD",
"T.	c #184199",
"U.	c #D0D8E9",
"V.	c #7FA2ED",
"W.	c #3062CD",
"X.	c #2B59BD",
"Y.	c #2651AE",
"Z.	c #234DA7",
"`.	c #214BA4",
" +	c #204AA2",
".+	c #1E48A0",
"++	c #1D479F",
"@+	c #1C459E",
"#+	c #1B449D",
"$+	c #19429A",
"%+	c #163F94",
"&+	c #6981B5",
"*+	c #ECEFF5",
"=+	c #EEF2FB",
"-+	c #D5DEF2",
";+	c #D4DDEF",
">+	c #D3DBEC",
",+	c #D2DAEA",
"'+	c #D2D9EA",
")+	c #D2D9E9",
"!+	c #D1D9E9",
"~+	c #D1D8E9",
"{+	c #D1D8E8",
"]+	c #D0D8E7",
"  . + @ # $ % & * * = - ; > ,   ",
"' ) ! ~ { ] ^ / ( _ : < [ } | 1 ",
"@ 2 3 4 5 6 7 8 9 0 a b c d e f ",
"g h i j k l m n o p q r s t u v ",
"w x y z A A A A A A A A B C D E ",
"w F G H A I I I I I I I J K L M ",
"N O P Q R S T U V W X Y Z `  .M ",
"N ..+.@.#.$.%.&.*.=.-.;.>.,.'.).",
"!.~.{.].#.^.&.*.=.J /.(._.:.<.[.",
"}.|.1.2.3.&.*.=.J /.4.5.6.7.8.[.",
"9.0.a.b.c.*.=.-./.4.d.e.f.g.h.[.",
"i.j.k.l.m.n.;.;.(.5.e.o.p.q.r.s.",
"t.u.v.w.x.y.z.>.A.6.f.p.B.C.D.E.",
"F.G.H.I.J.K.L.M.N.O.P.Q.R.S.T.U.",
"1 V.W.X.Y.Z.`. +.+++@+#+$+%+&+*+",
"  =+-+;+>+,+,+'+)+!+!+~+{+]+*+  "};
