/* XPM */
static char * menu_pressed_xpm[] = {
"16 16 148 2",
"  	c None",
". 	c #ECEFF6",
"+ 	c #D1D9EA",
"@ 	c #D1D9EB",
"# 	c #D1DAEB",
"$ 	c #D2DAEC",
"% 	c #D2DBEC",
"& 	c #D3DBED",
"* 	c #D3DCED",
"= 	c #D4DCEE",
"- 	c #D4DCED",
"; 	c #EEF1F8",
"> 	c #6A84BA",
", 	c #184199",
"' 	c #1A449E",
") 	c #1B45A0",
"! 	c #1C47A1",
"~ 	c #1E48A2",
"{ 	c #1F49A4",
"] 	c #214BA5",
"^ 	c #224CA7",
"/ 	c #234EA8",
"( 	c #254FAA",
"_ 	c #2751AB",
": 	c #2852AB",
"< 	c #7691CB",
"[ 	c #EEF2F9",
"} 	c #18429A",
"| 	c #1A45A1",
"1 	c #1B46A2",
"2 	c #1D48A4",
"3 	c #1E49A5",
"4 	c #1F4BA7",
"5 	c #214CA8",
"6 	c #234EAA",
"7 	c #244FAC",
"8 	c #2651AD",
"9 	c #2752AE",
"0 	c #2954B0",
"a 	c #2A55B1",
"b 	c #2D59B8",
"c 	c #D5DEF2",
"d 	c #1A449F",
"e 	c #6784C3",
"f 	c #6886C4",
"g 	c #2C57B3",
"h 	c #305CBD",
"i 	c #D6DFF3",
"j 	c #D1DAEC",
"k 	c #1B46A0",
"l 	c #7994CB",
"m 	c #FFFFFF",
"n 	c #738ECA",
"o 	c #2852AF",
"p 	c #2C56B3",
"q 	c #2D58B5",
"r 	c #315FBF",
"s 	c #D6E0F3",
"t 	c #1C47A2",
"u 	c #214DA9",
"v 	c #7B94CC",
"w 	c #6C89C8",
"x 	c #2E5AB6",
"y 	c #3360C1",
"z 	c #D7E0F4",
"A 	c #1E49A3",
"B 	c #7B95CD",
"C 	c #EEF1F9",
"D 	c #7792CD",
"E 	c #2D58B4",
"F 	c #305BB7",
"G 	c #3461C2",
"H 	c #D2DBED",
"I 	c #1F4AA5",
"J 	c #7C96CD",
"K 	c #708ECC",
"L 	c #325DB9",
"M 	c #3663C4",
"N 	c #214CA6",
"O 	c #7E97CF",
"P 	c #F7F8FC",
"Q 	c #D5DEF0",
"R 	c #D6DEF1",
"S 	c #5175C3",
"T 	c #315CB9",
"U 	c #335EBB",
"V 	c #3865C5",
"W 	c #D8E1F5",
"X 	c #224DA8",
"Y 	c #7E98CF",
"Z 	c #BCC9E7",
"` 	c #E6EBF6",
" .	c #6081C7",
"..	c #3560BC",
"+.	c #3966C6",
"@.	c #244EA9",
"#.	c #7F99D0",
"$.	c #B3C3E4",
"%.	c #3E65BA",
"&.	c #ACBEE3",
"*.	c #335EBA",
"=.	c #355FBC",
"-.	c #3661BD",
";.	c #3A68C8",
">.	c #D3DCEE",
",.	c #2650AB",
"'.	c #3C64B9",
").	c #7B96D1",
"!.	c #EFF2F9",
"~.	c #7492D0",
"{.	c #3863BF",
"].	c #3C69C8",
"^.	c #D9E2F5",
"/.	c #2752AC",
"(.	c #5276C4",
"_.	c #D6DFF1",
":.	c #7692D2",
"<.	c #3762BE",
"[.	c #3964C1",
"}.	c #3E6BCA",
"|.	c #D4DCEF",
"1.	c #2954AF",
"2.	c #2A56B2",
"3.	c #305BB8",
"4.	c #3C68C6",
"5.	c #4372CE",
"6.	c #DAE4F6",
"7.	c #7894D1",
"8.	c #2F5CBE",
"9.	c #315FC1",
"0.	c #3361C2",
"a.	c #3462C3",
"b.	c #3564C5",
"c.	c #3765C6",
"d.	c #3967C7",
"e.	c #3A69C8",
"f.	c #3C6AC8",
"g.	c #3E6CC9",
"h.	c #406ECB",
"i.	c #4474CF",
"j.	c #8AAAE1",
"k.	c #F0F5FB",
"l.	c #EEF2FA",
"m.	c #D6E0F4",
"n.	c #D7E1F5",
"o.	c #D8E2F5",
"p.	c #D9E3F6",
"q.	c #F1F5FB",
"  . + @ # $ $ $ % & & * = - ;   ",
". > , ' ) ! ~ { ] ^ / ( _ : < [ ",
"+ } | 1 2 3 4 5 6 7 8 9 0 a b c ",
"@ d 1 2 3 e f 6 7 8 9 0 a g h i ",
"j k 2 3 4 l m n 8 o 0 a p q r s ",
"$ t 3 4 u v m m w 0 a p q x y z ",
"$ A 4 5 6 B m m C D p E x F G z ",
"H I 5 6 7 J m m m C K x F L M z ",
"H N 6 7 8 O m m P Q R S T U V W ",
"& X 7 8 o Y m Z `  .F T U ..+.W ",
"& @.8 9 0 #.$.%.m &.T *.=.-.;.W ",
">.,.9 0 a '.%.x ).!.~.=.-.{.].^.",
"= /.0 a p q x F (._.:.-.<.[.}.^.",
"|.1.2.g q x 3.L U ..-.{.[.4.5.6.",
"C 7.8.9.0.a.b.c.d.e.f.g.h.i.j.k.",
"  l.i m.z n.n.W o.o.^.p.p.6.q.  "};
