/* XPM */
static char * shade_pressed_xpm[] = {
"20 20 127 2",
"  	c None",
". 	c #FFFFFF",
"+ 	c #0543D3",
"@ 	c #0846D3",
"# 	c #0B4AD3",
"$ 	c #0F4DD4",
"% 	c #1351D4",
"& 	c #1755D4",
"* 	c #1B59D4",
"= 	c #205CD5",
"- 	c #2460D5",
"; 	c #2965D5",
"> 	c #2E68D6",
", 	c #336DD7",
"' 	c #3973DC",
") 	c #0544D6",
"! 	c #0547DA",
"~ 	c #0547DC",
"{ 	c #0548DC",
"] 	c #084ADC",
"^ 	c #0C4EDC",
"/ 	c #0F51DC",
"( 	c #1355DD",
"_ 	c #1759DD",
": 	c #1C5DDD",
"< 	c #2061DE",
"[ 	c #2565DE",
"} 	c #2969DE",
"| 	c #2F6DDF",
"1 	c #3471DF",
"2 	c #3975E0",
"3 	c #3F7BE3",
"4 	c #4584EB",
"5 	c #0545D6",
"6 	c #3E7AE2",
"7 	c #4581E6",
"8 	c #4A88EC",
"9 	c #447EE2",
"0 	c #4A85E6",
"a 	c #508CEC",
"b 	c #4A83E2",
"c 	c #4F89E6",
"d 	c #5690EC",
"e 	c #0847D6",
"f 	c #0C4EDD",
"g 	c #0F52DE",
"h 	c #1356DE",
"i 	c #175ADF",
"j 	c #1C5EDF",
"k 	c #2062E0",
"l 	c #2566E0",
"m 	c #296AE0",
"n 	c #2F6EE1",
"o 	c #3472E1",
"p 	c #3976E1",
"q 	c #4F87E3",
"r 	c #558DE7",
"s 	c #5B94EC",
"t 	c #0B4BD6",
"u 	c #0F51DD",
"v 	c #1759DF",
"w 	c #558BE3",
"x 	c #5B91E7",
"y 	c #6199EC",
"z 	c #0F4FD6",
"A 	c #1B5EDF",
"B 	c #3372E1",
"C 	c #5A90E3",
"D 	c #6195E7",
"E 	c #679CEC",
"F 	c #1353D7",
"G 	c #6093E3",
"H 	c #6799E7",
"I 	c #6DA0EC",
"J 	c #1756D7",
"K 	c #1C5DDE",
"L 	c #2A6AE0",
"M 	c #6193E3",
"N 	c #6698E3",
"O 	c #6D9DE8",
"P 	c #74A4EC",
"Q 	c #1B5AD7",
"R 	c #6C9CE4",
"S 	c #73A2E8",
"T 	c #7AA8EC",
"U 	c #205ED8",
"V 	c #72A0E5",
"W 	c #79A5E8",
"X 	c #7DAAEC",
"Y 	c #2462D8",
"Z 	c #2969DF",
"` 	c #79A4E5",
" .	c #7BA7E9",
"..	c #2966D9",
"+.	c #2F6EDF",
"@.	c #7BA5E5",
"#.	c #2F6AD9",
"$.	c #336EDA",
"%.	c #4A83E3",
"&.	c #6094E3",
"*.	c #7BA6E6",
"=.	c #7BA8E9",
"-.	c #3975DF",
";.	c #3F7DE6",
">.	c #4582E8",
",.	c #4A86E9",
"'.	c #508AE9",
").	c #558EE9",
"!.	c #5B92E9",
"~.	c #6196E9",
"{.	c #679BE9",
"].	c #6D9EEA",
"^.	c #73A3EA",
"/.	c #79A7EA",
"(.	c #7BA8EA",
"_.	c #7CA9EB",
":.	c #4586EC",
"<.	c #4B8AEC",
"[.	c #508EEC",
"}.	c #5693EC",
"|.	c #5B97EC",
"1.	c #629BEC",
"2.	c #689FEC",
"3.	c #6EA3EC",
"4.	c #74A7EC",
"5.	c #7AAAEC",
"6.	c #7DACEC",
"    . . . . . . . . . . . . . . . .     ",
"  . + + + + @ # $ % & * = - ; > , ' .   ",
". ) ! ~ { ] ^ / ( _ : < [ } | 1 2 3 4 . ",
". 5 ~ . . . . . . . . . . . . . 6 7 8 . ",
". 5 { . . . . . . . . . . . . . 9 0 a . ",
". 5 ] . . . . . . . . . . . . . b c d . ",
". e f g h i j k l m n o p 6 9 b q r s . ",
". t u h v j k l m n o p 6 9 b q w x y . ",
". z ( v A k l m n B p 6 9 b q w C D E . ",
". F _ A k l m n B p 6 9 b q w C G H I . ",
". J K k l L n o p 6 9 b q w C M N O P . ",
". Q < l m n o p 6 9 b q w C G N R S T . ",
". U [ m n o p 6 9 b q w C G N R V W X . ",
". Y Z n B p 6 9 b q w C G N R V `  .X . ",
". ..+.B p 6 9 b q w C G N R V ` @. .X . ",
". #.1 p 6 9 b q w C M N R V ` @.@. .X . ",
". $.p 6 9 %.q w C &.N R V ` @.@.*.=.X . ",
". -.;.>.,.'.).!.~.{.].^./.(.(.(.(._.X . ",
"  . :.<.[.}.|.1.2.3.4.5.6.6.6.6.6.6..   ",
"    . . . . . . . . . . . . . . . .     "};
