/* XPM */
static char * stick_active_xpm[] = {
"20 20 119 2",
"  	c None",
". 	c #FFFFFF",
"+ 	c #5C9BFF",
"@ 	c #5591FF",
"# 	c #528DFE",
"$ 	c #508BFE",
"% 	c #4F89FD",
"& 	c #4D88FD",
"* 	c #4B86FC",
"= 	c #4A85FC",
"- 	c #4883FB",
"; 	c #4781FB",
"> 	c #4580FA",
", 	c #437EF9",
"' 	c #427DF7",
") 	c #407BF6",
"! 	c #3E78F4",
"~ 	c #3A73EC",
"{ 	c #5A98FF",
"] 	c #5189FD",
"^ 	c #4B80F4",
"/ 	c #477CED",
"( 	c #467AEC",
"_ 	c #4479EA",
": 	c #4377E9",
"< 	c #4276E8",
"[ 	c #4074E6",
"} 	c #3F73E5",
"| 	c #3D72E3",
"1 	c #3C70E2",
"2 	c #3A6FE0",
"3 	c #396DDF",
"4 	c #376CDD",
"5 	c #366ADC",
"6 	c #356ADD",
"7 	c #3366D6",
"8 	c #538DFF",
"9 	c #4A80F4",
"0 	c #477BEC",
"a 	c #457AEA",
"b 	c #4478E9",
"c 	c #4277E7",
"d 	c #4175E6",
"e 	c #4074E5",
"f 	c #3E72E3",
"g 	c #3D71E2",
"h 	c #3B70E0",
"i 	c #3A6EDF",
"j 	c #386DDD",
"k 	c #376BDC",
"l 	c #356ADA",
"m 	c #3468D9",
"n 	c #3367D8",
"o 	c #3164D3",
"p 	c #4F87FD",
"q 	c #3166D6",
"r 	c #2F62D0",
"s 	c #4D86FC",
"t 	c #467AEB",
"u 	c #3064D5",
"v 	c #2E61CE",
"w 	c #4B84FB",
"x 	c #2E63D3",
"y 	c #2C5FCD",
"z 	c #4A82FA",
"A 	c #4377E8",
"B 	c #2D61D2",
"C 	c #2B5ECC",
"D 	c #4881F9",
"E 	c #4276E7",
"F 	c #2B60D0",
"G 	c #295CCA",
"H 	c #477FF8",
"I 	c #2A5ECF",
"J 	c #285BC9",
"K 	c #457DF7",
"L 	c #3F73E4",
"M 	c #285DCD",
"N 	c #265AC7",
"O 	c #447CF6",
"P 	c #275CCC",
"Q 	c #2558C6",
"R 	c #427BF4",
"S 	c #3C70E1",
"T 	c #255ACA",
"U 	c #2457C5",
"V 	c #4079F3",
"W 	c #2459C9",
"X 	c #2255C3",
"Y 	c #3F78F1",
"Z 	c #396DDE",
"` 	c #2357C8",
" .	c #2154C2",
"..	c #3D76F0",
"+.	c #2156C6",
"@.	c #1F53C0",
"#.	c #3B73EC",
"$.	c #356ADB",
"%.	c #2055C5",
"&.	c #1E51BD",
"*.	c #376CDE",
"=.	c #3469D9",
"-.	c #1E53C2",
";.	c #1B4BB1",
">.	c #3061CB",
",.	c #3062CE",
"'.	c #2D60CC",
").	c #2B5ECB",
"!.	c #2A5DC9",
"~.	c #285BC8",
"{.	c #275AC7",
"].	c #2659C5",
"^.	c #2457C4",
"/.	c #2456C3",
"(.	c #2255C1",
"_.	c #2153C0",
":.	c #1F52BE",
"<.	c #1D50BB",
"[.	c #1A4AAF",
"  . . . . . . . . . . . . . . . . . .   ",
". . + @ # $ % & * = - ; > , ' ) ! ~ . . ",
". { ] ^ / ( _ : < [ } | 1 2 3 4 5 6 7 . ",
". 8 9 0 a b c d e f g h i j k l m n o . ",
". p / a b c d e f g h i j k l m n q r . ",
". s t b c d e f g h i j k l m n q u v . ",
". w _ c d e f g h i j k l m n q u x y . ",
". z A d e f g h i . k l . . . u x B C . ",
". D E e f g h i j . . . . . . x B F G . ",
". H [ f g . . . . . . . . . . B F I J . ",
". K L g h . . . . . . . . . . F I M N . ",
". O | h i j k l m . . . . . . I M P Q . ",
". R S i j k l m n . u x . . . M P T U . ",
". V 2 j k l m n q u x B F I M P T W X . ",
". Y Z k l m n q u x B F I M P T W `  .. ",
". ..4 l m n q u x B F I M P T W ` +.@.. ",
". #.$.m n q u x B F I M P T W ` +.%.&.. ",
". *.=.n q u x B F I M P T W ` +.%.-.;.. ",
". . >.,.v '.).!.~.{.].^./.(._.:.<.[.. . ",
"  . . . . . . . . . . . . . . . . . .   "};
