/* XPM */
static char * title_5_inactive_xpm[] = {
"5 24 18 1",
" 	c None",
".	c #86B5ED",
"+	c #8BCFFE",
"@	c #8AC9FE",
"#	c #88C3FE",
"$	c #88C0FE",
"%	c #88BFFE",
"&	c #88BFFD",
"*	c #88BFFC",
"=	c #88BFFA",
"-	c #88BFF8",
";	c #88BFF6",
">	c #88BFF4",
",	c #88BEF2",
"'	c #88B9EE",
")	c #88B6EA",
"!	c #88B0E9",
"~	c #86ACE7",
".....",
"+++++",
"@@@@@",
"#####",
"$$$$$",
"%%%%%",
"%%%%%",
"%%%%%",
"%%%%%",
"%%%%%",
"%%%%%",
"%%%%%",
"%%%%%",
"&&&&&",
"*****",
"=====",
"-----",
";;;;;",
">>>>>",
",,,,,",
"'''''",
")))))",
"!!!!!",
"~~~~~"};
