/* XPM */
static char * top_left_active_xpm[] = {
"10 24 71 1",
" 	c None",
".	c #0B4FBB",
"+	c #0B4EBB",
"@	c #0B4DBB",
"#	c #0F69EB",
"$	c #1282FE",
"%	c #1280FE",
"&	c #127CFE",
"*	c #1278FE",
"=	c #0E5DE1",
"-	c #127FFE",
";	c #127DFE",
">	c #1279FE",
",	c #1275FE",
"'	c #1271FE",
")	c #126FFE",
"!	c #106FFD",
"~	c #0E5AE0",
"{	c #1171F5",
"]	c #127EFE",
"^	c #1274FE",
"/	c #0F6BFE",
"(	c #0F68FD",
"_	c #0F64FA",
":	c #0E64F7",
"<	c #0E5BE4",
"[	c #127AFE",
"}	c #1273FE",
"|	c #116EFE",
"1	c #0F66FD",
"2	c #0E62F9",
"3	c #0E62F5",
"4	c #0E5FF2",
"5	c #0E5FEF",
"6	c #0C53D0",
"7	c #106FFE",
"8	c #0E68FE",
"9	c #0E62F8",
"0	c #0E5EF0",
"a	c #0E5EEE",
"b	c #0A4CBE",
"c	c #0E6AFE",
"d	c #116DFE",
"e	c #0E64FC",
"f	c #0E60F4",
"g	c #0A4ABA",
"h	c #0E66FE",
"i	c #0E61F6",
"j	c #0E5EEF",
"k	c #0E5FF3",
"l	c #0E5EF2",
"m	c #0E5EEA",
"n	c #0E5EE7",
"o	c #0E5EE3",
"p	c #0E5EE0",
"q	c #0E5EDD",
"r	c #0E5EDA",
"s	c #0E5ED6",
"t	c #0E5ED3",
"u	c #0E5ECF",
"v	c #0E5ECC",
"w	c #0E5EC8",
"x	c #0E5DC3",
"y	c #0E5DC2",
"z	c #0E56BE",
"A	c #0E56BA",
"B	c #0E51B7",
"C	c #0E4FB3",
"D	c #0E4AB0",
"E	c #0E48AC",
"F	c #0B43A7",
"    ..+@@@",
"  ##$%&***",
" =%-;>,')!",
"~{]*^)/(_:",
"<*[}|12345",
"67}7890aaa",
"bcd8efaaaa",
"gc/hijaaaa",
"gcchkaaaaa",
"gcchlaaaaa",
"gcchlaaaaa",
"gcchlaaaaa",
"gcchlaaaaa",
"gcchammmmm",
"gcchnooooo",
"gcchpqqqqq",
"gcchrsssss",
"gcchtuuuuu",
"gcchvwwwww",
"gcchxyyyyy",
"gcchzAAAAA",
"gcchBCCCCC",
"gcchDEEEEE",
"gcchFFFFFF"};
