/* XPM */
static char * top_right_inactive_xpm[] = {
"10 30 29 1",
" 	c None",
".	c #85AEE9",
"+	c #85ABE7",
"@	c #85A8E1",
"#	c #8BD0FE",
"$	c #8BCDFE",
"%	c #8BCBFE",
"&	c #88C8FE",
"*	c #88C5FE",
"=	c #829AC5",
"-	c #88C2FE",
";	c #88BFFE",
">	c #88B9F7",
",	c #88BCFC",
"'	c #88BFFC",
")	c #88B9F9",
"!	c #8297BF",
"~	c #8294B7",
"{	c #8291AE",
"]	c #88B7F7",
"^	c #8291AB",
"/	c #88BFF9",
"(	c #88BFF7",
"_	c #88BFF4",
":	c #88BFF1",
"<	c #88B9EF",
"[	c #88B7EC",
"}	c #88B4E9",
"|	c #88AEE9",
"....+@    ",
"####$$@@  ",
"$$$$%&**= ",
"&&&*****= ",
"-------;>=",
";;;;;;;,>=",
";;;;;;',)!",
";;;;;;;')~",
";;;;;;;,>{",
";;;;;;;,]^",
";;;;;;;,]^",
";;;;;;;,]^",
";;;;;;;,]^",
";;;;;;;,]^",
";;;;;;;,]^",
";;;;;;;,]^",
";;;;;;;,]^",
"'''''';,]^",
"'''''';,]^",
"//////;,]^",
"//////;,]^",
"((((((;,]^",
"______;,]^",
"______;,]^",
"::::::;,]^",
"<<<<<<;,]^",
"[[[[[[;,]^",
"}}}}}};,]^",
"||||||;,]^",
"++++++;,]^"};
