/* XPM */
static char * top_left_inactive_xpm[] = {
"10 30 33 1",
" 	c None",
".	c #85A5D9",
"+	c #85ABE4",
"@	c #85ABE7",
"#	c #85AEE9",
"$	c #8BD6FE",
"%	c #8BD3FE",
"&	c #8BD0FE",
"*	c #88BCF9",
"=	c #8BCDFE",
"-	c #8BC8FE",
";	c #88C8FE",
">	c #8BCBFE",
",	c #88C5FE",
"'	c #88C2FE",
")	c #88BFFC",
"!	c #88BFFE",
"~	c #88B9F9",
"{	c #88B4F1",
"]	c #88B1EF",
"^	c #85B1EF",
"/	c #88BFF9",
"(	c #88BFF7",
"_	c #88BFF4",
":	c #88BFF1",
"<	c #88B9F1",
"[	c #88B9EF",
"}	c #88B7EF",
"|	c #88B7EC",
"1	c #88B4EC",
"2	c #88B4E9",
"3	c #88B1E9",
"4	c #88AEE9",
"    .+@@##",
"  ..$$%&&&",
" *$$%%&===",
" *%%&==--;",
"*&&=>-;,''",
")&&=-,''!!",
"~>=>,'!!!!",
"{;>;,'!!!!",
"],-,'!!!!!",
"^,;,'!!!!!",
"^,;,!!!!!!",
"^,;,!!!!!!",
"^,;,!!!!!!",
"^,;,!!!!!!",
"^,;,!!!!!!",
"^,;,!!!!!!",
"^,;,!!!!!!",
"^,;,))))))",
"^,;,))))))",
"^,;,//////",
"^,;,//////",
"^,;,((((((",
"^,;,(_____",
"^,;,______",
"^,;,::::::",
"^,;,<[[[[[",
"^,;,}|||||",
"^,;,122222",
"^,;,344444",
"^,;,@@@@@@"};
