/* XPM */
static char * stick_inactive_xpm[] = {
"12 18 6 1",
" 	c None",
".	c #000000",
"+	c #FFFFFF s inactive_hilight_2",
"@	c #7C7976 s inactive_color_2",
"#	c #B3B3B3 s inactive_text_color",
"$	c #373534 s inactive_shadow_2",
"............",
"@@@@@@@@@@@@",
"@@@@@@@@@@@@",
"@@@@@@@@@@@@",
"@@@@@@@@@@@@",
"@@@@@@@@@@@@",
"@@@@@@#@@#@@",
"@@@@@@####@@",
"@@########@@",
"@@########@@",
"@@@@@@####@@",
"@@@@@@#@@#@@",
"@@@@@@@@@@@@",
"@@@@@@@@@@@@",
"@@@@@@@@@@@@",
"@@@@@@@@@@@@",
"@@@@@@@@@@@@",
"@@@@@@@@@@@@"};
