/* XPM */
static char * close_inactive_xpm[] = {
"20 26 283 2",
"       c None",
".      c #D7D7D7",
"+      c #000000",
"@      c #969696",
"#      c #D6D6D6",
"$      c #0D0D0D",
"%      c #343434",
"&      c #5F5F5F",
"*      c #858585",
"=      c #929292",
"-      c #8D8D8D",
";      c #777777",
">      c #565656",
",      c #323232",
"'      c #161616",
")      c #050505",
"!      c #494D59",
"~      c #4A4E5A",
"{      c #696C76",
"]      c #9B9DA4",
"^      c #C3C4C8",
"/      c #C4C5C6",
"(      c #AAAAAB",
"_      c #919292",
":      c #878888",
"<      c #8A8B8C",
"[      c #929397",
"}      c #8C8F95",
"|      c #787B83",
"1      c #61656F",
"2      c #505460",
"3      c #515961",
"4      c #545C64",
"5      c #7B8187",
"6      c #B6B9BD",
"7      c #CACBCC",
"8      c #90908D",
"9      c #4D4D46",
"0      c #39392F",
"a      c #3D3D32",
"b      c #3E3E31",
"c      c #37372B",
"d      c #2F2F2A",
"e      c #48494A",
"f      c #737679",
"g      c #70767C",
"h      c #636A71",
"i      c #575E66",
"j      c #70737C",
"k      c #B4B5BA",
"l      c #B9B9BA",
"m      c #5A5A55",
"n      c #39392E",
"o      c #818177",
"p      c #C3C3B9",
"q      c #E9E9D1",
"r      c #F0F0C4",
"s      c #DCDC9D",
"t      c #ACAB67",
"u      c #595732",
"v      c #1D1E1B",
"w      c #47484B",
"x      c #555962",
"y      c #4E525E",
"z      c #4B4F5A",
"A      c #656C73",
"B      c #A5A9AD",
"C      c #B9BABA",
"D      c #4F4F4A",
"E      c #4F4F43",
"F      c #D2D2CB",
"G      c #FFFFFF",
"H      c #FFFFEB",
"I      c #FFFFD1",
"J      c #FFFFB0",
"K      c #FFFF8D",
"L      c #FAF365",
"M      c #9B9337",
"N      c #202016",
"O      c #2E3232",
"P      c #515960",
"Q      c #7F828A",
"R      c #B3B4B8",
"S      c #646461",
"T      c #434336",
"U      c #E3E3D0",
"V      c #FFFFF8",
"W      c #FFFFF3",
"X      c #FFFFE2",
"Y      c #FFFFC5",
"Z      c #FFFF9C",
"`      c #FFF770",
" .     c #FFF34B",
"..     c #FFF32A",
"+.     c #9E9024",
"@.     c #171918",
"#.     c #33363B",
"$.     c #484C58",
"%.     c #5D646C",
"&.     c #9A9EA3",
"*.     c #959797",
"=.     c #2D2D25",
"-.     c #B4B492",
";.     c #FFFFEA",
">.     c #FFFFE8",
",.     c #FFFFED",
"'.     c #FFFFD8",
").     c #FFFFB6",
"!.     c #FFFC86",
"~.     c #FFE92A",
"{.     c #FFE418",
"].     c #FCDB1B",
"^.     c #5E5623",
"/.     c #1D2123",
"(.     c #484F56",
"_.     c #505860",
":.     c #62656F",
"<.     c #9A9CA2",
"[.     c #636363",
"}.     c #4A4A35",
"|.     c #F9F9B9",
"1.     c #FFFFCD",
"2.     c #FFFFD3",
"3.     c #FFFFA0",
"4.     c #FFD818",
"5.     c #FFDB18",
"6.     c #B39522",
"7.     c #191C1B",
"8.     c #36383F",
"9.     c #464A56",
"0.     c #6E747B",
"a.     c #93979B",
"b.     c #3D3D3D",
"c.     c #7E7D4E",
"d.     c #FFFFA4",
"e.     c #FFFFA8",
"f.     c #FFFFAF",
"g.     c #FFFFB4",
"h.     c #FFD418",
"i.     c #FFCC19",
"j.     c #FFCA18",
"k.     c #E1AE1F",
"l.     c #2F2D1F",
"m.     c #2D3134",
"n.     c #4C545B",
"o.     c #666973",
"p.     c #7F8188",
"q.     c #29292C",
"r.     c #96934B",
"s.     c #FFFF7C",
"t.     c #FFF979",
"u.     c #FFF97A",
"v.     c #FFF878",
"w.     c #FFF76D",
"x.     c #FFCD19",
"y.     c #FFC519",
"z.     c #FFBE19",
"A.     c #FFBB19",
"B.     c #F3B01B",
"C.     c #383420",
"D.     c #232529",
"E.     c #424651",
"F.     c #646B72",
"G.     c #747A7F",
"H.     c #242529",
"I.     c #908A39",
"J.     c #FFFB4D",
"K.     c #FFEE42",
"L.     c #FFED39",
"M.     c #FFE930",
"N.     c #FFB519",
"O.     c #FFB119",
"P.     c #EEA61C",
"Q.     c #363220",
"R.     c #262A2C",
"S.     c #495057",
"T.     c #545863",
"U.     c #5D616B",
"V.     c #282A2E",
"W.     c #686225",
"X.     c #FFEA21",
"Y.     c #FFE31A",
"Z.     c #FFDE17",
"`.     c #FFA819",
" +     c #FFAE18",
".+     c #D19121",
"++     c #26261D",
"@+     c #292B31",
"#+     c #424550",
"$+     c #555D65",
"%+     c #535B63",
"&+     c #34383A",
"*+     c #2F2E1C",
"=+     c #E5C71D",
"-+     c #FFDD18",
";+     c #FFD119",
">+     c #FFCB19",
",+     c #FFB919",
"'+     c #FFAF19",
")+     c #FFA919",
"!+     c #FFB019",
"~+     c #906B24",
"{+     c #151A1B",
"]+     c #373C41",
"^+     c #4A5259",
"/+     c #010101",
"(+     c #010100",
"_+     c #101213",
":+     c #817225",
"<+     c #FFD61A",
"[+     c #FFC919",
"}+     c #FFC019",
"|+     c #FFB819",
"1+     c #FFAE19",
"2+     c #FFAF18",
"3+     c #DF9920",
"4+     c #373321",
"5+     c #090A09",
"6+     c #0A0A08",
"7+     c #21211C",
"8+     c #A88924",
"9+     c #FFC71A",
"0+     c #FFBC18",
"a+     c #FFAA19",
"b+     c #FFB018",
"c+     c #EBA11E",
"d+     c #5C4B24",
"e+     c #0E1010",
"f+     c #040402",
"g+     c #BEBEBE",
"h+     c #BBBBBB",
"i+     c #AAAAA9",
"j+     c #50504E",
"k+     c #22231C",
"l+     c #866C25",
"m+     c #E4A51E",
"n+     c #FFAE1A",
"o+     c #FFB118",
"p+     c #FCAA1C",
"q+     c #C18922",
"r+     c #4F4323",
"s+     c #202423",
"t+     c #6B6B69",
"u+     c #9A9A99",
"v+     c #B4B4B4",
"w+     c #BCBCBC",
"x+     c #B6B6B6",
"y+     c #A3A3A3",
"z+     c #5C5D5B",
"A+     c #1F2222",
"B+     c #373220",
"C+     c #6F5624",
"D+     c #936C23",
"E+     c #9A7022",
"F+     c #866524",
"G+     c #564724",
"H+     c #21231C",
"I+     c #303332",
"J+     c #70706F",
"K+     c #969696",
"L+     c #AFAFAF",
"M+     c #A7A7A6",
"N+     c #818180",
"O+     c #4E4F4E",
"P+     c #2E3131",
"Q+     c #1E2324",
"R+     c #1C2223",
"S+     c #242829",
"T+     c #3A3C3B",
"U+     c #5D5D5C",
"V+     c #848484",
"W+     c #9C9C9C",
"X+     c #B2B2B2",
"Y+     c #BDBDBD",
"Z+     c #ADADAD",
"`+     c #A0A0A0",
" @     c #8E8E8E",
".@     c #7E7E7E",
"+@     c #797979",
"@@     c #808080",
"#@     c #8F8F8F",
"$@     c #9B9B9B",
"%@     c #B8B8B8",
". . . . . . . . . . . . . . . . . . . . ",
"@ @ @ @ @ @ @ @ @ @ @ @ @ @ @ @ @ @ @ @ ",
"+ + + + + + + + + + + + + + + + + + + + ",
"@ @ @ @ @ @ @ @ @ @ @ @ @ @ @ @ @ @ @ @ ",
"# # # # # # # # # # # # # # # # # # # # ",
"# # # # # # # # # # # # # # # # # # # # ",
"+ + + + + + + + + + + + + + + + + + + + ",
"+ + + + + $ % & * = - ; > , ' ) + + + + ",
"! ! ! ~ { ] ^ / ( _ : < [ } | 1 2 ! ! ! ",
"3 3 4 5 6 7 8 9 0 a b c d e f g h i 3 3 ",
"! ! j k l m n o p q r s t u v w x y z ! ",
"3 A B C D E F G G H I J K L M N O P 3 3 ",
"~ Q R S T U G V W X Y Z `  ...+.@.#.$.! ",
"%.&.*.=.-.;.>.,.+ '.).!.+ ~.{.].^./.(._.",
":.<.[.}.|.1.2.+ + + 3.+ + + 4.5.6.7.8.9.",
"0.a.b.c.d.e.f.g.+ + + + + h.i.j.k.l.m.n.",
"o.p.q.r.s.t.u.v.w.+ + + x.y.z.A.B.C.D.E.",
"F.G.H.I.J.K.L.M.+ + + + + N.O.O.P.Q.R.S.",
"T.U.V.W.X.Y.Z.+ + + z.+ + + `. +.+++@+#+",
"$+%+&+*+=+-+;+>++ ,+'+)++ )+)+!+~+{+]+^+",
"/++ (+_+:+<+[+}+|+1+)+)+)+)+2+3+4+5++ + ",
"+ + + 6+7+8+9+0+!+)+)+)+a+b+c+d+e+f++ + ",
"g+g+h+i+j+k+l+m+n+!+o+'+p+q+r+s+t+u+v+g+",
"g+g+w+x+y+z+A+B+C+D+E+F+G+H+I+J+K+L+g+g+",
"g+g+g+h+v+M+N+O+P+Q+R+S+T+U+V+W+X+Y+g+g+",
"g+g+g+g+h+x+Z+`+ @.@+@@@#@$@@ %@g+g+g+g+"};
