/* XPM */
static char * stick_active_xpm[] = {
"20 26 280 2",
"  	c None",
". 	c #000000",
"+ 	c #969696",
"@ 	c #D6D6D6",
"# 	c #0D0D0D",
"$ 	c #343434",
"% 	c #5F5F5F",
"& 	c #858585",
"* 	c #929292",
"= 	c #8D8D8D",
"- 	c #777777",
"; 	c #565656",
"> 	c #323232",
", 	c #161616",
"' 	c #050505",
") 	c #494D59",
"! 	c #4A4E5A",
"~ 	c #696C76",
"{ 	c #9B9DA4",
"] 	c #C3C4C8",
"^ 	c #C4C5C6",
"/ 	c #AAAAAB",
"( 	c #919292",
"_ 	c #878888",
": 	c #8A8B8C",
"< 	c #929397",
"[ 	c #8C8F95",
"} 	c #787B83",
"| 	c #61656F",
"1 	c #505460",
"2 	c #515961",
"3 	c #545C64",
"4 	c #7B8187",
"5 	c #B6B9BD",
"6 	c #CACBCC",
"7 	c #90908E",
"8 	c #4D4D47",
"9 	c #39382F",
"0 	c #3D3D31",
"a 	c #3E3D2F",
"b 	c #37362A",
"c 	c #2F302B",
"d 	c #484A4B",
"e 	c #737679",
"f 	c #70767C",
"g 	c #636A71",
"h 	c #575E66",
"i 	c #70737C",
"j 	c #B4B5BA",
"k 	c #B9B9BA",
"l 	c #5A5A56",
"m 	c #39392D",
"n 	c #817F6D",
"o 	c #C3C0A7",
"p 	c #E9E0BA",
"q 	c #F0E3AD",
"r 	c #DCCD88",
"s 	c #AC9D59",
"t 	c #59522D",
"u 	c #1D1E1B",
"v 	c #47494B",
"w 	c #555962",
"x 	c #4E525E",
"y 	c #4B4F5A",
"z 	c #656C73",
"A 	c #A5A9AD",
"B 	c #B9BABA",
"C 	c #4F504B",
"D 	c #4F4E3F",
"E 	c #D2D0B7",
"F 	c #FFFFEB",
"G 	c #FFFFE6",
"H 	c #FFF9D2",
"I 	c #FFF4B7",
"J 	c #FFEF96",
"K 	c #FFED72",
"L 	c #FADA4D",
"M 	c #9B872B",
"N 	c #202016",
"O 	c #2E3232",
"P 	c #515960",
"Q 	c #7F828A",
"R 	c #B3B4B8",
"S 	c #646462",
"T 	c #434333",
"U 	c #E3DDBB",
"V 	c #FFFFE5",
"W 	c #FFF9DE",
"X 	c #FFF8DA",
"Y 	c #FFF5C9",
"Z 	c #FFEFAC",
"` 	c #FFE783",
" .	c #FFDE58",
"..	c #FFD931",
"+.	c #FFD910",
"@.	c #9E8317",
"#.	c #171918",
"$.	c #33363B",
"%.	c #484C58",
"&.	c #5E666D",
"*.	c #9A9EA3",
"=.	c #959798",
"-.	c #2D2D25",
";.	c #B4AB82",
">.	c #FFFFD0",
",.	c #FFF5CF",
"'.	c #FFF7D4",
").	c #FFF6D1",
"!.	c #FFF2BF",
"~.	c #FFEC9D",
"{.	c #FFE36D",
"].	c #FFD83B",
"^.	c #FFD011",
"/.	c #FFCB00",
"(.	c #FCC203",
"_.	c #5E501E",
":.	c #1D2124",
"<.	c #484F55",
"[.	c #646872",
"}.	c #989AA1",
"|.	c #636363",
"1.	c #4A4731",
"2.	c #F9E8A1",
"3.	c #FFF2B3",
"4.	c #FFF1BA",
"5.	c #FFF3C1",
"6.	c #FFF3BF",
"7.	c #FFE787",
"8.	c #FFDC4F",
"9.	c #FFC800",
"0.	c #FFBF00",
"a.	c #FFC000",
"b.	c #B38513",
"c.	c #191C1B",
"d.	c #34373E",
"e.	c #71777E",
"f.	c #909598",
"g.	c #3D3E3E",
"h.	c #7E7444",
"i.	c #FFEE8A",
"j.	c #FFE98F",
"k.	c #FFEA96",
"l.	c #FFEB9B",
"m.	c #FFEB98",
"n.	c #FFBB00",
"o.	c #FFB300",
"p.	c #FFB000",
"q.	c #E1990A",
"r.	c #2F2C1E",
"s.	c #2A2F32",
"t.	c #4D555D",
"u.	c #686B75",
"v.	c #7D7F86",
"w.	c #292B2D",
"x.	c #96863F",
"y.	c #FFEA62",
"z.	c #FFDF60",
"A.	c #FFE061",
"B.	c #FFAC00",
"C.	c #FFA500",
"D.	c #FFA200",
"E.	c #F39905",
"F.	c #38331F",
"G.	c #212327",
"H.	c #444752",
"I.	c #666D74",
"J.	c #73797E",
"K.	c #24282A",
"L.	c #907E2D",
"M.	c #FFE032",
"N.	c #FFD528",
"O.	c #FFD320",
"P.	c #FF9C00",
"Q.	c #FF9800",
"R.	c #FF9700",
"S.	c #EE8F06",
"T.	c #36311F",
"U.	c #23282A",
"V.	c #4A5259",
"W.	c #565A65",
"X.	c #5D606A",
"Y.	c #282B2F",
"Z.	c #685C1E",
"`.	c #FFD108",
" +	c #FFCA00",
".+	c #FFC500",
"++	c #FFB900",
"@+	c #FF9000",
"#+	c #FF8F00",
"$+	c #FF9300",
"%+	c #D17E0E",
"&+	c #26261D",
"*+	c #27292E",
"=+	c #434752",
"-+	c #535B63",
";+	c #34383A",
">+	c #2F2D1B",
",+	c #E5B108",
"'+	c #FFC300",
")+	c #FFB800",
"!+	c #FFB200",
"~+	c #FFAA00",
"{+	c #FF9600",
"]+	c #906019",
"^+	c #151B1B",
"/+	c #363B3F",
"(+	c #4B535A",
"_+	c #020202",
":+	c #010100",
"<+	c #101314",
"[+	c #81691B",
"}+	c #FFBC01",
"|+	c #FFA700",
"1+	c #FF9F00",
"2+	c #FF9500",
"3+	c #FF9400",
"4+	c #DF840B",
"5+	c #373120",
"6+	c #090B09",
"7+	c #0A0A08",
"8+	c #21211C",
"9+	c #A87C17",
"0+	c #FFAD01",
"a+	c #FF9100",
"b+	c #EB8B08",
"c+	c #5C461F",
"d+	c #0E1210",
"e+	c #040402",
"f+	c #BEBEBE",
"g+	c #BBBBBB",
"h+	c #AAAAA9",
"i+	c #50504E",
"j+	c #22231C",
"k+	c #86611B",
"l+	c #E48F09",
"m+	c #FF9501",
"n+	c #FC9103",
"o+	c #C17811",
"p+	c #4F3F20",
"q+	c #202524",
"r+	c #6B6B69",
"s+	c #9A9A99",
"t+	c #B4B4B4",
"u+	c #BCBCBC",
"v+	c #B6B6B6",
"w+	c #A3A3A3",
"x+	c #5C5D5B",
"y+	c #1F2323",
"z+	c #37311F",
"A+	c #6F4F1D",
"B+	c #936117",
"C+	c #9A6316",
"D+	c #865B1A",
"E+	c #56421F",
"F+	c #21241C",
"G+	c #303332",
"H+	c #70706F",
"I+	c #969696",
"J+	c #AFAFAF",
"K+	c #A7A7A6",
"L+	c #818180",
"M+	c #4E4F4E",
"N+	c #1E2425",
"O+	c #1C2325",
"P+	c #242A2B",
"Q+	c #3A3D3B",
"R+	c #5D5D5C",
"S+	c #848484",
"T+	c #9C9C9C",
"U+	c #B2B2B2",
"V+	c #BDBDBD",
"W+	c #ADADAD",
"X+	c #A0A0A0",
"Y+	c #8E8E8E",
"Z+	c #7E7E7E",
"`+	c #797979",
" @	c #808080",
".@	c #8F8F8F",
"+@	c #9B9B9B",
"@@	c #B8B8B8",
". . . . . . . . . . . . . . . . . . . . ",
". . . . . . . . . . . . . . . . . . . . ",
". . . . . . . . . . . . . . . . . . . . ",
"+ + + + + + + + + + + + + + + + + + + + ",
"@ @ @ @ @ @ @ @ @ @ @ @ @ @ @ @ @ @ @ @ ",
"@ @ @ @ @ @ @ @ @ @ @ @ @ @ @ @ @ @ @ @ ",
". . . . . . . . . . . . . . . . . . . . ",
". . . . . # $ % & * = - ; > , ' . . . . ",
") ) ) ! ~ { ] ^ / ( _ : < [ } | 1 ) ) ) ",
"2 2 3 4 5 6 7 8 9 0 a b c d e f g h 2 2 ",
") ) i j k l m n o p q r s t u v w x y ) ",
"2 z A B C D E F G H I J K L M N O P 2 2 ",
"y Q R S T U V W X Y Z `  ...+.@.#.$.%.) ",
"&.*.=.-.;.>.,.'.).!.~.{.].^./.(._.:.<.2 ",
"[.}.|.1.2.3.4.5.6.. 7.8.. 9.0.a.b.c.d.%.",
"e.f.g.h.i.j.k.l.m.. . . . n.o.p.q.r.s.t.",
"u.v.w.x.y.z.A.. . . . . . B.C.D.E.F.G.H.",
"I.J.K.L.M.N.O.. . . . . . P.Q.R.S.T.U.V.",
"W.X.Y.Z.`. +.+0.++. . . . @+#+$+%+&+*+=+",
"h -+;+>+,+'+)+!+~+. {+@+. @+@+{+]+^+/+(+",
"_+. :+<+[+}+p.|+1+2+@+@+@+@+3+4+5+6+. . ",
". . . 7+8+9+0+D.{+@+@+@+a+2+b+c+d+e+. . ",
"f+f+g+h+i+j+k+l+m+{+{+2+n+o+p+q+r+s+t+f+",
"f+f+u+v+w+x+y+z+A+B+C+D+E+F+G+H+I+J+f+f+",
"f+f+f+g+t+K+L+M+O N+O+P+Q+R+S+T+U+V+f+f+",
"f+f+f+f+g+v+W+X+Y+Z+`+ @.@+@+ @@f+f+f+f+"};
