/* XPM */
static char * bottom_right_active_xpm[] = {
"30 30 9 1",
" 	c None",
".	c #000000",
"+	c #FFFFFF",
"@	c #CDCECD",
"#	c #7B7D7B",
"$	c #081020",
"%	c #39446A",
"&	c #94A1C5",
"*	c #101C41",
"                        .+@@#.",
"                        .+@@#.",
"                        .+@@#.",
"                        .+@@#.",
"                        .+@@$.",
"                        .+@$%.",
"                        .+$&*.",
"                        .$&%$.",
"                        .&%*$.",
"                        .&%*$.",
"                        .&%*$.",
"                        .&%*$.",
"                        .&%*$.",
"                        .&%*$.",
"                        .&%*$.",
"                        .&%*$.",
"                        .&%*$.",
"                        .&%*$.",
"                        .&%*$.",
"                        .&%*$.",
"                        .&%*$.",
"                        .&%*$.",
"                        .&%*$.",
"                        .&%*$.",
".........................&%*$.",
"+++++++$&&&&&&&&&&&&&&&&&&%*$.",
"@@@@@@$&%%%%%%%%%%%%%%%%%%%*$.",
"@@@@@$&%********************$.",
"####$%*$$$$$$$$$$$$$$$$$$$$$$.",
".............................."};
