/* XPM */
static char * title_3_inactive_xpm[] = {
"8 22 21 1",
" 	c None",
".	c #292829",
"+	c #CDCECD",
"@	c #A4A5A4",
"#	c #DEDED5",
"$	c #DEDAD5",
"%	c #DED6CD",
"&	c #D5D6CD",
"*	c #D5D2C5",
"=	c #CDCAC5",
"-	c #CDC6C5",
";	c #C5C2BD",
">	c #C5BEBD",
",	c #BDBEB4",
"'	c #BDBAB4",
")	c #B4B2AC",
"!	c #B4AEAC",
"~	c #ACAAA4",
"{	c #A4A59C",
"]	c #626562",
"^	c #525052",
"........",
"++++++++",
"@@@@@@@@",
"########",
"$$$$$$$$",
"%%%%%%%%",
"&&&&&&&&",
"********",
"========",
"--------",
";;;;;;;;",
">>;;>;>;",
",,,,,,,,",
"''''''''",
"))))))))",
"!!!!!!!!",
"~~~~~~~~",
"~~~~~~~~",
"{{{{{{{{",
"]]]]]]]]",
"^^^^^^^^",
"........"};
