/* XPM */
static char * right_active_xpm[] = {
"4 52 189 2",
"  	c None",
". 	c #F1F1ED",
"+ 	c #D1D1CD",
"@ 	c #777773",
"# 	c #4D4D4A",
"$ 	c #ECECE9",
"% 	c #CDCECA",
"& 	c #72736F",
"* 	c #494A46",
"= 	c #F0F1EC",
"- 	c #73736F",
"; 	c #4B4B47",
"> 	c #EEEEEA",
", 	c #CECEC9",
"' 	c #72726D",
") 	c #EAEAE5",
"! 	c #CECECA",
"~ 	c #72726E",
"{ 	c #474743",
"] 	c #E8E8E3",
"^ 	c #C9C9C4",
"/ 	c #6C6C67",
"( 	c #3F403B",
"_ 	c #E7E7E2",
": 	c #C8C9C4",
"< 	c #6D6C68",
"[ 	c #43433F",
"} 	c #F3F3EF",
"| 	c #D3D4CF",
"1 	c #747570",
"2 	c #4B4C47",
"3 	c #E4E5E1",
"4 	c #C4C3C0",
"5 	c #666663",
"6 	c #3B3C38",
"7 	c #E0E0DC",
"8 	c #C3C4C0",
"9 	c #676865",
"0 	c #3F403C",
"a 	c #F0F1ED",
"b 	c #D3D4D0",
"c 	c #767775",
"d 	c #4B4B48",
"e 	c #E2E3E0",
"f 	c #C5C5C3",
"g 	c #686966",
"h 	c #3F403D",
"i 	c #E6E7E4",
"j 	c #C7C8C5",
"k 	c #696A67",
"l 	c #3F403E",
"m 	c #E1E2DF",
"n 	c #C1C2BF",
"o 	c #626361",
"p 	c #393937",
"q 	c #EAEBE7",
"r 	c #CCCDC9",
"s 	c #6F706D",
"t 	c #474844",
"u 	c #E4E5E2",
"v 	c #C8C9C6",
"w 	c #696A68",
"x 	c #40413D",
"y 	c #E9EAE7",
"z 	c #CDCECB",
"A 	c #464745",
"B 	c #DDDEDC",
"C 	c #BEBFBC",
"D 	c #5E5F5C",
"E 	c #353633",
"F 	c #E7E7E4",
"G 	c #C7C8C4",
"H 	c #696A66",
"I 	c #41423F",
"J 	c #E7E8E5",
"K 	c #CACBC7",
"L 	c #6D6E6B",
"M 	c #444442",
"N 	c #EDEEEB",
"O 	c #D0D1CD",
"P 	c #727370",
"Q 	c #464743",
"R 	c #474845",
"S 	c #CDCECC",
"T 	c #6F706E",
"U 	c #454643",
"V 	c #EBECEA",
"W 	c #CCCCCA",
"X 	c #6E6F6D",
"Y 	c #454644",
"Z 	c #EEEEED",
"` 	c #D0D0CF",
" .	c #737373",
"..	c #484847",
"+.	c #F7F7F6",
"@.	c #D9D9D8",
"#.	c #7E7E7D",
"$.	c #535352",
"%.	c #F0F1EF",
"&.	c #D2D2D1",
"*.	c #737372",
"=.	c #4A4A49",
"-.	c #F1F1F0",
";.	c #D1D1D0",
">.	c #70706F",
",.	c #D6D7D6",
"'.	c #787878",
").	c #515150",
"!.	c #EBECEB",
"~.	c #CDCECD",
"{.	c #707170",
"].	c #484948",
"^.	c #6C6D6C",
"/.	c #424341",
"(.	c #F4F5F3",
"_.	c #D5D5D4",
":.	c #7B7C7A",
"<.	c #515251",
"[.	c #FBFBFA",
"}.	c #DCDCDB",
"|.	c #7D7D7C",
"1.	c #525252",
"2.	c #D8D8D8",
"3.	c #565655",
"4.	c #FDFDFD",
"5.	c #DFDFDF",
"6.	c #818181",
"7.	c #585857",
"8.	c #E1E1E0",
"9.	c #848484",
"0.	c #575757",
"a.	c #F9F9F8",
"b.	c #DADAD9",
"c.	c #7F7F7D",
"d.	c #555553",
"e.	c #F1F2F0",
"f.	c #D0D0CE",
"g.	c #494A48",
"h.	c #EFEFED",
"i.	c #747473",
"j.	c #4B4B4A",
"k.	c #DFDFDD",
"l.	c #81817F",
"m.	c #595957",
"n.	c #E6E6E4",
"o.	c #898987",
"p.	c #5E5E5C",
"q.	c #FDFDFB",
"r.	c #E0E0DF",
"s.	c #858684",
"t.	c #5B5B58",
"u.	c #FDFDFC",
"v.	c #DFDFDC",
"w.	c #7F7F7C",
"x.	c #565653",
"y.	c #F6F6F3",
"z.	c #D8D8D5",
"A.	c #7C7D79",
"B.	c #535350",
"C.	c #D6D6D2",
"D.	c #7B7B77",
"E.	c #50504D",
"F.	c #F2F2EF",
"G.	c #D5D5D1",
"H.	c #797975",
"I.	c #4F4F4B",
"J.	c #FAFAF5",
"K.	c #DEDEDA",
"L.	c #82827E",
"M.	c #595955",
"N.	c #D9D9D3",
"O.	c #787873",
"P.	c #52524D",
"Q.	c #EEEEE7",
"R.	c #D0D0CB",
"S.	c #71716B",
"T.	c #494942",
"U.	c #EBEBE4",
"V.	c #CCCBC4",
"W.	c #696861",
"X.	c #44433D",
"Y.	c #F2F1EA",
"Z.	c #D1D1C9",
"`.	c #6D6C65",
" +	c #4B4A43",
".+	c #FDFDF9",
"++	c #DBDAD4",
"@+	c #74736C",
"#+	c #585751",
". + @ # ",
"$ % & * ",
"= + - ; ",
"> , ' * ",
") ! ~ { ",
"] ^ / ( ",
"_ : < [ ",
"} | 1 2 ",
"3 4 5 6 ",
"7 8 9 0 ",
"a b c d ",
"e f g h ",
"i j k l ",
"m n o p ",
"q r s t ",
"u v w x ",
"y z s A ",
"B C D E ",
"F G H I ",
"J K L M ",
"N O P Q ",
"y z P R ",
"N S T U ",
"V W X Y ",
"Z `  ...",
"+.@.#.$.",
"%.&.*.=.",
"-.;.>.A ",
"+.,.'.).",
"!.~.{.].",
"V S ^./.",
"(._.:.<.",
"[.}.|.1.",
"+.2.#.3.",
"4.5.6.7.",
"4.8.9.0.",
"a.b.c.d.",
"e.f.>.g.",
"h.` i.j.",
"[.k.l.m.",
"4.n.o.p.",
"q.r.s.t.",
"u.v.w.x.",
"y.z.A.B.",
"} C.D.E.",
"F.G.H.I.",
"J.K.L.M.",
"J.N.O.P.",
"Q.R.S.T.",
"U.V.W.X.",
"Y.Z.`. +",
".+++@+#+"};
