<?xml version="1.0" encoding="UTF-8" standalone="no"?>
<!-- Created with Inkscape (http://www.inkscape.org/) -->
<svg
   xmlns:dc="http://purl.org/dc/elements/1.1/"
   xmlns:cc="http://creativecommons.org/ns#"
   xmlns:rdf="http://www.w3.org/1999/02/22-rdf-syntax-ns#"
   xmlns:svg="http://www.w3.org/2000/svg"
   xmlns="http://www.w3.org/2000/svg"
   xmlns:xlink="http://www.w3.org/1999/xlink"
   xmlns:sodipodi="http://sodipodi.sourceforge.net/DTD/sodipodi-0.dtd"
   xmlns:inkscape="http://www.inkscape.org/namespaces/inkscape"
   width="24"
   height="22"
   id="svg2"
   sodipodi:version="0.32"
   inkscape:version="0.46"
   version="1.0"
   sodipodi:docname="stick-toggled-pressed.svg"
   inkscape:output_extension="org.inkscape.output.svg.inkscape"
   sodipodi:docbase="/home/ofourdan/src/svn/xfwm4/trunk/themes/default">
  <defs
     id="defs4">
    <linearGradient
       id="linearGradient5873">
      <stop
         id="stop5875"
         offset="0"
         style="stop-color:#ffffff;stop-opacity:1;" />
      <stop
         id="stop5877"
         offset="0.5"
         style="stop-color:#ffffff;stop-opacity:0.90;" />
      <stop
         id="stop5879"
         offset="1"
         style="stop-color:white;stop-opacity:0;" />
    </linearGradient>
    <radialGradient
       inkscape:collect="always"
       xlink:href="#linearGradient5873"
       id="radialGradient3087"
       cx="12"
       cy="0"
       fx="12"
       fy="3"
       r="22"
       gradientTransform="matrix(1,0,0,1,0,0.5)"
       gradientUnits="userSpaceOnUse" />
    <linearGradient
       inkscape:collect="always"
       xlink:href="#linearGradient5873"
       id="linearGradient4147"
       x1="0"
       y1="1"
       x2="0"
       y2="22"
       gradientUnits="userSpaceOnUse" />
  </defs>
  <sodipodi:namedview
     id="base"
     pagecolor="white"
     bordercolor="#666666"
     borderopacity="1.0"
     inkscape:pageopacity="0.0"
     inkscape:pageshadow="2"
     inkscape:zoom="10"
     inkscape:cx="0"
     inkscape:cy="0"
     inkscape:document-units="px"
     inkscape:current-layer="layer1"
     showgrid="true"
     inkscape:grid-bbox="true"
     inkscape:grid-points="true"
     gridtolerance="0.5px"
     guidetolerance="1px"
     inkscape:window-width="640"
     inkscape:window-height="400"
     inkscape:window-x="0"
     inkscape:window-y="0"
     inkscape:guide-bbox="true"
     inkscape:guide-points="false"
     showguides="true">
    <inkscape:grid
       id="GridFromPre046Settings"
       type="xygrid"
       originx="0px"
       originy="0px"
       spacingx="0px"
       spacingy="1px"
       color="#0000ff"
       empcolor="#0000ff"
       opacity="0.2"
       empopacity="0.4"
       empspacing="5" />
  </sodipodi:namedview>
  <metadata
     id="metadata7">
    <rdf:RDF>
      <cc:Work
         rdf:about="">
        <dc:format>image/svg+xml</dc:format>
        <dc:type
           rdf:resource="http://purl.org/dc/dcmitype/StillImage" />
        <dc:title>Title</dc:title>
        <dc:creator>
          <cc:Agent>
            <dc:title>Olivier Fourdan</dc:title>
          </cc:Agent>
        </dc:creator>
      </cc:Work>
    </rdf:RDF>
  </metadata>
  <g
     inkscape:groupmode="layer"
     id="layer1"
     inkscape:label="pressed">
    <g
       id="g1789"
       transform="translate(0,1)">
      <rect
         style="opacity:0.35;fill:url(#radialGradient3087);fill-opacity:0.50;stroke:url(#radialGradient3087);stroke-width:1;stroke-linecap:square;stroke-miterlimit:4;stroke-dasharray:none;stroke-opacity:1"
         id="rect3079"
         width="24"
         height="22"
         x="1"
         y="0" />
    </g>
  </g>
  <g
     inkscape:groupmode="layer"
     id="layer3"
     inkscape:label="hilight">
    <path
       style="fill:none;stroke:#ffffff;stroke-width:1px;stroke-linecap:butt;stroke-linejoin:miter;stroke-opacity:0.30"
       d="M 0.5,2 L 0.5,16.5 C 0.5,16.5 0.5,18.5 2.5,18.5 C 4,18.5 21.5,18.5 21.5,18.5 C 21.5,18.5 23.5,18.5 23.5,16.5 C 23.5,14.5 23.5,2 23.5,2 L 23.5,2 L 23.5,2"
       id="path2187" />
    <path
       style="fill:url(#linearGradient4147);fill-rule:evenodd;stroke:none;stroke-width:1px;stroke-linecap:butt;stroke-linejoin:miter;stroke-opacity:1;fill-opacity:0.20"
       d="M 2,2 C 2,2 2,13 2,15 C 2,17 5,17 5,17 L 20,17 C 20,17 22,17 22,15 C 22,13 22,2 22,2 L 2,2 z "
       id="path2188" />
  </g>
  <g
     inkscape:label="Border"
     inkscape:groupmode="layer"
     id="g31"
     style="display:inline">
    <path
       style="fill:none;stroke:black;stroke-width:1px;stroke-opacity:0.25"
       d="M 0,0.5 L 24,0.5"
       id="path6059" />
    <path
       style="fill:none;fill-opacity:0;fill-rule:evenodd;stroke:#ffffff;stroke-width:1px;stroke-linecap:square;stroke-linejoin:miter;stroke-opacity:0.30"
       d="M 0,1.5 L 24,1.5"
       id="path28" />
  </g>
  <g
     inkscape:groupmode="layer"
     id="g3722"
     inkscape:label="Button">
    <g
       style="display:inline"
       id="g1625"
       transform="translate(6,5)">
      <path
         id="path1412"
         d="M 6,2 C 3.792,2 2,3.792 2,6 C 2,8.208 3.792,10 6,10 C 8.208,10 10,8.208 10,6 C 10,3.792 8.208,2 6,2 z M 6,4 C 7.104,4 8,4.896 8,6 C 8,7.104 7.104,8 6,8 C 4.896,8 4,7.104 4,6 C 4,4.896 4.896,4 6,4 z "
         style="opacity:0.33;fill:black;fill-opacity:1;stroke:black;stroke-width:2;stroke-linecap:round;stroke-linejoin:round;stroke-miterlimit:4;stroke-dasharray:none;stroke-opacity:1" />
      <path
         id="path2287"
         d="M 6,2 C 3.792,2 2,3.792 2,6 C 2,8.208 3.792,10 6,10 C 8.208,10 10,8.208 10,6 C 10,3.792 8.208,2 6,2 z M 6,4 C 7.104,4 8,4.896 8,6 C 8,7.104 7.104,8 6,8 C 4.896,8 4,7.104 4,6 C 4,4.896 4.896,4 6,4 z "
         style="opacity:1;fill:white;fill-opacity:1;stroke:white;stroke-width:0;stroke-linecap:round;stroke-linejoin:round;stroke-miterlimit:4;stroke-dasharray:none;stroke-opacity:1" />
      <path
         d="M 7 6 A 1 1 0 1 1  5,6 A 1 1 0 1 1  7 6 z"
         sodipodi:ry="1"
         sodipodi:rx="1"
         sodipodi:cy="0"
         sodipodi:cx="6"
         id="path2292"
         style="opacity:1;fill:white;fill-opacity:1;stroke:white;stroke-width:0;stroke-linecap:round;stroke-linejoin:round;stroke-miterlimit:4;stroke-dasharray:none;stroke-opacity:1"
         sodipodi:type="arc" />
    </g>
  </g>
  <g
     inkscape:groupmode="layer"
     id="layer5"
     inkscape:label="Shadow">
    <path
       style="fill:none;stroke:black;stroke-width:1px;stroke-opacity:0"
       d="M 0,21.5 L 24,21.5"
       id="path6989" />
  </g>
</svg>
