/* XPM */
static char * bottom_left_inactive_xpm[] = {
"16 16 5 1",
"       c None",
".      c #000000",
"+      c #FFFFFF s inactive_hilight_2",
"@      c #D5D6D5 s inactive_color_2",
"#      c #949594 s inactive_shadow_2",
"+@@@@@          ",
"+@@@@@          ",
"+@@@@@          ",
"+@@@@@          ",
"+@@@@@          ",
"+@@@@@          ",
"+@@@@@          ",
"+@@@@@          ",
"+@@@@@          ",
"+@@@@@@         ",
"+@@@@@@@@@@@@@@@",
" +@@@@@@@@@@@@@@",
" +@@@@@@@@@@@@@@",
"  #@@@@@@@@@@@@@",
"   ##@@@@@@@@@@@",
"     ###########"};
