/* XPM */
static char * left_active_xpm[] = {
"6 32 4 1",
" 	c None",
".	c #000000",
"+	c #FFFFFF s active_hilight_2",
"@	c #D5D6D5 s active_color_2",
"+@@@@@",
"+@@@@@",
"+@@@@@",
"+@@@@@",
"+@@@@@",
"+@@@@@",
"+@@@@@",
"+@@@@@",
"+@@@@@",
"+@@@@@",
"+@@@@@",
"+@@@@@",
"+@@@@@",
"+@@@@@",
"+@@@@@",
"+@@@@@",
"+@@@@@",
"+@@@@@",
"+@@@@@",
"+@@@@@",
"+@@@@@",
"+@@@@@",
"+@@@@@",
"+@@@@@",
"+@@@@@",
"+@@@@@",
"+@@@@@",
"+@@@@@",
"+@@@@@",
"+@@@@@",
"+@@@@@",
"+@@@@@"};
