/* XPM */
static char * title_5_inactive_xpm[] = {
"8 20 7 1",
" 	c None",
".	c #000000",
"+	c #0000CF s inactive_hilight_1",
"@	c #00009C s inactive_color_1",
"#	c #10105A s inactive_shadow_1",
"$	c #FFFFFF s inactive_hilight_2",
"~      c #D5D6D5 s inactive_color_2",
"++++++++",
"@@@@@@@@",
"@@@@@@@@",
"@@@@@@@@",
"@@@@@@@@",
"@@@@@@@@",
"@@@@@@@@",
"@@@@@@@@",
"@@@@@@@@",
"@@@@@@@@",
"@@@@@@@@",
"@@@@@@@@",
"@@@@@@@@",
"@@@@@@@@",
"@@@@@@@@",
"@@@@@@@@",
"@@@@@@@@",
"########",
"$$$$$$$$",
"~~~~~~~~"};
