/* XPM */
static char * menu_inactive_xpm[] = {
"12 22 8 1",
" 	c None",
".	c #8B9AAF",
"+	c #D1E3FE",
"@	c #000000",
"#	c #FFFFFF",
"$	c #D8D8D8",
"%	c #B4B4B4",
"&	c #6C6C6C",
"            ",
"            ",
"            ",
"            ",
"            ",
"            ",
"...........+",
".@@@@@@@@@@+",
".@#######$@+",
".@#$$$$$$$@+",
".@%&&&&&&&@+",
".@#######$@+",
".@#$$$$$$$@+",
".@%&&&&&&&@+",
".@#######$@+",
".@#$$$$$$$@+",
".@@@@@@@@@@+",
"++++++++++++",
"            ",
"            ",
"            ",
"            "};
