/* XPM */
static char * menu_pressed_xpm[] = {
"12 22 8 1",
" 	c None",
".	c #406AB4",
"+	c #75A8FF",
"@	c #000000",
"#	c #6C6C6C",
"$	c #B6B6B6",
"%	c #999999",
"&	c #5B5B5B",
"            ",
"            ",
"            ",
"            ",
"            ",
"            ",
"...........+",
".@@@@@@@@@@+",
".@########@+",
".@#$$$$$$$@+",
".@#$%%%%%%@+",
".@##&&&&&&@+",
".@#$$$$$$$@+",
".@#$%%%%%%@+",
".@##&&&&&&@+",
".@#$$$$$$$@+",
".@@@@@@@@@@+",
"++++++++++++",
"            ",
"            ",
"            ",
"            "};
