/* XPM */
static char * right_active_xpm[] = {
"7 128 6 1",
" 	c None",
".	c #000000",
"+	c #FFFFFF",
"@	c #D8D8D8",
"#	c #B4B4B4",
"$	c #6C6C6C",
".+@#$..",
".+@#$..",
".+@#$..",
".+@#$..",
".+@#$..",
".+@#$..",
".+@#$..",
".+@#$..",
".+@#$..",
".+@#$..",
".+@#$..",
".+@#$..",
".+@#$..",
".+@#$..",
".+@#$..",
".+@#$..",
".+@#$..",
".+@#$..",
".+@#$..",
".+@#$..",
".+@#$..",
".+@#$..",
".+@#$..",
".+@#$..",
".+@#$..",
".+@#$..",
".+@#$..",
".+@#$..",
".+@#$..",
".+@#$..",
".+@#$..",
".+@#$..",
".+@#$..",
".+@#$..",
".+@#$..",
".+@#$..",
".+@#$..",
".+@#$..",
".+@#$..",
".+@#$..",
".+@#$..",
".+@#$..",
".+@#$..",
".+@#$..",
".+@#$..",
".+@#$..",
".+@#$..",
".+@#$..",
".+@#$..",
".+@#$..",
".+@#$..",
".+@#$..",
".+@#$..",
".+@#$..",
".+@#$..",
".+@#$..",
".+@#$..",
".+@#$..",
".+@#$..",
".+@#$..",
".+@#$..",
".+@#$..",
".+@#$..",
".+@#$..",
".+@#$..",
".+@#$..",
".+@#$..",
".+@#$..",
".+@#$..",
".+@#$..",
".+@#$..",
".+@#$..",
".+@#$..",
".+@#$..",
".+@#$..",
".+@#$..",
".+@#$..",
".+@#$..",
".+@#$..",
".+@#$..",
".+@#$..",
".+@#$..",
".+@#$..",
".+@#$..",
".+@#$..",
".+@#$..",
".+@#$..",
".+@#$..",
".+@#$..",
".+@#$..",
".+@#$..",
".+@#$..",
".+@#$..",
".+@#$..",
".+@#$..",
".+@#$..",
".+@#$..",
".+@#$..",
".+@#$..",
".+@#$..",
".+@#$..",
".+@#$..",
".+@#$..",
".+@#$..",
".+@#$..",
".+@#$..",
".+@#$..",
".+@#$..",
".+@#$..",
".+@#$..",
".+@#$..",
".+@#$..",
".+@#$..",
".+@#$..",
".+@#$..",
".+@#$..",
".+@#$..",
".+@#$..",
".+@#$..",
".+@#$..",
".+@#$..",
".+@#$..",
".+@#$..",
".+@#$..",
".+@#$..",
".+@#$..",
".+@#$..",
".+@#$.."};
