/* XPM */
static char * top_left_active_xpm[] = {
"27 21 8 1",
" 	c None",
".	c #000000 s active_border_color",
"+	c #FFFFFF s active_hilight_2",
"@	c #B70000 s active_hilight_1",
"#	c #DFDFDF s active_color_2",
"$	c #B2B2B2 s active_shadow_2",
"%	c #8B0000 s active_color_1",
"&	c #4D0000 s active_shadow_1",
"...........................",
"++++++.@@@@@@@@@@@@@@@@@@@@",
"####$.%%%%%%%%%%%%%%%%%%%%%",
"###$.%%%%%%%%%%%%%%%%%%%%%%",
"##$.%%%%%%%%%%%%%%%%%%%%%%%",
"##$.%%%%@&%@&%@&%@&%@&%@&%%",
"##$.%%%%&&%&&%&&%&&%&&%&&%%",
"##$.%%%%%%%%%%%%%%%%%%%%%%%",
"##$.%%%%@&%@&%@&%@&%@&%@&%%",
"##$.%%%%&&%&&%&&%&&%&&%&&%%",
"##$.%%%%%%%%%%%%%%%%%%%%%%%",
"##$.%%%%@&%@&%@&%@&%@&%@&%%",
"##$.%%%%&&%&&%&&%&&%&&%&&%%",
"##$.%%%%%%%%%%%%%%%%%%%%%%%",
"##$.%%%%@&%@&%@&%@&%@&%@&%%",
"##$.%%%%&&%&&%&&%&&%&&%&&%%",
"##$.%%%%%%%%%%%%%%%%%%%%%%%",
"###$.%%%%%%%%%%%%%%%%%%%%%%",
"####$.%%%%%%%%%%%%%%%%%%%%%",
"$$$$$$.&&&&&&&&&&&&&&&&&&&&",
"..........................."};
