/* XPM */
static char * right_active_xpm[] = {
"4 8 4 1",
" 	c None",
".	c #6A6D6A s active_shadow_2",
"+	c #DEDEDE s active_color_2",
"@	c #000000 s active_border_color",
".+.@",
".+.@",
".+.@",
".+.@",
".+.@",
".+.@",
".+.@",
".+.@"};
