/* XPM */
static char * title_1_active_xpm[] = {
"4 20 5 1",
" 	c None",
".	c #000000 s active_border_color",
"+	c #088DCD s active_hilight_1",
"@	c #085D8B s active_color_1",
"#	c #6A6D6A s active_shadow_2",
"....",
"++++",
"@@@@",
"@@@@",
"@@@@",
"@@@@",
"@@@@",
"@@@@",
"@@@@",
"@@@@",
"@@@@",
"@@@@",
"@@@@",
"@@@@",
"@@@@",
"@@@@",
"@@@@",
"@@@@",
"@@@@",
"####"};
