/* XPM */
static char * left_active_xpm[] = {
"5 16 5 1",
" 	c None",
".	c #000000 s active_border_color",
"+	c #FFFFFF s active_hilight_1",
"@	c #D8D8D8 s active_color_1",
"#	c #B2B2B2 s active_shadow_1",
".+@#.",
".+@#.",
".+@#.",
".+@#.",
".+@#.",
".+@#.",
".+@#.",
".+@#.",
".+@#.",
".+@#.",
".+@#.",
".+@#.",
".+@#.",
".+@#.",
".+@#.",
".+@#."};
