/* XPM */
static char * title_middle_active_xpm[] = {
"1 23 5 1",
" 	c None",
".	c #000000 s active_border_color",
"+	c #B4E46C s active_hilight_1",
"@	c #7CCC54 s active_color_1",
"#	c #54A028 s active_shadow_1",
".",
"+",
"@",
"@",
"@",
"@",
"@",
"@",
"@",
"@",
"@",
"@",
"@",
"@",
"@",
"@",
"@",
"@",
"@",
"@",
"@",
"#",
"."};
