/* XPM */
static char * title_right_inactive_xpm[] = {
"40 23 8 1",
" 	c None",
".	c #000000 s inactive_border_color",
"+	c #B4E46C s inactive_hilight_1",
"@	c #FFFFFF s inactive_hilight_2",
"#	c #7CCC54 s inactive_color_1",
"$	c #54A028 s inactive_shadow_1",
"%	c #D8D8D8 s inactive_color_2",
"&	c #B2B2B2 s inactive_shadow_2",
"........................................",
"++++@@@@@@@@@@@@@@@@@@@@@@@@@@@@@@@@@@@@",
"###$%%%%%%%%%%%%%%%%%%%%%%%%%%%%%%%%%%%%",
"###$%%%%%%%%%%%%%%%%%%%%%%%%%%%%%%%%%%%%",
"###$%%%%%%%%%%%%%%%%%%%%%%%%%%%%%%%%%%%%",
"###$%%%%%%%%%%%%%%%%%%%%%%%%%%%%%%%%%%%%",
"###$+++++%%%%%+++++%%%%%%%%%%%%%%%%%%%%%",
"########$%%%%%+###+%%%%%%%%%%%%%%%%%%%%%",
"########$%%%%%+###$%%%%%%%%%%%%%%%%%%%%%",
"########$%%%%%+###$%%%%%%%%%%%%%%%%%%%%%",
"########$%%%%%+###$%%%%%%%%%%%%%%%%%%%%%",
"########$++++++$$$$+++++%%%%%+++++%%%%%%",
"#############$%%%%%+###+%%%%%+###+%%%%%%",
"#############$%%%%%+###$%%%%%+###$%%%%%%",
"#############$%%%%%+###$%%%%%+###$%%%%%%",
"#############$%%%%%+###$%%%%%+###$%%%%%%",
"#############$++++++$$$$+++++$$$$$+++++%",
"##################$%%%%%+###+%%%%%+###+%",
"##################$%%%%%+###$%%%%%+###$%",
"##################$%%%%%+###$%%%%%+###$%",
"##################$%%%%%+###$%%%%%+###$%",
"$$$$$$$$$$$$$$$$$$$&&&&&+$$$$&&&&&$$$$$&",
"........................................"};