/* XPM */
static char * bottom_left_active_xpm[] = {
"8 8 3 1",
" 	c None",
".	c #7A6A99",
"+	c #66587F",
"...     ",
"...     ",
"...     ",
"...     ",
"...     ",
"+++.....",
"+++.....",
"+++....."};
