/* XPM */
static char * maximize_pressed_xpm[] = {
"16 23 7 1",
" 	c None",
".	c #837D7B s active_shadow_1",
"+	c #CDC6C5 s active_color_1",
"@	c #000000",
"#	c #FFFFFF s active_hilight_1",
"$	c #B4AEAC s active_mid_1",
"~	c #000000 s active_text_color",
"                ",
"                ",
"                ",
"                ",
"...............+",
".@@@@@@@@@@@@@+#",
".@$$$$$$$$$$$$##",
".@$$$$$$$$$$$$##",
".@$$~~~~~~~~$$##",
".@$$~~~~~~~~$$##",
".@$$~~~~~~~~$$##",
".@$$~$$$$$$~$$##",
".@$$~$$$$$$~$$##",
".@$$~$$$$$$~$$##",
".@$$~$$$$$$~$$##",
".@$$~~~~~~~~$$##",
".@$$$$$$$$$$$$##",
".@$$$$$$$$$$$$##",
".+##############",
"+###############",
"                ",
"                ",
"                "};
