/* XPM */
static char * close_active_xpm[] = {
"17 18 4 1",
" 	c None",
".	c #E6E6E6 s active_color_2",
"+	c #A4A19C s active_shadow_2",
"@	c #000000",
"                 ",
".+++++++++++++++.",
"+...............+",
"+...............+",
"+..@@.......@@..+",
"+..@@@.....@@@..+",
"+...@@@...@@@...+",
"+....@@@.@@@....+",
"+.....@@@@@.....+",
"+......@@@......+",
"+.....@@@@@.....+",
"+....@@@.@@@....+",
"+...@@@...@@@...+",
"+..@@@.....@@@..+",
"+..@@.......@@..+",
"+...............+",
"+...............+",
".+++++++++++++++."};
