/* XPM */
static char * top_right_active_xpm[] = {
"8 21 5 1",
" 	c None",
".	c #000000",
"+	c #FFFFFF s active_hilight_2",
"@	c #E6E6E6 s active_color_2",
"#	c #A4A19C s active_shadow_2",
"........",
"++++++@.",
"@@@@@@#.",
"@@@@@@#.",
"@@@@@@#.",
"@@@@@@#.",
"@@@@@@#.",
"@@@@@@#.",
"@@@@@@#.",
"@@@@@@#.",
"@@@@@@#.",
"@@@@@@#.",
"@@@@@@#.",
"@@@@@@#.",
"@@@@@@#.",
"@@@@@@#.",
"@@@@@@#.",
"@@@@@@#.",
"@@@@@@#.",
"@@@@@@#.",
"@@@@@@#."};
