/* XPM */
static char * right_active_xpm[] = {
"5 8 4 1",
" 	c None",
".	c #E6E3E1 s active_color_2",
"+	c #D2CFCC s active_mid_2",
"@	c #4B58A2 s active_shadow_1",
"..++@",
"..++@",
"..++@",
"..++@",
"..++@",
"..++@",
"..++@",
"..++@"};
