/* XPM */
static char * hide_pressed_xpm[] = {
"16 26 99 2",
"  	c None",
". 	c #E5EFFA",
"+ 	c #F3F5F8",
"@ 	c #E3E9EF",
"# 	c #F4F6F9",
"$ 	c #FAFBFC",
"% 	c #F6F8FA",
"& 	c #F0F3F7",
"* 	c #EDF1F5",
"= 	c #EBF0F4",
"- 	c #EAEFF4",
"; 	c #E8EDF2",
"> 	c #E5EAF0",
", 	c #E1E7EE",
"' 	c #CFD9E4",
") 	c #E6ECF1",
"! 	c #EFF3F6",
"~ 	c #FDFDFE",
"{ 	c #F9FAFC",
"] 	c #F7F8FA",
"^ 	c #F3F6F9",
"/ 	c #E9EDF3",
"( 	c #E0E7EE",
"_ 	c #DFE6ED",
": 	c #BAC8D7",
"< 	c #E2E8EF",
"[ 	c #E7ECF1",
"} 	c #F8F9FB",
"| 	c #ECF0F4",
"1 	c #E0E6ED",
"2 	c #DEE5ED",
"3 	c #A2B6C9",
"4 	c #DAE2EA",
"5 	c #DEE4EC",
"6 	c #F7F9FB",
"7 	c #F9FBFD",
"8 	c #F8F9FC",
"9 	c #F5F7FA",
"0 	c #ECF0F5",
"a 	c #D9E1EA",
"b 	c #DEE5EC",
"c 	c #89A2BB",
"d 	c #DDE5EC",
"e 	c #D1DBE5",
"f 	c #D6DEE8",
"g 	c #F4F7FA",
"h 	c #F6F8FB",
"i 	c #7693B0",
"j 	c #DBE2EA",
"k 	c #CCD7E2",
"l 	c #E7ECF3",
"m 	c #EFF3F7",
"n 	c #F1F4F8",
"o 	c #F2F5F9",
"p 	c #6586A6",
"q 	c #D9E1E9",
"r 	c #C9D5E1",
"s 	c #CED9E3",
"t 	c #E4EAF0",
"u 	c #ECF1F5",
"v 	c #ECF2F6",
"w 	c #EEF2F6",
"x 	c #55799D",
"y 	c #DAE1EA",
"z 	c #CAD5E1",
"A 	c #CED8E3",
"B 	c #E2E8F0",
"C 	c #E9EEF4",
"D 	c #EBF0F5",
"E 	c #456D94",
"F 	c #DBE3EA",
"G 	c #D0DAE5",
"H 	c #E2E9F0",
"I 	c #E7EDF3",
"J 	c #E8EEF4",
"K 	c #37618B",
"L 	c #D5DEE7",
"M 	c #D3DCE6",
"N 	c #000000",
"O 	c #D6DEE7",
"P 	c #295684",
"Q 	c #D8E0E9",
"R 	c #DDE4EB",
"S 	c #DCE3EA",
"T 	c #1C4C7C",
"U 	c #DDE4EC",
"V 	c #E0E7ED",
"W 	c #E3E9F0",
"X 	c #E5EBF1",
"Y 	c #E6ECF2",
"Z 	c #E7ECF2",
"` 	c #DFE5EC",
" .	c #114476",
"..	c #E2E8EE",
"+.	c #EAEFF3",
"@.	c #E9EEF3",
"#.	c #4777A7",
"$.	c #083C70",
"%.	c #2C567E",
"                                ",
"                                ",
"                                ",
"                                ",
"                                ",
"                                ",
"  . + + + + + + + + + + + + + . ",
"  @ + # $ % & * = - ; > $ , , @ ",
"  ' > ) ! ~ { ] % ^ ! / ! ( _ ' ",
"  : ( < [ % ~ $ { } # | [ 1 2 : ",
"  3 2 4 5 & 6 7 8 } 9 0 5 a b 3 ",
"  c d e f = ^ g h g ^ = f e d c ",
"  i j k e l m n o n m l e k j i ",
"  p q r s t u v w v u t s r q p ",
"  x y z A B C - D - C B A z y x ",
"  E F A G H I J C J I H G A F E ",
"  K j L M N N N N N N N N O j K ",
"  P 4 F Q N N N N N N N N R S P ",
"  T 4 j U V W X Y I D n Z 1 ` T ",
"   .j j F b , ..< t Z u m +.@. .",
"  #.$.$.$.$.$.$.$.$.$.$.$.$.$.%.",
"                                ",
"                                ",
"                                ",
"                                ",
"                                "};
