/* XPM */
static char * hide_active_xpm[] = {
"16 26 121 2",
"  	c None",
". 	c #E5EFFA",
"+ 	c #F3F5F8",
"@ 	c #D1E7FD",
"# 	c #E3E9EF",
"$ 	c #F4F6F9",
"% 	c #FAFBFC",
"& 	c #F6F8FA",
"* 	c #F0F3F7",
"= 	c #EDF1F5",
"- 	c #EBF0F4",
"; 	c #EAEFF4",
"> 	c #E8EDF2",
", 	c #E5EAF0",
"' 	c #E1E7EE",
") 	c #CFD9E4",
"! 	c #E6ECF1",
"~ 	c #EFF3F6",
"{ 	c #FDFDFE",
"] 	c #F9FAFC",
"^ 	c #F7F8FA",
"/ 	c #F3F6F9",
"( 	c #E9EDF3",
"_ 	c #E0E7EE",
": 	c #DFE6ED",
"< 	c #C9DFF5",
"[ 	c #BAC8D7",
"} 	c #E2E8EF",
"| 	c #E7ECF1",
"1 	c #F8F9FB",
"2 	c #ECF0F4",
"3 	c #E0E6ED",
"4 	c #DEE5ED",
"5 	c #B6CDE3",
"6 	c #A2B6C9",
"7 	c #DAE2EA",
"8 	c #DEE4EC",
"9 	c #F7F9FB",
"0 	c #F9FBFD",
"a 	c #F8F9FC",
"b 	c #F5F7FA",
"c 	c #ECF0F5",
"d 	c #D9E1EA",
"e 	c #DEE5EC",
"f 	c #B0C4D8",
"g 	c #89A2BB",
"h 	c #DDE5EC",
"i 	c #D1DBE5",
"j 	c #D6DEE8",
"k 	c #F4F7FA",
"l 	c #F6F8FB",
"m 	c #AEC3D8",
"n 	c #7693B0",
"o 	c #DBE2EA",
"p 	c #CCD7E2",
"q 	c #E7ECF3",
"r 	c #EFF3F7",
"s 	c #F1F4F8",
"t 	c #F2F5F9",
"u 	c #ADC1D6",
"v 	c #6586A6",
"w 	c #D9E1E9",
"x 	c #C9D5E1",
"y 	c #CED9E3",
"z 	c #E4EAF0",
"A 	c #ECF1F5",
"B 	c #ECF2F6",
"C 	c #EEF2F6",
"D 	c #A4BED9",
"E 	c #55799D",
"F 	c #DAE1EA",
"G 	c #CAD5E1",
"H 	c #CED8E3",
"I 	c #E2E8F0",
"J 	c #E9EEF4",
"K 	c #EBF0F5",
"L 	c #A9C0D4",
"M 	c #456D94",
"N 	c #DBE3EA",
"O 	c #D0DAE5",
"P 	c #E2E9F0",
"Q 	c #E7EDF3",
"R 	c #E8EEF4",
"S 	c #A7BED4",
"T 	c #37618B",
"U 	c #D5DEE7",
"V 	c #D3DCE6",
"W 	c #000000",
"X 	c #D6DEE7",
"Y 	c #A6BDD3",
"Z 	c #295684",
"` 	c #D8E0E9",
" .	c #DDE4EB",
"..	c #DCE3EA",
"+.	c #97B7D7",
"@.	c #1C4C7C",
"#.	c #DDE4EC",
"$.	c #E0E7ED",
"%.	c #E3E9F0",
"&.	c #E5EBF1",
"*.	c #E6ECF2",
"=.	c #E7ECF2",
"-.	c #DFE5EC",
";.	c #A3BAD2",
">.	c #114476",
",.	c #E2E8EE",
"'.	c #EAEFF3",
").	c #E9EEF3",
"!.	c #A2BAD2",
"~.	c #527CA6",
"{.	c #083C70",
"].	c #32587D",
"^.	c #A1B9D1",
"/.	c #A1CCF6",
"(.	c #91B7DD",
"_.	c #6F8DAA",
":.	c #5F7891",
"<.	c #B9D5F1",
"[.	c #B3CEE9",
"}.	c #A6BFD8",
"|.	c #A0B8D0",
"                                ",
"                                ",
"                                ",
"                                ",
"                                ",
". + + + + + + + + + + + + + . @ ",
"# + $ % & * = - ; > , % ' ' # @ ",
") , ! ~ { ] ^ & / ~ ( ~ _ : ) < ",
"[ _ } | & { % ] 1 $ 2 | 3 4 [ 5 ",
"6 4 7 8 * 9 0 a 1 b c 8 d e 6 f ",
"g h i j - / k l k / - j i h g m ",
"n o p i q r s t s r q i p o n u ",
"v w x y z A B C B A z y x w v D ",
"E F G H I J ; K ; J I H G F E L ",
"M N H O P Q R J R Q P O H N M S ",
"T o U V W W W W W W W W X o T Y ",
"Z 7 N ` W W W W W W W W  ...Z +.",
"@.7 o #.$.%.&.*.Q K s =.3 -.@.;.",
">.o o N e ' ,.} z =.A r '.).>.!.",
"~.{.{.{.{.{.{.{.{.{.{.{.{.{.].^.",
"/.(._.:.:.:.:.:.:.:.:.:.:.:._.(.",
"<.[.}.|.|.|.|.|.|.|.|.|.|.|.}.[.",
"                                ",
"                                ",
"                                ",
"                                "};
