/* XPM */
static char * menu_inactive_xpm[] = {
"16 26 115 2",
"  	c None",
". 	c #F7F8FB",
"+ 	c #F3F5F8",
"@ 	c #FCFDFE",
"# 	c #E3E9EF",
"$ 	c #F4F6F9",
"% 	c #FAFBFC",
"& 	c #F6F8FA",
"* 	c #F0F3F7",
"= 	c #EDF1F5",
"- 	c #EBF0F4",
"; 	c #EAEFF4",
"> 	c #E8EDF2",
", 	c #E5EAF0",
"' 	c #E1E7EE",
") 	c #FDFDFE",
"! 	c #CFD9E4",
"~ 	c #E6ECF1",
"{ 	c #EFF3F6",
"] 	c #F9FAFC",
"^ 	c #F7F8FA",
"/ 	c #F3F6F9",
"( 	c #E9EDF3",
"_ 	c #E0E7EE",
": 	c #DFE6ED",
"< 	c #F4F5F6",
"[ 	c #BAC8D7",
"} 	c #E2E8EF",
"| 	c #E7ECF1",
"1 	c #F8F9FB",
"2 	c #ECF0F4",
"3 	c #E0E6ED",
"4 	c #DEE5ED",
"5 	c #DEE1E5",
"6 	c #A2B6C9",
"7 	c #DAE2EA",
"8 	c #DEE4EC",
"9 	c #F7F9FB",
"0 	c #F9FBFD",
"a 	c #F8F9FC",
"b 	c #F5F7FA",
"c 	c #ECF0F5",
"d 	c #D9E1EA",
"e 	c #DEE5EC",
"f 	c #D8D9D9",
"g 	c #89A2BB",
"h 	c #DDE5EC",
"i 	c #D1DBE5",
"j 	c #000000",
"k 	c #D7D8D9",
"l 	c #7693B0",
"m 	c #DBE2EA",
"n 	c #CCD7E2",
"o 	c #D5D7D9",
"p 	c #6586A6",
"q 	c #D9E1E9",
"r 	c #C9D5E1",
"s 	c #CED9E3",
"t 	c #E4EAF0",
"u 	c #CBD3DC",
"v 	c #55799D",
"w 	c #DAE1EA",
"x 	c #CAD5E1",
"y 	c #CED8E3",
"z 	c #E2E8F0",
"A 	c #E9EEF4",
"B 	c #D3D6D8",
"C 	c #456D94",
"D 	c #DBE3EA",
"E 	c #D0DAE5",
"F 	c #E2E9F0",
"G 	c #E7EDF3",
"H 	c #E8EEF4",
"I 	c #D3D5D8",
"J 	c #37618B",
"K 	c #D5DEE7",
"L 	c #D3DCE6",
"M 	c #D6DEE7",
"N 	c #D2D4D7",
"O 	c #295684",
"P 	c #D8E0E9",
"Q 	c #E7EDF2",
"R 	c #E8EDF3",
"S 	c #E9EEF3",
"T 	c #ECF1F5",
"U 	c #DDE4EB",
"V 	c #DCE3EA",
"W 	c #BFCDDC",
"X 	c #1C4C7C",
"Y 	c #DDE4EC",
"Z 	c #E0E7ED",
"` 	c #E3E9F0",
" .	c #E5EBF1",
"..	c #E6ECF2",
"+.	c #EBF0F5",
"@.	c #F1F4F8",
"#.	c #E7ECF2",
"$.	c #DFE5EC",
"%.	c #D0D3D6",
"&.	c #114476",
"*.	c #E2E8EE",
"=.	c #EFF3F7",
"-.	c #EAEFF3",
";.	c #D1D3D7",
">.	c #6988A8",
",.	c #083C70",
"'.	c #40607E",
").	c #D1D3D6",
"!.	c #CFE7FF",
"~.	c #BACFE5",
"{.	c #8F9FB0",
"].	c #7A8896",
"^.	c #F2F5F8",
"/.	c #EAEDF0",
"(.	c #D9DCDF",
"                                ",
"                                ",
"                                ",
"                                ",
"                                ",
". + + + + + + + + + + + + + . @ ",
"# + $ % & * = - ; > , % ' ' # ) ",
"! , ~ { ) ] ^ & / { ( { _ : ! < ",
"[ _ } | & ) % ] 1 $ 2 | 3 4 [ 5 ",
"6 4 7 8 * 9 0 a 1 b c 8 d e 6 f ",
"g h i j j j j j j j j j i h g k ",
"l m n i j j j j j j j i n m l o ",
"p q r s t j j j j j t s r q p u ",
"v w x y z A j j j A z y x w v B ",
"C D y E F G H j H G F E y D C I ",
"J m K L F G H A H G F L M m J N ",
"O 7 D P Q R S Q R S T P U V O W ",
"X 7 m Y Z `  ...G +.@.#.3 $.X %.",
"&.m m D e ' *.} t #.T =.-.S &.;.",
">.,.,.,.,.,.,.,.,.,.,.,.,.,.'.).",
"!.~.{.].].].].].].].].].].].{.~.",
"^./.(.).).).).).).).).).).).(./.",
"                                ",
"                                ",
"                                ",
"                                "};
