/* XPM */
static char * shade_inactive_xpm[] = {
"16 26 113 2",
"  	c None",
". 	c #F7F8FB",
"+ 	c #F3F5F8",
"@ 	c #FCFDFE",
"# 	c #E3E9EF",
"$ 	c #F4F6F9",
"% 	c #FAFBFC",
"& 	c #F6F8FA",
"* 	c #F0F3F7",
"= 	c #EDF1F5",
"- 	c #EBF0F4",
"; 	c #EAEFF4",
"> 	c #E8EDF2",
", 	c #E5EAF0",
"' 	c #E1E7EE",
") 	c #FDFDFE",
"! 	c #CFD9E4",
"~ 	c #E6ECF1",
"{ 	c #EFF3F6",
"] 	c #F9FAFC",
"^ 	c #F7F8FA",
"/ 	c #F3F6F9",
"( 	c #E9EDF3",
"_ 	c #E0E7EE",
": 	c #DFE6ED",
"< 	c #F4F5F6",
"[ 	c #BAC8D7",
"} 	c #E2E8EF",
"| 	c #E7ECF1",
"1 	c #F8F9FB",
"2 	c #ECF0F4",
"3 	c #E0E6ED",
"4 	c #DEE5ED",
"5 	c #DEE1E5",
"6 	c #A2B6C9",
"7 	c #DAE2EA",
"8 	c #DEE4EC",
"9 	c #F7F9FB",
"0 	c #F9FBFD",
"a 	c #000000",
"b 	c #F5F7FA",
"c 	c #ECF0F5",
"d 	c #D9E1EA",
"e 	c #DEE5EC",
"f 	c #D8D9D9",
"g 	c #89A2BB",
"h 	c #DDE5EC",
"i 	c #D1DBE5",
"j 	c #D6DEE8",
"k 	c #D7D8D9",
"l 	c #7693B0",
"m 	c #DBE2EA",
"n 	c #CCD7E2",
"o 	c #E7ECF3",
"p 	c #D5D7D9",
"q 	c #6586A6",
"r 	c #D9E1E9",
"s 	c #C9D5E1",
"t 	c #CED9E3",
"u 	c #CBD3DC",
"v 	c #55799D",
"w 	c #DAE1EA",
"x 	c #CAD5E1",
"y 	c #CED8E3",
"z 	c #D3D6D8",
"A 	c #456D94",
"B 	c #DBE3EA",
"C 	c #D0DAE5",
"D 	c #E2E9F0",
"E 	c #E7EDF3",
"F 	c #E8EEF4",
"G 	c #E9EEF4",
"H 	c #D3D5D8",
"I 	c #37618B",
"J 	c #D5DEE7",
"K 	c #D3DCE6",
"L 	c #D6DEE7",
"M 	c #D2D4D7",
"N 	c #295684",
"O 	c #D8E0E9",
"P 	c #DDE4EB",
"Q 	c #DCE3EA",
"R 	c #BFCDDC",
"S 	c #1C4C7C",
"T 	c #DDE4EC",
"U 	c #E0E7ED",
"V 	c #E3E9F0",
"W 	c #E5EBF1",
"X 	c #E6ECF2",
"Y 	c #EBF0F5",
"Z 	c #F1F4F8",
"` 	c #E7ECF2",
" .	c #DFE5EC",
"..	c #D0D3D6",
"+.	c #114476",
"@.	c #E2E8EE",
"#.	c #E4EAF0",
"$.	c #ECF1F5",
"%.	c #EFF3F7",
"&.	c #EAEFF3",
"*.	c #E9EEF3",
"=.	c #D1D3D7",
"-.	c #6988A8",
";.	c #083C70",
">.	c #40607E",
",.	c #D1D3D6",
"'.	c #CFE7FF",
").	c #BACFE5",
"!.	c #8F9FB0",
"~.	c #7A8896",
"{.	c #F2F5F8",
"].	c #EAEDF0",
"^.	c #D9DCDF",
"                                ",
"                                ",
"                                ",
"                                ",
"                                ",
". + + + + + + + + + + + + + . @ ",
"# + $ % & * = - ; > , % ' ' # ) ",
"! , ~ { ) ] ^ & / { ( { _ : ! < ",
"[ _ } | & ) % ] 1 $ 2 | 3 4 [ 5 ",
"6 4 7 8 * 9 0 a a b c 8 d e 6 f ",
"g h i j - / a a a a - j i h g k ",
"l m n i o a a a a a a i n m l p ",
"q r s t a a a a a a a a s r q u ",
"v w x y a a a a a a a a x w v z ",
"A B y C D E F G F E D C y B A H ",
"I m J K a a a a a a a a L m I M ",
"N 7 B O a a a a a a a a P Q N R ",
"S 7 m T U V W X E Y Z ` 3  .S ..",
"+.m m B e ' @.} #.` $.%.&.*.+.=.",
"-.;.;.;.;.;.;.;.;.;.;.;.;.;.>.,.",
"'.).!.~.~.~.~.~.~.~.~.~.~.~.!.).",
"{.].^.,.,.,.,.,.,.,.,.,.,.,.^.].",
"                                ",
"                                ",
"                                ",
"                                "};
