/* XPM */
static char * stick_pressed_xpm[] = {
"16 26 95 2",
"  	c None",
". 	c #E5EFFA",
"+ 	c #F3F5F8",
"@ 	c #E3E9EF",
"# 	c #F4F6F9",
"$ 	c #FAFBFC",
"% 	c #F6F8FA",
"& 	c #F0F3F7",
"* 	c #EDF1F5",
"= 	c #EBF0F4",
"- 	c #EAEFF4",
"; 	c #E8EDF2",
"> 	c #E5EAF0",
", 	c #E1E7EE",
"' 	c #CFD9E4",
") 	c #E6ECF1",
"! 	c #EFF3F6",
"~ 	c #FDFDFE",
"{ 	c #F9FAFC",
"] 	c #F7F8FA",
"^ 	c #F3F6F9",
"/ 	c #E9EDF3",
"( 	c #E0E7EE",
"_ 	c #DFE6ED",
": 	c #BAC8D7",
"< 	c #E2E8EF",
"[ 	c #E7ECF1",
"} 	c #F8F9FB",
"| 	c #ECF0F4",
"1 	c #E0E6ED",
"2 	c #DEE5ED",
"3 	c #A2B6C9",
"4 	c #DAE2EA",
"5 	c #DEE4EC",
"6 	c #F7F9FB",
"7 	c #F9FBFD",
"8 	c #F8F9FC",
"9 	c #F5F7FA",
"0 	c #ECF0F5",
"a 	c #D9E1EA",
"b 	c #DEE5EC",
"c 	c #89A2BB",
"d 	c #DDE5EC",
"e 	c #D1DBE5",
"f 	c #D6DEE8",
"g 	c #F4F7FA",
"h 	c #000000",
"i 	c #7693B0",
"j 	c #DBE2EA",
"k 	c #CCD7E2",
"l 	c #E7ECF3",
"m 	c #EFF3F7",
"n 	c #F1F4F8",
"o 	c #6586A6",
"p 	c #D9E1E9",
"q 	c #C9D5E1",
"r 	c #CED9E3",
"s 	c #55799D",
"t 	c #DAE1EA",
"u 	c #CAD5E1",
"v 	c #CED8E3",
"w 	c #456D94",
"x 	c #DBE3EA",
"y 	c #D0DAE5",
"z 	c #E2E9F0",
"A 	c #E7EDF3",
"B 	c #E8EEF4",
"C 	c #37618B",
"D 	c #D5DEE7",
"E 	c #D3DCE6",
"F 	c #D6DEE7",
"G 	c #295684",
"H 	c #D8E0E9",
"I 	c #E7EDF2",
"J 	c #E8EDF3",
"K 	c #E9EEF3",
"L 	c #ECF1F5",
"M 	c #DDE4EB",
"N 	c #DCE3EA",
"O 	c #1C4C7C",
"P 	c #DDE4EC",
"Q 	c #E0E7ED",
"R 	c #E3E9F0",
"S 	c #E5EBF1",
"T 	c #E6ECF2",
"U 	c #EBF0F5",
"V 	c #E7ECF2",
"W 	c #DFE5EC",
"X 	c #114476",
"Y 	c #E2E8EE",
"Z 	c #E4EAF0",
"` 	c #EAEFF3",
" .	c #4777A7",
"..	c #083C70",
"+.	c #2C567E",
"                                ",
"                                ",
"                                ",
"                                ",
"                                ",
"                                ",
"  . + + + + + + + + + + + + + . ",
"  @ + # $ % & * = - ; > $ , , @ ",
"  ' > ) ! ~ { ] % ^ ! / ! ( _ ' ",
"  : ( < [ % ~ $ { } # | [ 1 2 : ",
"  3 2 4 5 & 6 7 8 } 9 0 5 a b 3 ",
"  c d e f = ^ g h g ^ h f e d c ",
"  i j k e l m n h h h h e k j i ",
"  o p q r h h h h h h h r q p o ",
"  s t u v h h h h h h h v u t s ",
"  w x v y z A B h h h h y v x w ",
"  C j D E z A B h B A h E F j C ",
"  G 4 x H I J K I J K L H M N G ",
"  O 4 j P Q R S T A U n V 1 W O ",
"  X j j x b , Y < Z V L m ` K X ",
"   ...........................+.",
"                                ",
"                                ",
"                                ",
"                                ",
"                                "};
