/* XPM */
static char * titile_2_inactive_xpm[] = {
"18 26 93 2",
"  	c None",
". 	c #FFFFFF",
"+ 	c #EDF1F5",
"@ 	c #F1F4F7",
"# 	c #FBFCFD",
"$ 	c #FEFFFF",
"% 	c #EFF7FF",
"& 	c #E0EFFF",
"* 	c #D9ECFF",
"= 	c #D0E7FF",
"- 	c #CFE7FF",
"; 	c #F7F9FA",
"> 	c #F9FBFC",
", 	c #F7FBFF",
"' 	c #D8EBFE",
") 	c #CDE6FE",
"! 	c #E7F3FE",
"~ 	c #CDE5FD",
"{ 	c #CBE4FD",
"] 	c #FCFDFE",
"^ 	c #E1EFFD",
"/ 	c #C8E1FB",
"( 	c #FDFDFE",
"_ 	c #FEFEFF",
": 	c #EDF5FD",
"< 	c #C5DFFA",
"[ 	c #C9E0F9",
"} 	c #C1DCF8",
"| 	c #FAFDFF",
"1 	c #EAF3FC",
"2 	c #BDD9F6",
"3 	c #FDFEFE",
"4 	c #D3E5F8",
"5 	c #B9D6F4",
"6 	c #BDD9F4",
"7 	c #B4D3F2",
"8 	c #B2D1F0",
"9 	c #B0D0F0",
"0 	c #ACCCED",
"a 	c #ACCCEC",
"b 	c #A7C9EB",
"c 	c #B7D2EE",
"d 	c #A3C5E9",
"e 	c #FAFBFC",
"f 	c #CFE1F3",
"g 	c #9EC2E7",
"h 	c #E6F2FF",
"i 	c #EEF4FB",
"j 	c #9CC0E5",
"k 	c #9ABFE4",
"l 	c #F1F5F8",
"m 	c #FCFDFD",
"n 	c #BED5ED",
"o 	c #96BCE2",
"p 	c #F2F5F9",
"q 	c #F7F9FB",
"r 	c #F7FAFD",
"s 	c #9EC1E3",
"t 	c #92B9E0",
"u 	c #F2F5F8",
"v 	c #EBF2F9",
"w 	c #96BBE1",
"x 	c #8EB6DF",
"y 	c #D2E9FF",
"z 	c #F3F9FE",
"A 	c #ECF3F9",
"B 	c #A0C2E3",
"C 	c #8BB4DD",
"D 	c #FAFBFB",
"E 	c #D2E2F2",
"F 	c #9CBFE2",
"G 	c #88B2DC",
"H 	c #EEF2F6",
"I 	c #ECF0F4",
"J 	c #F4F6F7",
"K 	c #FEFEFE",
"L 	c #F0F5FA",
"M 	c #CEDFF0",
"N 	c #CCDEEF",
"O 	c #B6D0E9",
"P 	c #E6ECF1",
"Q 	c #E3E9EE",
"R 	c #E3E8EB",
"S 	c #EDEFF1",
"T 	c #F5F5F6",
"U 	c #C6E2FF",
"V 	c #C4E0FD",
"W 	c #BAD5F0",
"X 	c #BED3E8",
"Y 	c #CAD9E7",
"Z 	c #C7D4E1",
"` 	c #D1D9E1",
" .	c #A6CFF9",
". . . . . . . . . . . . . . . . . . ",
". . . . . . . . . . . . . . . . . . ",
"+ + + + @ # . $ % & * = - - - - - - ",
"; ; ; > . . , ' ) ) ) ) ) ) ) ) ) ) ",
"$ $ $ . . ! ~ { { { { { { { { { { { ",
"] ] . . ^ / / / / / / / / / / / / / ",
"( _ . : < < < < < < < < < < < < < < ",
"] . _ [ } } } } } } } } } } } } } } ",
"| . 1 2 2 2 2 2 2 2 2 2 2 2 2 2 2 2 ",
"3 . 4 5 5 5 5 5 5 5 5 5 5 5 5 5 5 5 ",
"_ . 6 7 7 7 7 7 7 7 7 7 7 7 7 7 7 7 ",
". . 8 9 9 9 9 9 9 9 9 9 9 9 9 9 9 9 ",
". . 0 0 0 0 0 0 0 0 0 0 0 0 0 0 0 0 ",
"$ . a b b b b b b b b b b b b b b b ",
"( . c d d d d d d d d d d d d d d d ",
"e . f g g g g g g g g g g g g g g g ",
"h . i j k k k k k k k k k k k k k k ",
"l m . n o o o o o o o o o o o o o o ",
"p q . r s t t t t t t t t t t t t t ",
"u u e . v w x x x x x x x x x x x x ",
"- - y z . A B C C C C C C C C C C C ",
"u u u u D . . E F G G G G G G G G G ",
"H H H H I J K . . L M N O O O O O O ",
"P P P P P Q R S T . . . . . . . . . ",
"U U U U U U V } W X Y Z ` ` ` ` ` ` ",
" . . . . . . . . . . . . . . . . . ."};
