/* XPM */
static char * titile_4_inactive_xpm[] = {
"18 26 144 2",
"  	c None",
". 	c #FFFFFF",
"+ 	c #CFE7FF",
"@ 	c #D4EAFF",
"# 	c #DAEDFF",
"$ 	c #E7F3FF",
"% 	c #F9FCFF",
"& 	c #F6F8FA",
"* 	c #EDF1F5",
"= 	c #CDE6FE",
"- 	c #CFE7FE",
"; 	c #FCFDFD",
"> 	c #F7F9FA",
", 	c #CBE4FD",
"' 	c #D6EAFD",
") 	c #F6FBFF",
"! 	c #FDFDFD",
"~ 	c #FEFFFF",
"{ 	c #C8E1FB",
"] 	c #CCE3FB",
"^ 	c #F8FBFE",
"/ 	c #FAFBFB",
"( 	c #FAFBFC",
"_ 	c #FCFDFE",
": 	c #C5DFFA",
"< 	c #CFE5FB",
"[ 	c #FEFEFF",
"} 	c #F6F6F6",
"| 	c #FBFBFC",
"1 	c #FDFDFE",
"2 	c #C1DCF8",
"3 	c #E7F2FC",
"4 	c #F5F5F6",
"5 	c #F5F6F7",
"6 	c #FBFCFD",
"7 	c #BDD9F6",
"8 	c #C7DFF7",
"9 	c #F8F9F9",
"0 	c #E8ECF0",
"a 	c #F4F8FC",
"b 	c #B9D6F4",
"c 	c #F5F9FD",
"d 	c #E5E5E5",
"e 	c #F3F4F5",
"f 	c #B4D3F2",
"g 	c #E5F0FB",
"h 	c #E2E2E3",
"i 	c #ECEDEF",
"j 	c #B0D0F0",
"k 	c #DBEAF8",
"l 	c #E0E0E1",
"m 	c #E5E6E8",
"n 	c #ACCCED",
"o 	c #D5E5F6",
"p 	c #DBDEE2",
"q 	c #D4DDE6",
"r 	c #A7C9EB",
"s 	c #DCE9F7",
"t 	c #D4D5D6",
"u 	c #DADDDF",
"v 	c #A3C5E9",
"w 	c #E6EFF9",
"x 	c #CACBCC",
"y 	c #D8DBDE",
"z 	c #9EC2E7",
"A 	c #A1C4E8",
"B 	c #BABCBE",
"C 	c #DADDE0",
"D 	c #9ABFE4",
"E 	c #BFD6EE",
"F 	c #DFE2E4",
"G 	c #ACB9C6",
"H 	c #CAD9E9",
"I 	c #96BCE2",
"J 	c #98BDE3",
"K 	c #F0F5FB",
"L 	c #C5C6C7",
"M 	c #C6C9CB",
"N 	c #E2E6E8",
"O 	c #92B9E0",
"P 	c #CBDEF0",
"Q 	c #E1E2E2",
"R 	c #AEB0B3",
"S 	c #D2D4D8",
"T 	c #E9EBEF",
"U 	c #8EB6DF",
"V 	c #B9D2EB",
"W 	c #B4B6B7",
"X 	c #C1C3C5",
"Y 	c #DEE1E4",
"Z 	c #EEF1F4",
"` 	c #8BB4DD",
" .	c #8DB5DE",
"..	c #CADDF0",
"+.	c #B0B9C2",
"@.	c #9AACBE",
"#.	c #B5CADF",
"$.	c #C7DEF5",
"%.	c #CEE6FE",
"&.	c #88B2DC",
"*.	c #8CB5DD",
"=.	c #B1CDE8",
"-.	c #EEF4FA",
";.	c #BDBEC0",
">.	c #B0B2B4",
",.	c #CDD0D2",
"'.	c #E4E7E9",
").	c #EFF2F5",
"!.	c #F2F5F8",
"~.	c #B6D0E9",
"{.	c #C1D7EC",
"].	c #CEDFF0",
"^.	c #DCE8F4",
"/.	c #FBFCFE",
"(.	c #E1E1E2",
"_.	c #B0B3B4",
":.	c #B1B4B7",
"<.	c #CACDD0",
"[.	c #DDE1E5",
"}.	c #E9EDF1",
"|.	c #EEF2F6",
"1.	c #E0E1E2",
"2.	c #C3C5C7",
"3.	c #A5A9AD",
"4.	c #B6BBBF",
"5.	c #C9CED3",
"6.	c #D8DEE3",
"7.	c #E1E7EC",
"8.	c #E5EBF0",
"9.	c #E6ECF1",
"0.	c #D1D9E1",
"a.	c #C8D1DB",
"b.	c #BBC7D4",
"c.	c #B1BFCE",
"d.	c #9AAEC3",
"e.	c #9AAFC6",
"f.	c #A2B9D1",
"g.	c #ACC4DD",
"h.	c #B6CFEA",
"i.	c #BED9F5",
"j.	c #C4DFFC",
"k.	c #C5E1FE",
"l.	c #C6E2FF",
"m.	c #A6CFF9",
". . . . . . . . . . . . . . . . . . ",
". . . . . . . . . . . . . . . . . . ",
"+ + + + + @ # $ % . . & * * * * * * ",
"= = = = = = = = - $ . . ; > > > > > ",
", , , , , , , , , , ' ) . ! ; ~ ~ ~ ",
"{ { { { { { { { { { { ] ^ . / ( _ _ ",
": : : : : : : : : : : : < [ . } | 1 ",
"2 2 2 2 2 2 2 2 2 2 2 2 2 3 . 4 5 6 ",
"7 7 7 7 7 7 7 7 7 7 7 7 7 8 . 9 0 a ",
"b b b b b b b b b b b b b b c . d e ",
"f f f f f f f f f f f f f f g . h i ",
"j j j j j j j j j j j j j j k . l m ",
"n n n n n n n n n n n n n n o . p q ",
"r r r r r r r r r r r r r r s . t u ",
"v v v v v v v v v v v v v v w . x y ",
"z z z z z z z z z z z z z A _ . B C ",
"D D D D D D D D D D D D D E . F G H ",
"I I I I I I I I I I I I J K . L M N ",
"O O O O O O O O O O O O P . Q R S T ",
"U U U U U U U U U U U V . . W X Y Z ",
"` ` ` ` ` ` ` ` `  .... . +.@.#.$.%.",
"&.&.&.&.&.&.&.*.=.-.. . ;.>.,.'.).!.",
"~.~.~.~.{.].^./.. . (._.:.<.[.}.* |.",
". . . . . . . . 1.2.3.4.5.6.7.8.9.9.",
"0.0.0.0.a.b.c.d.e.f.g.h.i.j.k.l.l.l.",
"m.m.m.m.m.m.m.m.m.m.m.m.m.m.m.m.m.m."};
