/* XPM */
static char * right_inactive_xpm[] = {
"6 32 5 1",
" 	c None",
".	c #EEEEE6 s inactive_color_2",
"+	c #D5D6CD s inactive_mid_2",
"@	c #ACAE94 s inactive_shadow_2",
"#	c #000000",
"..+@# ",
"..+@# ",
"..+@# ",
"..+@# ",
"..+@# ",
"..+@# ",
"..+@# ",
"..+@# ",
"..+@# ",
"..+@# ",
"..+@# ",
"..+@# ",
"..+@# ",
"..+@# ",
"..+@# ",
"..+@# ",
"..+@# ",
"..+@# ",
"..+@# ",
"..+@# ",
"..+@# ",
"..+@# ",
"..+@# ",
"..+@# ",
"..+@# ",
"..+@# ",
"..+@# ",
"..+@# ",
"..+@# ",
"..+@# ",
"..+@# ",
"..+@# "};
