/* XPM */
static char * top_left_active_xpm[] = {
"14 36 188 2",
"  	c None",
". 	c #292929",
"+ 	c #000000",
"@ 	c #FFFF50",
"# 	c #FFEE2E",
"$ 	c #FFEF2F",
"% 	c #FFED2D",
"& 	c #F0BC2A",
"* 	c #FFEE2C",
"= 	c #F1BE2D",
"- 	c #FFEE2D",
"; 	c #FFEB2A",
"> 	c #FFEA2A",
", 	c #FFEB2B",
"' 	c #FFEC2C",
") 	c #FFE829",
"! 	c #FFE929",
"~ 	c #F1BD2C",
"{ 	c #FEF643",
"] 	c #FFE828",
"^ 	c #FDF441",
"/ 	c #FFE626",
"( 	c #FFE726",
"_ 	c #F0BC2B",
": 	c #FFE627",
"< 	c #FDFE4F",
"[ 	c #FFE322",
"} 	c #EEBB29",
"| 	c #FCF23F",
"1 	c #FFE523",
"2 	c #FCFC4F",
"3 	c #FFE21E",
"4 	c #EDB927",
"5 	c #FCF03D",
"6 	c #FFE220",
"7 	c #EDB827",
"8 	c #E9B523",
"9 	c #FFE320",
"0 	c #FAFA4F",
"a 	c #FFDF1C",
"b 	c #EBB724",
"c 	c #FAEC3A",
"d 	c #FFE01D",
"e 	c #ECB724",
"f 	c #FBED3A",
"g 	c #ECB725",
"h 	c #FEDF1D",
"i 	c #F8F84E",
"j 	c #FEDB1A",
"k 	c #F9EA38",
"l 	c #EAB423",
"m 	c #F9EA39",
"n 	c #FEDB1B",
"o 	c #E9B422",
"p 	c #FAEA39",
"q 	c #FEDC1B",
"r 	c #F6F54D",
"s 	c #FCD81A",
"t 	c #E7B221",
"u 	c #F8E837",
"v 	c #FBD81A",
"w 	c #E7B122",
"x 	c #F8E838",
"y 	c #F4F34D",
"z 	c #F6D21A",
"A 	c #E3AF20",
"B 	c #F4E436",
"C 	c #F6D31B",
"D 	c #F4E437",
"E 	c #F6D41B",
"F 	c #E0AB1F",
"G 	c #F2E136",
"H 	c #F7D41B",
"I 	c #F1F14C",
"J 	c #F0CE1C",
"K 	c #E0AC1F",
"L 	c #F2E036",
"M 	c #F0CD1D",
"N 	c #F1E136",
"O 	c #F1CD1D",
"P 	c #F0CE1E",
"Q 	c #EEEE4B",
"R 	c #EAC81C",
"S 	c #F0DC35",
"T 	c #E9C81D",
"U 	c #DCA91E",
"V 	c #EFDD35",
"W 	c #EAC91D",
"X 	c #ECD933",
"Y 	c #EBC91D",
"Z 	c #ECEC4A",
"` 	c #E3C31D",
" .	c #D8A61C",
"..	c #ECD934",
"+.	c #E4C31E",
"@.	c #D8A51C",
"#.	c #E9EA49",
"$.	c #DDBC1E",
"%.	c #D3A21B",
"&.	c #E8D532",
"*.	c #DCBB1E",
"=.	c #D4A21B",
"-.	c #E8D633",
";.	c #DDBB1E",
">.	c #D5A81C",
",.	c #E6D131",
"'.	c #E7E748",
").	c #D6B41E",
"!.	c #D09F1A",
"~.	c #E6D231",
"{.	c #D7B41E",
"].	c #D6B61D",
"^.	c #D19F1A",
"/.	c #D5B51E",
"(.	c #E5E548",
"_.	c #D0AF1E",
":.	c #E3CE2F",
"<.	c #D1AF1E",
"[.	c #CD9C18",
"}.	c #E4CE30",
"|.	c #D1AF1D",
"1.	c #E3E247",
"2.	c #CDAB1B",
"3.	c #CA9916",
"4.	c #E2CA2E",
"5.	c #CDAA1B",
"6.	c #CB9916",
"7.	c #DEC52B",
"8.	c #CEAB1C",
"9.	c #B07C00",
"0.	c #E0E046",
"a.	c #CBA719",
"b.	c #C99714",
"c.	c #E0C82C",
"d.	c #CCA719",
"e.	c #AF7B00",
"f.	c #DEDE46",
"g.	c #C8A216",
"h.	c #C59412",
"i.	c #DDC52A",
"j.	c #C8A317",
"k.	c #ACAE94 s active_shadow_2",
"l.	c #DBDB45",
"m.	c #C59D13",
"n.	c #DCC128",
"o.	c #C59E14",
"p.	c #C29110",
"q.	c #DCC229",
"r.	c #C59F14",
"s.	c #D5D6CD s active_mid_2",
"t.	c #D8D844",
"u.	c #C39911",
"v.	c #C08E0E",
"w.	c #DABF27",
"x.	c #D7D643",
"y.	c #C1960F",
"z.	c #BE8B0B",
"A.	c #D8BB24",
"B.	c #BD8C0B",
"C.	c #D4D442",
"D.	c #BE910D",
"E.	c #BB890A",
"F.	c #D6B922",
"G.	c #BE920D",
"H.	c #BB8909",
"I.	c #BF930D",
"J.	c #D2D142",
"K.	c #BC8F0C",
"L.	c #D5B520",
"M.	c #B08107",
"N.	c #D5B621",
"O.	c #D0D041",
"P.	c #BA8C0A",
"Q.	c #D2B220",
"R.	c #BB8C0A",
"S.	c #BA8C09",
"T.	c #CFCF41",
"U.	c #B98A08",
"V.	c #B88908",
"W.	c #C39B12",
"X.	c #B88807",
"Y.	c #C8A217",
"Z.	c #B88707",
"`.	c #B68506",
" +	c #C59C13",
".+	c #B78607",
"++	c #EEEEE6 s active_color_2",
"@+	c #FCFCFC s active_hilight_2",
"          . + + + + + + + + ",
"      + + @ @ @ @ @ @ @ @ @ ",
"    + @ @ # # # # # # $ $ $ ",
"  + @ % % & @ * = @ - - - - ",
"  + @ ; & @ > = = @ , = @ ' ",
"+ @ ) & @ ! ~ ~ { ] = = ^ ! ",
"+ @ / @ / & & ^ ( _ _ ^ : : ",
"+ < [ [ } } | [ } } | 1 1 1 ",
"+ 2 3 4 4 5 6 7 7 5 6 8 | 9 ",
"+ 0 a b c d e e f a g g | h ",
"+ i j k j l l m n o o p q q ",
"+ r s s t t u v w w x v v v ",
"+ y z A A B C A A D E F G H ",
"+ I J K L M K K N O F F G P ",
"+ Q R S T U U V W U U X Y Y ",
"+ Z ` `  . ...+.@.@.X +.+.+.",
"+ #.$.%.%.&.*.=.=.-.;.>.,.;.",
"+ '.).!.~.{.!.!.~.].^.,././.",
"+ (._.:.<.[.[.}.|.[.,.<.<.<.",
"+ 1.2.2.3.3.4.5.6.7.8.8.8.9.",
"+ 0.a.b.b.c.d.b.7.a.a.a.e.+ ",
"+ f.g.h.i.g.h.h.7.j.j.e.+ k.",
"+ l.m.n.o.p.p.q.r.r.e.+ k.s.",
"+ t.u.u.v.v.w.u.u.u.e.+ k.s.",
"+ x.y.z.z.A.y.B.A.y.e.+ k.s.",
"+ C.D.E.F.G.H.H.F.I.e.+ k.s.",
"+ J.K.L.K.M.M.N.K.K.e.+ k.s.",
"+ O.P.P.M.M.Q.R.M.S.e.+ k.s.",
"+ T.U.U.M.Q.V.M.W.U.e.+ k.s.",
"  + e.X.Q.X.M.M.Y.Z.e.+ k.s.",
"  + e.`.`.`. + +.+.+e.+ k.s.",
"    + e.e.`.`.`.`.`.e.+ k.s.",
"      + + e.e.e.e.e.e.+ k.s.",
"          + + + + + + + k.s.",
"                  + k.k.s.++",
"                  + @+++++++"};
