/* XPM */
static char * bottom_right_inactive_xpm[] = {
"20 20 8 1",
" 	c None",
".	c #000000 s inactive_border_color",
"+	c #FFFFFF s inactive_hilight_2",
"@	c #CCCCC7 s inactive_color_2",
"#	c #919189 s inactive_shadow_2",
"$	c #EBEBE9 s inactive_hilight_1",
"%	c #81817B s inactive_shadow_1",
"&	c #B6B6B1 s inactive_color_1",
"               .+@#.",
"               .+@#.",
"               .+@#.",
"               .+@#.",
"               .+@#.",
"               .+@#.",
"               .+@#.",
"               .+@#.",
"               .+@#.",
"               .+@#.",
"               .+@#.",
"               .+@#.",
"               .+@#.",
"               .+##.",
"               .....",
"....................",
"$$$$$$$$$$$$$$$$$$%.",
"&&&&&&&&&&&&&&&&&&%.",
"%%%%%%%%%%%%%%%%%%%.",
"...................."};
