/* XPM */
static char * top_right_inactive_xpm[] = {
"5 27 7 1",
" 	c None",
".	c #000000 s inactive_border_color",
"+	c #EBEBE9 s inactive_hilight_1",
"@	c #B6B6B1 s inactive_color_1",
"#	c #81817B s inactive_shadow_1",
"$	c #FFFFFF s inactive_hilight_2",
"%	c #919189 s inactive_shadow_2",
".....",
"++++.",
"@@@#.",
"@@@#.",
"@@@#.",
"@@@#.",
"@@@#.",
"@@@#.",
"@@@#.",
"@@@#.",
"@@@#.",
"@@@#.",
"@@@#.",
"@@@#.",
"@@@#.",
"@@@#.",
"@@@#.",
"@@@#.",
"@@@#.",
"@@@#.",
"@@@#.",
"@@@#.",
"@@@#.",
"####.",
".....",
".....",
".$$%."};
