/* XPM */
static char * bottom_right_active_xpm[] = {
"25 25 4 1",
"       c None",
".      c #EDEAE6 s active_color_2",
"+      c #000000",
"@      c #7B7B7B s active_shadow_2",
"                    ...@+",
"                    ...@+",
"                    ...@+",
"                    ...@+",
"                    ...@+",
"                    ...@+",
"                    ...@+",
"                    ...@+",
"                    ...@+",
"                    ...@+",
"                    ...@+",
"                    ...@+",
"                    ...@+",
"                    ...@+",
"                    ...@+",
"                    ...@+",
"                    ...@+",
"                    ...@+",
"                    ...@+",
"                    ...@+",
"......................@+ ",
"......................@+ ",
"....................@@+  ",
"@@@@@@@@@@@@@@@@@@@@++   ",
"++++++++++++++++++++     "};
