/* XPM */
static char * left_inactive_xpm[] = {
"5 128 5 1",
" 	c None",
".	c #000000",
"+	c #EDEAE6 s active_color_2",
"@	c #7B7B7B s active_hilight_2",
"#      c #7B7B7B s active_shadow_2",
".@+++",
".@+++",
".@+++",
".@+++",
".@+++",
".@+++",
".@+++",
".@+++",
".@+++",
".@+++",
".@+++",
".@+++",
".@+++",
".@+++",
".@+++",
".@+++",
".@+++",
".@+++",
".@+++",
".@+++",
".@+++",
".@+++",
".@+++",
".@+++",
".@+++",
".@+++",
".@+++",
".@+++",
".@+++",
".@+++",
".@+++",
".@+++",
".@+++",
".@+++",
".@+++",
".@+++",
".@+++",
".@+++",
".@+++",
".@+++",
".@+++",
".@+++",
".@+++",
".@+++",
".@+++",
".@+++",
".@+++",
".@+++",
".@+++",
".@+++",
".@+++",
".@+++",
".@+++",
".@+++",
".@+++",
".@+++",
".@+++",
".@+++",
".@+++",
".@+++",
".@+++",
".@+++",
".@+++",
".@+++",
".@+++",
".@+++",
".@+++",
".@+++",
".@+++",
".@+++",
".@+++",
".@+++",
".@+++",
".@+++",
".@+++",
".@+++",
".@+++",
".@+++",
".@+++",
".@+++",
".@+++",
".@+++",
".@+++",
".@+++",
".@+++",
".@+++",
".@+++",
".@+++",
".@+++",
".@+++",
".@+++",
".@+++",
".@+++",
".@+++",
".@+++",
".@+++",
".@+++",
".@+++",
".@+++",
".@+++",
".@+++",
".@+++",
".@+++",
".@+++",
".@+++",
".@+++",
".@+++",
".@+++",
".@+++",
".@+++",
".@+++",
".@+++",
".@+++",
".@+++",
".@+++",
".@+++",
".@+++",
".@+++",
".@+++",
".@+++",
".@+++",
".@+++",
".@+++",
".@+++",
".@+++",
".@+++",
".@+++",
".@+++"};
