/* XPM */
static char * hide_inactive_xpm[] = {
"24 14 5 1",
" 	c None",
".	c #C0C0C0 s inactive_color_2",
"+	c #D0D0D0 s inactive_hilight_2",
"@	c #A0A0D0 s inactive_shadow_2",
"#	c #000000 s inactive_border_color",
" ...................... ",
"........................",
"........................",
"........................",
"........................",
"........................",
"........................",
"........................",
"........................",
".........@@@@@@.........",
".........@@@@@@.........",
"........................",
"........................",
" ...................... "};
