/* XPM */
static char * left_active_xpm[] = {
"3 32 4 1",
" 	c None",
".	c #000000",
"+	c #838183",
"@	c #9C9D9C",
".+@",
".+@",
".+@",
".+@",
".+@",
".+@",
".+@",
".+@",
".+@",
".+@",
".+@",
".+@",
".+@",
".+@",
".+@",
".+@",
".+@",
".+@",
".+@",
".+@",
".+@",
".+@",
".+@",
".+@",
".+@",
".+@",
".+@",
".+@",
".+@",
".+@",
".+@",
".+@"};
