/* XPM */
static char * bottom_left_inactive_xpm[] = {
"25 7 5 1",
" 	c None",
".	c #FFFFFF",
"+	c #A1A190",
"@	c #979786",
"#	c #AEAE9D",
".++@#####################",
".++++++++++++++++++++++++",
".++++++++++++++++++++++++",
".++++++++++++++++++++++++",
".++++++++++++++++++++++++",
".@@@@@@@@@@@@@@@@@@@@@@@@",
"........................."};
