/* XPM */
static char * left_inactive_xpm[] = {
"4 64 5 1",
" 	c None",
".	c #000000",
"+	c #AEAE9D",
"@	c #A1A190",
"#	c #979786",
".+@#",
".+@#",
".+@#",
".+@#",
".+@#",
".+@#",
".+@#",
".+@#",
".+@#",
".+@#",
".+@#",
".+@#",
".+@#",
".+@#",
".+@#",
".+@#",
".+@#",
".+@#",
".+@#",
".+@#",
".+@#",
".+@#",
".+@#",
".+@#",
".+@#",
".+@#",
".+@#",
".+@#",
".+@#",
".+@#",
".+@#",
".+@#",
".+@#",
".+@#",
".+@#",
".+@#",
".+@#",
".+@#",
".+@#",
".+@#",
".+@#",
".+@#",
".+@#",
".+@#",
".+@#",
".+@#",
".+@#",
".+@#",
".+@#",
".+@#",
".+@#",
".+@#",
".+@#",
".+@#",
".+@#",
".+@#",
".+@#",
".+@#",
".+@#",
".+@#",
".+@#",
".+@#",
".+@#",
".+@#"};
