/* XPM */
static char * right_active_xpm[] = {
"4 64 4 1",
" 	c None",
".	c #000000",
"+	c #47B1DB",
"@	c #086CA4",
".+@.",
".+@.",
".+@.",
".+@.",
".+@.",
".+@.",
".+@.",
".+@.",
".+@.",
".+@.",
".+@.",
".+@.",
".+@.",
".+@.",
".+@.",
".+@.",
".+@.",
".+@.",
".+@.",
".+@.",
".+@.",
".+@.",
".+@.",
".+@.",
".+@.",
".+@.",
".+@.",
".+@.",
".+@.",
".+@.",
".+@.",
".+@.",
".+@.",
".+@.",
".+@.",
".+@.",
".+@.",
".+@.",
".+@.",
".+@.",
".+@.",
".+@.",
".+@.",
".+@.",
".+@.",
".+@.",
".+@.",
".+@.",
".+@.",
".+@.",
".+@.",
".+@.",
".+@.",
".+@.",
".+@.",
".+@.",
".+@.",
".+@.",
".+@.",
".+@.",
".+@.",
".+@.",
".+@.",
".+@."};
