/* XPM */
static char * title_5_inactive_xpm[] = {
"8 28 22 1",
" 	c None",
".	c #000000",
"+	c #AEAE9D",
"@	c #ACAC9B",
"#	c #ABAB9A",
"$	c #AAAA99",
"%	c #A8A897",
"&	c #A7A796",
"*	c #A6A695",
"=	c #A4A493",
"-	c #A2A291",
";	c #A1A190",
">	c #A0A08F",
",	c #9F9F8E",
"'	c #9E9E8D",
")	c #9D9D8C",
"!	c #9B9B8A",
"~	c #9C9C8B",
"{	c #9A9A89",
"]	c #989887",
"^	c #999988",
"/	c #979786",
"........",
"++++++++",
"++++++++",
"@@@@@@@@",
"########",
"$$$$$$$$",
"%%%%%%%%",
"&&&&&&&&",
"********",
"========",
"--------",
";;;;;;;;",
">>>>>>>>",
",','',',",
"))))))))",
"!~!~~!~!",
"!!!!!!!!",
"{{{{{{{{",
"]^]^^]^]",
"]]]]]]]]",
"////////",
"////////",
"////////",
"////////",
"////////",
"////////",
"////////",
"........"};
