/* XPM */
static char * top_left_active_xpm[] = {
"10 64 63 1",
" 	c None",
".	c #000000",
"+	c #47B1DB",
"@	c #45B0D9",
"#	c #42ADD6",
"$	c #41ADD7",
"%	c #3FAAD4",
"&	c #3FA9D4",
"*	c #3CA6D2",
"=	c #3BA6D1",
"-	c #37A3CF",
";	c #38A3CF",
">	c #349FCC",
",	c #339FCC",
"'	c #2F9CC9",
")	c #2B97C6",
"!	c #2B98C6",
"~	c #2692C3",
"{	c #2793C3",
"]	c #238FBF",
"^	c #2390C0",
"/	c #2390C1",
"(	c #1F8BBC",
"_	c #1E8ABC",
":	c #1B86B9",
"<	c #1B87B9",
"[	c #1883B5",
"}	c #1783B5",
"|	c #1881B5",
"1	c #157FB2",
"2	c #147EB2",
"3	c #127BAF",
"4	c #127AAF",
"5	c #0F78AC",
"6	c #0F78AD",
"7	c #0D74AA",
"8	c #0C74A9",
"9	c #0C74AA",
"0	c #0A70A7",
"a	c #0A70A8",
"b	c #0B71A8",
"c	c #0A71A7",
"d	c #096EA6",
"e	c #096FA6",
"f	c #096FA5",
"g	c #086DA4",
"h	c #086CA4",
"i	c #086EA5",
"j	c #0D75AA",
"k	c #0E76AC",
"l	c #1079AE",
"m	c #127CB0",
"n	c #137EB1",
"o	c #157FB3",
"p	c #1680B4",
"q	c #1884B7",
"r	c #1A85B8",
"s	c #1B87BA",
"t	c #1D8ABB",
"u	c #1E8BBC",
"v	c #208CBD",
"w	c #218DBE",
"x	c #2290BF",
"     .....",
"   ...++++",
"  ..++@@@@",
" ..+#$#$$$",
" .+%%&%&&&",
"..+**=*===",
".+-;;-;---",
".+>>>>>>,,",
".+''''''''",
".+)!!)!)!!",
".+~{{~{~{{",
".+]^^]^]//",
".+(__(_(((",
".+:<<:<:::",
".+[}}[}[||",
".+12212122",
".+33333344",
".+56656566",
".+78878799",
".+0aa0a0bc",
".+ddddddef",
".+gggggggg",
".+gggggggg",
".+gggggggg",
".+gggggggg",
".+gggggggg",
".+gggggggg",
".+hhhhhhhh",
".+ih      ",
".+eh      ",
".+0h      ",
".+bh      ",
".+8h      ",
".+jh      ",
".+kh      ",
".+6h      ",
".+lh      ",
".+3h      ",
".+mh      ",
".+nh      ",
".+oh      ",
".+ph      ",
".+}h      ",
".+qh      ",
".+rh      ",
".+:h      ",
".+sh      ",
".+th      ",
".+uh      ",
".+vh      ",
".+wh      ",
".+xh      ",
".+^h      ",
".+^h      ",
".+^h      ",
".+^h      ",
".+^h      ",
".+^h      ",
".+^h      ",
".+^h      ",
".+^h      ",
".+^h      ",
".+^h      ",
".+^h      "};
