/* XPM */
static char * top_right_active_xpm[] = {
"10 64 47 1",
" 	c None",
".	c #000000",
"+	c #47B1DB",
"@	c #45B0D9",
"#	c #42ADD6",
"$	c #41ADD7",
"%	c #3FA9D4",
"&	c #3FAAD4",
"*	c #086CA4",
"=	c #3CA7D1",
"-	c #3BA6D1",
";	c #3CA6D2",
">	c #38A4CF",
",	c #37A3CF",
"'	c #38A3CF",
")	c #339FCC",
"!	c #349FCC",
"~	c #309CC9",
"{	c #2F9CC9",
"]	c #2B98C6",
"^	c #2B97C6",
"/	c #2793C3",
"(	c #2692C3",
"_	c #238FBF",
":	c #2390C0",
"<	c #1F8BBC",
"[	c #1E8ABC",
"}	c #1B86B9",
"|	c #1B87B9",
"1	c #1883B5",
"2	c #1783B5",
"3	c #157FB2",
"4	c #147EB2",
"5	c #127AAF",
"6	c #127BAF",
"7	c #0F78AD",
"8	c #0F78AC",
"9	c #0C74A9",
"0	c #0D74A9",
"a	c #0D74AA",
"b	c #0A70A7",
"c	c #0A71A7",
"d	c #0A70A8",
"e	c #096FA6",
"f	c #096FA5",
"g	c #096EA6",
"h	c #086DA4",
".....     ",
"+++++..   ",
"@@@@+++.  ",
"##$#$#++. ",
"%%%&%&&*. ",
"==-;-;;;*.",
">>,','',*.",
"))!!!!!!*.",
"~~{{{{{{*.",
"]]^]^]]^*.",
"//(/(//(*.",
"___:_::_*.",
"<<<[<[[<*.",
"}}}|}||}*.",
"11121221*.",
"33343443*.",
"55666666*.",
"77878778*.",
"90a9a99a*.",
"bcbdbddb*.",
"efgggggg*.",
"hhhhhhhh*.",
"hhhhhhhh*.",
"hhhhhhhh*.",
"hhhhhhhh*.",
"hhhhhhhh*.",
"hhhhhhhh*.",
".......+*.",
"      .+*.",
"      .+*.",
"      .+*.",
"      .+*.",
"      .+*.",
"      .+*.",
"      .+*.",
"      .+*.",
"      .+*.",
"      .+*.",
"      .+*.",
"      .+*.",
"      .+*.",
"      .+*.",
"      .+*.",
"      .+*.",
"      .+*.",
"      .+*.",
"      .+*.",
"      .+*.",
"      .+*.",
"      .+*.",
"      .+*.",
"      .+*.",
"      .+*.",
"      .+*.",
"      .+*.",
"      .+*.",
"      .+*.",
"      .+*.",
"      .+*.",
"      .+*.",
"      .+*.",
"      .+*.",
"      .+*.",
"      .+*."};
