<?xml version="1.0" encoding="UTF-8" standalone="no"?>
<svg
   viewBox="0 0 16 16"
   style="display:inline;enable-background:new"
   version="1.0"
   id="svg11300"
   height="16"
   width="16"
   sodipodi:docname="org.xfce.xfwm4-tweaks.svg"
   inkscape:version="1.2.2 (b0a8486541, 2022-12-01)"
   inkscape:export-filename="org.xfce.xfwm4-tweaks.png"
   inkscape:export-xdpi="96"
   inkscape:export-ydpi="96"
   xmlns:inkscape="http://www.inkscape.org/namespaces/inkscape"
   xmlns:sodipodi="http://sodipodi.sourceforge.net/DTD/sodipodi-0.dtd"
   xmlns="http://www.w3.org/2000/svg"
   xmlns:svg="http://www.w3.org/2000/svg"
   xmlns:rdf="http://www.w3.org/1999/02/22-rdf-syntax-ns#"
   xmlns:cc="http://creativecommons.org/ns#"
   xmlns:dc="http://purl.org/dc/elements/1.1/">
  <sodipodi:namedview
     pagecolor="#ffffff"
     bordercolor="#666666"
     borderopacity="1"
     objecttolerance="10"
     gridtolerance="10"
     guidetolerance="10"
     inkscape:pageopacity="0"
     inkscape:pageshadow="2"
     inkscape:window-width="1322"
     inkscape:window-height="668"
     id="namedview35"
     showgrid="true"
     inkscape:zoom="10.429825"
     inkscape:cx="-4.8418837"
     inkscape:cy="9.1564336"
     inkscape:window-x="487"
     inkscape:window-y="288"
     inkscape:window-maximized="0"
     inkscape:current-layer="svg11300"
     inkscape:showpageshadow="2"
     inkscape:pagecheckerboard="0"
     inkscape:deskcolor="#d1d1d1">
    <inkscape:grid
       type="xygrid"
       id="grid844"
       empspacing="4" />
  </sodipodi:namedview>
  <title
     id="title4162">Adwaita Icon Template</title>
  <defs
     id="defs3" />
  <metadata
     id="metadata4">
    <rdf:RDF>
      <cc:Work
         rdf:about="">
        <dc:title>Adwaita Icon Template</dc:title>
      </cc:Work>
    </rdf:RDF>
  </metadata>
  <rect
     ry="0.75"
     rx="0.75"
     y="6.5"
     x="0.5"
     height="9"
     width="11"
     id="rect861"
     style="display:inline;opacity:1;fill:#a7b0b7;fill-opacity:1;stroke:#a7b0b7;stroke-width:1;stroke-linecap:butt;stroke-linejoin:miter;stroke-miterlimit:4;stroke-dasharray:none;stroke-dashoffset:0;stroke-opacity:1;marker:none;marker-start:none;marker-mid:none;marker-end:none;paint-order:normal;enable-background:new" />
  <rect
     ry="0.75"
     rx="0.75"
     y="2.5"
     x="4.5"
     height="9"
     width="11"
     id="rect859"
     style="display:inline;opacity:1;fill:#006888;fill-opacity:1;stroke:#006888;stroke-width:1;stroke-linecap:butt;stroke-linejoin:miter;stroke-miterlimit:4;stroke-dasharray:none;stroke-dashoffset:0;stroke-opacity:1;marker:none;marker-start:none;marker-mid:none;marker-end:none;paint-order:normal;enable-background:new" />
  <rect
     style="display:inline;opacity:1;fill:#00aade;fill-opacity:1;stroke:#00aade;stroke-width:1;stroke-linecap:butt;stroke-linejoin:miter;stroke-miterlimit:4;stroke-dasharray:none;stroke-dashoffset:0;stroke-opacity:1;marker:none;marker-start:none;marker-mid:none;marker-end:none;paint-order:normal;enable-background:new"
     id="rect851"
     width="11"
     height="9"
     x="4.5"
     y="1.5"
     rx="0.75"
     ry="0.75" />
  <rect
     style="display:inline;opacity:1;fill:#00aade;fill-opacity:1;stroke:none;stroke-width:1;stroke-linecap:butt;stroke-linejoin:miter;stroke-miterlimit:4;stroke-dasharray:none;stroke-dashoffset:0;stroke-opacity:1;marker:none;marker-start:none;marker-mid:none;marker-end:none;paint-order:normal;enable-background:new"
     id="rect857"
     width="12"
     height="10"
     x="2"
     y="4"
     rx="0.75"
     ry="0.75" />
  <rect
     ry="0.75"
     rx="0.75"
     y="3"
     x="2"
     height="10"
     width="12"
     id="rect1711-3-6"
     style="display:inline;opacity:1;fill:#6acfec;fill-opacity:1;stroke:none;stroke-width:1;stroke-linecap:butt;stroke-linejoin:miter;stroke-miterlimit:4;stroke-dasharray:none;stroke-dashoffset:0;stroke-opacity:1;marker:none;marker-start:none;marker-mid:none;marker-end:none;paint-order:normal;enable-background:new" />
  <rect
     style="display:inline;opacity:1;fill:#f1f3f5;fill-opacity:1;stroke:#d2d8dc;stroke-width:1;stroke-linecap:butt;stroke-linejoin:miter;stroke-miterlimit:4;stroke-dasharray:none;stroke-dashoffset:0;stroke-opacity:1;marker:none;marker-start:none;marker-mid:none;marker-end:none;paint-order:normal;enable-background:new"
     id="rect853"
     width="11"
     height="9"
     x="0.5"
     y="5.5"
     rx="0.75"
     ry="0.75" />
  <path
     id="path864-2-5"
     d="M 3.857256,6.000001 3.357754,7.4991422 c -0.0579,0.021859 -0.115706,0.044999 -0.172294,0.070718 L 1.7731087,6.8640032 0.8641102,7.7730028 1.5712556,9.186646 A 3.2142913,3.2142859 0 0 0 1.4965586,9.357647 L 0,9.857144 v 1.285714 l 1.4991281,0.499499 c 0.0218,0.05787 0.044999,0.115718 0.070797,0.172289 L 0.8640595,13.227002 1.773058,14.136003 3.186689,13.42886 c 0.056,0.02698 0.113156,0.05144 0.171024,0.07457 l 0.499493,1.496573 H 5.142922 L 5.642426,13.50086 c 0.0579,-0.02186 0.115705,-0.045 0.172292,-0.07071 l 1.412353,0.705856 0.909008,-0.909 -0.707155,-1.413645 c 0.027,-0.05594 0.0515,-0.113139 0.0747,-0.170999 L 9.000168,11.142849 V 9.857136 L 7.501051,9.357638 A 3.2078627,3.2078569 0 0 0 7.430251,9.185351 L 8.136127,7.7729948 7.22712,6.8639962 5.813479,7.5711387 A 3.2091485,3.2091428 0 0 0 5.642475,7.4965713 L 5.142973,6 Z m 0.642859,2.571428 a 1.9285749,1.9285714 0 1 1 0,3.857142 1.9285749,1.9285714 0 0 1 0,-3.857142 z"
     style="display:inline;fill:#dcb102;fill-opacity:1;stroke:none;stroke-width:0.99954;stroke-miterlimit:4;stroke-dasharray:none;stroke-opacity:1;enable-background:new"
     inkscape:connector-curvature="0" />
</svg>
