/* XPM */
static char * bottom_left_active_xpm[] = {
"16 5 21 1",
" 	c None",
".	c #8BAAEE",
"+	c #A4BAEE",
"@	c #BDCEEE",
"#	c #BDC6F6",
"$	c #94BEDE",
"%	c #839DE6",
"&	c #8BA5E6",
"*	c #A4BAE6",
"=	c #ACBEEE",
"-	c #B4C2EE",
";	c #8BB2DE",
">	c #94A5E6",
",	c #94AAE6",
"'	c #94BAD5",
")	c #83A1DE",
"!	c #8B9DDE",
"~	c #9CAACD",
"{	c #7B8DC5",
"]	c #7385BD",
"^	c #7381BD",
" .+@@@##########",
" $%&*==---------",
"  ;%>,==========",
"   ')!!!!!!!!!!!",
"     ~{]]]]]]^^^"};
