/* XPM */
static char * close_pressed_xpm[] = {
"19 24 249 2",
"  	c None",
". 	c #D5DEEE",
"+ 	c #D5DDED",
"@ 	c #CAA5B0",
"# 	c #B86C71",
"$ 	c #AD4F51",
"% 	c #A84748",
"& 	c #AB4B4D",
"* 	c #B26266",
"= 	c #C3969F",
"- 	c #D4D9E9",
"; 	c #E6E6F6",
"> 	c #DABCC8",
", 	c #B05052",
"' 	c #AC3B3B",
") 	c #BE6363",
"! 	c #CA8C8C",
"~ 	c #CE9C9C",
"{ 	c #CB9494",
"] 	c #C17575",
"^ 	c #AF4646",
"/ 	c #A43F40",
"( 	c #C499A2",
"_ 	c #E4E4F4",
": 	c #E6F2FF",
"< 	c #D2AEB6",
"[ 	c #A83B3B",
"} 	c #C15454",
"| 	c #DCABAB",
"1 	c #EDCCCC",
"2 	c #F4D2D2",
"3 	c #F6D4D4",
"4 	c #EECDCD",
"5 	c #DFBDBD",
"6 	c #C67575",
"7 	c #A83737",
"8 	c #A66F73",
"9 	c #DEEAF7",
"0 	c #D5E2F6",
"a 	c #CDB8C7",
"b 	c #A73B3B",
"c 	c #C85353",
"d 	c #E8B0B0",
"e 	c #F8C0C0",
"f 	c #FDC4C4",
"g 	c #FFC6C6",
"h 	c #FEC5C5",
"i 	c #F9C1C1",
"j 	c #ECB7B7",
"k 	c #CE7A7A",
"l 	c #A83838",
"m 	c #956B72",
"n 	c #CEDAEE",
"o 	c #D5DCEC",
"p 	c #AD4E50",
"q 	c #C04040",
"r 	c #E89292",
"s 	c #CB8C8C",
"t 	c #C68888",
"u 	c #FFB0B0",
"v 	c #EAA1A1",
"w 	c #A06D6D",
"x 	c #EDA3A3",
"y 	c #C85656",
"z 	c #9E3636",
"A 	c #94919B",
"B 	c #D3DCEC",
"C 	c #C9A4B1",
"D 	c #AC3939",
"E 	c #DB5858",
"F 	c #F69595",
"G 	c #A86666",
"H 	c #090606",
"I 	c #B86F6F",
"J 	c #FE9A9A",
"K 	c #E98D8D",
"L 	c #2C1B1B",
"M 	c #553333",
"N 	c #F99696",
"O 	c #E17575",
"P 	c #B33C3C",
"Q 	c #7E4144",
"R 	c #BBC7D9",
"S 	c #B86A6E",
"T 	c #BD3F3F",
"U 	c #EA5E5E",
"V 	c #FC7373",
"W 	c #FE6B6B",
"X 	c #963B3B",
"Y 	c #090303",
"Z 	c #B84242",
"` 	c #FE5B5B",
" .	c #E95353",
"..	c #2C1010",
"+.	c #4A1C1C",
"@.	c #F76565",
"#.	c #FD6F6F",
"$.	c #EF7070",
"%.	c #C64242",
"&.	c #953636",
"*.	c #8D959D",
"=.	c #DCE8F4",
"-.	c #AB4A4C",
";.	c #C94343",
">.	c #F15050",
",.	c #FD5454",
"'.	c #FE5555",
").	c #973232",
"!.	c #A43737",
"~.	c #2D0F0F",
"{.	c #4A1919",
"].	c #F75252",
"^.	c #F45151",
"/.	c #D14646",
"(.	c #A33535",
"_.	c #5D6169",
":.	c #CDDAED",
"<.	c #A64142",
"[.	c #CD4444",
"}.	c #F35151",
"|.	c #8A2E2E",
"1.	c #000000",
"2.	c #381313",
"3.	c #F65252",
"4.	c #D54747",
"5.	c #A53737",
"6.	c #4A474D",
"7.	c #BCC8DB",
"8.	c #A84445",
"9.	c #CB4444",
"0.	c #F25151",
"a.	c #EA4E4E",
"b.	c #2E0F0F",
"c.	c #B63D3D",
"d.	c #F55252",
"e.	c #D34646",
"f.	c #A43636",
"g.	c #46444A",
"h.	c #C0CCDE",
"i.	c #AE585B",
"j.	c #C24141",
"k.	c #ED4F4F",
"l.	c #FC5454",
"m.	c #481818",
"n.	c #993333",
"o.	c #B53C3C",
"p.	c #CA4343",
"q.	c #9B3637",
"r.	c #464B51",
"s.	c #C3D3E1",
"t.	c #BE838E",
"u.	c #B24141",
"v.	c #E15555",
"w.	c #F95555",
"x.	c #471818",
"y.	c #FA5555",
"z.	c #E65858",
"A.	c #BA4747",
"B.	c #863637",
"C.	c #5B5E69",
"D.	c #CCD5EC",
"E.	c #CBCADC",
"F.	c #A24141",
"G.	c #CA6565",
"H.	c #EE7272",
"I.	c #8C3535",
"J.	c #4D1A1A",
"K.	c #9A3535",
"L.	c #3D1717",
"M.	c #F17272",
"N.	c #D16F6F",
"O.	c #A64444",
"P.	c #4E3236",
"Q.	c #818996",
"R.	c #CBD8EC",
"S.	c #CDDEF6",
"T.	c #B57C86",
"U.	c #AB4E4E",
"V.	c #D38282",
"W.	c #EF9595",
"X.	c #FB8686",
"Y.	c #FE7676",
"Z.	c #FE6C6C",
"`.	c #FE6A6A",
" +	c #FE7575",
".+	c #F29797",
"++	c #D98B8B",
"@+	c #B15656",
"#+	c #87393B",
"$+	c #434951",
"%+	c #B4C3D8",
"&+	c #D5E6F6",
"*+	c #D3E3F2",
"=+	c #A65659",
"-+	c #AD4E4E",
";+	c #CE8181",
">+	c #E7A6A6",
",+	c #F3B0B0",
"'+	c #F8AFAF",
")+	c #FAAFAF",
"!+	c #F9B0B0",
"~+	c #F4B1B1",
"{+	c #E9A9A9",
"]+	c #D28888",
"^+	c #B15555",
"/+	c #953B3B",
"(+	c #3C393D",
"_+	c #8F9BA5",
":+	c #D3E4F4",
"<+	c #C5D3EA",
"[+	c #A0585D",
"}+	c #A54141",
"|+	c #BA5D5D",
"1+	c #CE7D7D",
"2+	c #DA9292",
"3+	c #DD9999",
"4+	c #CF8080",
"5+	c #BC6161",
"6+	c #A74444",
"7+	c #8E393B",
"8+	c #3A363B",
"9+	c #7B8593",
"0+	c #C4D5EC",
"a+	c #C5DAEE",
"b+	c #BED2E5",
"c+	c #967E88",
"d+	c #953F40",
"e+	c #A43C3C",
"f+	c #A74141",
"g+	c #A94545",
"h+	c #A74242",
"i+	c #A33C3C",
"j+	c #94393A",
"k+	c #5F3437",
"l+	c #41484F",
"m+	c #8593A1",
"n+	c #CBDCF4",
"o+	c #B4C3D9",
"p+	c #868A99",
"q+	c #735860",
"r+	c #69464C",
"s+	c #624449",
"t+	c #4E4850",
"u+	c #585F6A",
"v+	c #828D9C",
"w+	c #D3E0F4",
"x+	c #C5D1E3",
"y+	c #C2CEE0",
"z+	c #CDDEEE",
"                                      ",
"                                      ",
"                                      ",
"                                      ",
". . . . + @ # $ % & * = - . . . . . . ",
"; ; ; > , ' ) ! ~ { ] ^ / ( _ ; ; ; ; ",
": : < [ } | 1 2 3 2 4 5 6 7 8 9 : : : ",
"0 a b c d e f g g g h i j k l m n 0 0 ",
"o p q r s t u u u u u v w x y z A B . ",
"C D E F G H I J J J K L M N O P Q R 0 ",
"S T U V W X Y Z `  ...+.@.#.$.%.&.*.=.",
"-.;.>.,.'.'.).Y !.~.{.].'.'.^./.(._.:.",
"<.[.}.,.'.'.'.|.1.2.].'.'.'.3.4.5.6.7.",
"8.9.0.,.'.'.a.b.~.Y c.'.'.'.d.e.f.g.h.",
"i.j.k.l.'.a.b.m.3.n.Y o.'.,.>.p.q.r.s.",
"t.u.v.w.a.b.x.3.'.'.n.Y o.y.z.A.B.C.D.",
"E.F.G.H.I.J.3.'.'.'.'.K.L.M.N.O.P.Q.R.",
"S.T.U.V.W.X.Y.Z.`.Z. +X..+++@+#+$+%+S.",
"&+*+=+-+;+>+,+'+)+!+~+{+]+^+/+(+_+:+&+",
"S.S.<+[+}+|+1+2+3+2+4+5+6+7+8+9+0+S.S.",
"a+a+a+b+c+d+e+f+g+h+i+j+k+l+m+b+a+a+a+",
"S.S.S.S.n+o+p+q+r+s+t+u+v+o+n+S.S.S.S.",
"0 0 0 0 0 0 w+:.x+y+x+:.w+0 0 0 0 0 0 ",
"z+z+z+z+z+z+z+z+z+z+z+z+z+z+z+z+z+z+z+"};
