/* XPM */
static char * menu_pressed_xpm[] = {
"19 24 248 2",
"  	c None",
". 	c #D5DEEE",
"+ 	c #D4DDEE",
"@ 	c #9AA1DA",
"# 	c #5F65C0",
"$ 	c #4146B1",
"% 	c #393EAB",
"& 	c #3D42AF",
"* 	c #545AB8",
"= 	c #8A91D1",
"- 	c #D0D9EC",
"; 	c #E6E6F6",
"> 	c #B8B9E6",
", 	c #4347B3",
"' 	c #2C30AC",
") 	c #585BBE",
"! 	c #8385CA",
"~ 	c #9697CE",
"{ 	c #8D90CB",
"] 	c #6C6EC1",
"^ 	c #383CAF",
"/ 	c #3236A5",
"( 	c #9495CD",
"_ 	c #E4E4F4",
": 	c #E6F2FF",
"< 	c #A1AAE2",
"[ 	c #2D31A9",
"} 	c #464AC1",
"| 	c #A4A7DC",
"1 	c #C8C9ED",
"2 	c #CECFF4",
"3 	c #D0D1F6",
"4 	c #C9CAEE",
"5 	c #BABBDF",
"6 	c #6B6EC6",
"7 	c #292DA8",
"8 	c #636AAF",
"9 	c #DEEAF7",
"0 	c #D5E2F6",
"a 	c #AAB5E5",
"b 	c #2D31A7",
"c 	c #4448C8",
"d 	c #A8A9E8",
"e 	c #B9BBF8",
"f 	c #BDBFFD",
"g 	c #BFC1FF",
"h 	c #BEC0FE",
"i 	c #BABCF9",
"j 	c #B0B2EC",
"k 	c #6F72CE",
"l 	c #5F66A2",
"m 	c #CEDAEE",
"n 	c #D3DCEE",
"o 	c #4045B0",
"p 	c #3034C0",
"q 	c #8789E8",
"r 	c #A2A5FA",
"s 	c #A6A9FF",
"t 	c #A4A7FC",
"u 	c #9A9DED",
"v 	c #474BC8",
"w 	c #282C9F",
"x 	c #8A90A4",
"y 	c #D3DCEC",
"z 	c #96A0DE",
"A 	c #2A2EAC",
"B 	c #474BDB",
"C 	c #888CF6",
"D 	c #8D91FE",
"E 	c #8A8EF9",
"F 	c #676BE1",
"G 	c #2C30B3",
"H 	c #373B83",
"I 	c #BBC7D9",
"J 	c #5C63BF",
"K 	c #2E33BD",
"L 	c #4D52EA",
"M 	c #6166FC",
"N 	c #3C40AF",
"O 	c #21236A",
"P 	c #494FFD",
"Q 	c #474DFE",
"R 	c #464BFE",
"S 	c #464CFE",
"T 	c #494EFE",
"U 	c #3B40C5",
"V 	c #181947",
"W 	c #5D62FD",
"X 	c #6063EF",
"Y 	c #3135C6",
"Z 	c #2A2D96",
"` 	c #8D959D",
" .	c #DCE8F4",
"..	c #3C41AF",
"+.	c #3136C9",
"@.	c #3B41F1",
"#.	c #3E44FD",
"$.	c #373CE0",
"%.	c #060618",
"&.	c #1E2179",
"*.	c #3F45FE",
"=.	c #363BDB",
"-.	c #050514",
";.	c #202383",
">.	c #3C42F4",
",.	c #3338D1",
"'.	c #282CA3",
").	c #5B616C",
"!.	c #CDDAED",
"~.	c #3338A9",
"{.	c #3237CD",
"].	c #3C42F3",
"^.	c #3237CC",
"/.	c #03030C",
"(.	c #26299A",
"_.	c #3A3FEB",
":.	c #090A26",
"<.	c #181A62",
"[.	c #3D42F6",
"}.	c #3439D5",
"|.	c #292CA5",
"1.	c #414654",
"2.	c #BCC8DB",
"3.	c #373BAB",
"4.	c #3237CB",
"5.	c #3C41F2",
"6.	c #010207",
"7.	c #2B2FAF",
"8.	c #0F103C",
"9.	c #111244",
"0.	c #3D43F9",
"a.	c #3C42F5",
"b.	c #3439D3",
"c.	c #282CA4",
"d.	c #404450",
"e.	c #C0CCDE",
"f.	c #4A4FB4",
"g.	c #3034C2",
"h.	c #3A40ED",
"i.	c #3E44FC",
"j.	c #252896",
"k.	c #000000",
"l.	c #0B0C2C",
"m.	c #3B40EF",
"n.	c #3236CA",
"o.	c #282B9C",
"p.	c #464B51",
"q.	c #C3D3E1",
"r.	c #767DCD",
"s.	c #3236B2",
"t.	c #4247E1",
"u.	c #3F45F9",
"v.	c #383DE3",
"w.	c #3F45FA",
"x.	c #454BE6",
"y.	c #393DBA",
"z.	c #2C2F88",
"A.	c #5B5E69",
"B.	c #CCD5EC",
"C.	c #BCC8E8",
"D.	c #3438A3",
"E.	c #595CCA",
"F.	c #6166EE",
"G.	c #4D53FB",
"H.	c #4349FE",
"I.	c #4C52FC",
"J.	c #6266F1",
"K.	c #6266D1",
"L.	c #373AA6",
"M.	c #2C2F53",
"N.	c #818996",
"O.	c #CBD8EC",
"P.	c #CDDEF6",
"Q.	c #6D76C5",
"R.	c #4245AB",
"S.	c #787BD3",
"T.	c #898DEF",
"U.	c #777BFB",
"V.	c #6469FE",
"W.	c #595FFE",
"X.	c #565CFE",
"Y.	c #6368FE",
"Z.	c #767AFB",
"`.	c #8B8EF2",
" +	c #8184D9",
".+	c #4A4DB1",
"++	c #2F338A",
"@+	c #434951",
"#+	c #B4C3D8",
"$+	c #D5E6F6",
"%+	c #D2E2F4",
"&+	c #484FAC",
"*+	c #4245AD",
"=+	c #7679CE",
"-+	c #9DA0E7",
";+	c #A6A9F3",
">+	c #A6A8F8",
",+	c #A5A8FA",
"'+	c #A6A9F9",
")+	c #A8ABF4",
"!+	c #A0A3E9",
"~+	c #7E81D2",
"{+	c #484CB1",
"]+	c #2F3296",
"^+	c #343843",
"/+	c #8F9BA5",
"(+	c #D3E4F4",
"_+	c #C3D3EC",
":+	c #4A50A8",
"<+	c #3437A5",
"[+	c #5155BA",
"}+	c #7275CE",
"|+	c #888BDA",
"1+	c #8F93DD",
"2+	c #898CDA",
"3+	c #7578CF",
"4+	c #5559BC",
"5+	c #383BA7",
"6+	c #2D3190",
"7+	c #303543",
"8+	c #7B8593",
"9+	c #C4D5EC",
"0+	c #C5DAEE",
"a+	c #BED2E5",
"b+	c #6F7AAA",
"c+	c #313698",
"d+	c #2E32A4",
"e+	c #3438A7",
"f+	c #383CA9",
"g+	c #3539A7",
"h+	c #2E32A3",
"i+	c #2C3095",
"j+	c #2C3064",
"k+	c #41484F",
"l+	c #8593A1",
"m+	c #CBDCF4",
"n+	c #B4C3D9",
"o+	c #7F8A9F",
"p+	c #4E5580",
"q+	c #3D4273",
"r+	c #3B416C",
"s+	c #42485B",
"t+	c #585F6A",
"u+	c #828D9C",
"v+	c #D3E0F4",
"w+	c #C5D1E3",
"x+	c #C2CEE0",
"y+	c #CDDEEE",
"                                      ",
"                                      ",
"                                      ",
"                                      ",
". . . . + @ # $ % & * = - . . . . . . ",
"; ; ; > , ' ) ! ~ { ] ^ / ( _ ; ; ; ; ",
": : < [ } | 1 2 3 2 4 5 6 7 8 9 : : : ",
"0 a b c d e f g g g h i j k 7 l m 0 0 ",
"n o p q r s s s s s s s t u v w x y . ",
"z A B C D D D D D D D D D E F G H I 0 ",
"J K L M N O P Q R S T U V W X Y Z `  .",
"..+.@.#.$.%.&.*.*.*.=.-.;.*.>.,.'.).!.",
"~.{.].#.*.^./.(.*._.:.<.*.*.[.}.|.1.2.",
"3.4.5.#.*.*.G 6.7.8.9.0.*.*.a.b.c.d.e.",
"f.g.h.i.*.*.*.j.k.l.m.*.*.#.@.n.o.p.q.",
"r.s.t.u.*.*.*.*.c.v.*.*.*.w.x.y.z.A.B.",
"C.D.E.F.G.H.*.*.*.*.*.H.I.J.K.L.M.N.O.",
"P.Q.R.S.T.U.V.W.X.W.Y.Z.`. +.+++@+#+P.",
"$+%+&+*+=+-+;+>+,+'+)+!+~+{+]+^+/+(+$+",
"P.P._+:+<+[+}+|+1+2+3+4+5+6+7+8+9+P.P.",
"0+0+0+a+b+c+d+e+f+g+h+i+j+k+l+a+0+0+0+",
"P.P.P.P.m+n+o+p+q+r+s+t+u+n+m+P.P.P.P.",
"0 0 0 0 0 0 v+!.w+x+w+!.v+0 0 0 0 0 0 ",
"y+y+y+y+y+y+y+y+y+y+y+y+y+y+y+y+y+y+y+"};
