/* XPM */
static char * stick_active_xpm[] = {
"19 24 224 2",
"  	c None",
". 	c #D5DEEE",
"+ 	c #D5DDEE",
"@ 	c #C8AFDA",
"# 	c #B47FC0",
"$ 	c #A866B1",
"% 	c #A35FAB",
"& 	c #A662AF",
"* 	c #AE75B8",
"= 	c #C0A2D1",
"- 	c #D3DAEC",
"; 	c #E6E6F6",
"> 	c #D9C3E6",
", 	c #AB66B3",
"' 	c #A656AC",
") 	c #B979BE",
"! 	c #C79ACA",
"~ 	c #CBA8CE",
"{ 	c #C8A1CB",
"] 	c #BD87C1",
"^ 	c #A95FAF",
"/ 	c #9E56A5",
"( 	c #C2A3CD",
"_ 	c #E4E4F4",
": 	c #E6F2FF",
"< 	c #D0B8E2",
"[ 	c #A255A9",
"} 	c #BB6EC1",
"| 	c #D9B6DC",
"1 	c #EBD3ED",
"2 	c #F2DAF4",
"3 	c #F4DBF6",
"4 	c #ECD4EE",
"5 	c #DDC5DF",
"6 	c #C288C6",
"7 	c #A252A8",
"8 	c #A37EAF",
"9 	c #DEEAF7",
"0 	c #D5E2F6",
"a 	c #CBBFE5",
"b 	c #A154A7",
"c 	c #C16FC8",
"d 	c #E5BDE8",
"e 	c #F5CEF8",
"f 	c #FAD2FD",
"g 	c #FCD4FF",
"h 	c #FBD3FE",
"i 	c #F6CFF9",
"j 	c #E9C4EC",
"k 	c #CA8ECE",
"l 	c #9376A2",
"m 	c #CEDAEE",
"n 	c #A865B0",
"o 	c #B95EC0",
"p 	c #E3A6E8",
"q 	c #F5BFFA",
"r 	c #FAC3FF",
"s 	c #F7C0FC",
"t 	c #E8B5ED",
"u 	c #C171C8",
"v 	c #994F9F",
"w 	c #9493A4",
"x 	c #D3DCEC",
"y 	c #C6AFDE",
"z 	c #A654AC",
"A 	c #D477DB",
"B 	c #F1ACF6",
"C 	c #F9B2FE",
"D 	c #F4AEF9",
"E 	c #DA8EE1",
"F 	c #AC58B3",
"G 	c #7B5083",
"H 	c #BBC7D9",
"I 	c #B47EBF",
"J 	c #B65DBD",
"K 	c #E280EA",
"L 	c #F492FC",
"M 	c #F68EFE",
"N 	c #F588FE",
"O 	c #F585FE",
"P 	c #F582FE",
"Q 	c #F581FE",
"R 	c #F583FE",
"S 	c #F587FE",
"T 	c #F68BFE",
"U 	c #F591FD",
"V 	c #E88EEF",
"W 	c #BF61C6",
"X 	c #8F4D96",
"Y 	c #8D959D",
"Z 	c #DCE8F4",
"` 	c #A661AF",
" .	c #C263C9",
"..	c #E876F1",
"+.	c #F47CFD",
"@.	c #F57DFE",
"#.	c #EB78F4",
"$.	c #C966D1",
"%.	c #9D50A3",
"&.	c #5D616C",
"*.	c #CDDAED",
"=.	c #A159A9",
"-.	c #C564CD",
";.	c #EA77F3",
">.	c #ED79F6",
",.	c #CD68D5",
"'.	c #9F51A5",
").	c #494854",
"!.	c #BCC8DB",
"~.	c #A35CAB",
"{.	c #C464CB",
"].	c #E977F2",
"^.	c #EC78F5",
"/.	c #CB67D3",
"(.	c #9E50A4",
"_.	c #464650",
":.	c #C0CCDE",
"<.	c #A96DB4",
"[.	c #BB5FC2",
"}.	c #E474ED",
"|.	c #F37CFC",
"1.	c #C363CA",
"2.	c #964E9C",
"3.	c #464B51",
"4.	c #C3D3E1",
"5.	c #BB92CD",
"6.	c #AB5BB2",
"7.	c #D975E1",
"8.	c #F07CF9",
"9.	c #F17DFA",
"0.	c #DD7AE6",
"a.	c #B363BA",
"b.	c #814988",
"c.	c #5B5E69",
"d.	c #CCD5EC",
"e.	c #CACDE8",
"f.	c #9E58A3",
"g.	c #C47DCA",
"h.	c #E78FEE",
"i.	c #F285FB",
"j.	c #F580FE",
"k.	c #F385FC",
"l.	c #EA90F1",
"m.	c #CB86D1",
"n.	c #A15BA6",
"o.	c #4D3953",
"p.	c #818996",
"q.	c #CBD8EC",
"r.	c #CDDEF6",
"s.	c #B18BC5",
"t.	c #A563AB",
"u.	c #CF95D3",
"v.	c #EAAAEF",
"w.	c #F5A2FB",
"x.	c #F696FE",
"y.	c #F68FFE",
"z.	c #F68DFE",
"A.	c #F695FE",
"B.	c #F5A1FB",
"C.	c #EDACF2",
"D.	c #D49ED9",
"E.	c #AC6BB1",
"F.	c #834C8A",
"G.	c #434951",
"H.	c #B4C3D8",
"I.	c #D5E6F6",
"J.	c #D3E3F4",
"K.	c #A26AAC",
"L.	c #A764AD",
"M.	c #CA92CE",
"N.	c #E3B5E7",
"O.	c #EFBFF3",
"P.	c #F4C0F8",
"Q.	c #F6C0FA",
"R.	c #F5C1F9",
"S.	c #F0C1F4",
"T.	c #E5B8E9",
"U.	c #CE99D2",
"V.	c #AC6AB1",
"W.	c #905196",
"X.	c #3B3A43",
"Y.	c #8F9BA5",
"Z.	c #D3E4F4",
"`.	c #C5D4EC",
" +	c #9C69A8",
".+	c #A059A5",
"++	c #B573BA",
"@+	c #CA90CE",
"#+	c #D6A3DA",
"$+	c #D9A8DD",
"%+	c #D6A4DA",
"&+	c #CB92CF",
"*+	c #B777BC",
"=+	c #A25CA7",
"-+	c #8A4D90",
";+	c #3A3743",
">+	c #7B8593",
",+	c #C4D5EC",
"'+	c #C5DAEE",
")+	c #BED2E5",
"!+	c #9486AA",
"~+	c #905398",
"{+	c #9E54A4",
"]+	c #A159A7",
"^+	c #A45CA9",
"/+	c #A15AA7",
"(+	c #9D55A3",
"_+	c #8F4E95",
":+	c #5D3E64",
"<+	c #41484F",
"[+	c #8593A1",
"}+	c #CBDCF4",
"|+	c #B4C3D9",
"1+	c #868C9F",
"2+	c #716080",
"3+	c #684F73",
"4+	c #614C6C",
"5+	c #4E4B5B",
"6+	c #585F6A",
"7+	c #828D9C",
"8+	c #D3E0F4",
"9+	c #C5D1E3",
"0+	c #C2CEE0",
"a+	c #CDDEEE",
"                                      ",
"                                      ",
"                                      ",
"                                      ",
". . . . + @ # $ % & * = - . . . . . . ",
"; ; ; > , ' ) ! ~ { ] ^ / ( _ ; ; ; ; ",
": : < [ } | 1 2 3 2 4 5 6 7 8 9 : : : ",
"0 a b c d e f g g g h i j k 7 l m 0 0 ",
"+ n o p q r r r r r r r s t u v w x . ",
"y z A B C C C C C C C C C D E F G H 0 ",
"I J K L M N O P Q P R S T U V W X Y Z ",
"`  ...+.@.@.@.@.@.@.@.@.@.@.#.$.%.&.*.",
"=.-.;.+.@.@.@.@.@.@.@.@.@.@.>.,.'.).!.",
"~.{.].+.@.@.@.@.@.@.@.@.@.@.^./.(._.:.",
"<.[.}.|.@.@.@.@.@.@.@.@.@.+...1.2.3.4.",
"5.6.7.8.@.@.@.@.@.@.@.@.@.9.0.a.b.c.d.",
"e.f.g.h.i.j.@.@.@.@.@.j.k.l.m.n.o.p.q.",
"r.s.t.u.v.w.x.y.z.y.A.B.C.D.E.F.G.H.r.",
"I.J.K.L.M.N.O.P.Q.R.S.T.U.V.W.X.Y.Z.I.",
"r.r.`. +.+++@+#+$+%+&+*+=+-+;+>+,+r.r.",
"'+'+'+)+!+~+{+]+^+/+(+_+:+<+[+)+'+'+'+",
"r.r.r.r.}+|+1+2+3+4+5+6+7+|+}+r.r.r.r.",
"0 0 0 0 0 0 8+*.9+0+9+*.8+0 0 0 0 0 0 ",
"a+a+a+a+a+a+a+a+a+a+a+a+a+a+a+a+a+a+a+"};
