/* XPM */
static char * stick_pressed_xpm[] = {
"12 20 23 1",
" 	c None",
".	c #151732",
"+	c #13152D",
"@	c #A0A2B3",
"#	c #171832",
"$	c #A3A4B6",
"%	c #191A39",
"&	c #A5A6BA",
"*	c #1A1B40",
"=	c #A6A7BE",
"-	c #1A1E42",
";	c #A6A9BF",
">	c #23284F",
",	c #ADB0C5",
"'	c #32395E",
")	c #B6BACC",
"!	c #3B4468",
"~	c #BBC0D0",
"{	c #444E73",
"]	c #C0C4D4",
"^	c #4D5579",
"/	c #C4C7D6",
"(	c #5D6789",
"            ",
"            ",
"            ",
"            ",
"            ",
" .......... ",
"+@@@@@@@@@@+",
"#$$$$$$$$$$#",
"%&&&&%&&%&&%",
"*====****==*",
"-;;------;;-",
">,,>>>>>>,,>",
"'))))''''))'",
"!~~~~!~~!~~!",
"{]]]]]]]]]]{",
"^//////////^",
" (((((((((( ",
"            ",
"            ",
"            "};
