/* XPM */
static char * top_right_inactive_xpm[] = {
"5 20 45 1",
" 	c None",
".	c #6079AA",
"+	c #E3E7F7",
"@	c #D6E0F2",
"#	c #D2DBEF",
"$	c #3B486A",
"%	c #C1CFEC",
"&	c #B2C2E4",
"*	c #A5B9DF",
"=	c #2B354E",
"-	c #141414",
";	c #7F99CA",
">	c #778FC0",
",	c #6D86BA",
"'	c #6078AE",
")	c #5A71A5",
"!	c #6780B3",
"~	c #89A1CE",
"{	c #7A94C6",
"]	c #728DBE",
"^	c #6A84B7",
"/	c #95ABD6",
"(	c #8EA5D0",
"_	c #9EB3D9",
":	c #93AAD4",
"<	c #ACBEE2",
"[	c #A1B5DD",
"}	c #9BB0D7",
"|	c #91A7D2",
"1	c #BACAE8",
"2	c #AFC0E2",
"3	c #A9BEE0",
"4	c #9CB2D8",
"5	c #B5C5E3",
"6	c #9FB5D9",
"7	c #CFDBEF",
"8	c #C4D2ED",
"9	c #BDCBE9",
"0	c #D6DEF0",
"a	c #CCD7EF",
"b	c #B7C7E6",
"c	c #DCE5F5",
"d	c #EBEDFA",
"e	c #E6E9F8",
"f	c #EDEEFC",
".    ",
"+..  ",
"+@#$ ",
"%&*=-",
";>>>-",
",'')-",
">!')-",
"~{]!-",
"~;>^-",
"/(~;-",
"_:(~-",
"<[}|-",
"1234-",
"%5<6-",
"7892-",
"0a8b-",
"c@a%-",
"deca-",
"fdca-",
"))ca-"};
