/* XPM */
static char * top_right_inactive_xpm[] = {
"5 20 47 1",
" 	c None",
".	c #6079AA",
"+	c #F9F9FE",
"@	c #F3F5FE",
"#	c #F6F7FE",
"$	c #D2DBEF",
"%	c #3B486A",
"&	c #DCE5F5",
"*	c #DEE7F4",
"=	c #E0E6F5",
"-	c #2B354E",
";	c #141414",
">	c #7F99CA",
",	c #778FC0",
"'	c #6D86BA",
")	c #6078AE",
"!	c #5A71A5",
"~	c #6780B3",
"{	c #89A1CE",
"]	c #7A94C6",
"^	c #728DBE",
"/	c #6A84B7",
"(	c #95ABD6",
"_	c #8EA5D0",
":	c #9EB3D9",
"<	c #93AAD4",
"[	c #ACBEE2",
"}	c #A1B5DD",
"|	c #9BB0D7",
"1	c #91A7D2",
"2	c #BACAE8",
"3	c #AFC0E2",
"4	c #A9BEE0",
"5	c #9CB2D8",
"6	c #C1CFEC",
"7	c #B5C5E3",
"8	c #9FB5D9",
"9	c #CFDBEF",
"0	c #C4D2ED",
"a	c #BDCBE9",
"b	c #D6DEF0",
"c	c #CCD7EF",
"d	c #B7C7E6",
"e	c #D6E0F2",
"f	c #EBEDFA",
"g	c #E6E9F8",
"h	c #EDEEFC",
".    ",
"+..  ",
"@#$% ",
"&*=-;",
">,,,;",
"'))!;",
",~)!;",
"{]^~;",
"{>,/;",
"(_{>;",
":<_{;",
"[}|1;",
"2345;",
"67[8;",
"90a3;",
"bc0d;",
"&ec6;",
"fg&c;",
"hf&c;",
"!!&c;"};
