/* XPM */
static char * right_active_xpm[] = {
"6 128 7 1",
" 	c None",
".	c #000000",
"+	c #D8D3CB",
"@	c #B9B4AB",
"#	c #9A9489",
"$	c #888176",
"%	c #B9B3AA",
".+@#$.",
".+@#$.",
".+@#$.",
".+@#$.",
".+@#$.",
".+@#$.",
".+@#$.",
".+@#$.",
".+@#$.",
".+@#$.",
".+@#$.",
".+@#$.",
".+%#$.",
".+@#$.",
".+@#$.",
".+@#$.",
".+@#$.",
".+@#$.",
".+@#$.",
".+@#$.",
".+@#$.",
".+@#$.",
".+@#$.",
".+@#$.",
".+@#$.",
".+@#$.",
".+@#$.",
".+@#$.",
".+@#$.",
".+@#$.",
".+@#$.",
".+@#$.",
".+@#$.",
".+@#$.",
".+@#$.",
".+@#$.",
".+@#$.",
".+@#$.",
".+@#$.",
".+@#$.",
".+@#$.",
".+@#$.",
".+@#$.",
".+@#$.",
".+@#$.",
".+@#$.",
".+@#$.",
".+@#$.",
".+@#$.",
".+@#$.",
".+@#$.",
".+@#$.",
".+@#$.",
".+@#$.",
".+@#$.",
".+@#$.",
".+@#$.",
".+@#$.",
".+@#$.",
".+@#$.",
".+@#$.",
".+@#$.",
".+@#$.",
".+@#$.",
".+@#$.",
".+@#$.",
".+@#$.",
".+@#$.",
".+@#$.",
".+@#$.",
".+@#$.",
".+@#$.",
".+@#$.",
".+@#$.",
".+@#$.",
".+@#$.",
".+@#$.",
".+@#$.",
".+@#$.",
".+@#$.",
".+%#$.",
".+@#$.",
".+@#$.",
".+@#$.",
".+@#$.",
".+@#$.",
".+@#$.",
".+@#$.",
".+@#$.",
".+@#$.",
".+@#$.",
".+@#$.",
".+@#$.",
".+@#$.",
".+@#$.",
".+@#$.",
".+@#$.",
".+@#$.",
".+@#$.",
".+@#$.",
".+@#$.",
".+@#$.",
".+@#$.",
".+@#$.",
".+@#$.",
".+@#$.",
".+@#$.",
".+@#$.",
".+@#$.",
".+@#$.",
".+@#$.",
".+@#$.",
".+@#$.",
".+@#$.",
".+@#$.",
".+@#$.",
".+@#$.",
".+@#$.",
".+@#$.",
".+@#$.",
".+@#$.",
".+@#$.",
".+@#$.",
".+@#$.",
".+@#$.",
".+@#$.",
".+@#$.",
".+@#$."};
