/* XPM */
static char * title_4_active_xpm[] = {
"20 28 116 2",
"  	c None",
". 	c #000000",
"+ 	c #FCFAF7",
"@ 	c #EEEBE6",
"# 	c #D0CBC2",
"$ 	c #BBB5AA",
"% 	c #765B2B",
"& 	c #998157",
"* 	c #C2BCB3",
"= 	c #FFEFD1",
"- 	c #FFEDCD",
"; 	c #DBC090",
"> 	c #FFFFFD",
", 	c #FFFFFF",
"' 	c #D8D5CD",
") 	c #B9B3A9",
"! 	c #5D4212",
"~ 	c #583D0D",
"{ 	c #6E5323",
"] 	c #FBE0B0",
"^ 	c #BEB8AD",
"/ 	c #E9E6E1",
"( 	c #D9D5D5",
"_ 	c #706B67",
": 	c #68625D",
"< 	c #ADA79C",
"[ 	c #E9E7E1",
"} 	c #F6F2EF",
"| 	c #F1EFEB",
"1 	c #BE963C",
"2 	c #BD923C",
"3 	c #B38A3C",
"4 	c #A57D3C",
"5 	c #F6DBAB",
"6 	c #C5BFB6",
"7 	c #C1BBB2",
"8 	c #8B8580",
"9 	c #2D2824",
"0 	c #494036",
"a 	c #A6A093",
"b 	c #ECE9E4",
"c 	c #FDFDF9",
"d 	c #CBC7BF",
"e 	c #F9EFA5",
"f 	c #F5DAAA",
"g 	c #C6C1B7",
"h 	c #AFA79C",
"i 	c #898070",
"j 	c #8D8576",
"k 	c #DBD6D0",
"l 	c #FFFFFC",
"m 	c #D3D0C7",
"n 	c #FDF5BC",
"o 	c #DCB33C",
"p 	c #B9B3A7",
"q 	c #C7C1B8",
"r 	c #E3DED8",
"s 	c #FFFDFA",
"t 	c #D5D2C8",
"u 	c #BBB6AC",
"v 	c #FFFBD3",
"w 	c #F6D73C",
"x 	c #D5D0C8",
"y 	c #FAE154",
"z 	c #F7E579",
"A 	c #F7E997",
"B 	c #EBE7E3",
"C 	c #E1DED8",
"D 	c #C1BBB0",
"E 	c #FDF6BF",
"F 	c #F6E57E",
"G 	c #C7C2B9",
"H 	c #C4BFB6",
"I 	c #D5BA8A",
"J 	c #C2A777",
"K 	c #BFA474",
"L 	c #CEC9C1",
"M 	c #BCB6AC",
"N 	c #AFA99E",
"O 	c #A19C90",
"P 	c #B3ACA1",
"Q 	c #C1A676",
"R 	c #9F885F",
"S 	c #D9D6D0",
"T 	c #CFCBC4",
"U 	c #A9A399",
"V 	c #A7A196",
"W 	c #A28B63",
"X 	c #EBE9E6",
"Y 	c #DAD7D1",
"Z 	c #67615C",
"` 	c #A69E93",
" .	c #B2ACA1",
"..	c #A09A8F",
"+.	c #ACA69C",
"@.	c #F0EFED",
"#.	c #EDEBE8",
"$.	c #DFDCD7",
"%.	c #CAC6BD",
"&.	c #433A30",
"*.	c #8C8475",
"=.	c #B6B0A4",
"-.	c #AAA399",
";.	c #8D867C",
">.	c #726C61",
",.	c #D4D0C9",
"'.	c #D2CFC7",
").	c #C5C0B7",
"!.	c #BDB7AC",
"~.	c #827969",
"{.	c #6D6353",
"].	c #9A9385",
"^.	c #B8B2A7",
"/.	c #AFA99D",
"(.	c #A39C92",
"_.	c #9A9489",
". . . . . . . . . . . . . . . . . . . . ",
"+ + + + + + + + + + + + + + + + + + + + ",
"@ @ @ @ @ @ @ @ @ @ @ @ @ @ @ @ @ @ @ @ ",
"# # # # # # # # # # # # # # # # # # # # ",
"$ $ $ $ $ $ $ $ $ $ $ $ $ $ $ $ $ $ $ $ ",
"$ $ $ $ $ $ $ $ $ $ $ $ $ $ $ $ $ $ $ $ ",
"% % % % % & $ $ $ $ $ * $ $ $ $ $ $ $ $ ",
"= = = = - ; & $ $ $ $ * > , ' ) $ $ $ $ ",
"! ! ! ~ { ] % ^ $ $ $ / ( _ : < # [ } | ",
"1 1 2 3 4 5 % 6 $ $ $ 7 8 9 0 a b c d $ ",
"e e e e 1 f % g $ $ $ ) h i j k l m $ $ ",
"n n n n o f % g $ $ $ $ p q r s t u $ $ ",
"v v v v w f % g $ $ $ $ $ [ + x ^ $ $ $ ",
"v v v v y f % g $ $ $ $ $ } d $ $ $ $ $ ",
"v v v v z f % g $ $ $ $ $ | $ $ $ $ $ $ ",
"v v v v A f % g $ $ $ $ $ b $ $ $ $ $ $ ",
"v v v v A f % g $ $ $ $ $ B $ $ $ $ $ $ ",
"v v v v A f % g $ $ $ $ $ C $ $ $ $ $ $ ",
"v v v v A f % g $ $ $ $ $ m D $ $ $ $ $ ",
"E E E E F f % G $ $ $ $ $ H ) $ $ $ $ $ ",
"I I I J K f % L $ $ $ $ $ M N O P $ $ $ ",
"f f f f f Q R S $ $ $ * > , T U V ) $ $ ",
"% % % % % W X Y $ $ $ / ( _ Z `  ...+.$ ",
"@.@.@.@.@.#.$.%.$ $ $ 7 8 9 &.*.=.-.;.>.",
",.,.,.,.'.L ).^ !.!.!.) h ~.{.].) ^./.(.",
"$ $ $ $ $ $ $ $ $ $ $ $ $ $ $ $ $ $ $ $ ",
"_._._._._._._._._._._._._._._._._._._._.",
". . . . . . . . . . . . . . . . . . . . "};
