/* XPM */
static char * bottom_right_inactive_xpm[] = {
"14 14 5 1",
"       c None",
".      c #455FD7 s inactive_color_1",
"+      c #384EB2 s inactive_shadow_1",
"@      c #4E6CF5 s inactive_hilight_1",
"=      c #000000",
"        @....+",
"        @++..+",
"        @+.@.+",
"        @.@@.+",
"        @....+",
"        @++..+",
"        @+.@.+",
"        @.@@.+",
"@@@@@@@@@....+",
".++..++..++..+",
".+.@.+.@.+.@.+",
"..@@..@@..@@.+",
".............+",
"++++++++++++++"};
