/* XPM */
static char * right_active_xpm[] = {
"6 8 4 1",
"       c None",
".      c #455FD7 s active_color_1",
"+      c #384EB2 s active_shadow_1",
"=      c #4E6CF5 s active_hilight_1",
"=....+",
"=....+",
"=....+",
"=....+",
"=....+",
"=....+",
"=....+",
"=....+"};
