/* XPM */
static char * title_active_xpm[] = {
"4 31 3 1",
" 	c None",
".	c #C0C0FF s active_color_1",
"+	c #D0D0FF s active_hilight_1",
"....",
"++++",
"....",
"....",
"....",
"....",
"....",
"....",
"....",
"....",
"....",
"....",
"....",
"....",
"....",
"....",
"....",
"....",
"....",
"....",
"....",
"....",
"....",
"....",
"....",
"....",
"....",
"....",
"....",
"....",
"...."};
