/* XPM */
static char * top_right_active_xpm[] = {
"8 29 3 1",
" 	c None",
"+	c #D0D0FF s active_hilight_1",
".	c #C0C0FF s active_color_1",
"......  ",
"++++++. ",
"......+.",
"......+.",
"......+.",
"......+.",
"......+.",
"......+.",
"......+.",
"......+.",
"......+.",
"......+.",
"......+.",
"......+.",
"......+.",
"......+.",
"......+.",
"......+.",
"......+.",
"......+.",
"......+.",
"......+.",
"......+.",
"......+.",
"......+.",
"......+.",
"......+.",
"......+.",
"......+."};
