/* XPM */
static char * title_5_inactive_xpm[] = {
"3 17 5 1",
" 	c None",
".	c #000000 s inactive_border_color",
"+	c #F7F7F7 s inactive_hilight_2",
"@	c #CFCFCF s inactive_color_2",
"#	c #7F7F7F s inactive_shadow_2",
"   ",
"   ",
"...",
"+++",
"@@@",
"@@@",
"@@@",
"@@@",
"@@@",
"@@@",
"@@@",
"@@@",
"@@@",
"@@@",
"@@@",
"###",
"..."};
