/* XPM */
static char * right_inactive_xpm[] = {
"4 64 4 1",
" 	c None",
".	c #0B113E",
"+	c #F0F3F9",
"@	c #9FA3AE",
".+@.",
".+@.",
".+@.",
".+@.",
".+@.",
".+@.",
".+@.",
".+@.",
".+@.",
".+@.",
".+@.",
".+@.",
".+@.",
".+@.",
".+@.",
".+@.",
".+@.",
".+@.",
".+@.",
".+@.",
".+@.",
".+@.",
".+@.",
".+@.",
".+@.",
".+@.",
".+@.",
".+@.",
".+@.",
".+@.",
".+@.",
".+@.",
".+@.",
".+@.",
".+@.",
".+@.",
".+@.",
".+@.",
".+@.",
".+@.",
".+@.",
".+@.",
".+@.",
".+@.",
".+@.",
".+@.",
".+@.",
".+@.",
".+@.",
".+@.",
".+@.",
".+@.",
".+@.",
".+@.",
".+@.",
".+@.",
".+@.",
".+@.",
".+@.",
".+@.",
".+@.",
".+@.",
".+@.",
".+@."};
