/* XPM */
static char * title_4_inactive_xpm[] = {
"8 21 34 1",
" 	c None",
".	c #0B113E",
"+	c #E2E2E2",
"@	c #A3A3A3",
"#	c #7F7F7F",
"$	c #797979",
"%	c #848484",
"&	c #FDFEFE",
"*	c #898989",
"=	c #F0F3F9",
"-	c #8E8E8E",
";	c #EDF1F7",
">	c #939393",
",	c #E8ECF4",
"'	c #999999",
")	c #E6EAF2",
"!	c #9E9E9E",
"~	c #E4E7EF",
"{	c #E1E4EC",
"]	c #A8A8A8",
"^	c #DCE1EA",
"/	c #AEAEAE",
"(	c #D8DDE6",
"_	c #B3B3B3",
":	c #D5DAE4",
"<	c #B8B8B8",
"[	c #D1D6E0",
"}	c #BDBDBD",
"|	c #CED2DD",
"1	c #646464",
"2	c #CBCFDA",
"3	c #C7CCD7",
"4	c #C3C7D4",
"5	c #9FA3AE",
"        ",
".....   ",
"++++@.  ",
"####$...",
"%%%%$.&&",
"****$.==",
"----$.;;",
">>>>$.,,",
"''''$.))",
"!!!!$.~~",
"@@@@$.{{",
"]]]]$.^^",
"////$.((",
"____$.::",
"<<<<$.[[",
"}}}}$.||",
"1111*.22",
".....333",
"44444444",
"55555555",
"........"};
