/* XPM */
static char * bottom_active_xpm[] = {
"8 5 4 1",
" 	c None",
".	c #E6E3E1 s active_color_2",
"+	c #D2CFCC s active_mid_2",
"@	c #A39C97 s active_shadow_2",
"........",
"........",
"++++++++",
"@@@@@@@@",
"@@@@@@@@"};
