/* XPM */
static char * bottom_right_inactive_xpm[] = {
"30 30 21 1",
" 	c None",
".	c #CACAC3",
"+	c #C0C0B9",
"@	c #B4B4AD",
"#	c #ABABA4",
"$	c #787871",
"%	c #D3D3CB",
"&	c #E6E6DE",
"*	c #EBEBE4",
"=	c #E2E2DB",
"-	c #C2C2BA",
";	c #C9C9C2",
">	c #C9C9C1",
",	c #B5B5AD",
"'	c #B3B3AC",
")	c #A9A9A1",
"!	c #A6A69F",
"~	c #777771",
"{	c #696962",
"]	c #6A6A63",
"^	c #575750",
"                         .+@#$",
"                         .+@#$",
"                         .+@#$",
"                         .+@#$",
"                         .+@#$",
"                         .+@#$",
"                         .+@#$",
"                         .+@#$",
"                         .+@#$",
"                         .+@#$",
"                         .+@#$",
"                         .+@#$",
"                         .+@#$",
"                         .+@#$",
"                         .+@#$",
"                         .+@#$",
"                         .+@#$",
"                         .+@#$",
"                         .+@#$",
"                         .+@#$",
"                         .+@#$",
"                         .+@#$",
"                         .+@#$",
"                         .+@#$",
"                         %+@#$",
"&&&&&&&&&&&&&&&&&&&&&&&&*=-@#$",
";;;;;;;;;;;;;;;;;;;;;;;;;>+,#$",
",,,,,,,,,,,,,,,,,,,,,,,,,,,'#$",
"))))))))))))))))))))))))))))!~",
"{{{{{{{{{{{{{{{{{{{{{{{{{{{{]^"};
