/* XPM */
static char * bottom_left_inactive_xpm[] = {
"25 25 8 1",
" 	c None",
".	c #000000",
"+	c #FFFFFF",
"@	c #F3F3F3",
"#	c #F9FAF9",
"$	c #EDEDED",
"%	c #E4E6E4",
"&	c #E4E5E4",
".+@.                     ",
".+@.                     ",
".+@.                     ",
".+@.                     ",
".+@.                     ",
".+@.                     ",
".+@.                     ",
".+@.                     ",
".+@.                     ",
".+@.                     ",
".+@.                     ",
".+@.                     ",
".+@.                     ",
".+@.                     ",
".+@.                     ",
".+@.                     ",
".+@.                     ",
".+@.                     ",
".+@.                     ",
".+@.                     ",
".+@.                     ",
".+@......................",
".+#++++++++++++++++++++++",
".$%&&&&&&&&&&&&&&&&&&&&&&",
"........................."};
