/* XPM */
static char * close_inactive_xpm[] = {
"14 14 21 1",
" 	c None",
".	c #838183",
"+	c #FDC0C0",
"@	c #E2ACAB",
"#	c #E1ACAA",
"$	c #E3ADAB",
"%	c #E5AEAD",
"&	c #E7B0AE",
"*	c #E9B1B0",
"=	c #EEB4B4",
"-	c #FFFFFF",
";	c #F0B6B5",
">	c #F2B7B7",
",	c #F4B8B8",
"'	c #F5BAB9",
")	c #F7BBBA",
"!	c #F9BCBC",
"~	c #EBB2B1",
"{	c #FABDBD",
"]	c #ECB4B2",
"^	c #FBBFBF",
" ............ ",
".+++++++++++@.",
".+#@@$%&*@@=@.",
".+#--@&*@--;@.",
".+#---@@--->@.",
".+$%------>,@.",
".+%&*---->,'@.",
".+&*@----@')@.",
".+*@------@!@.",
".+~--->,---{@.",
".+]-->,')--^@.",
".+=;>,')!{^+@.",
".@@@@@@@@@@@@.",
" ............ "};
