/* XPM */
static char * close_inactive_xpm[] = {
"15 15 2 1",
" 	c None",
".	c #838183",
"               ",
" ..............",
" .            .",
" .            .",
" .   .    .   .",
" .  ...  ...  .",
" .   ......   .",
" .    ....    .",
" .    ....    .",
" .   ......   .",
" .  ...  ...  .",
" .   .    .   .",
" .            .",
" .            .",
" .............."};
