/* XPM */
static char * hide_inactive_xpm[] = {
"14 14 2 1",
" 	c None",
".	c #838183",
" ............ ",
".            .",
".            .",
".            .",
".            .",
".            .",
".            .",
".            .",
".            .",
".  ........  .",
".  ........  .",
".            .",
".            .",
" ............ "};
