/* XPM */
static char * maximize_pressed_xpm[] = {
"14 14 24 1",
" 	c None",
".	c #000000",
"+	c #E0E0E0",
"@	c #B4B4B4",
"#	c #9E9F9E",
"$	c #9FA19F",
"%	c #A1A3A1",
"&	c #A4A6A4",
"*	c #A6A7A6",
"=	c #A7AAA7",
"-	c #AAACAA",
";	c #ACAEAC",
">	c #ADB0AD",
",	c #B0B3B0",
"'	c #6C6D6C",
")	c #B2B4B2",
"!	c #B4B6B4",
"~	c #B5B9B5",
"{	c #B8BBB8",
"]	c #BABDBA",
"^	c #BCBFBC",
"/	c #BEC2BE",
"(	c #C0C3C0",
"_	c #C3C5C3",
" ............ ",
".+++++++++++@.",
".+#$%&*=-;>,'.",
".+$........)'.",
".+%........!'.",
".+&........~'.",
".+*.-;>,)!.{'.",
".+=.;>,)!~.]'.",
".+-.>,)!~{.^'.",
".+;.,)!~{]./'.",
".+>........('.",
".+,)!~{]^/(_'.",
".@'''''''''''.",
" ............ "};
