/* XPM */
static char * menu_inactive_xpm[] = {
"14 14 20 1",
" 	c None",
".	c #838183",
"+	c #FFFFFF",
"@	c #E2E4E2",
"#	c #E1E4E1",
"$	c #E3E5E3",
"%	c #E5E7E5",
"&	c #E7E9E7",
"*	c #E9EAE9",
"=	c #EBECEB",
"-	c #ECEEEC",
";	c #EEEFEE",
">	c #F0F1F0",
",	c #F2F3F2",
"'	c #F4F4F4",
")	c #F5F6F5",
"!	c #F7F8F7",
"~	c #F9F9F9",
"{	c #FBFBFB",
"]	c #FDFDFD",
" ............ ",
".+++++++++++@.",
".+###$%&*=-;@.",
".+##@@@@@@;>@.",
".+#$......>,@.",
".+$%&*=-;>,'@.",
".+%&......')@.",
".+&*......)!@.",
".+*=-....)!~@.",
".+=-;>..)!~{@.",
".+-;>,')!~{]@.",
".+;>,')!~{]+@.",
".@@@@@@@@@@@@.",
" ............ "};
