/* XPM */
static char * menu_pressed_xpm[] = {
"14 14 24 1",
" 	c None",
".	c #000000",
"+	c #4A4B4A",
"@	c #9C9C9C",
"#	c #7C7E7C",
"$	c #7F827F",
"%	c #838583",
"&	c #868986",
"*	c #8A8C8A",
"=	c #8E908E",
"-	c #919391",
";	c #959795",
">	c #999A99",
",	c #9C9E9C",
"'	c #CECDCE",
")	c #A0A1A0",
"!	c #A4A4A4",
"~	c #A7A8A7",
"{	c #ABABAB",
"]	c #AFAFAF",
"^	c #B2B2B2",
"/	c #B6B6B6",
"(	c #BAB9BA",
"_	c #BDBDBD",
" ............ ",
".+++++++++++@.",
".+#$%&*=-;>,'.",
".+$%&*=-;>,)'.",
".+%&*++++++!'.",
".+&*=......~'.",
".+*=-;>,)!~{'.",
".+=-;......]'.",
".+-;>......^'.",
".+;>,)....^/'.",
".+>,)!~..^/('.",
".+,)!~{]^/(_'.",
".@'''''''''''.",
" ............ "};
