/* XPM */
static char * stick_active_xpm[] = {
"14 14 30 1",
" 	c None",
".	c #000000",
"+	c #FFFFFF",
"@	c #E5E6E5",
"#	c #E4E5E4",
"$	c #E3E5E3",
"%	c #E3E4E3",
"&	c #E2E4E2",
"*	c #E2E3E2",
"=	c #E1E3E1",
"-	c #CDCECD",
";	c #ADB1AD",
">	c #B1B5B1",
",	c #B5B9B5",
"'	c #B9BDB9",
")	c #BDC1BD",
"!	c #C1C4C1",
"~	c #C5C8C5",
"{	c #C9CCC9",
"]	c #CDD0CD",
"^	c #D1D3D1",
"/	c #7B7D7B",
"(	c #D5D7D5",
"_	c #D9DBD9",
":	c #DDDFDD",
"<	c #E9EAE9",
"[	c #EDEEED",
"}	c #F1F2F1",
"|	c #E0E2E0",
"1	c #F6F6F6",
" ............ ",
".+@##$%&&*==-.",
".@;>,')!~{]^/.",
".#>,')!/{]/(/.",
".#,')!~.//._/.",
".$'////....:/.",
".%)........=/.",
".&!........@/.",
".*~{]^(....</.",
".={]^(_.=@.[/.",
".=]^(_:=@<[}/.",
".|^(_:=@<[}1/.",
".-///////////.",
" ............ "};
