/* XPM */
static char * title_5_inactive_xpm[] = {
"8 26 22 1",
" 	c None",
".	c #000000",
"+	c #FFFFFF",
"@	c #F0F2F0",
"#	c #E2E4E2",
"$	c #E4E5E4",
"%	c #E4E6E4",
"&	c #E7E8E7",
"*	c #E7E9E7",
"=	c #EAEBEA",
"-	c #EAECEA",
";	c #EDEDED",
">	c #EDEFED",
",	c #F0F0F0",
"'	c #F3F3F3",
")	c #F3F4F3",
"!	c #F6F6F6",
"~	c #F6F7F6",
"{	c #F9F9F9",
"]	c #F9FAF9",
"^	c #FBFBFB",
"/	c #FCFDFC",
"........",
"++++++++",
"@@@@@@@@",
"########",
"$$$$$$$$",
"%%%%%%%%",
"&&&&&&&&",
"********",
"========",
"--------",
";;;;;;;;",
">>>>>>>>",
",,,,,,,,",
"@@@@@@@@",
"''''''''",
"))))))))",
"!!!!!!!!",
"~~~~~~~~",
"{{{{{{{{",
"]]]]]]]]",
"^^^^^^^^",
"////////",
"++++++++",
"^^^^^^^^",
">>>>>>>>",
"........"};
