/* XPM */
static char * title_2_inactive_xpm[] = {
"8 24 21 1",
" 	c None",
".	c #000000",
"+	c #FFFFFF",
"@	c #F0F2F0",
"#	c #E2E4E2",
"$	c #E4E5E4",
"%	c #E5E7E5",
"&	c #E7E8E7",
"*	c #E8EAE8",
"=	c #EAECEA",
"-	c #ECEDEC",
";	c #EDEFED",
">	c #F0F0F0",
",	c #F3F3F3",
"'	c #F4F5F4",
")	c #F6F6F6",
"!	c #F8F8F8",
"~	c #F9FAF9",
"{	c #FAFBFA",
"]	c #FCFDFC",
"^	c #FBFBFB",
"........",
"++++++++",
"@@@@@@@@",
"########",
"$$$$$$$$",
"%%%%%%%%",
"&&&&&&&&",
"********",
"========",
"--------",
";;;;;;;;",
">>>>>>>>",
"@@@@@@@@",
",,,,,,,,",
"''''''''",
"))))))))",
"!!!!!!!!",
"~~~~~~~~",
"{{{{{{{{",
"]]]]]]]]",
"++++++++",
"^^^^^^^^",
";;;;;;;;",
"........"};
