/* XPM */
static char * top_left_active_xpm[] = {
"6 24 35 1",
" 	c None",
".	c #000000",
"+	c #FFFFFF",
"@	c #DEE2DE",
"#	c #ADB2AD",
"$	c #B4B7B4",
"%	c #B7BBB7",
"&	c #BDC0BD",
"*	c #C1C4C1",
"=	c #E3E4E3",
"-	c #C5C8C5",
";	c #E6E9E6",
">	c #CBCDCB",
",	c #E6EAE6",
"'	c #CDD1CD",
")	c #EDEEED",
"!	c #D4D6D4",
"~	c #EEEEEE",
"{	c #D6DAD6",
"]	c #EEEFEE",
"^	c #DEDFDE",
"/	c #F0F3F0",
"(	c #E0E3E0",
"_	c #F6F6F6",
":	c #E6E8E6",
"<	c #F6F8F6",
"[	c #EAECEA",
"}	c #F7FBF7",
"|	c #EEF0EE",
"1	c #FDFEFD",
"2	c #F4F5F4",
"3	c #F7FAF7",
"4	c #FEFFFE",
"5	c #CDD2CD",
"6	c #DEDEDE",
"     .",
"   ..+",
"  .+++",
" .++@#",
" .+@$$",
".++%%%",
".++&&&",
".+@***",
".+=---",
".+;>>>",
".+,'''",
".+)!!!",
".+~{{{",
".+]^^^",
".+/(((",
".+_:::",
".+<[[[",
".+}|||",
".+1222",
".++333",
".++444",
".++}__",
".+@555",
".+6..."};
