/* XPM */
static char * top_right_active_xpm[] = {
"6 24 27 1",
" 	c None",
".	c #000000",
"+	c #FFFFFF",
"@	c #DEDEDE",
"#	c #D5DAD5",
"$	c #C5CAC5",
"%	c #ADB2AD",
"&	c #F7FBF7",
"*	c #C5C6C5",
"=	c #B4B7B4",
"-	c #B7BBB7",
";	c #BDC0BD",
">	c #C1C4C1",
",	c #C5C8C5",
"'	c #CBCDCB",
")	c #CDD1CD",
"!	c #D4D6D4",
"~	c #D6DAD6",
"{	c #DEDFDE",
"]	c #E0E3E0",
"^	c #E6E8E6",
"/	c #EAECEA",
"(	c #EEF0EE",
"_	c #F4F5F4",
":	c #F7FAF7",
"<	c #FEFFFE",
"[	c #F6F6F6",
"......",
"++++@.",
"##++$.",
"%%+&*.",
"==+&*.",
"--+&*.",
";;+&*.",
">>+&*.",
",,+&*.",
"''+&*.",
"))+&*.",
"!!+&*.",
"~~+&*.",
"{{+&*.",
"]]+&*.",
"^^+&*.",
"//+&*.",
"((+&*.",
"__+&*.",
"::+&*.",
"<<+&*.",
"[++&*.",
"#++&*.",
".++&*."};
