/* XPM */
static char * top_left_active_xpm[] = {
"5 25 41 1",
" 	c None",
".	c #D0D0D0",
"+	c #CCCCCC",
"@	c #BFBFBF",
"#	c #C7C7C7",
"$	c #ECECEC",
"%	c #E8E8E8",
"&	c #E7E7E7",
"*	c #B7B7B7",
"=	c #D9D9D9",
"-	c #C2C2C2",
";	c #BEBEBE",
">	c #D6D6D6",
",	c #BCBCBC",
"'	c #B6B6B6",
")	c #B8B8B8",
"!	c #BABABA",
"~	c #C4C4C4",
"{	c #C6C6C6",
"]	c #C8C8C8",
"^	c #C1C1C1",
"/	c #CACACA",
"(	c #CFCFCF",
"_	c #D1D1D1",
":	c #D4D4D4",
"<	c #D7D7D7",
"[	c #D2D2D2",
"}	c #DCDCDC",
"|	c #DEDEDE",
"1	c #E0E0E0",
"2	c #D8D8D8",
"3	c #E3E3E3",
"4	c #DADADA",
"5	c #E6E6E6",
"6	c #DDDDDD",
"7	c #DFDFDF",
"8	c #C5C5C5",
"9	c #B9B9B9",
"0	c #B2B2B2",
"a	c #B4B4B4",
"b	c #969696",
".+@@@",
"#$%&&",
"*=-;;",
"*>,''",
"*>;))",
"*>-!!",
"*>~;;",
"*>{@@",
"*>]^^",
"*>/~~",
"*>+{{",
"*>(]]",
"*>_//",
"*>:++",
"*><..",
"*>=[[",
"*>}::",
"*>|>>",
"*>122",
"*>344",
"*>566",
"*>%77",
"*><..",
"*>890",
"*>8ab"};
