/* XPM */
static char * top_right_inactive_xpm[] = {
"6 30 30 1",
" 	c None",
".	c #000000",
"+	c #FFFFFF",
"@	c #DDDDDD",
"#	c #D8D8D8",
"$	c #FDFDFD",
"%	c #C8C8C8",
"&	c #B3B3B3",
"*	c #FEFEFE",
"=	c #F8F8F8",
"-	c #C4C4C4",
";	c #B7B7B7",
">	c #BBBBBB",
",	c #BFBFBF",
"'	c #C2C2C2",
")	c #C6C6C6",
"!	c #CACACA",
"~	c #CFCFCF",
"{	c #D3D3D3",
"]	c #D7D7D7",
"^	c #DADADA",
"/	c #DEDEDE",
"(	c #E2E2E2",
"_	c #E7E7E7",
":	c #EBEBEB",
"<	c #EFEFEF",
"[	c #F3F3F3",
"}	c #F6F6F6",
"|	c #FAFAFA",
"1	c #F5F5F5",
"......",
"++++@.",
"##+$%.",
"&&*=-.",
";;*=-.",
">>*=-.",
",,*=-.",
"''*=-.",
"))*=-.",
"!!*=-.",
"~~*=-.",
"{{*=-.",
"]]*=-.",
"^^*=-.",
"//*=-.",
"((*=-.",
"__*=-.",
"::*=-.",
"<<*=-.",
"[[*=-.",
"}}*=-.",
"||*=-.",
"***=-.",
"1$*=-.",
"^+*=-.",
".+*=-.",
".+*=-.",
".+*=-.",
".+*=-.",
".+*=-."};
