/* XPM */
static char * top_right_inactive_xpm[] = {
"6 26 22 1",
" 	c None",
".	c #000000",
"+	c #FFFFFF",
"@	c #F3F3F3",
"#	c #F0F2F0",
"$	c #EAECEA",
"%	c #E2E4E2",
"&	c #FCFDFC",
"*	c #EAEBEA",
"=	c #E4E5E4",
"-	c #E4E6E4",
";	c #E7E8E7",
">	c #E7E9E7",
",	c #EDEDED",
"'	c #EDEFED",
")	c #F0F0F0",
"!	c #F3F4F3",
"~	c #F6F6F6",
"{	c #F6F7F6",
"]	c #F9F9F9",
"^	c #F9FAF9",
"/	c #FBFBFB",
"......",
"++++@.",
"##++$.",
"%%+&*.",
"==+&*.",
"--+&*.",
";;+&*.",
">>+&*.",
"**+&*.",
"$$+&*.",
",,+&*.",
"''+&*.",
"))+&*.",
"##+&*.",
"@@+&*.",
"!!+&*.",
"~~+&*.",
"{{+&*.",
"]]+&*.",
"^^+&*.",
"//+&*.",
"&&+&*.",
"+++&*.",
"/++&*.",
"#++&*.",
".++&*."};
