/* XPM */
static char * maximize_inactive_xpm[] = {
"17 23 34 1",
" 	c None",
".	c #CBCCC2",
"+	c #C8C8BE",
"@	c #E8E9DE",
"#	c #C5C6BA",
"$	c #E5E6DA",
"%	c #C2C3B6",
"&	c #E1E2D5",
"*	c #6F6F67",
"=	c #BFC0B2",
"-	c #DDDFD0",
";	c #BCBDAF",
">	c #DADBCC",
",	c #B9BBAB",
"'	c #D6D8C7",
")	c #B7B8A8",
"!	c #D3D4C3",
"~	c #B4B4A4",
"{	c #CFD0BE",
"]	c #B0B2A0",
"^	c #CBCDB9",
"/	c #AEAF9D",
"(	c #C8C9B5",
"_	c #ABAC99",
":	c #C4C6B0",
"<	c #A8A995",
"[	c #C0C2AB",
"}	c #A5A792",
"|	c #BDBFA7",
"1	c #A2A48E",
"2	c #B9BBA2",
"3	c #A0A08A",
"4	c #B6B79E",
"5	c #9C9E86",
"                 ",
"                 ",
"                 ",
" ............... ",
"+@@@@@@@@@@@@@@@+",
"#$$$$$$$$$$$$$$$#",
"%&&***********&&%",
"=--***********--=",
";>>***********>>;",
",''*'''''''''*'',",
")!!*!!!!!!!!!*!!)",
"~{{*{{{{{{{{{*{{~",
"]^^*^^^^^^^^^*^^]",
"/((*(((((((((*((/",
"_::*:::::::::*::_",
"<[[*[[[[[[[[[*[[<",
"}||***********||}",
"12222222222222221",
"34444444444444443",
" 555555555555555 ",
"                 ",
"                 ",
"                 "};
