/* XPM */
static char * right_inactive_xpm[] = {
"5 128 4 1",
" 	c None",
".	c #DEDFCE",
"+	c #A4A687",
"@	c #000000",
"...+@",
"...+@",
"...+@",
"...+@",
"...+@",
"...+@",
"...+@",
"...+@",
"...+@",
"...+@",
"...+@",
"...+@",
"...+@",
"...+@",
"...+@",
"...+@",
"...+@",
"...+@",
"...+@",
"...+@",
"...+@",
"...+@",
"...+@",
"...+@",
"...+@",
"...+@",
"...+@",
"...+@",
"...+@",
"...+@",
"...+@",
"...+@",
"...+@",
"...+@",
"...+@",
"...+@",
"...+@",
"...+@",
"...+@",
"...+@",
"...+@",
"...+@",
"...+@",
"...+@",
"...+@",
"...+@",
"...+@",
"...+@",
"...+@",
"...+@",
"...+@",
"...+@",
"...+@",
"...+@",
"...+@",
"...+@",
"...+@",
"...+@",
"...+@",
"...+@",
"...+@",
"...+@",
"...+@",
"...+@",
"...+@",
"...+@",
"...+@",
"...+@",
"...+@",
"...+@",
"...+@",
"...+@",
"...+@",
"...+@",
"...+@",
"...+@",
"...+@",
"...+@",
"...+@",
"...+@",
"...+@",
"...+@",
"...+@",
"...+@",
"...+@",
"...+@",
"...+@",
"...+@",
"...+@",
"...+@",
"...+@",
"...+@",
"...+@",
"...+@",
"...+@",
"...+@",
"...+@",
"...+@",
"...+@",
"...+@",
"...+@",
"...+@",
"...+@",
"...+@",
"...+@",
"...+@",
"...+@",
"...+@",
"...+@",
"...+@",
"...+@",
"...+@",
"...+@",
"...+@",
"...+@",
"...+@",
"...+@",
"...+@",
"...+@",
"...+@",
"...+@",
"...+@",
"...+@",
"...+@",
"...+@",
"...+@",
"...+@",
"...+@"};
