/* XPM */
static char * right_active_xpm[] = {
"5 128 4 1",
" 	c None",
".	c #000000",
"+	c #9F9F93",
"@	c #6F6F67",
".++@.",
".++@.",
".++@.",
".++@.",
".++@.",
".++@.",
".++@.",
".++@.",
".++@.",
".++@.",
".++@.",
".++@.",
".++@.",
".++@.",
".++@.",
".++@.",
".++@.",
".++@.",
".++@.",
".++@.",
".++@.",
".++@.",
".++@.",
".++@.",
".++@.",
".++@.",
".++@.",
".++@.",
".++@.",
".++@.",
".++@.",
".++@.",
".++@.",
".++@.",
".++@.",
".++@.",
".++@.",
".++@.",
".++@.",
".++@.",
".++@.",
".++@.",
".++@.",
".++@.",
".++@.",
".++@.",
".++@.",
".++@.",
".++@.",
".++@.",
".++@.",
".++@.",
".++@.",
".++@.",
".++@.",
".++@.",
".++@.",
".++@.",
".++@.",
".++@.",
".++@.",
".++@.",
".++@.",
".++@.",
".++@.",
".++@.",
".++@.",
".++@.",
".++@.",
".++@.",
".++@.",
".++@.",
".++@.",
".++@.",
".++@.",
".++@.",
".++@.",
".++@.",
".++@.",
".++@.",
".++@.",
".++@.",
".++@.",
".++@.",
".++@.",
".++@.",
".++@.",
".++@.",
".++@.",
".++@.",
".++@.",
".++@.",
".++@.",
".++@.",
".++@.",
".++@.",
".++@.",
".++@.",
".++@.",
".++@.",
".++@.",
".++@.",
".++@.",
".++@.",
".++@.",
".++@.",
".++@.",
".++@.",
".++@.",
".++@.",
".++@.",
".++@.",
".++@.",
".++@.",
".++@.",
".++@.",
".++@.",
".++@.",
".++@.",
".++@.",
".++@.",
".++@.",
".++@.",
".++@.",
".++@.",
".++@.",
".++@.",
".++@."};
