/* XPM */
static char * top_left_inactive_xpm[] = {
"16 60 54 1",
" 	c None",
".	c #000000",
"+	c #FFFFFF",
"@	c #F0F1E8",
"#	c #ECEDE3",
"$	c #E8E9DE",
"%	c #E5E6DA",
"&	c #E1E2D5",
"*	c #DDDFD0",
"=	c #DADBCC",
"-	c #D6D8C7",
";	c #D3D4C3",
">	c #CFD0BE",
",	c #CBCDB9",
"'	c #C8C9B5",
")	c #C4C6B0",
"!	c #C0C2AB",
"~	c #BDBFA7",
"{	c #B9BBA2",
"]	c #B6B79E",
"^	c #B2B499",
"/	c #AEB094",
"(	c #A4A687",
"_	c #A5A789",
":	c #A7A98B",
"<	c #A9AB8D",
"[	c #ABAD8F",
"}	c #ADAE92",
"|	c #B0B296",
"1	c #B2B498",
"2	c #B4B69A",
"3	c #B6B79D",
"4	c #B7B99F",
"5	c #B9BBA1",
"6	c #BBBDA3",
"7	c #BDBEA6",
"8	c #BFC0A8",
"9	c #C1C2AA",
"0	c #C2C4AC",
"a	c #C4C6AE",
"b	c #C6C7B1",
"c	c #C8C9B3",
"d	c #CACBB5",
"e	c #CBCDB7",
"f	c #CDCEBA",
"g	c #CFD0BC",
"h	c #D1D2BE",
"i	c #D3D4C0",
"j	c #D4D6C2",
"k	c #D6D7C5",
"l	c #D8D9C7",
"m	c #DADBC9",
"n	c #DCDDCB",
"o	c #DEDFCE",
"     ...........",
"   ..+++++++++++",
"  .++@@@@@@@@@@@",
" .+#############",
" .+$$$$$$$$$$$$$",
".+%%%%%%%%%%%%%%",
".+&&&&&&&&&&&&&&",
".+**************",
".+==============",
".+--------------",
".+;;;;;;;;;;;;;;",
".+>>>>>>>>>>>>>>",
".+,,,,,,,,,,,,,,",
".+''''''''''''''",
".+))))))))))))))",
".+!!!!!!!!!!!!!!",
".+~~~~~~~~~~~~~~",
".+{{{{{{{{{{{{{{",
".+]]]]]]]]]]]]]]",
".+^^^^^^^^^^^^^^",
".+//////////////",
".+((((((((((((((",
".+______________",
".+:::           ",
".+<<<           ",
".+[[[           ",
".+}}}           ",
".+///           ",
".+|||           ",
".+111           ",
".+222           ",
".+333           ",
".+444           ",
".+555           ",
".+666           ",
".+777           ",
".+888           ",
".+999           ",
".+000           ",
".+aaa           ",
".+bbb           ",
".+ccc           ",
".+ddd           ",
".+eee           ",
".+fff           ",
".+ggg           ",
".+hhh           ",
".+iii           ",
".+jjj           ",
".+kkk           ",
".+lll           ",
".+mmm           ",
".+nnn           ",
".+ooo           ",
".+ooo           ",
".+ooo           ",
".+ooo           ",
".+ooo           ",
".+ooo           ",
".+ooo           "};
