/* XPM */
static char * left_active_xpm[] = {
"4 32 5 1",
" 	c None",
".	c #000000",
"+	c #FFFFFF s active_hilight_2",
"@	c #D6D6CC s active_color_2",
"#	c #9B9B8A s active_shadow_2",
".+@.",
".+@.",
".+@.",
".+@.",
".+@.",
".+@.",
".+@.",
".+@.",
".+@.",
".+@.",
".+@.",
".+@.",
".+@.",
".+@.",
".+@.",
".+@.",
".+@.",
".+@.",
".+@.",
".+@.",
".+@.",
".+@.",
".+@.",
".+@.",
".+@.",
".+@.",
".+@.",
".+@.",
".+@.",
".+@.",
".+@.",
".+@."};
