/* XPM */
static char * title_3_active_xpm[] = {
"8 15 6 1",
" 	c None",
".	c #000000",
"+	c #A49CD3 s active_hilight_1",
"@	c #5649A8 s active_color_1",
"#	c #6356B5 s active_mid_1",
"$	c #453A87 s active_shadow_1",
"........",
"++++++++",
"@@@@@@@@",
"@@@@@@@@",
"@@@@@@@@",
"@@@@@@@@",
"@@@@@@@@",
"@@@@@@@@",
"@@@@@@@@",
"@@@@@@@@",
"@@@@@@@@",
"@@@@@@@@",
"########",
"########",
"$$$$$$$$"};
