/* XPM */
static char * hide_active_xpm[] = {
"15 20 230 2",
"  	c None",
". 	c #FFFFFF",
"+ 	c #F0F0F0",
"@ 	c #F1EDED",
"# 	c #F3EAEA",
"$ 	c #FAEDED",
"% 	c #F9EAEA",
"& 	c #FCF0F0",
"* 	c #EDEDEC",
"= 	c #E9E9E9",
"- 	c #E9EAE7",
"; 	c #E1E0DC",
"> 	c #ABA3A1",
", 	c #645655",
"' 	c #392526",
") 	c #2D1515",
"! 	c #3D2324",
"~ 	c #61605E",
"{ 	c #A3A2A0",
"] 	c #E5E5E4",
"^ 	c #F1F1F1",
"/ 	c #F4F3F0",
"( 	c #DCCACA",
"_ 	c #8C696F",
": 	c #6C4548",
"< 	c #A98B89",
"[ 	c #D0BDB6",
"} 	c #DFCDC9",
"| 	c #D2BEBD",
"1 	c #A49091",
"2 	c #6D4546",
"3 	c #906461",
"4 	c #E8DCD8",
"5 	c #FDFDFD",
"6 	c #F9E9F4",
"7 	c #90707B",
"8 	c #7B4E55",
"9 	c #B98987",
"0 	c #F2CDC4",
"a 	c #FEE4D7",
"b 	c #FFE7DD",
"c 	c #FADEDA",
"d 	c #F1D0C1",
"e 	c #C49083",
"f 	c #884C44",
"g 	c #906866",
"h 	c #FBF6F8",
"i 	c #ECECEC",
"j 	c #C094A1",
"k 	c #6E3838",
"l 	c #9C5D4B",
"m 	c #E1A581",
"n 	c #ECBC8C",
"o 	c #EAC493",
"p 	c #ECC59A",
"q 	c #F1C79F",
"r 	c #EBB88B",
"s 	c #DD9871",
"t 	c #AD5C41",
"u 	c #79322C",
"v 	c #B8929F",
"w 	c #F0EFF1",
"x 	c #DBDBDB",
"y 	c #954C3D",
"z 	c #9D4D28",
"A 	c #CE7936",
"B 	c #D98C30",
"C 	c #D69730",
"D 	c #DEA943",
"E 	c #D7A141",
"F 	c #D79C40",
"G 	c #DD9B47",
"H 	c #D68738",
"I 	c #E07D42",
"J 	c #B04E35",
"K 	c #8A4D52",
"L 	c #E3DCE4",
"M 	c #D4D4D4",
"N 	c #8E2D0A",
"O 	c #D06D2C",
"P 	c #E98620",
"Q 	c #E48B0B",
"R 	c #EFA51E",
"S 	c #F1B02E",
"T 	c #E8A729",
"U 	c #F3AC30",
"V 	c #E59E2A",
"W 	c #DE911B",
"X 	c #E5811F",
"Y 	c #CE602B",
"Z 	c #7B3124",
"` 	c #E4D9D9",
" .	c #D6D6D6",
"..	c #922F06",
"+.	c #E47F37",
"@.	c #F79727",
"#.	c #FCA824",
"$.	c #FFBC3B",
"%.	c #F7BB41",
"&.	c #F6B743",
"*.	c #FFC24B",
"=.	c #F4B333",
"-.	c #F3B127",
";.	c #F29A1E",
">.	c #EE8033",
",.	c #82371A",
"'.	c #D7CEC6",
").	c #BFBFBF",
"!.	c #A14F1F",
"~.	c #E89545",
"{.	c #F8AB37",
"].	c #FEBF3E",
"^.	c #FFD05A",
"/.	c #FDD76C",
"(.	c #FBD067",
"_.	c #F9C95A",
":.	c #FFC753",
"<.	c #F0BF36",
"[.	c #F4AC26",
"}.	c #F8923D",
"|.	c #914827",
"1.	c #C1BDB4",
"2.	c #B1B1B1",
"3.	c #9D5D1D",
"4.	c #E0A142",
"5.	c #F7C041",
"6.	c #F7CF49",
"7.	c #F2D962",
"8.	c #F9E87E",
"9.	c #FBE67D",
"0.	c #FFE776",
"a.	c #FFD46E",
"b.	c #F9D251",
"c.	c #F8BC38",
"d.	c #F0923B",
"e.	c #9D5839",
"f.	c #B2B1AD",
"g.	c #B8B8B8",
"h.	c #886B59",
"i.	c #BB8E4A",
"j.	c #FFCC4E",
"k.	c #FFE052",
"l.	c #F7E169",
"m.	c #FAF591",
"n.	c #FFFA94",
"o.	c #FFF07D",
"p.	c #FEEA77",
"q.	c #FED652",
"r.	c #FFC643",
"s.	c #C89033",
"t.	c #967556",
"u.	c #C2BEC1",
"v.	c #CECECE",
"w.	c #9A8779",
"x.	c #9E7B45",
"y.	c #DBAC44",
"z.	c #FFE566",
"A.	c #FFF67B",
"B.	c #FBFB8B",
"C.	c #FFFD8C",
"D.	c #FFFC83",
"E.	c #FCF370",
"F.	c #FFE263",
"G.	c #E4B148",
"H.	c #A17036",
"I.	c #9C847A",
"J.	c #E4E3E9",
"K.	c #CCCCCC",
"L.	c #A19C98",
"M.	c #7A6749",
"N.	c #9B7C39",
"O.	c #E0C864",
"P.	c #F9F780",
"Q.	c #FFFF8E",
"R.	c #FFFF8D",
"S.	c #FBF67E",
"T.	c #F6F976",
"U.	c #D6C55D",
"V.	c #9F7D3E",
"W.	c #7F604E",
"X.	c #A599A5",
"Y.	c #E5E5E7",
"Z.	c #D7D7D7",
"`.	c #B2B8C4",
" +	c #807B77",
".+	c #6A5B3A",
"++	c #797224",
"@+	c #949D26",
"#+	c #BDD042",
"$+	c #D5E551",
"%+	c #CFD648",
"&+	c #8D963B",
"*+	c #6D6729",
"=+	c #685841",
"-+	c #897D81",
";+	c #CACBD1",
">+	c #DEDEDE",
",+	c #E0E0E0",
"'+	c #D0D8D4",
")+	c #B1B5B6",
"!+	c #8B848B",
"~+	c #625C5C",
"{+	c #4A4A42",
"]+	c #474843",
"^+	c #494351",
"/+	c #433453",
"(+	c #565B3B",
"_+	c #626353",
":+	c #8C8889",
"<+	c #C2C3C5",
"[+	c #EAEAEA",
"}+	c #DEE0E2",
"|+	c #BBBBC3",
"1+	c #A5A4A9",
"2+	c #8D8F8C",
"3+	c #767873",
"4+	c #757573",
"5+	c #827E7F",
"6+	c #83838D",
"7+	c #9E9EA8",
"8+	c #D2D3D5",
"9+	c #D9D9D9",
"0+	c #D5D5D5",
"a+	c #CDCDCF",
"b+	c #BEBEC7",
"c+	c #A7A7B1",
"d+	c #A7A7A9",
"e+	c #B2B3AC",
"f+	c #C5C3CB",
"g+	c #D4D4D5",
". . . . . . . . . . . . . . . ",
". . . . . . . . . . . . . . . ",
"+ + + + @ # $ % & * + + + + + ",
"= = - ; > , ' ) ! ~ { ] = = = ",
"^ / ( _ : < [ } | 1 2 3 4 ^ ^ ",
"5 6 7 8 9 0 a b c d e f g h . ",
"i j k l m n o p q r s t u v w ",
"x y z A B C D E F G H I J K L ",
"M N O P Q R S T U V W X Y Z ` ",
" ...+.@.#.$.%.&.*.=.-.;.>.,.'.",
").!.~.{.].^./.(._.:.<.[.}.|.1.",
"2.3.4.5.6.7.8.9.0.a.b.c.d.e.f.",
"g.h.i.j.k.l.m.n.o.p.q.r.s.t.u.",
"v.w.x.y.z.A.B.C.D.E.F.G.H.I.J.",
"K.L.M.N.O.P.Q.R.S.T.U.V.W.X.Y.",
"Z.`. +.+++@+#+$+%+&+*+=+-+;+>+",
",+'+)+!+~+{+]+^+/+(+_+:+<+,+,+",
"[+[+}+|+1+2+3+4+5+6+7+8+[+[+[+",
"9+9+9+0+a+b+c+d+e+f+g+9+9+9+9+",
"v.v.v.v.v.v.v.v.v.v.v.v.v.v.v."};
