/* XPM */
static char * top_right_active_xpm[] = {
"5 20 26 1",
" 	c None",
".	c #FFFFFF",
"+	c #C5C5C5",
"@	c #F0F0F0",
"#	c #F4F4F4",
"$	c #D9D9D9",
"%	c #BEBEBE",
"&	c #E9E9E9",
"*	c #F1F1F1",
"=	c #C9C9C9",
"-	c #EAEAEA",
";	c #D3D3D3",
">	c #B2B2B2",
",	c #FEFEFE",
"'	c #C4C4C4",
")	c #EFEFEF",
"!	c #C1C1C1",
"~	c #FDFDFD",
"{	c #E5E5E5",
"]	c #C7C7C7",
"^	c #B1B1B1",
"/	c #F7F7F7",
"(	c #E8E8E8",
"_	c #DEDEDE",
":	c #E0E0E0",
"<	c #CECECE",
".    ",
"..+  ",
"@#$% ",
"&&*= ",
"**-;>",
",,,'>",
"***'>",
"---'>",
")))!>",
"~~~'>",
")))'>",
"{{{]^",
"---]^",
"///'>",
"((('>",
"___'>",
":::!>",
"---'>",
"$$$'>",
"<<<]^"};
