<?xml version="1.0" encoding="UTF-8" standalone="no"?>
<svg
   inkscape:export-ydpi="96"
   inkscape:export-xdpi="96"
   inkscape:export-filename="org.xfce.xfwm4-tweaks.png"
   inkscape:version="1.2.2 (b0a8486541, 2022-12-01)"
   sodipodi:docname="org.xfce.xfwm4-tweaks.svg"
   width="32"
   height="32"
   id="svg11300"
   version="1.0"
   style="display:inline;enable-background:new"
   viewBox="0 0 32 32"
   xmlns:inkscape="http://www.inkscape.org/namespaces/inkscape"
   xmlns:sodipodi="http://sodipodi.sourceforge.net/DTD/sodipodi-0.dtd"
   xmlns:xlink="http://www.w3.org/1999/xlink"
   xmlns="http://www.w3.org/2000/svg"
   xmlns:svg="http://www.w3.org/2000/svg"
   xmlns:rdf="http://www.w3.org/1999/02/22-rdf-syntax-ns#"
   xmlns:cc="http://creativecommons.org/ns#"
   xmlns:dc="http://purl.org/dc/elements/1.1/">
  <sodipodi:namedview
     inkscape:document-rotation="0"
     inkscape:current-layer="svg11300"
     inkscape:window-maximized="0"
     inkscape:window-y="192"
     inkscape:window-x="460"
     inkscape:cy="20.992233"
     inkscape:cx="15.644738"
     inkscape:zoom="11.313708"
     showgrid="false"
     id="namedview35"
     inkscape:window-height="734"
     inkscape:window-width="1345"
     inkscape:pageshadow="2"
     inkscape:pageopacity="0"
     guidetolerance="10"
     gridtolerance="10"
     objecttolerance="10"
     borderopacity="1"
     bordercolor="#666666"
     pagecolor="#ffffff"
     inkscape:showpageshadow="2"
     inkscape:pagecheckerboard="0"
     inkscape:deskcolor="#d1d1d1">
    <inkscape:grid
       id="grid844"
       type="xygrid" />
  </sodipodi:namedview>
  <title
     id="title4162">Adwaita Icon Template</title>
  <defs
     id="defs3">
    <linearGradient
       inkscape:collect="always"
       xlink:href="#linearGradient870"
       id="linearGradient872-3"
       x1="69.432274"
       y1="59.292229"
       x2="69.432274"
       y2="115.19054"
       gradientUnits="userSpaceOnUse"
       gradientTransform="matrix(0.25000289,0,0,0.25000245,-9.7154211,1.1767443)" />
    <linearGradient
       inkscape:collect="always"
       id="linearGradient870">
      <stop
         style="stop-color:#f9da02;stop-opacity:1;"
         offset="0"
         id="stop866" />
      <stop
         style="stop-color:#dcb102;stop-opacity:1"
         offset="1"
         id="stop868" />
    </linearGradient>
  </defs>
  <metadata
     id="metadata4">
    <rdf:RDF>
      <cc:Work
         rdf:about="">
        <dc:title>Adwaita Icon Template</dc:title>
      </cc:Work>
    </rdf:RDF>
  </metadata>
  <rect
     style="display:inline;fill:#006888;fill-opacity:1;stroke:none;stroke-width:0.999999;stroke-linecap:butt;stroke-linejoin:miter;stroke-miterlimit:4;stroke-dasharray:none;stroke-dashoffset:0;stroke-opacity:1;marker:none;marker-start:none;marker-mid:none;marker-end:none;paint-order:normal;enable-background:new"
     id="rect850"
     width="22"
     height="17"
     x="7.9999981"
     y="4"
     rx="1.5"
     ry="1.5" />
  <rect
     ry="1.5"
     rx="1.5"
     y="8"
     x="4.9999981"
     height="17"
     width="22"
     id="rect848"
     style="display:inline;fill:#00aade;fill-opacity:1;stroke:none;stroke-width:0.999999;stroke-linecap:butt;stroke-linejoin:miter;stroke-miterlimit:4;stroke-dasharray:none;stroke-dashoffset:0;stroke-opacity:1;marker:none;marker-start:none;marker-mid:none;marker-end:none;paint-order:normal;enable-background:new" />
  <rect
     style="display:inline;fill:#bcc5ca;fill-opacity:1;stroke:none;stroke-width:0.999999;stroke-linecap:butt;stroke-linejoin:miter;stroke-miterlimit:4;stroke-dasharray:none;stroke-dashoffset:0;stroke-opacity:1;marker:none;marker-start:none;marker-mid:none;marker-end:none;paint-order:normal;enable-background:new"
     id="rect839"
     width="22"
     height="17"
     x="1.9999962"
     y="12.000001"
     rx="1.5"
     ry="1.5" />
  <rect
     style="display:inline;opacity:1;fill:#00aade;fill-opacity:1;stroke:none;stroke-width:0.999999;stroke-linecap:butt;stroke-linejoin:miter;stroke-miterlimit:4;stroke-dasharray:none;stroke-dashoffset:0;stroke-opacity:1;marker:none;marker-start:none;marker-mid:none;marker-end:none;paint-order:normal;enable-background:new"
     id="rect846"
     width="21.999998"
     height="17"
     x="8"
     y="3"
     rx="1.5"
     ry="1.5" />
  <rect
     ry="1.5"
     rx="1.5"
     y="7"
     x="5"
     height="17"
     width="21.999998"
     id="rect842"
     style="display:inline;opacity:1;fill:#6acfec;fill-opacity:1;stroke:none;stroke-width:0.999999;stroke-linecap:butt;stroke-linejoin:miter;stroke-miterlimit:4;stroke-dasharray:none;stroke-dashoffset:0;stroke-opacity:1;marker:none;marker-start:none;marker-mid:none;marker-end:none;paint-order:normal;enable-background:new" />
  <rect
     style="display:inline;opacity:1;fill:#f1f3f5;fill-opacity:1;stroke:#d2d8dc;stroke-width:0.999994;stroke-linecap:butt;stroke-linejoin:miter;stroke-miterlimit:4;stroke-dasharray:none;stroke-dashoffset:0;stroke-opacity:1;marker:none;marker-start:none;marker-mid:none;marker-end:none;paint-order:normal;enable-background:new"
     id="rect1711"
     width="21"
     height="16.000008"
     x="2.4999964"
     y="11.499997"
     rx="1.5"
     ry="1.5" />
  <path
     id="path864-2"
     style="display:inline;fill:url(#linearGradient872-3);fill-opacity:1;stroke:#ad7702;stroke-width:0.999885;stroke-miterlimit:4;stroke-dasharray:none;stroke-opacity:1;enable-background:new"
     d="M 7.6425781 15.5 L 6.9765625 17.498047 C 6.8994166 17.527197 6.8234918 17.55946 6.7480469 17.59375 L 4.8632812 16.652344 L 3.6523438 17.863281 L 4.5957031 19.748047 C 4.5603602 19.823067 4.5270247 19.899616 4.4960938 19.976562 L 2.5 20.642578 L 2.5 22.357422 L 4.4980469 23.023438 C 4.5271988 23.100577 4.559465 23.176523 4.59375 23.251953 L 3.6523438 25.136719 L 4.8632812 26.347656 L 6.7480469 25.404297 C 6.8226238 25.440287 6.8994165 25.473056 6.9765625 25.503906 L 7.6425781 27.5 L 9.3574219 27.5 L 10.023438 25.501953 C 10.100577 25.472823 10.176515 25.44054 10.251953 25.40625 L 12.136719 26.347656 L 13.347656 25.136719 L 12.404297 23.251953 C 12.440297 23.177393 12.473086 23.100582 12.503906 23.023438 L 14.5 22.357422 L 14.5 20.642578 L 12.501953 19.976562 C 12.472753 19.899093 12.4399 19.823691 12.40625 19.748047 L 13.347656 17.863281 L 12.136719 16.652344 L 10.251953 17.595703 C 10.176933 17.560353 10.100387 17.527024 10.023438 17.496094 L 9.3574219 15.5 L 7.6425781 15.5 z M 8.5 19.25 A 2.25 2.25 0 0 1 10.75 21.5 A 2.25 2.25 0 0 1 8.5 23.75 A 2.25 2.25 0 0 1 6.25 21.5 A 2.25 2.25 0 0 1 8.5 19.25 z " />
</svg>
