/* XPM */
static char * bottom_right_active_xpm[] = {
"20 20 5 1",
"       c None",
".      c #000000",
"+      c #BFBFBF s active_color_2",
"@      c #7F7F7F s active_shadow_2",
"$      c #9D9D9D s active_mid_2",
"               @+$@.",
"               @+$@.",
"               @+$@.",
"               @+$@.",
"               @+$@.",
"               @+$@.",
"               @+$@.",
"               @+$@.",
"               @+$@.",
"               @+$@.",
"               @+$@.",
"               @+$@.",
"               @+$@.",
"               @+$@.",
"               @+$@.",
"@@@@@@@@@@@@@@@++$@.",
"++++++++++++++++$@. ",
"$$$$$$$$$$$$$$$$@@. ",
"@@@@@@@@@@@@@@@@..  ",
"................    "};
