/* XPM */
static char * stick_pressed_xpm[] = {
"16 20 60 1",
" 	c None",
".	c #000000",
"+	c #FFFFFF",
"@	c #9E6454",
"#	c #B87E6E",
"$	c #9A6252",
"%	c #764B3F",
"&	c #B47C6C",
"*	c #966050",
"=	c #73493D",
"-	c #AC6E5C",
";	c #B07A6A",
">	c #935D4F",
",	c #70483C",
"'	c #A86B5A",
")	c #AD7769",
"!	c #8E5B4C",
"~	c #6E463B",
"{	c #A46858",
"]	c #A87566",
"^	c #8B584A",
"/	c #6A4439",
"(	c #9F6655",
"_	c #624138",
":	c #A57264",
"<	c #865648",
"[	c #684237",
"}	c #9B6353",
"|	c #A07062",
"1	c #835446",
"2	c #644036",
"3	c #966051",
"4	c #9D6E60",
"5	c #7F5145",
"6	c #623F34",
"7	c #925E4F",
"8	c #996B5F",
"9	c #7B4F43",
"0	c #5F3C33",
"a	c #8E5B4D",
"b	c #95695D",
"c	c #774D40",
"d	c #5C3B32",
"e	c #89584B",
"f	c #91675A",
"g	c #724A3E",
"h	c #593930",
"i	c #855648",
"j	c #8C6458",
"k	c #6F473D",
"l	c #55372E",
"m	c #805346",
"n	c #896157",
"o	c #53352D",
"p	c #7C5044",
"q	c #7C5B52",
"r	c #49302A",
"s	c #6E493F",
"t	c #7F7F7F s active_shadow_2",
"u	c #9D9D9D s active_mid_2",
"................",
"++++++++++++++++",
"@@@@@@@@@@@@@@@#",
"$%%%%%%%%%%%%%#&",
"*=------------&;",
">,'''''''''''';)",
"!~{{{{{{{{{{{{)]",
"^/(((((_((_(((]:",
"<[}}}}}____}}}:|",
"12333______333|4",
"56777______77748",
"90aaaaa____aaa8b",
"cdeeeee_ee_eeebf",
"ghiiiiiiiiiiiifj",
"klmmmmmmmmmmmmjn",
"_oppppppppppppnq",
".rssssssssssssq.",
"t..............t",
"uttttttttttttttt",
"................"};
