/* XPM */
static char * top_right_active_xpm[] = {
"5 32 30 1",
" 	c None",
".	c #000000",
"+	c #FFFF50",
"@	c #AF7B00",
"#	c #FDE82E",
"$	c #FCE62E",
"%	c #FCE42D",
"&	c #FBE32D",
"*	c #FAE12D",
"=	c #FADF2D",
"-	c #F9DE2D",
";	c #F9DC2D",
">	c #F8DA2D",
",	c #F8D82C",
"'	c #F7D72C",
")	c #F7D52C",
"!	c #F7D32C",
"~	c #F6D22C",
"{	c #F6D02B",
"]	c #F5CE2B",
"^	c #F5CD2B",
"/	c #F4CB2B",
"(	c #F4C92B",
"_	c #F3C72B",
":	c #F2C62B",
"<	c #F2C42A",
"[	c #F1C22A",
"}	c #F1C12A",
"|	c #7F7F7F s active_shadow_2",
"1	c #BFBFBF s active_color_2",
"     ",
"..   ",
"+@.  ",
"#+@. ",
"$#@. ",
"%$$@.",
"&%%@.",
"*&&@.",
"=**@.",
"-==@.",
";--@.",
">;;@.",
",>>@.",
"',,@.",
")''@.",
"!))@.",
"@!!@.",
".+~@.",
".+{@.",
".+]@.",
".+^@.",
".+/@.",
".+(@.",
".+_@.",
".+:@.",
".+<@.",
".+[@.",
".+}@.",
".@@@.",
".....",
".|||.",
".11|."};
