/* XPM */
static char * top_left_inactive_xpm[] = {
"5 32 33 1",
" 	c None",
".	c #000000",
"+	c #FFFFFF",
"@	c #E2DAC8",
"#	c #E0D8C6",
"$	c #DED7C4",
"%	c #DDD5C3",
"&	c #DBD3C1",
"*	c #D9D1BF",
"=	c #D7D0BE",
"-	c #D5CEBC",
";	c #D3CCBA",
">	c #D2CAB9",
",	c #D0C9B7",
"'	c #CEC7B5",
")	c #CCC5B4",
"!	c #CAC3B2",
"~	c #B3AD9D",
"{	c #C8C2B0",
"]	c #C7C0AF",
"^	c #C5BEAD",
"/	c #C3BCAB",
"(	c #C1BBAA",
"_	c #BFB9A8",
":	c #BDB7A6",
"<	c #BCB5A5",
"[	c #BAB4A3",
"}	c #B8B2A1",
"|	c #B6B0A0",
"1	c #7F7F7F s inactive_shadow_2",
"2	c #9D9D9D s inactive_mid_2",
"3	c #BFBFBF s inactive_color_2",
"4	c #D8D8D8 s inactive_hilight_2",
"     ",
"   ..",
"  .++",
" .+@@",
" .+##",
".+$$$",
".+%%%",
".+&&&",
".+***",
".+===",
".+---",
".+;;;",
".+>>>",
".+,,,",
".+'''",
".+)))",
".+!!~",
".+{~.",
".+]~.",
".+^~.",
".+/~.",
".+(~.",
".+_~.",
".+:~.",
".+<~.",
".+[~.",
".+}~.",
".+|~.",
".~~~.",
".....",
".1111",
".4333"};
