/* XPM */
static char * top_right_active_xpm[] = {
"8 32 33 1",
" 	c None",
".	c #000000",
"+	c #FFFF50",
"@	c #FEEB2E",
"#	c #AF7B00",
"$	c #FDE92E",
"%	c #FDE82E",
"&	c #FCE62E",
"*	c #FCE42D",
"=	c #FBE32D",
"-	c #FAE12D",
";	c #FADF2D",
">	c #F9DE2D",
",	c #F9DC2D",
"'	c #F8DA2D",
")	c #F8D82C",
"!	c #F7D72C",
"~	c #F7D52C",
"{	c #F7D32C",
"]	c #7F7F7F s active_shadow_2",
"^	c #F6D22C",
"/	c #9D9D9D s active_mid_2",
"(	c #F6D02B",
"_	c #BFBFBF s active_color_2",
":	c #F5CE2B",
"<	c #F5CD2B",
"[	c #F4CB2B",
"}	c #F4C92B",
"|	c #F3C72B",
"1	c #F2C62B",
"2	c #F2C42A",
"3	c #F1C22A",
"4	c #F1C12A",
"...     ",
"+++..   ",
"@@@@#.  ",
"$$$$$#. ",
"%%%%%#. ",
"&&&&&&#.",
"******#.",
"======#.",
"------#.",
";;;;;;#.",
">>>>>>#.",
",,,,,,#.",
"''''''#.",
"))))))#.",
"!!!!!!#.",
"#~~~~~#.",
".#{{{{#.",
"].#^^^#.",
"//.#((#.",
"__/.::#.",
"._/.+<#.",
"._/.+[#.",
"._/.+}#.",
"._/.+|#.",
"._/.+1#.",
"._/.+2#.",
"._/.+3#.",
"._/.+4#.",
"._/.###.",
".__]... ",
".__].   ",
".__].   "};
