/* XPM */
static char * top_left_inactive_xpm[] = {
"6 32 10 1",
"       c None",
".      c #000000",
"+      c #FFFFFF s inactive_hilight_1",
"@      c #D9D1BF s inactive_color_1",
"#      c #CEC7B5 s inactive_mid_1",
"%      c #B3AD9D s inactive_shadow_1",
"&      c #7F7F7F s inactive_shadow_2",
"*      c #D8D8D8 s inactive_hilight_2",
"=      c #BFBFBF s inactive_color_2",
"-      c #9D9D9D s inactive_mid_2",
"     .",
"   ..+",
"  .+++",
" .+++@",
" .++@@",
".++@@@",
".++@@@",
".+@@@@",
".+@@@@",
".+@@@@",
".+@@@@",
".+@@@@",
".+@@@@",
".+@@@@",
".+@###",
".+@##%",
".+##%%",
".+##%.",
".+##%.",
".+##%.",
".+##%.",
".+##%.",
".+##%.",
".+##%.",
".+##%.",
".+##%.",
".+##%.",
".+##%.",
".@%%%.",
"......",
".&&&&.",
".*--&."};
