/* XPM */
static char * menu_inactive_xpm[] = {
"16 29 109 2",
"  	c None",
". 	c #F3F5F8",
"+ 	c #E3E9EF",
"@ 	c #F4F6F9",
"# 	c #FAFBFC",
"$ 	c #F6F8FA",
"% 	c #F0F3F7",
"& 	c #EDF1F5",
"* 	c #EBF0F4",
"= 	c #EAEFF4",
"- 	c #E8EDF2",
"; 	c #E5EAF0",
"> 	c #E2E8EF",
", 	c #E1E7EE",
"' 	c #F2F5F8",
") 	c #CFD9E4",
"! 	c #E6ECF1",
"~ 	c #EFF3F6",
"{ 	c #FDFDFE",
"] 	c #F9FAFC",
"^ 	c #F7F8FA",
"/ 	c #F3F6F9",
"( 	c #E9EDF3",
"_ 	c #E0E7EE",
": 	c #DFE6ED",
"< 	c #EAEDF0",
"[ 	c #BAC8D7",
"} 	c #E7ECF1",
"| 	c #F8F9FB",
"1 	c #ECF0F4",
"2 	c #E0E6ED",
"3 	c #DEE5ED",
"4 	c #D9DCDE",
"5 	c #A2B6C9",
"6 	c #DAE2EA",
"7 	c #DEE4EC",
"8 	c #F7F9FB",
"9 	c #F9FBFD",
"0 	c #F8F9FC",
"a 	c #F5F7FA",
"b 	c #ECF0F5",
"c 	c #DAE2EB",
"d 	c #D9E1EA",
"e 	c #DEE5EC",
"f 	c #D0D3D5",
"g 	c #89A2BB",
"h 	c #DDE5EC",
"i 	c #D1DBE5",
"j 	c #000000",
"k 	c #7693B0",
"l 	c #DBE2EA",
"m 	c #CCD7E2",
"n 	c #CFD3D5",
"o 	c #6586A6",
"p 	c #D9E1E9",
"q 	c #C9D5E1",
"r 	c #CED9E3",
"s 	c #E4EAF0",
"t 	c #CFD2D4",
"u 	c #55799D",
"v 	c #DAE1EA",
"w 	c #CAD5E1",
"x 	c #CED8E3",
"y 	c #E2E8F0",
"z 	c #E9EEF4",
"A 	c #456D94",
"B 	c #DBE3EA",
"C 	c #D0DAE5",
"D 	c #E2E9F0",
"E 	c #E7EDF3",
"F 	c #E8EEF4",
"G 	c #CED2D4",
"H 	c #37618B",
"I 	c #D5DEE7",
"J 	c #D3DCE6",
"K 	c #D6DEE7",
"L 	c #CED1D4",
"M 	c #295684",
"N 	c #D8E0E9",
"O 	c #E0E7ED",
"P 	c #E3E9F0",
"Q 	c #E5EBF1",
"R 	c #E6ECF2",
"S 	c #EBF0F5",
"T 	c #DDE4EB",
"U 	c #DCE3EA",
"V 	c #CDD1D4",
"W 	c #1C4C7C",
"X 	c #DDE4EC",
"Y 	c #F1F4F8",
"Z 	c #E7ECF2",
"` 	c #DFE5EC",
" .	c #CDD1D3",
"..	c #114476",
"+.	c #E2E8EE",
"@.	c #ECF1F5",
"#.	c #EFF3F7",
"$.	c #EAEFF3",
"%.	c #E9EEF3",
"&.	c #CCD0D3",
"*.	c #6786A7",
"=.	c #083C70",
"-.	c #3F5F7E",
";.	c #D5D8DC",
">.	c #A4A6A9",
",.	c #8B8E90",
"'.	c #E5E8EC",
").	c #D4D8DB",
"!.	c #CCCFD3",
"                                ",
"                                ",
"                                ",
"                                ",
"                                ",
"                                ",
"                                ",
"                                ",
". . . . . . . . . . . . . . . . ",
"+ . @ # $ % & * = - ; > , , + ' ",
") ; ! ~ { ] ^ $ / ~ ( + _ : ) < ",
"[ _ > } $ { # ] | @ 1 : 2 3 [ 4 ",
"5 3 6 7 % 8 9 0 | a b c d e 5 f ",
"g h i j j j j j j j j j i h g f ",
"k l m i j j j j j j j i m l k n ",
"o p q r s j j j j j s r q p o t ",
"u v w x y z j j j z y x w v u t ",
"A B x C D E F j F E D C x B A G ",
"H l I J D E F z F E D J K l H L ",
"M 6 B N O P Q R E S S N T U M V ",
"W 6 l X O P Q R E S Y Z 2 ` W  .",
"..l l B e , +.> s Z @.#.$.%...&.",
"*.=.=.=.=.=.=.=.=.=.=.=.=.=.-.&.",
"& ;.>.,.,.,.,.,.,.,.,.,.,.,.>.;.",
"1 '.).!.!.!.!.!.!.!.!.!.!.!.).'.",
"                                ",
"                                ",
"                                ",
"                                "};
