/* XPM */
static char * top_left_active_xpm[] = {
"16 29 38 1",
" 	c None",
".	c #FDFDFE",
"+	c #F9FBFC",
"@	c #CDDEE6",
"#	c #9BBDCE",
"$	c #85AFC4",
"%	c #6B9EB7",
"&	c #679BB5",
"*	c #E4EDF1",
"=	c #659AB4",
"-	c #B5CFDB",
";	c #6197B2",
">	c #A6C5D4",
",	c #5D95B0",
"'	c #C9DBE4",
")	c #5992AF",
"!	c #5590AD",
"~	c #C3D8E2",
"{	c #508CAA",
"]	c #8BB3C7",
"^	c #4A88A7",
"/	c #5B94AF",
"(	c #4484A4",
"_	c #3E81A2",
":	c #397D9F",
"<	c #33799C",
"[	c #2D7599",
"}	c #277296",
"|	c #216E94",
"1	c #1C6A91",
"2	c #16668E",
"3	c #10638B",
"4	c #0C6089",
"5	c #095E87",
"6	c #095C85",
"7	c #095B83",
"8	c #095A82",
"9	c #085073",
"                ",
"                ",
"                ",
"        ........",
"      ..........",
"    ...+@#$%&&&&",
"   ...*$========",
"  ...-&;;;;;;;;;",
"  ..>,,,,,,,,,,,",
" ..'))))))))))))",
" .+%!!!!!!!!!!!!",
"..~{{{{{{{{{{{{{",
"..]^^^^^^^^^^^^^",
"../(((((((((((((",
"..______________",
"..::::::::::::::",
"..<<<<<<<<<<<<<<",
"..[[[[[[[[[[[[[[",
"..}}}}}}}}}}}}}}",
"..||||||||||||||",
"..11111111111111",
"..22222222222222",
"..33333333333333",
"..44444444444444",
"..55555555555555",
"..66666666666666",
"..77777777777777",
"..88888888888888",
"..99999999999999"};
