/* XPM */
static char * left_active_xpm[] = {
"5 32 5 1",
"       c None",
".      c #949594 s active_shadow_2",
"+      c #FFFFFF s active_hilight_2",
"#      c #D5D6D5 s active_color_2",
"@      c #000000",
"@+###",
"@+###",
"@+###",
"@+###",
"@+###",
"@+###",
"@+###",
"@+###",
"@+###",
"@+###",
"@+###",
"@+###",
"@+###",
"@+###",
"@+###",
"@+###",
"@+###",
"@+###",
"@+###",
"@+###",
"@+###",
"@+###",
"@+###",
"@+###",
"@+###",
"@+###",
"@+###",
"@+###",
"@+###",
"@+###",
"@+###",
"@+###"};
