/* XPM */
static char * bottom_right_active_xpm[] = {
"20 20 4 1",
" 	c None",
".	c #0A5E89 s active_color_1",
"+	c #143D52 s active_shadow_1",
"@	c #000000  s active_border_color",
"               ...+@",
"               ...+@",
"               ...+@",
"               ...+@",
"               ...+@",
"               ...+@",
"               ...+@",
"               ...+@",
"               ...+@",
"               ...+@",
"               ...+@",
"               ...+@",
"               ...+@",
"               ...+@",
"               ...+@",
".................++@",
".................++@",
"...............++++@",
"+++++++++++++++++++@",
"@@@@@@@@@@@@@@@@@@@@"};
