/* XPM */
static char * bottom_left_inactive_xpm[] = {
"20 20 5 1",
" 	c None",
".	c #CCCCC7 s inactive_color_2",
"+	c #FFFFFF s active_text_color",
"@	c #919189 s inactive_shadow_2",
"#	c #000000 s inactive_border_color",
".+...               ",
".+...               ",
".+...               ",
".+...               ",
".+...               ",
".+...               ",
".+...               ",
".+...               ",
".+...               ",
".+...               ",
".+...               ",
".+...               ",
".+...               ",
".+...               ",
".+...               ",
".++.................",
".++.................",
".++++...............",
".+@@@@@@@@@@@@@@@@@@",
".###################"};
