/* XPM */
static char * left_inactive_xpm[] = {
"5 5 3 1",
" 	c None",
".	c #CCCCC7 s inactive_color_2",
"+	c #FFFFFF s inactive_hilight_2",
".+...",
".+...",
".+...",
".+...",
".+..."};
