/* XPM */
static char * maximize_pressed_xpm[] = {
"17 19 182 2",
"  	c None",
". 	c #4D4D4D",
"+ 	c #333333",
"@ 	c #F6FAFE",
"# 	c #EFF4F7",
"$ 	c #E9EDEF",
"% 	c #E6EAEC",
"& 	c #E4E7E9",
"* 	c #DFE2E4",
"= 	c #D5D8D9",
"- 	c #C1C3C4",
"; 	c #B6B8B9",
"> 	c #B2B4B5",
", 	c #B4B5B6",
"' 	c #B3B5B5",
") 	c #B8B9BA",
"! 	c #C0C2C3",
"~ 	c #C2C4C5",
"{ 	c #CACCCD",
"] 	c #D4D7D8",
"^ 	c #E1E4E6",
"/ 	c #E2E6E9",
"( 	c #DCDFE2",
"_ 	c #D1D4D6",
": 	c #B6B7B8",
"< 	c #999999",
"[ 	c #979797",
"} 	c #7A7A7A",
"| 	c #554B55",
"1 	c #3C3B39",
"2 	c #575855",
"3 	c #87858E",
"4 	c #AAABAC",
"5 	c #BEC0C2",
"6 	c #C3C5C7",
"7 	c #BFC1C2",
"8 	c #D2D5D7",
"9 	c #DCDFE1",
"0 	c #D0D2D4",
"a 	c #B0B1B1",
"b 	c #9C9C9C",
"c 	c #656565",
"d 	c #3D3D3D",
"e 	c #6C573C",
"f 	c #D1C883",
"g 	c #5D5443",
"h 	c #3B363A",
"i 	c #7B787A",
"j 	c #B1B2B3",
"k 	c #C3C5C6",
"l 	c #C8C9CA",
"m 	c #C9CBCC",
"n 	c #D5D8DB",
"o 	c #C1C2C4",
"p 	c #A1A1A1",
"q 	c #9A9A9A",
"r 	c #7B7B7B",
"s 	c #444444",
"t 	c #666666",
"u 	c #E8C766",
"v 	c #E2CB63",
"w 	c #CEC068",
"x 	c #63554A",
"y 	c #443D41",
"z 	c #A4A4A4",
"A 	c #BFBFC0",
"B 	c #C4C5C6",
"C 	c #C7C8CA",
"D 	c #CFD2D4",
"E 	c #BEC0C1",
"F 	c #9B9B9B",
"G 	c #534C50",
"H 	c #665432",
"I 	c #DFCD81",
"J 	c #E0C957",
"K 	c #E0C844",
"L 	c #E4BF57",
"M 	c #D7B44C",
"N 	c #58413F",
"O 	c #727670",
"P 	c #C5C5C5",
"Q 	c #C7C8C8",
"R 	c #C5C6C7",
"S 	c #C8CBCD",
"T 	c #BCBEBF",
"U 	c #A0A0A0",
"V 	c #484330",
"W 	c #CDC682",
"X 	c #D5CD68",
"Y 	c #E7C15E",
"Z 	c #E4B951",
"` 	c #DDB52F",
" .	c #D3B725",
"..	c #B1A93E",
"+.	c #575664",
"@.	c #D2D2D2",
"#.	c #CDCDCD",
"$.	c #C7C8C9",
"%.	c #C2C4C6",
"&.	c #BABBBC",
"*.	c #A5A5A5",
"=.	c #A3A3A3",
"-.	c #57534E",
";.	c #5C534A",
">.	c #675C4A",
",.	c #D8BA48",
"'.	c #DAB936",
").	c #D7BB34",
"!.	c #604440",
"~.	c #494635",
"{.	c #7A7D75",
"].	c #DADADA",
"^.	c #D7D7D7",
"/.	c #C9CACB",
"(.	c #BBBDBF",
"_.	c #B9BABB",
":.	c #AAAAAA",
"<.	c #88858B",
"[.	c #4A4646",
"}.	c #615E59",
"|.	c #D8B533",
"1.	c #E1BB32",
"2.	c #CAAF22",
"3.	c #604B4A",
"4.	c #3E3D3A",
"5.	c #AFB2A6",
"6.	c #DFDFDF",
"7.	c #D8D8D8",
"8.	c #C8C9C9",
"9.	c #B5B7B7",
"0.	c #B7B9B9",
"a.	c #B8B8B8",
"b.	c #AEAEAE",
"c.	c #A6A6A6",
"d.	c #75746E",
"e.	c #6B6E65",
"f.	c #CEB534",
"g.	c #C0A520",
"h.	c #B4A32F",
"i.	c #534846",
"j.	c #8A8985",
"k.	c #CCCCCC",
"l.	c #C4C5C5",
"m.	c #AEB0B0",
"n.	c #B0B2B2",
"o.	c #BABBBB",
"p.	c #BCBCBC",
"q.	c #BABABA",
"r.	c #BEBEBE",
"s.	c #9D9F9D",
"t.	c #6C5964",
"u.	c #614C51",
"v.	c #6A625B",
"w.	c #A9A5A9",
"x.	c #CBCBCB",
"y.	c #E1E1E1",
"z.	c #CFD0D0",
"A.	c #B8B9B9",
"B.	c #A8A9AA",
"C.	c #A9AAAB",
"D.	c #AEAFAF",
"E.	c #C4C4C4",
"F.	c #D9D9D9",
"G.	c #D6D6D6",
"H.	c #DDDDDD",
"I.	c #D0D0D0",
"J.	c #B7B8B8",
"K.	c #AFAFB0",
"L.	c #A1A2A3",
"M.	c #A2A3A4",
"N.	c #A6A7A8",
"O.	c #ACADAE",
"P.	c #B6B6B7",
"Q.	c #BDBEBE",
"R.	c #C2C2C3",
"S.	c #C6C7C7",
"T.	c #C9CACA",
"U.	c #C0C0C1",
"V.	c #ABACAD",
"W.	c #A3A4A5",
"X.	c #9B9B9C",
"Y.	c #959595",
". . . . . . . . . . . . . . . . . ",
"+ + + + + + + + + + + + + + + + + ",
"@ @ @ @ @ @ @ @ @ @ @ @ @ @ @ @ @ ",
"# # # # # # # # # # # # # # # # # ",
"$ % & * = - ; > , ' ) ! ~ { ] ^ $ ",
"/ ( _ : < [ } | 1 2 3 4 5 6 7 8 / ",
"9 0 a b [ c d e f g h i j k l m 9 ",
"n o p q r s t u v w x y z A B C n ",
"D E p F G H I J K L M N O P Q R D ",
"S T z U V W X Y Z `  ...+.@.#.$.S ",
"%.&.*.=.-.;.>.,.'.).!.~.{.].^./.%.",
"(._.:.z <.[.}.|.1.2.3.4.5.6.7.8.(.",
"9.0.a.b.c.d.e.f.g.h.i.j.k.6.7.l.9.",
"m.n.o.p.q.r.s.t.u.v.w.x.6.y.z.A.m.",
"B.C.D.p.E.x.@.F.G.G.H.y.y.I.J.K.B.",
"L.L.M.N.O.P.Q.R.S.T.S.U., V.N.W.L.",
"X.X.X.X.X.X.X.X.X.X.X.X.X.X.X.X.X.",
"Y.Y.Y.Y.Y.Y.Y.Y.Y.Y.Y.Y.Y.Y.Y.Y.Y.",
"+ + + + + + + + + + + + + + + + + "};
