/* XPM */
static char * maximize_active_xpm[] = {
"17 19 236 2",
"  	c None",
". 	c #4D4D4D",
"+ 	c #333333",
"@ 	c #F4F4F4",
"# 	c #F3F3F3",
"$ 	c #F2F2F2",
"% 	c #F7F7F7",
"& 	c #F9F9F9",
"* 	c #F8F8F8",
"= 	c #FBFBFB",
"- 	c #FFFBFF",
"; 	c #FFF6FB",
"> 	c #FFFEFA",
", 	c #F7F4ED",
"' 	c #FCFBF9",
") 	c #F8F8F6",
"! 	c #F7F9F6",
"~ 	c #F0F3FA",
"{ 	c #F5F5F5",
"] 	c #E9E9E9",
"^ 	c #EAEAEA",
"/ 	c #EDEDED",
"( 	c #F6F6F6",
"_ 	c #F1F1F1",
": 	c #EEEEEE",
"< 	c #E2DEDB",
"[ 	c #F0EDE4",
"} 	c #D9DAD2",
"| 	c #EFF3E4",
"1 	c #E2E5DA",
"2 	c #EFF1EE",
"3 	c #ECEEEB",
"4 	c #E7E7EF",
"5 	c #EBEBEB",
"6 	c #E5E5E5",
"7 	c #F0F0F0",
"8 	c #D9D9D9",
"9 	c #C2C2C2",
"0 	c #B2B3B8",
"a 	c #9B9EA5",
"b 	c #B1B8B0",
"c 	c #C3CBCE",
"d 	c #CDD5D7",
"e 	c #DCE2D8",
"f 	c #E2E3E8",
"g 	c #EDEBEC",
"h 	c #E6E6E6",
"i 	c #E7E7E7",
"j 	c #E1E1E1",
"k 	c #ECECEC",
"l 	c #D2D2D2",
"m 	c #989898",
"n 	c #696969",
"o 	c #514B57",
"p 	c #3C3B39",
"q 	c #545859",
"r 	c #75778C",
"s 	c #ABAEBD",
"t 	c #C6CBC7",
"u 	c #D4D4D6",
"v 	c #E6E1E5",
"w 	c #DEDEDE",
"x 	c #E8E8E8",
"y 	c #D0D0D0",
"z 	c #979797",
"A 	c #525252",
"B 	c #3D3D3D",
"C 	c #6C573C",
"D 	c #D1C883",
"E 	c #5D5443",
"F 	c #3B363A",
"G 	c #69686D",
"H 	c #BCBBC3",
"I 	c #C0C1AF",
"J 	c #CDC7D5",
"K 	c #D8D8D8",
"L 	c #E2E2E2",
"M 	c #D7D7D7",
"N 	c #E0E0E0",
"O 	c #B9B9B9",
"P 	c #3F3F3F",
"Q 	c #666666",
"R 	c #E8C766",
"S 	c #E2CB63",
"T 	c #CEC068",
"U 	c #63554A",
"V 	c #3E3838",
"W 	c #94977C",
"X 	c #C5C3C6",
"Y 	c #B4B1B8",
"Z 	c #CFCFCF",
"` 	c #DDDDDD",
" .	c #CCCEC9",
"..	c #DFE4DE",
"+.	c #C7C7D1",
"@.	c #ADA5BC",
"#.	c #57484F",
"$.	c #66542E",
"%.	c #DFCD81",
"&.	c #E0C957",
"*.	c #E0C844",
"=.	c #E4BF57",
"-.	c #D7B44C",
";.	c #5A403F",
">.	c #6B6C6E",
",.	c #CDD6D5",
"'.	c #9B969A",
").	c #C3C3C1",
"!.	c #D6D9D2",
"~.	c #CBCDC8",
"{.	c #9F9E99",
"].	c #4E492C",
"^.	c #CDC682",
"/.	c #D5CD68",
"(.	c #E7C15E",
"_.	c #E4B951",
":.	c #DDB52F",
"<.	c #D3B725",
"[.	c #B1A93E",
"}.	c #595748",
"|.	c #DDDBE0",
"1.	c #8B817F",
"2.	c #B2B2B2",
"3.	c #BBBCB6",
"4.	c #C9CBCA",
"5.	c #B7BAC3",
"6.	c #AAA9B9",
"7.	c #554F5B",
"8.	c #5C534E",
"9.	c #675C4A",
"0.	c #D8BA48",
"a.	c #DAB936",
"b.	c #D7BB34",
"c.	c #604440",
"d.	c #484735",
"e.	c #707589",
"f.	c #D2DBD6",
"g.	c #757984",
"h.	c #A8A8A8",
"i.	c #CCCCCC",
"j.	c #BDBBBE",
"k.	c #C6C7CC",
"l.	c #ACAFB6",
"m.	c #A6A9AE",
"n.	c #7D7E80",
"o.	c #545351",
"p.	c #615E59",
"q.	c #D8B533",
"r.	c #E1BB32",
"s.	c #CAAF22",
"t.	c #604B4A",
"u.	c #464832",
"v.	c #AEADB3",
"w.	c #BABBAB",
"x.	c #7F7F7D",
"y.	c #C4C4C4",
"z.	c #B5B3B4",
"A.	c #ABADA8",
"B.	c #969C90",
"C.	c #A6AC9E",
"D.	c #666A5C",
"E.	c #6B6E65",
"F.	c #CEB534",
"G.	c #C0A520",
"H.	c #B4A32F",
"I.	c #534846",
"J.	c #7C7F88",
"K.	c #CFD1D0",
"L.	c #808074",
"M.	c #87868E",
"N.	c #A5A5A5",
"O.	c #B8B8B8",
"P.	c #ABACA7",
"Q.	c #ACACAA",
"R.	c #ABABAD",
"S.	c #95969B",
"T.	c #9494A0",
"U.	c #ACAABF",
"V.	c #7A7A92",
"W.	c #6A525F",
"X.	c #614C51",
"Y.	c #665B55",
"Z.	c #8B8C90",
"`.	c #C3CBD8",
" +	c #96A098",
".+	c #6D746D",
"++	c #898E92",
"@+	c #A3A3A3",
"#+	c #AEAEAE",
"$+	c #A7A6AB",
"%+	c #A2A0A1",
"&+	c #979596",
"*+	c #858587",
"=+	c #808080",
"-+	c #A3A5A2",
";+	c #D2C4BB",
">+	c #E4DAD8",
",+	c #D5CED5",
"'+	c #BAB4B8",
")+	c #8A8490",
"!+	c #65626B",
"~+	c #847E80",
"{+	c #9D919B",
"]+	c #A7A7A7",
"^+	c #A4A5A0",
"/+	c #A0A098",
"(+	c #A3A29D",
"_+	c #9D999A",
":+	c #959396",
"<+	c #807F7D",
"[+	c #6B6C64",
"}+	c #575B5C",
"|+	c #515C60",
"1+	c #546265",
"2+	c #5A5F58",
"3+	c #727560",
"4+	c #7F828B",
"5+	c #8F9392",
"6+	c #9D97A1",
"7+	c #A1A1A1",
"8+	c #9D9D9D",
"9+	c #9E9E9E",
"0+	c #9B9B9B",
"a+	c #969696",
"b+	c #8F8F8F",
"c+	c #8B8B8B",
"d+	c #7F7F7F",
"e+	c #828282",
"f+	c #888888",
"g+	c #909090",
"h+	c #9C9C9C",
"i+	c #9F9F9F",
"j+	c #999999",
"k+	c #959595",
"l+	c #949494",
"m+	c #9A9A9A",
". . . . . . . . . . . . . . . . . ",
"+ + + + + + + + + + + + + + + + + ",
"@ # $ % & * = - ; > , ' ) ! ~ { { ",
"] ^ / # ( _ : < [ } | 1 2 3 4 5 5 ",
"6 : 7 _ 7 8 9 0 a b c d e f g h i ",
"j k / ] l m n o p q r s t u v j h ",
"w x 6 y z A B C D E F G H I J K L ",
"M 6 N O n P Q R S T U V W X Y Z ` ",
" ...+.@.#.$.%.&.*.=.-.;.>.,.'.9 K ",
").!.~.{.].^./.(._.:.<.[.}.|.1.2.l ",
"3.4.5.6.7.8.9.0.a.b.c.d.e.f.g.h.i.",
"j.k.l.m.n.o.p.q.r.s.t.u.v.w.x.h.y.",
"z.O A.B.C.D.E.F.G.H.I.J.K.L.M.N.O.",
"P.Q.R.S.T.U.V.W.X.Y.Z.`. +.+++@+#+",
"$+#+%+&+*+=+-+;+>+,+'+)+!+~+{+@+]+",
"^+/+(+_+:+<+[+}+|+1+2+3+4+5+6+7+@+",
"8+9+9+0+a+b+c+=+d+d+e+f+g+z 0+h+9+",
"8+9+i+9+h+j+a+z k+l+l+z m+8+9+8+9+",
"+ + + + + + + + + + + + + + + + + "};
