/* XPM */
static char * menu_active_xpm[] = {
"16 19 253 2",
"  	c None",
". 	c #4D4D4D",
"+ 	c #333333",
"@ 	c #99ADD2",
"# 	c #98ABD6",
"$ 	c #95ACDE",
"% 	c #91A7D8",
"& 	c #96A8D6",
"* 	c #9BACD8",
"= 	c #98AAD8",
"- 	c #98AADA",
"; 	c #94A9D8",
"> 	c #94ABD7",
", 	c #95ACD8",
"' 	c #93ABD9",
") 	c #92AAD8",
"! 	c #96AEDC",
"~ 	c #96B1E0",
"{ 	c #6589C5",
"] 	c #6C8ECE",
"^ 	c #6B8FC9",
"/ 	c #7093CB",
"( 	c #7F9FD2",
"_ 	c #8CABDA",
": 	c #8FAEDC",
"< 	c #90AFDE",
"[ 	c #8EACDE",
"} 	c #88A8DB",
"| 	c #7B9ED6",
"1 	c #7195CF",
"2 	c #6990CB",
"3 	c #5F87C4",
"4 	c #5E87C5",
"5 	c #668FCD",
"6 	c #5E8CC0",
"7 	c #5D8AC1",
"8 	c #7C94C4",
"9 	c #8BA2CE",
"0 	c #9CB2D7",
"a 	c #ABBEDE",
"b 	c #B6C7E5",
"c 	c #B9C9EA",
"d 	c #ACBFE0",
"e 	c #9DAFD3",
"f 	c #8FA5D7",
"g 	c #7D96CC",
"h 	c #7491C9",
"i 	c #6D8DC8",
"j 	c #6286C4",
"k 	c #5E8DC5",
"l 	c #6693CE",
"m 	c #849BCF",
"n 	c #9CB2E1",
"o 	c #B0C3EB",
"p 	c #B4C4E5",
"q 	c #A9B8D5",
"r 	c #99A8C5",
"s 	c #97A6C7",
"t 	c #A2B0D5",
"u 	c #90A3DB",
"v 	c #8197D1",
"w 	c #6C8ACA",
"x 	c #698CD0",
"y 	c #658BD2",
"z 	c #5D83CA",
"A 	c #5E86C4",
"B 	c #6E91D5",
"C 	c #91AEDA",
"D 	c #A8C4EB",
"E 	c #A2BBD9",
"F 	c #768CA1",
"G 	c #435869",
"H 	c #213647",
"I 	c #263A52",
"J 	c #445873",
"K 	c #748DB6",
"L 	c #809FCD",
"M 	c #6388BC",
"N 	c #517EB7",
"O 	c #5788C3",
"P 	c #5283BE",
"Q 	c #5C80B4",
"R 	c #7998D1",
"S 	c #99ABDB",
"T 	c #A4B3DC",
"U 	c #7784A4",
"V 	c #333E54",
"W 	c #1C2536",
"X 	c #20283B",
"Y 	c #212940",
"Z 	c #222945",
"` 	c #334367",
" .	c #778DB6",
"..	c #6C88B7",
"+.	c #5275AB",
"@.	c #5881B9",
"#.	c #567FB7",
"$.	c #557EB4",
"%.	c #7498D2",
"&.	c #8BA6D1",
"*.	c #9FB1DF",
"=.	c #495175",
"-.	c #28263C",
";.	c #2B2A38",
">.	c #2B333E",
",.	c #1E2E3E",
"'.	c #243352",
").	c #402E3A",
"!.	c #59587A",
"~.	c #7F95C4",
"{.	c #426992",
"].	c #4972A0",
"^.	c #5679B9",
"/.	c #527BB1",
"(.	c #6F93CD",
"_.	c #8FA2C2",
":.	c #91A2CE",
"<.	c #56632B",
"[.	c #D7D727",
"}.	c #EEDD1D",
"|.	c #E5D01B",
"1.	c #EEDB1C",
"2.	c #F1D623",
"3.	c #C5D33E",
"4.	c #637539",
"5.	c #8FA7BF",
"6.	c #335585",
"7.	c #406697",
"8.	c #5175B1",
"9.	c #4E77AD",
"0.	c #668AC4",
"a.	c #6786C7",
"b.	c #8FABDD",
"c.	c #2C3A45",
"d.	c #847C33",
"e.	c #F3D829",
"f.	c #FFDF00",
"g.	c #FFDD0C",
"h.	c #FFDA1B",
"i.	c #788446",
"j.	c #3F4A50",
"k.	c #8C9DD1",
"l.	c #2C4975",
"m.	c #3F6184",
"n.	c #4F73A7",
"o.	c #4972A6",
"p.	c #5A7EB8",
"q.	c #5688AD",
"r.	c #7699C1",
"s.	c #4A6288",
"t.	c #202B3F",
"u.	c #807639",
"v.	c #F1DB26",
"w.	c #F9E335",
"x.	c #7B6A32",
"y.	c #3F475E",
"z.	c #6B77A1",
"A.	c #7788B4",
"B.	c #26415C",
"C.	c #3A5B7A",
"D.	c #486BA3",
"E.	c #446DA1",
"F.	c #4E73AA",
"G.	c #4A69AA",
"H.	c #667DB3",
"I.	c #738BB1",
"J.	c #3C5075",
"K.	c #404447",
"L.	c #7B732A",
"M.	c #73752A",
"N.	c #475464",
"O.	c #5B6C7C",
"P.	c #8294AC",
"Q.	c #4A5D7D",
"R.	c #2A4266",
"S.	c #3D5C88",
"T.	c #42679C",
"U.	c #416A9E",
"V.	c #456AA1",
"W.	c #4863A8",
"X.	c #395E8B",
"Y.	c #5D80AA",
"Z.	c #7D94C0",
"`.	c #5C6689",
" +	c #515D77",
".+	c #51637B",
"++	c #668192",
"@+	c #8495C1",
"#+	c #55678D",
"$+	c #23355D",
"%+	c #2E4674",
"&+	c #3E5F92",
"*+	c #436D9F",
"=+	c #3E689A",
"-+	c #3F649B",
";+	c #3C6789",
">+	c #275590",
",+	c #245172",
"'+	c #4D6B85",
")+	c #7080BE",
"!+	c #8AA1D3",
"~+	c #87A5BD",
"{+	c #6C80B3",
"]+	c #435873",
"^+	c #1E324A",
"/+	c #263C54",
"(+	c #38567A",
"_+	c #355D90",
":+	c #3B64A2",
"<+	c #3D6799",
"[+	c #3C6198",
"}+	c #3B628D",
"|+	c #3D6088",
"1+	c #35527A",
"2+	c #2F4471",
"3+	c #283A62",
"4+	c #192E43",
"5+	c #203344",
"6+	c #1C294C",
"7+	c #1F3453",
"8+	c #2A3C64",
"9+	c #354A75",
"0+	c #3C5C85",
"a+	c #386493",
"b+	c #36639E",
"c+	c #3D649B",
"d+	c #33609A",
"e+	c #3A5E96",
"f+	c #405F98",
"g+	c #385791",
"h+	c #335688",
"i+	c #34547D",
"j+	c #334D72",
"k+	c #304B70",
"l+	c #2D4B6E",
"m+	c #2D5284",
"n+	c #325788",
"o+	c #375C8F",
"p+	c #3B6094",
"q+	c #3B5F95",
"r+	c #3B5F97",
"s+	c #385B8D",
"t+	c #395C8F",
"u+	c #385C8F",
"v+	c #375D8D",
"w+	c #375E8C",
"x+	c #385D8D",
"y+	c #385B90",
"z+	c #36598F",
"A+	c #385B8E",
"B+	c #385D8F",
"C+	c #385C8E",
"D+	c #395D8F",
". . . . . . . . . . . . . . . . ",
"+ + + + + + + + + + + + + + + + ",
"@ # $ % & * * = - ; > , ' ) ! ~ ",
"{ ] ^ / ( _ : < [ } | 1 2 3 4 5 ",
"6 7 8 9 0 a b c d e f g h i j j ",
"k l m n o p q r s t u v w x y z ",
"A B C D E F G H I J K L M N O P ",
"Q R S T U V W X Y Z `  ...+.@.#.",
"$.%.&.*.=.-.;.>.,.'.).!.~.{.].^.",
"/.(._.:.<.[.}.|.1.2.3.4.5.6.7.8.",
"9.0.a.b.c.d.e.f.g.h.i.j.k.l.m.n.",
"o.p.q.r.s.t.u.v.w.x.y.z.A.B.C.D.",
"E.F.G.H.I.J.K.L.M.N.O.P.Q.R.S.T.",
"U.V.W.X.Y.Z.`. +.+++@+#+$+%+&+*+",
"=+-+;+>+,+'+)+!+~+{+]+^+/+(+_+:+",
"<+[+}+|+1+2+3+4+5+6+7+8+9+0+a+b+",
"c+d+e+f+g+h+i+j+k+l+m+n+o+p+q+r+",
"s+t+u+v+w+x+y+z+A+B+s+C+t+D+t+t+",
"+ + + + + + + + + + + + + + + + "};
