/* XPM */
static char * title_1_inactive_xpm[] = {
"8 19 19 1",
" 	c None",
".	c #4E4E4E",
"+	c #323232",
"@	c #333333",
"#	c #B6B6B6",
"$	c #949494",
"%	c #909090",
"&	c #8D8D8D",
"*	c #8A8A8A",
"=	c #878787",
"-	c #848484",
";	c #818181",
">	c #7E7E7E",
",	c #7A7A7A",
"'	c #777777",
")	c #747474",
"!	c #717171",
"~	c #6E6E6E",
"{	c #6B6B6B",
"........",
"+++++@@@",
"########",
"$$$$$$$$",
"%%%%%%%%",
"&&&&&&&&",
"********",
"========",
"--------",
";;;;;;;;",
">>>>>>>>",
",,,,,,,,",
"''''''''",
"))))))))",
"!!!!!!!!",
"~~~~~~~~",
"{{{{{{{{",
"{{{{{{{{",
"@@@@@@@@"};
