/* XPM */
static char * maximize_active_xpm[] = {
"17 21 104 2",
"  	c None",
". 	c #868DA4",
"+ 	c #858DA4",
"@ 	c #8F97AB",
"# 	c #9097AB",
"$ 	c #9497B0",
"% 	c #9499B0",
"& 	c #E1E0EB",
"* 	c #F7F7FA",
"= 	c #F8F8FB",
"- 	c #8F95AD",
"; 	c #C4C5D4",
"> 	c #EBEAF2",
", 	c #9197AC",
"' 	c #B7BACB",
") 	c #DFDEE9",
"! 	c #C0BFCB",
"~ 	c #B1B1BD",
"{ 	c #9297AD",
"] 	c #B8BACC",
"^ 	c #DAD9E6",
"/ 	c #E3E2EC",
"( 	c #7E7D91",
"_ 	c #494962",
": 	c #47465F",
"< 	c #5F5F6E",
"[ 	c #DADAE6",
"} 	c #9499AE",
"| 	c #B9BCCD",
"1 	c #D4D4E2",
"2 	c #E7E7EF",
"3 	c #9C9CB3",
"4 	c #6E6D8F",
"5 	c #686788",
"6 	c #5D5D6D",
"7 	c #979DB0",
"8 	c #B7BACC",
"9 	c #D2D2DF",
"0 	c #E6E6ED",
"a 	c #6B6B76",
"b 	c #E3E3E7",
"c 	c #F3F3F6",
"d 	c #ECECEE",
"e 	c #5C5C6C",
"f 	c #979DB1",
"g 	c #999FB2",
"h 	c #B5B8CA",
"i 	c #CDCEDD",
"j 	c #E3E3EC",
"k 	c #C0C0CF",
"l 	c #CDCEDC",
"m 	c #E6E6E9",
"n 	c #5B5B6B",
"o 	c #9CA2B4",
"p 	c #B1B5C8",
"q 	c #C9CADA",
"r 	c #E1E1EA",
"s 	c #BCBDCD",
"t 	c #E5E5E9",
"u 	c #595A6A",
"v 	c #A0A6B8",
"w 	c #ADB1C5",
"x 	c #C1C2D5",
"y 	c #DCDDE7",
"z 	c #B5B6C8",
"A 	c #E4E4E8",
"B 	c #575769",
"C 	c #A4AABB",
"D 	c #A9ADC3",
"E 	c #BABBD0",
"F 	c #D8D9E4",
"G 	c #AEAFC3",
"H 	c #555567",
"I 	c #A8AEBE",
"J 	c #A6AAC1",
"K 	c #B4B4CB",
"L 	c #D5D5E2",
"M 	c #474759",
"N 	c #4A4A5C",
"O 	c #545462",
"P 	c #535366",
"Q 	c #AEB3C2",
"R 	c #A0A5BE",
"S 	c #ACADC5",
"T 	c #C7C7D8",
"U 	c #E9E9F0",
"V 	c #D5D6E2",
"W 	c #ACACC5",
"X 	c #ABADC5",
"Y 	c #B2B7C5",
"Z 	c #8E93B2",
"` 	c #A1A3C0",
" .	c #A2A3C0",
"..	c #C7CBD7",
"+.	c #7A829E",
"@.	c #8A8DB2",
"#.	c #8B8EB4",
"$.	c #C7CBD6",
"%.	c #BDC1CC",
"&.	c #8B92A5",
"*.	c #8990A4",
"=.	c #8A91A5",
"-.	c #8A91A4",
";.	c #8991A4",
"                                  ",
"                                  ",
"                                  ",
"  . + @ # # # # # # # # # @ + .   ",
"$ % & * = = = = = = = = = * & % $ ",
"- ; > > > > > > > > > > > > > ; - ",
", ' ) ) ! ~ ~ ~ ~ ~ ~ ~ ! ) ) ' , ",
"{ ] ^ / ( _ _ _ _ _ _ : < [ ^ ] { ",
"} | 1 2 3 4 4 4 4 4 4 5 6 1 1 | } ",
"7 8 9 0 a b c c c c c d e 9 9 8 f ",
"g h i j a k l l l l l m n l i h g ",
"o p q r a s q q q q q t u q q p o ",
"v w x y a z x x x x x A B x x w v ",
"C D E F a G E E E E E b H E E D C ",
"I J K L a M N N N N N O P K K J I ",
"Q R S T U U U U U U U U V W X R Q ",
"Y Z `  . . . . . . . . . . .` Z Y ",
"..+.@.#.#.#.#.#.#.#.#.#.#.#.@.+.$.",
"  %.&.*.*.=.-.=.;.*.*.*.*.*.&.%.  ",
"                                  ",
"                                  "};
