/* XPM */
static char * bottom_right_inactive_xpm[] = {
"12 12 5 1",
" 	c None",
".	c #E6EAE6",
"+	c #D5DAD5",
"@	c #C5CAC5",
"#	c #B4BAB4",
"         .+@",
"         .+@",
"         .+@",
"         .+@",
"         .+@",
"         .+@",
"         .+@",
"         .+@",
"         .+@",
"..........+@",
"+++++++++++@",
"###########@"};
