/* XPM */
static char * bottom_right_inactive_xpm[] = {
"12 12 4 1",
" 	c None",
".	c #E6EAE6",
"+	c #D5DAD5",
"@	c #B4BAB4",
"         .+@",
"         .+@",
"         .+@",
"         .+@",
"         .+@",
"         .+@",
"         .+@",
"         .+@",
"         .+@",
"..........+@",
"+++++++++++@",
"@@@@@@@@@@@@"};
