/* XPM */
static char * close_active_xpm[] = {
"16 22 170 2",
"  	c None",
". 	c #AAB4C6",
"+ 	c #AD95A3",
"@ 	c #A75F65",
"# 	c #A54648",
"$ 	c #A44042",
"% 	c #A34244",
"& 	c #A35155",
"* 	c #A57E89",
"= 	c #A9B2C4",
"- 	c #929EB2",
"; 	c #9597AA",
"> 	c #A15257",
", 	c #AC3B3B",
"' 	c #C36D6D",
") 	c #D29E9E",
"! 	c #D8B4B4",
"~ 	c #D5ACAC",
"{ 	c #C88686",
"] 	c #B24D4D",
"^ 	c #9E4042",
"/ 	c #918392",
"( 	c #8B97AC",
"_ 	c #8E91A4",
": 	c #A04346",
"< 	c #BD4A4A",
"[ 	c #DEA6A6",
"} 	c #F2CBCB",
"| 	c #F9D0D0",
"1 	c #FBD2D2",
"2 	c #FAD1D1",
"3 	c #F4CCCC",
"4 	c #E4BDBD",
"5 	c #C66F6F",
"6 	c #A1393A",
"7 	c #877584",
"8 	c #9F4F55",
"9 	c #BC4141",
"0 	c #E69A9A",
"a 	c #FAB8B8",
"b 	c #FEBBBB",
"c 	c #FFBCBC",
"d 	c #FCB9B9",
"e 	c #EDAEAE",
"f 	c #C86060",
"g 	c #9E3A3C",
"h 	c #83889A",
"i 	c #9A8392",
"j 	c #AB3939",
"k 	c #DD6666",
"l 	c #F8A0A0",
"m 	c #FEA4A4",
"n 	c #FBA2A2",
"o 	c #E78D8D",
"p 	c #B83E3E",
"q 	c #8B5056",
"r 	c #909CB0",
"s 	c #A1585D",
"t 	c #C14040",
"u 	c #EF7272",
"v 	c #FD8181",
"w 	c #FE7A7A",
"x 	c #FE7474",
"y 	c #FE7070",
"z 	c #FE6F6F",
"A 	c #FE7272",
"B 	c #FE7676",
"C 	c #FE7D7D",
"D 	c #F58282",
"E 	c #D04E4E",
"F 	c #9E3B3C",
"G 	c #8B96A7",
"H 	c #D14646",
"I 	c #F65353",
"J 	c #FE5555",
"K 	c #FA5353",
"L 	c #DE4B4B",
"M 	c #A83838",
"N 	c #888592",
"O 	c #A43C3D",
"P 	c #D64747",
"Q 	c #F85353",
"R 	c #FB5454",
"S 	c #E34C4C",
"T 	c #AC3939",
"U 	c #887681",
"V 	c #A53F40",
"W 	c #D44747",
"X 	c #F75252",
"Y 	c #E14B4B",
"Z 	c #AA3939",
"` 	c #8A7B84",
" .	c #A64E50",
"..	c #C94444",
"+.	c #F35151",
"@.	c #FD5454",
"#.	c #D74949",
"$.	c #A43839",
"%.	c #9499A3",
"&.	c #AE787E",
"*.	c #B54747",
"=.	c #E65D5D",
"-.	c #FB5656",
";.	c #FC5757",
">.	c #EE5F5F",
",.	c #C25353",
"'.	c #984849",
").	c #A8B0BB",
"!.	c #C6C7D1",
"~.	c #A44647",
"{.	c #CA6F6F",
"].	c #EF8080",
"^.	c #FC6C6C",
"/.	c #FE5E5E",
"(.	c #FE5959",
"_.	c #FE5858",
":.	c #FE5D5D",
"<.	c #FD6969",
"[.	c #F47F7F",
"}.	c #D67B7B",
"|.	c #A94848",
"1.	c #8D7378",
"2.	c #C4CCD6",
"3.	c #D5DAE5",
"4.	c #BC969D",
"5.	c #A74747",
"6.	c #CD7E7E",
"7.	c #EBA1A1",
"8.	c #FC9595",
"9.	c #FD9292",
"0.	c #FC9494",
"a.	c #FA9F9F",
"b.	c #F0A6A6",
"c.	c #D68C8C",
"d.	c #AF5252",
"e.	c #995658",
"f.	c #BABEC8",
"g.	c #DEE3EA",
"h.	c #DDE2E9",
"i.	c #B88A8E",
"j.	c #A54242",
"k.	c #BE6565",
"l.	c #D78E8E",
"m.	c #E5A5A5",
"n.	c #EAADAD",
"o.	c #E7A8A8",
"p.	c #DB9595",
"q.	c #C47070",
"r.	c #A94747",
"s.	c #9C5456",
"t.	c #B4B7BD",
"u.	c #C1ADB1",
"v.	c #A55152",
"w.	c #A54040",
"x.	c #AE4A4A",
"y.	c #B25151",
"z.	c #AF4C4C",
"A.	c #A74141",
"B.	c #A24546",
"C.	c #987173",
"D.	c #BDC2C8",
"E.	c #E5E8EE",
"F.	c #DEE1E7",
"G.	c #C4BCC0",
"H.	c #AC8486",
"I.	c #A37376",
"J.	c #A37679",
"K.	c #A9989B",
"L.	c #C1C3C8",
"M.	c #DDE0E6",
"                                ",
"                                ",
"                                ",
"                                ",
". . . . + @ # $ % & * = . . . . ",
"- - ; > , ' ) ! ~ { ] ^ / - - - ",
"( _ : < [ } | 1 2 3 4 5 6 7 ( ( ",
"( 8 9 0 a b c c c c d e f g h ( ",
"i j k l m m m m m m m n o p q r ",
"s t u v w x y z z A B C D E F G ",
"% H I J J J J J J J J J K L M N ",
"O P Q J J J J J J J J J R S T U ",
"V W X J J J J J J J J J R Y Z ` ",
" ...+.@.J J J J J J J J Q #.$.%.",
"&.*.=.-.J J J J J J J ;.>.,.'.).",
"!.~.{.].^./.(._._.:.<.[.}.|.1.2.",
"3.4.5.6.7.l 8.9.0.a.b.c.d.e.f.3.",
"g.h.i.j.k.l.m.n.o.p.q.r.s.t.h.g.",
"g.g.h.u.v.w.x.y.z.A.B.C.D.h.g.g.",
"E.E.E.E.F.G.H.I.J.K.L.M.E.E.E.E.",
"                                ",
"                                "};
