/* XPM */
static char * maximize_active_xpm[] = {
"16 22 171 2",
"  	c None",
". 	c #AAB4C6",
"+ 	c #8EB49D",
"@ 	c #5BAB56",
"# 	c #43A635",
"$ 	c #3EA52D",
"% 	c #3FA431",
"& 	c #4EA545",
"* 	c #78AB80",
"= 	c #A8B3C4",
"- 	c #929EB2",
"; 	c #8CA0A8",
"> 	c #4EA447",
", 	c #3AAC26",
"' 	c #6DC35D",
") 	c #9ED294",
"! 	c #B4D8AD",
"~ 	c #ACD5A4",
"{ 	c #86C87A",
"] 	c #4BB239",
"^ 	c #3D9F2F",
"/ 	c #799A8D",
"( 	c #8B97AC",
"_ 	c #8599A3",
": 	c #41A234",
"< 	c #49BD34",
"[ 	c #A5DE9A",
"} 	c #CAF2C3",
"| 	c #CFF9C9",
"1 	c #D1FBCA",
"2 	c #D0FAC9",
"3 	c #CBF4C5",
"4 	c #BDE4B6",
"5 	c #6EC65E",
"6 	c #37A125",
"7 	c #6C907E",
"8 	c #4CA245",
"9 	c #3FBC29",
"0 	c #9AE68C",
"a 	c #B8FAAB",
"b 	c #BBFEAE",
"c 	c #BCFFAF",
"d 	c #B9FCAC",
"e 	c #AEEDA2",
"f 	c #5FC84C",
"g 	c #399F28",
"h 	c #7D8E99",
"i 	c #7AA38C",
"j 	c #38AB23",
"k 	c #64DD4F",
"l 	c #9FF88E",
"m 	c #A3FE92",
"n 	c #A1FB90",
"o 	c #8CE77B",
"p 	c #3CB826",
"q 	c #4C8F4A",
"r 	c #909CB0",
"s 	c #53A54E",
"t 	c #3FC127",
"u 	c #71EF5A",
"v 	c #7FFD69",
"w 	c #78FE5F",
"x 	c #72FE59",
"y 	c #6EFE55",
"z 	c #6DFE53",
"A 	c #70FE57",
"B 	c #75FE5C",
"C 	c #7CFE64",
"D 	c #81F56C",
"E 	c #4DD035",
"F 	c #399F29",
"G 	c #8B96A7",
"H 	c #40A531",
"I 	c #44D12A",
"J 	c #51F633",
"K 	c #53FE34",
"L 	c #51FA33",
"M 	c #49DE2E",
"N 	c #37A822",
"O 	c #7D9090",
"P 	c #3AA429",
"Q 	c #45D62B",
"R 	c #51F832",
"S 	c #52FB33",
"T 	c #4AE32E",
"U 	c #38AC23",
"V 	c #708E7C",
"W 	c #3CA62B",
"X 	c #45D42B",
"Y 	c #50F732",
"Z 	c #49E12E",
"` 	c #37AA22",
" .	c #749081",
"..	c #4CA83F",
"+.	c #42C929",
"@.	c #4FF331",
"#.	c #52FD33",
"$.	c #48D72E",
"%.	c #37A424",
"&.	c #929BA3",
"*.	c #74B273",
"=.	c #45B531",
"-.	c #5BE643",
";.	c #55FB37",
">.	c #55FC36",
",.	c #5DEE43",
"'.	c #51C23D",
").	c #459A3A",
"!.	c #A8B0BB",
"~.	c #C0CDCF",
"{.	c #45A535",
"].	c #6DCA5D",
"^.	c #7FEF6A",
"/.	c #6AFC50",
"(.	c #5DFE3F",
"_.	c #57FE39",
":.	c #57FE38",
"<.	c #5BFE3E",
"[.	c #67FD4C",
"}.	c #7DF468",
"|.	c #7BD66B",
"1.	c #47A935",
"2.	c #6F9172",
"3.	c #C4CCD6",
"4.	c #D5DAE5",
"5.	c #93BF95",
"6.	c #46A734",
"7.	c #7ECD6F",
"8.	c #A1EB93",
"9.	c #94FC82",
"0.	c #91FD7D",
"a.	c #93FC80",
"b.	c #9EFA8D",
"c.	c #A5F097",
"d.	c #8BD67E",
"e.	c #51AF40",
"f.	c #559A4A",
"g.	c #BABEC8",
"h.	c #DEE3EA",
"i.	c #DDE2E9",
"j.	c #87BA84",
"k.	c #41A52F",
"l.	c #64BE53",
"m.	c #8DD77F",
"n.	c #A4E598",
"o.	c #ACEAA0",
"p.	c #A7E79B",
"q.	c #94DB87",
"r.	c #6FC45F",
"s.	c #46A934",
"t.	c #529D47",
"u.	c #B3B8BD",
"v.	c #A9C5AD",
"w.	c #50A642",
"x.	c #3FA52C",
"y.	c #49AE37",
"z.	c #50B23E",
"A.	c #4BAF39",
"B.	c #40A72E",
"C.	c #44A335",
"D.	c #6E9A6B",
"E.	c #BDC2C8",
"F.	c #E5E8EE",
"G.	c #DEE1E7",
"H.	c #B9C6BE",
"I.	c #82AE7F",
"J.	c #72A56C",
"K.	c #75A470",
"L.	c #95AA98",
"M.	c #C1C3C8",
"N.	c #DDE0E6",
"                                ",
"                                ",
"                                ",
"                                ",
". . . . + @ # $ % & * = . . . . ",
"- - ; > , ' ) ! ~ { ] ^ / - - - ",
"( _ : < [ } | 1 2 3 4 5 6 7 ( ( ",
"( 8 9 0 a b c c c c d e f g h ( ",
"i j k l m m m m m m m n o p q r ",
"s t u v w x y z z A B C D E F G ",
"H I J K K K K K K K K K L M N O ",
"P Q R K K K K K K K K K S T U V ",
"W X Y K K K K K K K K K S Z `  .",
"..+.@.#.K K K K K K K K R $.%.&.",
"*.=.-.;.K K K K K K K >.,.'.).!.",
"~.{.].^./.(._.:.:.<.[.}.|.1.2.3.",
"4.5.6.7.8.l 9.0.a.b.c.d.e.f.g.4.",
"h.i.j.k.l.m.n.o.p.q.r.s.t.u.i.h.",
"h.h.i.v.w.x.y.z.A.B.C.D.E.i.h.h.",
"F.F.F.F.G.H.I.J.K.L.M.N.F.F.F.F.",
"                                ",
"                                "};
