/* XPM */
static char * menu_pressed_xpm[] = {
"16 22 189 2",
"  	c None",
". 	c #AAB4C6",
"+ 	c #727ABE",
"@ 	c #363AA9",
"# 	c #2A2EA5",
"$ 	c #282CA4",
"% 	c #292DA3",
"& 	c #2D32A2",
"* 	c #5358AB",
"= 	c #A6B0C4",
"- 	c #929EB2",
"; 	c #848FB4",
"> 	c #3034A7",
", 	c #2D31AD",
"' 	c #6366C3",
") 	c #9899D2",
"! 	c #B0B1D8",
"~ 	c #A7A8D5",
"{ 	c #7E80C8",
"] 	c #3F43B2",
"^ 	c #282CA0",
"/ 	c #616AA2",
"( 	c #8B97AC",
"_ 	c #7E89AE",
": 	c #292EA4",
"< 	c #3B3FBD",
"[ 	c #9EA0DE",
"} 	c #C5C7F2",
"| 	c #CBCDF9",
"1 	c #CCCEFB",
"2 	c #CBCDFA",
"3 	c #C7C8F4",
"4 	c #B8B9E4",
"5 	c #6367C6",
"6 	c #282CA2",
"7 	c #525A95",
"8 	c #2E33A6",
"9 	c #3136BC",
"0 	c #9093E6",
"a 	c #B0B2FA",
"b 	c #B3B5FE",
"c 	c #B4B6FF",
"d 	c #B1B3FC",
"e 	c #A7A9ED",
"f 	c #5356C8",
"g 	c #272BA0",
"h 	c #6F7996",
"i 	c #626BB2",
"j 	c #2A2EAC",
"k 	c #575BDD",
"l 	c #9497F8",
"m 	c #989BFE",
"n 	c #9699FB",
"o 	c #8284E7",
"p 	c #2E32B8",
"q 	c #2B2F8C",
"r 	c #8E9AAE",
"s 	c #3337A7",
"t 	c #2F34C1",
"u 	c #6267EF",
"v 	c #7075FD",
"w 	c #3E4198",
"x 	c #5F64F7",
"y 	c #5E63FE",
"z 	c #5C61FE",
"A 	c #5D61FE",
"B 	c #6065FE",
"C 	c #4D51C2",
"D 	c #5558C6",
"E 	c #7277F5",
"F 	c #3D42D0",
"G 	c #272B9F",
"H 	c #7F8999",
"I 	c #292DA4",
"J 	c #3338D1",
"K 	c #3D43F6",
"L 	c #3F45FE",
"M 	c #13154D",
"N 	c #161859",
"O 	c #3E44FD",
"P 	c #3338D0",
"Q 	c #040512",
"R 	c #3E43FA",
"S 	c #373DDE",
"T 	c #292DA8",
"U 	c #5E6585",
"V 	c #353AD6",
"W 	c #3D43F8",
"X 	c #3C41F2",
"Y 	c #0C0D32",
"Z 	c #1E2179",
"` 	c #383DE3",
" .	c #07071C",
"..	c #272B9E",
"+.	c #3E44FB",
"@.	c #494D7D",
"#.	c #282CA5",
"$.	c #3439D4",
"%.	c #3D43F7",
"&.	c #383EE5",
"*.	c #07081E",
"=.	c #23268E",
"-.	c #0B0C2F",
";.	c #1F227D",
">.	c #373DE1",
",.	c #2A2EAA",
"'.	c #4C517C",
").	c #2C30A3",
"!.	c #3237C9",
"~.	c #3C42F3",
"{.	c #3439D3",
"].	c #03040F",
"^.	c #16195C",
"/.	c #373CD7",
"(.	c #717682",
"_.	c #474CAC",
":.	c #393CB5",
"<.	c #4B50E6",
"[.	c #4248FB",
"}.	c #383DE2",
"|.	c #3D43F9",
"1.	c #4147FC",
"2.	c #4C51EE",
"3.	c #4448C2",
"4.	c #2A2D93",
"5.	c #959CA6",
"6.	c #B5BDD4",
"7.	c #3236A3",
"8.	c #6366CA",
"9.	c #7175EF",
"0.	c #595EFC",
"a.	c #4A4FFE",
"b.	c #444AFE",
"c.	c #4349FE",
"d.	c #484EFE",
"e.	c #555BFD",
"f.	c #7074F4",
"g.	c #7073D6",
"h.	c #3A3EA9",
"i.	c #3E4275",
"j.	c #C0C8D2",
"k.	c #D5DAE5",
"l.	c #6367B3",
"m.	c #393DA7",
"n.	c #7477CD",
"o.	c #989BEB",
"p.	c #9498F8",
"q.	c #888CFC",
"r.	c #8488FD",
"s.	c #878AFC",
"t.	c #9396FA",
"u.	c #9B9FF0",
"v.	c #8285D6",
"w.	c #4649AF",
"x.	c #2D308D",
"y.	c #A2A6AE",
"z.	c #DEE3EA",
"A.	c #DCE1E8",
"B.	c #5256A7",
"C.	c #3337A5",
"D.	c #595CBE",
"E.	c #8487D7",
"F.	c #9C9FE5",
"G.	c #A4A7EA",
"H.	c #A0A2E7",
"I.	c #8B8FDB",
"J.	c #6568C4",
"K.	c #3A3DA9",
"L.	c #2A2F8F",
"M.	c #909499",
"N.	c #7E82B3",
"O.	c #2C309C",
"P.	c #3135A5",
"Q.	c #3D41AE",
"R.	c #4448B2",
"S.	c #3F43AF",
"T.	c #3438A7",
"U.	c #2B2E9D",
"V.	c #393C7E",
"W.	c #A1A5AA",
"X.	c #E5E8EE",
"Y.	c #D7DAE0",
"Z.	c #9497AF",
"`.	c #4B4E93",
" +	c #3D408B",
".+	c #3E4289",
"++	c #616387",
"@+	c #A2A4A8",
"#+	c #D6D8DE",
"                                ",
"                                ",
"                                ",
"                                ",
". . . . + @ # $ % & * = . . . . ",
"- - ; > , ' ) ! ~ { ] ^ / - - - ",
"( _ : < [ } | 1 2 3 4 5 6 7 ( ( ",
"( 8 9 0 a b c c c c d e f g h ( ",
"i j k l m m m m m m m n o p q r ",
"s t u v w x y z A B C D E F G H ",
"I J K L M N O L L P Q t R S T U ",
"$ V W L X Y Z L `  ...L +.` j @.",
"#.$.%.L L &.*.=.-.;.L L +.>.,.'.",
").!.~.O L L {.].^.O L L W /.$ (.",
"_.:.<.[.L L L }.|.L L 1.2.3.4.5.",
"6.7.8.9.0.a.b.c.c.d.e.f.g.h.i.j.",
"k.l.m.n.o.p.q.r.s.t.u.v.w.x.y.k.",
"z.A.B.C.D.E.F.G.H.I.J.K.L.M.A.z.",
"z.z.A.N.O.P.Q.R.S.T.U.V.W.A.z.z.",
"X.X.X.X.Y.Z.`. +.+++@+#+X.X.X.X.",
"                                ",
"                                "};
