/* XPM */
static char * menu_active_xpm[] = {
"16 22 170 2",
"  	c None",
". 	c #AAB4C6",
"+ 	c #727ABE",
"@ 	c #363AA9",
"# 	c #2A2EA5",
"$ 	c #282CA4",
"% 	c #292DA3",
"& 	c #2D32A2",
"* 	c #5358AB",
"= 	c #A6B0C4",
"- 	c #929EB2",
"; 	c #848FB4",
"> 	c #3034A7",
", 	c #2D31AD",
"' 	c #6366C3",
") 	c #9899D2",
"! 	c #B0B1D8",
"~ 	c #A7A8D5",
"{ 	c #7E80C8",
"] 	c #3F43B2",
"^ 	c #282CA0",
"/ 	c #616AA2",
"( 	c #8B97AC",
"_ 	c #7E89AE",
": 	c #292EA4",
"< 	c #3B3FBD",
"[ 	c #9EA0DE",
"} 	c #C5C7F2",
"| 	c #CBCDF9",
"1 	c #CCCEFB",
"2 	c #CBCDFA",
"3 	c #C7C8F4",
"4 	c #B8B9E4",
"5 	c #6367C6",
"6 	c #282CA2",
"7 	c #525A95",
"8 	c #2E33A6",
"9 	c #3136BC",
"0 	c #9093E6",
"a 	c #B0B2FA",
"b 	c #B3B5FE",
"c 	c #B4B6FF",
"d 	c #B1B3FC",
"e 	c #A7A9ED",
"f 	c #5356C8",
"g 	c #272BA0",
"h 	c #6F7996",
"i 	c #626BB2",
"j 	c #2A2EAC",
"k 	c #575BDD",
"l 	c #9497F8",
"m 	c #989BFE",
"n 	c #9699FB",
"o 	c #8284E7",
"p 	c #2E32B8",
"q 	c #2B2F8C",
"r 	c #8E9AAE",
"s 	c #3337A7",
"t 	c #2F34C1",
"u 	c #6267EF",
"v 	c #7075FD",
"w 	c #686DFE",
"x 	c #6267FE",
"y 	c #5E63FE",
"z 	c #5C61FE",
"A 	c #5D61FE",
"B 	c #6065FE",
"C 	c #656AFE",
"D 	c #6D71FE",
"E 	c #7277F5",
"F 	c #3D42D0",
"G 	c #272B9F",
"H 	c #7F8999",
"I 	c #292DA4",
"J 	c #3338D1",
"K 	c #3D43F6",
"L 	c #3F45FE",
"M 	c #3E43FA",
"N 	c #373DDE",
"O 	c #292DA8",
"P 	c #5E6585",
"Q 	c #353AD6",
"R 	c #3D43F8",
"S 	c #3E44FB",
"T 	c #383DE3",
"U 	c #494D7D",
"V 	c #282CA5",
"W 	c #3439D4",
"X 	c #3D43F7",
"Y 	c #373DE1",
"Z 	c #2A2EAA",
"` 	c #4C517C",
" .	c #2C30A3",
"..	c #3237C9",
"+.	c #3C42F3",
"@.	c #3E44FD",
"#.	c #373CD7",
"$.	c #717682",
"%.	c #474CAC",
"&.	c #393CB5",
"*.	c #4B50E6",
"=.	c #4248FB",
"-.	c #4147FC",
";.	c #4C51EE",
">.	c #4448C2",
",.	c #2A2D93",
"'.	c #959CA6",
").	c #B5BDD4",
"!.	c #3236A3",
"~.	c #6366CA",
"{.	c #7175EF",
"].	c #595EFC",
"^.	c #4A4FFE",
"/.	c #444AFE",
"(.	c #4349FE",
"_.	c #484EFE",
":.	c #555BFD",
"<.	c #7074F4",
"[.	c #7073D6",
"}.	c #3A3EA9",
"|.	c #3E4275",
"1.	c #C0C8D2",
"2.	c #D5DAE5",
"3.	c #6367B3",
"4.	c #393DA7",
"5.	c #7477CD",
"6.	c #989BEB",
"7.	c #9498F8",
"8.	c #888CFC",
"9.	c #8488FD",
"0.	c #878AFC",
"a.	c #9396FA",
"b.	c #9B9FF0",
"c.	c #8285D6",
"d.	c #4649AF",
"e.	c #2D308D",
"f.	c #A2A6AE",
"g.	c #DEE3EA",
"h.	c #DCE1E8",
"i.	c #5256A7",
"j.	c #3337A5",
"k.	c #595CBE",
"l.	c #8487D7",
"m.	c #9C9FE5",
"n.	c #A4A7EA",
"o.	c #A0A2E7",
"p.	c #8B8FDB",
"q.	c #6568C4",
"r.	c #3A3DA9",
"s.	c #2A2F8F",
"t.	c #909499",
"u.	c #7E82B3",
"v.	c #2C309C",
"w.	c #3135A5",
"x.	c #3D41AE",
"y.	c #4448B2",
"z.	c #3F43AF",
"A.	c #3438A7",
"B.	c #2B2E9D",
"C.	c #393C7E",
"D.	c #A1A5AA",
"E.	c #E5E8EE",
"F.	c #D7DAE0",
"G.	c #9497AF",
"H.	c #4B4E93",
"I.	c #3D408B",
"J.	c #3E4289",
"K.	c #616387",
"L.	c #A2A4A8",
"M.	c #D6D8DE",
"                                ",
"                                ",
"                                ",
"                                ",
". . . . + @ # $ % & * = . . . . ",
"- - ; > , ' ) ! ~ { ] ^ / - - - ",
"( _ : < [ } | 1 2 3 4 5 6 7 ( ( ",
"( 8 9 0 a b c c c c d e f g h ( ",
"i j k l m m m m m m m n o p q r ",
"s t u v w x y z A B C D E F G H ",
"I J K L L L L L L L L L M N O P ",
"$ Q R L L L L L L L L L S T j U ",
"V W X L L L L L L L L L S Y Z ` ",
" ...+.@.L L L L L L L L R #.$ $.",
"%.&.*.=.L L L L L L L -.;.>.,.'.",
").!.~.{.].^./.(.(._.:.<.[.}.|.1.",
"2.3.4.5.6.7.8.9.0.a.b.c.d.e.f.2.",
"g.h.i.j.k.l.m.n.o.p.q.r.s.t.h.g.",
"g.g.h.u.v.w.x.y.z.A.B.C.D.h.g.g.",
"E.E.E.E.F.G.H.I.J.K.L.M.E.E.E.E.",
"                                ",
"                                "};
