/* XPM */
static char * right_inactive_xpm[] = {
"3 32 4 1",
" 	c None",
".	c #E6EAE6",
"+	c #D5DAD5",
"@	c #B4BAB4",
".+@",
".+@",
".+@",
".+@",
".+@",
".+@",
".+@",
".+@",
".+@",
".+@",
".+@",
".+@",
".+@",
".+@",
".+@",
".+@",
".+@",
".+@",
".+@",
".+@",
".+@",
".+@",
".+@",
".+@",
".+@",
".+@",
".+@",
".+@",
".+@",
".+@",
".+@",
".+@"};
