/* XPM */
static char * title_3_inactive_xpm[] = {
"32 22 15 1",
" 	g None",
".	g #B8B8B8",
"+	g #E1E1E1",
"@	g #E8E8E8",
"#	g #D8D8D8",
"$	g #D6D6D6",
"%	g #DBDBDB",
"&	g #DFDFDF",
"*	g #E3E3E3",
"=	g #ECECEC",
"-	g #F0F0F0",
";	g #F3F3F3",
">	g #F5F5F5",
",	g #F8F8F8",
"'	g #FAFAFA",
"................................",
"++++++++++++++++++++++++++++++++",
"@@@@@@@@@@@@@@@@@@@@@@@@@@@@@@@@",
"@@@@@@@@@@@@@@@@@@@@@@@@@@@@@@@@",
"++++++++++++++++++++++++++++++++",
"################################",
"$$$$$$$$$$$$$$$$$$$$$$$$$$$$$$$$",
"$$$$$$$$$$$$$$$$$$$$$$$$$$$$$$$$",
"################################",
"%%%%%%%%%%%%%%%%%%%%%%%%%%%%%%%%",
"&&&&&&&&&&&&&&&&&&&&&&&&&&&&&&&&",
"++++++++++++++++++++++++++++++++",
"********************************",
"@@@@@@@@@@@@@@@@@@@@@@@@@@@@@@@@",
"@@@@@@@@@@@@@@@@@@@@@@@@@@@@@@@@",
"================================",
"--------------------------------",
";;;;;;;;;;;;;;;;;;;;;;;;;;;;;;;;",
";;;;;;;;;;;;;;;;;;;;;;;;;;;;;;;;",
">>>>>>>>>>>>>>>>>>>>>>>>>>>>>>>>",
",,,,,,,,,,,,,,,,,,,,,,,,,,,,,,,,",
"''''''''''''''''''''''''''''''''"};
