/* XPM */
static char * hide_pressed_xpm[] = {
"20 26 82 1",
" 	c None",
".	c #666A83",
"+	c #666B84",
"@	c #3C3E4D",
"#	c #1E1F26",
"$	c #696D86",
"%	c #1E2027",
"&	c #C6D8D1",
"*	c #6B7088",
"=	c #1F2127",
"-	c #8CB1A1",
";	c #6F738B",
">	c #202128",
",	c #76A290",
"'	c #73778E",
")	c #212329",
"!	c #79A392",
"~	c #787C92",
"{	c #23242A",
"]	c #7EA796",
"^	c #7D8197",
"/	c #24252C",
"(	c #86AC9C",
"_	c #83869B",
":	c #26272D",
"<	c #8EB2A3",
"[	c #898CA0",
"}	c #28292E",
"|	c #98B8AB",
"1	c #8F92A4",
"2	c #292A30",
"3	c #A2BFB3",
"4	c #9799AB",
"5	c #2C2C32",
"6	c #ACC6BB",
"7	c #ABC5BA",
"8	c #62916B",
"9	c #326E36",
"0	c #A0A3B2",
"a	c #2E2F34",
"b	c #B5CCC3",
"c	c #B0C9BE",
"d	c #357039",
"e	c #D9E5E0",
"f	c #A9ABBA",
"g	c #313236",
"h	c #BCD1C9",
"i	c #B4CBC0",
"j	c #37723A",
"k	c #C0D4CD",
"l	c #B1B3C0",
"m	c #333438",
"n	c #C2D5CE",
"o	c #BAD0C5",
"p	c #66946D",
"q	c #38733C",
"r	c #B7BAC5",
"s	c #353639",
"t	c #C5D7D0",
"u	c #C0D4CA",
"v	c #B5CCBF",
"w	c #A5C0AE",
"x	c #9AB8A2",
"y	c #94B49C",
"z	c #BCBEC9",
"A	c #37373A",
"B	c #C1D5CC",
"C	c #BFD3CA",
"D	c #BCD1C6",
"E	c #B7CEC2",
"F	c #B3CABD",
"G	c #B1C9BB",
"H	c #BEC0CB",
"I	c #37383B",
"J	c #9ABAAD",
"K	c #B9BBC7",
"L	c #626269",
"M	c #36363A",
"N	c #9EA1B1",
"O	c #979AA9",
"P	c #888B99",
"Q	c #818390",
"                    ",
"                    ",
"                    ",
"                    ",
"....................",
"+@################@+",
"$%&&&&&&&&&&&&&&&&%$",
"*=----------------=*",
";>,,,,,,,,,,,,,,,,>;",
"')!!!!!!!!!!!!!!!!)'",
"~{]]]]]]]]]]]]]]]]{~",
"^/((((((((((((((((/^",
"_:<<<<<<<<<<<<<<<<:_",
"[}||||||||||||||||}[",
"12333333333333333321",
"45667899999999876654",
"0abbcdeeeeeeeedcbba0",
"fghhijkkkkkkkkjihhgf",
"lmnnopqqqqqqqqponnml",
"rsttuvwxyyyyxwvuttsr",
"zABBCDEFGGGGFEDCBBAz",
"HIJJJJJJJJJJJJJJJJIH",
"KLMMMMMMMMMMMMMMMMLK",
"NOPQQQQQQQQQQQQQQPON",
"                    ",
"                    "};
