/* XPM */
static char * right_inactive_xpm[] = {
"6 16 4 1",
" 	c None",
".	c #000000",
"+	c #A8A8A8",
"@	c #AEAEAE",
".+@@+.",
".+@@+.",
".+@@+.",
".+@@+.",
".+@@+.",
".+@@+.",
".+@@+.",
".+@@+.",
".+@@+.",
".+@@+.",
".+@@+.",
".+@@+.",
".+@@+.",
".+@@+.",
".+@@+.",
".+@@+."};
