/* XPM */
static char * title_4_active_xpm[] = {
"4 26 26 1",
" 	c None",
".	c #000000",
"+	c #BFC1CB",
"@	c #979AAB",
"#	c #6B6F88",
"$	c #666A83",
"%	c #666B84",
"&	c #696D86",
"*	c #6B7088",
"=	c #6F738B",
"-	c #73778E",
";	c #787C92",
">	c #7D8197",
",	c #83869B",
"'	c #898CA0",
")	c #8F92A4",
"!	c #9799AB",
"~	c #A0A3B2",
"{	c #A9ABBA",
"]	c #B1B3C0",
"^	c #B7BAC5",
"/	c #BCBEC9",
"(	c #BEC0CB",
"_	c #B9BBC7",
":	c #9EA1B1",
"<	c #7D8096",
"....",
"++++",
"@@@@",
"####",
"$$$$",
"%%%%",
"&&&&",
"****",
"====",
"----",
";;;;",
">>>>",
",,,,",
"''''",
"))))",
"!!!!",
"~~~~",
"{{{{",
"]]]]",
"^^^^",
"////",
"((((",
"____",
"::::",
"<<<<",
"...."};
