/* XPM */
static char * top_left_active_xpm[] = {
"6 26 28 1",
" 	c None",
".	c #000000",
"+	c #A5A8B6",
"@	c #A6A8B6",
"#	c #6D7289",
"$	c #404358",
"%	c #3D4051",
"&	c #3D4053",
"*	c #3F4156",
"=	c #43455D",
"-	c #454761",
";	c #484A66",
">	c #4B4F6D",
",	c #515673",
"'	c #5A5E7A",
")	c #626680",
"!	c #6D7089",
"~	c #7A7E93",
"{	c #87899E",
"]	c #9295A7",
"^	c #9A9EAE",
"/	c #A1A4B3",
"(	c #A4A7B6",
"_	c #9DA0B1",
":	c #777B92",
"<	c #4B4D6C",
"[	c #3E404A",
"}	c #414350",
"......",
".++++@",
".#####",
".$$$$$",
".%%%%%",
".&&&&&",
".*****",
".$$$$$",
".=====",
".-----",
".;;;;;",
".>>>>>",
".,,,,,",
".'''''",
".)))))",
".!!!!!",
".~~~~~",
".{{{{{",
".]]]]]",
".^^^^^",
"./////",
".(((((",
"._____",
".:::::",
".<<<<<",
".[}}[."};
