/* XPM */
static char * bottom_right_inactive_xpm[] = {
"23 13 9 1",
" 	c None",
".	c #000000",
"+	c #969696",
"@	c #BDBDBD",
"#	c #767676",
"$	c #484848",
"%	c #464747",
"&	c #D9D9D9",
"*	c #B9B9B9",
"                  .++..",
"                  .....",
"                  .@#..",
"                  .@$..",
"                  .@$..",
"                  .@$..",
"..................%@$..",
"&.@@@@@@@@@@@@@@@@@@$..",
"*.@#################$..",
"*.@#################$..",
"*.#$$$$$$$$$$$$$$$$$...",
"...................... ",
". ...................  "};
