/* XPM */
static char * close_active_xpm[] = {
"19 24 247 2",
"  	c None",
". 	c #000000",
"+ 	c #FFFFFF",
"@ 	c #FDFDFD",
"# 	c #FEFEFE",
"$ 	c #E8E8E7",
"% 	c #C4C4C4",
"& 	c #A9A9A8",
"* 	c #A3A3A1",
"= 	c #B3B3B2",
"- 	c #D6D6D6",
"; 	c #F3F3F3",
"> 	c #999996",
", 	c #4E4E47",
"' 	c #39392F",
") 	c #3D3D32",
"! 	c #3E3E31",
"~ 	c #37372B",
"{ 	c #31312C",
"] 	c #606060",
"^ 	c #C2C2C1",
"/ 	c #F8F8F7",
"( 	c #D4D4D3",
"_ 	c #5C5C56",
": 	c #39392E",
"< 	c #818177",
"[ 	c #C3C3B9",
"} 	c #E9E9D1",
"| 	c #F0F0C4",
"1 	c #DCDC9D",
"2 	c #ACAB67",
"3 	c #595732",
"4 	c #1F201D",
"5 	c #8C8C8A",
"6 	c #DCDCDA",
"7 	c #51514C",
"8 	c #4F4F43",
"9 	c #D2D2CB",
"0 	c #FFFFEB",
"a 	c #FFFFD1",
"b 	c #FFFFB0",
"c 	c #FFFF8D",
"d 	c #FAF365",
"e 	c #9B9337",
"f 	c #202016",
"g 	c #7C7C79",
"h 	c #FAFAFA",
"i 	c #F3F3F2",
"j 	c #6E6E6B",
"k 	c #434336",
"l 	c #E3E3D0",
"m 	c #FFFFF8",
"n 	c #FFFFF3",
"o 	c #FFFFE2",
"p 	c #FFFFC5",
"q 	c #FFFF9C",
"r 	c #FFF770",
"s 	c #FFF34B",
"t 	c #FFF32A",
"u 	c #9E9024",
"v 	c #191B1A",
"w 	c #A5A5A3",
"x 	c #C0C0BE",
"y 	c #2D2D25",
"z 	c #B4B492",
"A 	c #FFFFEA",
"B 	c #FFFFE8",
"C 	c #FFFFED",
"D 	c #FFFFD8",
"E 	c #FFFFB6",
"F 	c #FFFC86",
"G 	c #FFE92A",
"H 	c #FFE418",
"I 	c #FCDB1B",
"J 	c #5E5623",
"K 	c #424344",
"L 	c #DFDFDF",
"M 	c #FBFBFB",
"N 	c #7F7F7C",
"O 	c #4A4A35",
"P 	c #F9F9B9",
"Q 	c #FFFFCD",
"R 	c #FFFFD3",
"S 	c #FFFFA0",
"T 	c #FFD818",
"U 	c #FFDB18",
"V 	c #B39522",
"W 	c #1D201E",
"X 	c #AEAEAD",
"Y 	c #F4F4F4",
"Z 	c #F9F9F9",
"` 	c #4C4C4B",
" .	c #7E7D4E",
"..	c #FFFFA4",
"+.	c #FFFFA8",
"@.	c #FFFFAF",
"#.	c #FFFFB4",
"$.	c #FFD418",
"%.	c #FFCC19",
"&.	c #FFCA18",
"*.	c #E1AE1F",
"=.	c #2F2D1F",
"-.	c #7E7F7E",
";.	c #EBEBEB",
">.	c #F7F7F7",
",.	c #343436",
"'.	c #96934B",
").	c #FFFF7C",
"!.	c #FFF979",
"~.	c #FFF97A",
"{.	c #FFF878",
"].	c #FFF76D",
"^.	c #FFCD19",
"/.	c #FFC519",
"(.	c #FFBE19",
"_.	c #FFBB19",
":.	c #F3B01B",
"<.	c #383420",
"[.	c #676767",
"}.	c #E2E2E2",
"|.	c #343438",
"1.	c #908A39",
"2.	c #FFFB4D",
"3.	c #FFEE42",
"4.	c #FFED39",
"5.	c #FFE930",
"6.	c #FFB519",
"7.	c #FFB119",
"8.	c #EEA61C",
"9.	c #363220",
"0.	c #676766",
"a.	c #DDDDDD",
"b.	c #4F4F51",
"c.	c #686225",
"d.	c #FFEA21",
"e.	c #FFE31A",
"f.	c #FFDE17",
"g.	c #FFA819",
"h.	c #FFAE18",
"i.	c #D19121",
"j.	c #26261D",
"k.	c #7E7E7E",
"l.	c #DCDCDC",
"m.	c #F1F1F1",
"n.	c #80807F",
"o.	c #2F2E1C",
"p.	c #E5C71D",
"q.	c #FFDD18",
"r.	c #FFD119",
"s.	c #FFCB19",
"t.	c #FFB919",
"u.	c #FFAF19",
"v.	c #FFA919",
"w.	c #FFB019",
"x.	c #906B24",
"y.	c #1F2424",
"z.	c #9E9E9E",
"A.	c #DEDEDE",
"B.	c #EFEFEF",
"C.	c #C0C0BF",
"D.	c #212324",
"E.	c #817225",
"F.	c #FFD61A",
"G.	c #FFC919",
"H.	c #FFC019",
"I.	c #FFB819",
"J.	c #FFAE19",
"K.	c #FFAF18",
"L.	c #DF9920",
"M.	c #373321",
"N.	c #515251",
"O.	c #BBBBBB",
"P.	c #E3E3E3",
"Q.	c #ECECEC",
"R.	c #E5E5E5",
"S.	c #7D7E7C",
"T.	c #21211C",
"U.	c #A88924",
"V.	c #FFC71A",
"W.	c #FFBC18",
"X.	c #FFAA19",
"Y.	c #FFB018",
"Z.	c #EBA11E",
"`.	c #5C4B24",
" +	c #282A2A",
".+	c #989897",
"++	c #CCCCCC",
"@+	c #E9E9E9",
"#+	c #EAEAEA",
"$+	c #E6E6E6",
"%+	c #D1D1D0",
"&+	c #5F5F5E",
"*+	c #22231C",
"=+	c #866C25",
"-+	c #E4A51E",
";+	c #FFAE1A",
">+	c #FFB118",
",+	c #FCAA1C",
"'+	c #C18922",
")+	c #4F4323",
"!+	c #242827",
"~+	c #828281",
"{+	c #BDBDBD",
"]+	c #E8E8E8",
"^+	c #DFDFDE",
"/+	c #C7C7C6",
"(+	c #6F6F6D",
"_+	c #222525",
":+	c #373220",
"<+	c #6F5624",
"[+	c #936C23",
"}+	c #9A7022",
"|+	c #866524",
"1+	c #564724",
"2+	c #21231C",
"3+	c #383B3A",
"4+	c #888886",
"5+	c #B7B7B7",
"6+	c #E7E7E7",
"7+	c #E4E4E4",
"8+	c #DBDBDB",
"9+	c #CBCBCA",
"0+	c #9C9C9B",
"a+	c #5D5E5D",
"b+	c #363939",
"c+	c #222628",
"d+	c #1F2526",
"e+	c #2A2E2F",
"f+	c #444646",
"g+	c #70706F",
"h+	c #A1A1A0",
"i+	c #BEBEBE",
"j+	c #D8D8D8",
"k+	c #E0E0E0",
"l+	c #DADADA",
"m+	c #CFCFCF",
"n+	c #C0C0C0",
"o+	c #AAAAAA",
"p+	c #979797",
"q+	c #919191",
"r+	c #999999",
"s+	c #BABABA",
"t+	c #CACACA",
"u+	c #CDCDCD",
"v+	c #C6C6C6",
"w+	c #C2C2C2",
"x+	c #C3C3C3",
". . . . . . . . . . . . . . . . . . . ",
". . . . . . . . . . . . . . . . . . . ",
"+ + + + + + + + @ @ # # + + + + + + + ",
"# # # # # @ $ % & * = - ; # # # # # # ",
"# # # # $ > , ' ) ! ~ { ] ^ / # # # # ",
"# # # ( _ : < [ } | 1 2 3 4 5 ; # # # ",
"# # 6 7 8 9 + + 0 a b c d e f g h # # ",
"# i j k l + m n o p q r s t u v w @ # ",
"@ x y z A B C . D E F . G H I J K L M ",
"M N O P Q R . . . S . . . T U V W X Y ",
"Z `  ...+.@.#.. . . . . $.%.&.*.=.-.;.",
">.,.'.).!.~.{.].. . . ^./.(._.:.<.[.}.",
"Y |.1.2.3.4.5.. . . . . 6.7.7.8.9.0.a.",
"; b.c.d.e.f.. . . (.. . . g.h.i.j.k.l.",
"m.n.o.p.q.r.s.. t.u.v.. v.v.w.x.y.z.A.",
"B.C.D.E.F.G.H.I.J.v.v.v.v.K.L.M.N.O.P.",
"Q.R.S.T.U.V.W.w.v.v.v.X.Y.Z.`. +.+++@+",
"#+$+%+&+*+=+-+;+w.>+u.,+'+)+!+~+{+A.#+",
"]+$+^+/+(+_+:+<+[+}+|+1+2+3+4+5+- ]+]+",
"6+6+7+8+9+0+a+b+c+d+e+f+g+h+i+j+$+6+6+",
"P.P.P.k+l+m+n+o+p+q+r+o+s+t+8+P.P.P.P.",
"m+m+m+m+m+u+t+v+% w+x+v+++m+m+m+m+m+m+",
"z.z.z.z.z.z.z.z.z.z.z.z.z.z.z.z.z.z.z.",
". . . . . . . . . . . . . . . . . . . "};
