/* XPM */
static char * right_inactive_xpm[] = {
"5 8 7 1",
" 	c None",
".	c #000000",
"+	c #F2F2F2",
"@	c #AEAEAE",
"#	c #F3F3F3",
"$	c #AFAFAF",
"%	c #B0B0B0",
".+@..",
".+@..",
".#$..",
".#$..",
".#$..",
".#$..",
".#%..",
".#%.."};
