/* XPM */
static char * title_4_active_xpm[] = {
"8 24 57 1",
" 	c None",
".	c #000000",
"+	c #FFFFFF",
"@	c #FEFEFE",
"#	c #89AEC4",
"$	c #9DBCCF",
"%	c #BAD6E7",
"&	c #AAD1E7",
"*	c #B9D9EC",
"=	c #92C6E5",
"-	c #CFE6F3",
";	c #D8EAF5",
">	c #C0DDEF",
",	c #FDFDFD",
"'	c #A8D1E8",
")	c #B7D9EC",
"!	c #8CC1E1",
"~	c #FBFBFB",
"{	c #CDE3F0",
"]	c #D6E8F3",
"^	c #BEDBEC",
"/	c #F9F9F9",
"(	c #A4CCE2",
"_	c #B4D5E8",
":	c #86BBD9",
"<	c #F7F7F7",
"[	c #CBE0ED",
"}	c #D4E6F0",
"|	c #BAD7E8",
"1	c #F4F4F4",
"2	c #9FC7DD",
"3	c #AFD0E3",
"4	c #83B7D4",
"5	c #F3F3F3",
"6	c #C4DBE9",
"7	c #CDE1EC",
"8	c #B9D5E5",
"9	c #F1F1F1",
"0	c #94BFD5",
"a	c #A3C8DB",
"b	c #7FB2CD",
"c	c #EFEFEF",
"d	c #C2D9E5",
"e	c #CBDFE9",
"f	c #B7D3E1",
"g	c #ECECEC",
"h	c #A4C6D8",
"i	c #ADCCDC",
"j	c #7BADC7",
"k	c #EAEAEA",
"l	c #B3CFDD",
"m	c #B4D0DE",
"n	c #E8E8E8",
"o	c #E7E7E7",
"p	c #E3E3E3",
"q	c #CFCFCF",
"r	c #9E9E9E",
"........",
"........",
"++++++++",
"@@@@@@@@",
"@@@@@@@@",
"....@@@@",
"#$%.@@@@",
"&*=.@@@@",
"-;>.,,,,",
"')!.~~~~",
"{]^.////",
"(_:.<<<<",
"[}|.1111",
"234.5555",
"678.9999",
"0ab.cccc",
"def.gggg",
"hij.kkkk",
"llm.nnnn",
"....oooo",
"pppppppp",
"qqqqqqqq",
"rrrrrrrr",
"........"};
