/* XPM */
static char * stick_active_xpm[] = {
"20 25 4 1",
" 	c None",
".	c #007EBF s active_hilight_1",
"+	c #0A5E89 s active_color_1",
"@	c #143D52 s active_shadow_1",
"                    ",
"                    ",
"                    ",
"                    ",
"                    ",
"....................",
".++++++++++++++++++@",
".++++++++++++++++++@",
".++++++++++++++++++@",
".++++........@+++++@",
".++++.+++++++@+++++@",
".++++.+++++++@+++++@",
".++++.@@@+@@@@+++++@",
".+++++++.+@++++++++@",
".+++++++.+@++++++++@",
".+++++++.+@++++++++@",
".+++++++.+@++++++++@",
".+++++++.+@++++++++@",
".+++++++.+@++++++++@",
".+++++++.@@++++++++@",
".++++++++++++++++++@",
".++++++++++++++++++@",
".++++++++++++++++++@",
".++++++++++++++++++@",
".@@@@@@@@@@@@@@@@@@@"};
