/* XPM */
static char * bottom_active_xpm[] = {
"46 6 149 2",
"  	c None",
". 	c #9D9D9A",
"+ 	c #9B9B99",
"@ 	c #9A9B99",
"# 	c #9A9A97",
"$ 	c #979795",
"% 	c #969693",
"& 	c #969793",
"* 	c #959592",
"= 	c #969692",
"- 	c #979793",
"; 	c #999997",
"> 	c #999996",
", 	c #9A9A99",
"' 	c #9F9F9B",
") 	c #9B9D9A",
"! 	c #9A9B97",
"~ 	c #9D9E9B",
"{ 	c #9E9E9B",
"] 	c #9D9D9B",
"^ 	c #9A9A96",
"/ 	c #9B9B9A",
"( 	c #A1A19D",
"_ 	c #A1A29F",
": 	c #A3A3A1",
"< 	c #A2A29E",
"[ 	c #A5A5A2",
"} 	c #A5A6A3",
"| 	c #A5A5A3",
"1 	c #A6A6A5",
"2 	c #A2A2A1",
"3 	c #A6A7A3",
"4 	c #A7A7A5",
"5 	c #A7A7A3",
"6 	c #A9A9A6",
"7 	c #AAAAA7",
"8 	c #ABACA9",
"9 	c #AAABA9",
"0 	c #A6A6A3",
"a 	c #A3A5A1",
"b 	c #A3A5A2",
"c 	c #A1A29E",
"d 	c #9E9F9D",
"e 	c #A1A19E",
"f 	c #A2A29F",
"g 	c #A2A3A1",
"h 	c #A3A3A2",
"i 	c #A5A6A2",
"j 	c #A7A7A6",
"k 	c #FDFCF6",
"l 	c #FCFBF6",
"m 	c #F9F8F2",
"n 	c #F7F6F1",
"o 	c #F3F3ED",
"p 	c #F3F2ED",
"q 	c #F5F4EE",
"r 	c #F3F2EC",
"s 	c #F2F2EC",
"t 	c #F2F1EB",
"u 	c #F7F7F0",
"v 	c #F4F3ED",
"w 	c #F6F5EF",
"x 	c #F8F7F1",
"y 	c #FAF9F3",
"z 	c #F8F7F2",
"A 	c #F6F5F0",
"B 	c #FAF9F4",
"C 	c #FDFCF7",
"D 	c #F7F6F0",
"E 	c #F5F4EF",
"F 	c #F8F8F2",
"G 	c #FAFAF5",
"H 	c #F8F8F3",
"I 	c #F9F8F3",
"J 	c #FCFCF7",
"K 	c #DEDED9",
"L 	c #DCDCD7",
"M 	c #DDDCD7",
"N 	c #D9D9D4",
"O 	c #DFDEDA",
"P 	c #DEDDD9",
"Q 	c #DCDBD7",
"R 	c #DDDDD8",
"S 	c #DBDBD6",
"T 	c #DBDAD6",
"U 	c #DAD9D6",
"V 	c #D9D8D5",
"W 	c #D7D6D2",
"X 	c #D6D5D1",
"Y 	c #DADAD5",
"Z 	c #DFDED9",
"` 	c #DEDDD8",
" .	c #DBDAD5",
"..	c #D9D8D4",
"+.	c #E0DFDA",
"@.	c #DDDCD8",
"#.	c #E2E1DD",
"$.	c #E1E1DC",
"%.	c #E0DFDB",
"&.	c #E0E0DB",
"*.	c #DFDFDB",
"=.	c #DFDFDA",
"-.	c #E2E2DE",
";.	c #E0E0DC",
">.	c #797974",
",.	c #757570",
"'.	c #73736E",
").	c #787874",
"!.	c #797975",
"~.	c #7A7A75",
"{.	c #777773",
"].	c #74746F",
"^.	c #777772",
"/.	c #7A7A76",
"(.	c #747470",
"_.	c #7C7C77",
":.	c #7B7B77",
"<.	c #7B7B76",
"[.	c #767672",
"}.	c #7E7E79",
"|.	c #757571",
"1.	c #50504B",
"2.	c #51514C",
"3.	c #4B4B47",
"4.	c #484844",
"5.	c #4C4B47",
"6.	c #4F4F4B",
"7.	c #504F4B",
"8.	c #4E4D49",
"9.	c #494944",
"0.	c #4B4B46",
"a.	c #4E4E49",
"b.	c #4D4D48",
"c.	c #454540",
"d.	c #484843",
"e.	c #4C4C46",
"f.	c #4C4C47",
"g.	c #4A4A45",
"h.	c #51514B",
"i.	c #4D4D47",
"j.	c #52524D",
"k.	c #565551",
"l.	c #555550",
"m.	c #50504C",
"n.	c #54544F",
"o.	c #4F4F4A",
"p.	c #4B4A46",
"q.	c #4E4E4A",
"r.	c #4B4A45",
". + @ # $ % & * * = $ - ; > , ' ) @ $ ; $ # ! ; > , + . + ) , . ~ { ] . ] + > > # ^ / @ . ( ",
"_ : < [ } | 1 : 2 3 | 4 5 1 6 7 7 8 9 6 9 6 5 4 0 a b b c _ d d e f g h : h 2 [ : i [ | j 6 ",
"k l m n n o p q q q r s t q u q q v w w t t v x y x z A B C m D E x z A q A F G H I H B J G ",
"K L M N O O P Q N R S T S N K U V W X U Y N V W Z `  .T ..Z +.P R @.#.$.%.&.R $.*.%.=.P -.;.",
">.>.,.'.).!.~.{.].^.)./.).(.~._.:.).,./.<.!.[.,././.<.{.].>././.~.^._.}._.).|.).!.!.|.'.).!.",
"1.2.3.4.5.6.7.8.9.0.a.b.9.c.d.e.f.g.d.b.2.h.i.d.f.1.j.a.0.2.k.l.m.0.a.n.j.o.p.a.2.2.q.r.b.7."};
