/* XPM */
static char * bottom_right_active_xpm[] = {
"16 16 5 1",
" 	c None",
".	c #F4F4F4 s active_color_2",
"+	c #D5D5D5 s active_mid_1",
"@	c #000000",
"#	c #ABABAB s active_shadow_1",
"           ...+@",
"           ...+@",
"           ...+@",
"           ...+@",
"           ...+@",
"           ...+@",
"           ...+@",
"           ...+@",
"           ...+@",
"           ...+@",
"           ...+@",
"..............+@",
"..............+@",
"..............+@",
"++++++++++++++#@",
"@@@@@@@@@@@@@@@ "};
