/* XPM */
static char * bottom_inactive_xpm[] = {
"11 4 3 1",
" 	c None",
"+	c #F0F0F0 s inactive_color_2",
"@	c #C0C0C0 s inactive_shadow_2",
"+++++++++++",
"+++++++++++",
"+++++++++++",
"@@@@@@@@@@@"};
