/* XPM */
static char * left_inactive_xpm[] = {
"5 8 4 1",
" 	c None",
".	c #4B58A2 s inactive_shadow_1",
"+	c #FFFFFF s inactive_hilight_2",
"@	c #E6E3E1 s inactive_color_2",
".+@@@",
".+@@@",
".+@@@",
".+@@@",
".+@@@",
".+@@@",
".+@@@",
".+@@@"};
