/* XPM */
static char * menu_inactive_xpm[] = {
"13 13 4 1",
" 	c None",
".	c #E6E6E6",
"+	c #D5D2D5",
"@	c #A4A1A4",
".............",
".............",
".............",
"..+@.....@+..",
"..@@+...+@@..",
"..@@@+.+@@@..",
"..+@@@+@@@+..",
"..++@@@@@++..",
"...++@@@++...",
"....++@++....",
".....+++.....",
"......+......",
"............."};
