/* XPM */
static char * shade_toggled_inactive_xpm[] = {
"18 25 3 1",
" 	c None",
"+	c #D0D0FF s inactive_hilight_1",
".	c #C0C0FF s inactive_color_1",
"..................",
"++++++++++++++++++",
"..................",
"..................",
"..................",
"..................",
"..................",
"..................",
"..................",
"..................",
"..................",
"..................",
"..................",
"..................",
"..................",
"..................",
"..................",
"..................",
"..................",
"..................",
"..................",
"..................",
"..................",
"..................",
".................."};
