<?xml version="1.0" encoding="UTF-8" standalone="no"?>
<!-- Created with Inkscape (http://www.inkscape.org/) -->
<svg
   xmlns:dc="http://purl.org/dc/elements/1.1/"
   xmlns:cc="http://web.resource.org/cc/"
   xmlns:rdf="http://www.w3.org/1999/02/22-rdf-syntax-ns#"
   xmlns:svg="http://www.w3.org/2000/svg"
   xmlns="http://www.w3.org/2000/svg"
   xmlns:xlink="http://www.w3.org/1999/xlink"
   xmlns:sodipodi="http://sodipodi.sourceforge.net/DTD/sodipodi-0.dtd"
   xmlns:inkscape="http://www.inkscape.org/namespaces/inkscape"
   width="18"
   height="17"
   id="svg2"
   sodipodi:version="0.32"
   inkscape:version="0.44"
   version="1.0"
   sodipodi:docbase="/home/ofourdan/.themes/Kokodi/xfwm4"
   sodipodi:docname="stick-toggled-active.svg"
   inkscape:output_extension="org.inkscape.output.svg.inkscape">
  <defs
     id="defs4">
    <linearGradient
       id="linearGradient5847">
      <stop
         style="stop-color:#000000;stop-opacity:0;"
         offset="0"
         id="stop5849" />
      <stop
         id="stop5851"
         offset="1"
         style="stop-color:#ffffff;stop-opacity:0.22;" />
    </linearGradient>
    <linearGradient
       inkscape:collect="always"
       xlink:href="#linearGradient5847"
       id="linearGradient6945"
       gradientUnits="userSpaceOnUse"
       x1="4"
       y1="0.5"
       x2="4"
       y2="24"
       gradientTransform="matrix(2.5,0,0,1,-1,-4)" />
  </defs>
  <sodipodi:namedview
     id="base"
     pagecolor="#ffffff"
     bordercolor="#666666"
     borderopacity="1.0"
     inkscape:pageopacity="0.0"
     inkscape:pageshadow="2"
     inkscape:zoom="15.839192"
     inkscape:cx="3.9234648"
     inkscape:cy="6.5189125"
     inkscape:document-units="px"
     inkscape:current-layer="layer5"
     showgrid="true"
     inkscape:grid-bbox="true"
     inkscape:grid-points="true"
     gridoriginx="0px"
     gridtolerance="0.5px"
     guidetolerance="1px"
     inkscape:window-width="1280"
     inkscape:window-height="735"
     inkscape:window-x="0"
     inkscape:window-y="0"
     inkscape:guide-bbox="true"
     inkscape:guide-points="false"
     showguides="true" />
  <metadata
     id="metadata7">
    <rdf:RDF>
      <cc:Work
         rdf:about="">
        <dc:format>image/svg+xml</dc:format>
        <dc:type
           rdf:resource="http://purl.org/dc/dcmitype/StillImage" />
        <dc:title>Title</dc:title>
        <dc:creator>
          <cc:Agent>
            <dc:title>Olivier Fourdan</dc:title>
          </cc:Agent>
        </dc:creator>
      </cc:Work>
    </rdf:RDF>
  </metadata>
  <g
     inkscape:groupmode="layer"
     id="layer2"
     inkscape:label="Grad"
     style="display:inline">
    <path
       style="fill:url(#linearGradient6945);fill-opacity:1;fill-rule:evenodd;stroke:none;stroke-width:1;stroke-linecap:square;stroke-linejoin:miter;stroke-miterlimit:4;stroke-dasharray:none;stroke-opacity:1"
       d="M 0,-3.5 L 18,-3.5 C 18,-3.5 18,19.5 18,19.5 L 0,19.5 L 0,-3.5 z "
       id="path6057"
       sodipodi:nodetypes="ccccc" />
  </g>
  <g
     inkscape:groupmode="layer"
     id="layer5"
     inkscape:label="Shadow">
    <path
       style="fill:none;fill-opacity:0.75;fill-rule:evenodd;stroke:#000000;stroke-width:0.9999997px;stroke-linecap:square;stroke-linejoin:miter;stroke-opacity:0.15"
       d="M 0.5,19.5 L 17.5,19.5"
       id="path6989"
       sodipodi:nodetypes="ccsc" />
    <g
       style="display:inline"
       id="g1624"
       transform="translate(3,3)">
      <path
         d="M 11 6 A 5 5 0 1 1  1,6 A 5 5 0 1 1  11 6 z"
         sodipodi:ry="5"
         sodipodi:rx="5"
         sodipodi:cy="6"
         sodipodi:cx="6"
         id="path1412"
         style="opacity:0.33000004;fill:#000000;fill-opacity:1;stroke:#000000;stroke-width:0;stroke-linecap:round;stroke-linejoin:round;stroke-miterlimit:4;stroke-dasharray:none;stroke-opacity:1"
         sodipodi:type="arc" />
      <path
         id="path2287"
         d="M 5.6875,2 C 3.6230536,2.1572433 2,3.8955 2,6 C 2,8.208 3.792,10 6,10 C 8.208,10 10,8.208 10,6 C 10,3.792 8.208,2 6,2 C 5.8965,2 5.7890302,1.9922667 5.6875,2 z M 5.78125,4 C 5.848457,3.993168 5.931,4 6,4 C 7.104,4 8,4.896 8,6 C 8,7.104 7.104,8 6,8 C 4.896,8 4,7.104 4,6 C 4,4.965 4.7731445,4.1024805 5.78125,4 z "
         style="opacity:1;fill:#ffffff;fill-opacity:1;stroke:#ffffff;stroke-width:0;stroke-linecap:round;stroke-linejoin:round;stroke-miterlimit:4;stroke-dasharray:none;stroke-opacity:1" />
      <path
         d="M 7 6 A 1 1 0 1 1  5,6 A 1 1 0 1 1  7 6 z"
         sodipodi:ry="1"
         sodipodi:rx="1"
         sodipodi:cy="6"
         sodipodi:cx="6"
         id="path2292"
         style="opacity:1;fill:#ffffff;fill-opacity:1;stroke:#ffffff;stroke-width:0;stroke-linecap:round;stroke-linejoin:round;stroke-miterlimit:4;stroke-dasharray:none;stroke-opacity:1"
         sodipodi:type="arc" />
    </g>
  </g>
</svg>
