<?xml version="1.0" encoding="UTF-8" standalone="no"?>
<!-- Created with Inkscape (http://www.inkscape.org/) -->
<svg
   xmlns:dc="http://purl.org/dc/elements/1.1/"
   xmlns:cc="http://web.resource.org/cc/"
   xmlns:rdf="http://www.w3.org/1999/02/22-rdf-syntax-ns#"
   xmlns:svg="http://www.w3.org/2000/svg"
   xmlns="http://www.w3.org/2000/svg"
   xmlns:xlink="http://www.w3.org/1999/xlink"
   xmlns:sodipodi="http://sodipodi.sourceforge.net/DTD/sodipodi-0.dtd"
   xmlns:inkscape="http://www.inkscape.org/namespaces/inkscape"
   width="18"
   height="17"
   id="svg2"
   sodipodi:version="0.32"
   inkscape:version="0.44"
   version="1.0"
   sodipodi:docbase="/home/ofourdan/src/svn/xfwm4/trunk/themes/default"
   sodipodi:docname="stick-pressed.svg"
   inkscape:output_extension="org.inkscape.output.svg.inkscape">
  <defs
     id="defs4">
    <linearGradient
       id="linearGradient5873">
      <stop
         id="stop5875"
         offset="0"
         style="stop-color:#ffffff;stop-opacity:0.70;" />
      <stop
         style="stop-color:#ffffff;stop-opacity:0;"
         offset="1"
         id="stop5877" />
    </linearGradient>
    <linearGradient
       id="linearGradient5847">
      <stop
         style="stop-color:#000000;stop-opacity:0.05;"
         offset="0"
         id="stop5849" />
      <stop
         id="stop5851"
         offset="1"
         style="stop-color:#ffffff;stop-opacity:0.15;" />
    </linearGradient>
    <linearGradient
       inkscape:collect="always"
       xlink:href="#linearGradient5847"
       id="linearGradient6945"
       gradientUnits="userSpaceOnUse"
       x1="4"
       y1="0.5"
       x2="4"
       y2="24"
       gradientTransform="matrix(2.5,0,0,1,-1,-4)" />
    <radialGradient
       inkscape:collect="always"
       xlink:href="#linearGradient5873"
       id="radialGradient3087"
       cx="9"
       cy="8.5"
       fx="9"
       fy="8.5"
       r="9"
       gradientTransform="matrix(1,0,0,0.95,0,0.45)"
       gradientUnits="userSpaceOnUse" />
    <radialGradient
       inkscape:collect="always"
       xlink:href="#linearGradient5873"
       id="radialGradient3095"
       cx="9"
       cy="8.5"
       fx="9"
       fy="8.5"
       r="9.5"
       gradientTransform="matrix(1,0,0,0.95,0,0.45)"
       gradientUnits="userSpaceOnUse" />
  </defs>
  <sodipodi:namedview
     id="base"
     pagecolor="#ffffff"
     bordercolor="#666666"
     borderopacity="1.0"
     inkscape:pageopacity="0.0"
     inkscape:pageshadow="2"
     inkscape:zoom="15.839192"
     inkscape:cx="3.9234648"
     inkscape:cy="6.5189125"
     inkscape:document-units="px"
     inkscape:current-layer="layer4"
     showgrid="true"
     inkscape:grid-bbox="true"
     inkscape:grid-points="true"
     gridoriginx="0px"
     gridtolerance="0.5px"
     guidetolerance="1px"
     inkscape:window-width="1280"
     inkscape:window-height="735"
     inkscape:window-x="0"
     inkscape:window-y="0"
     inkscape:guide-bbox="true"
     inkscape:guide-points="false"
     showguides="true" />
  <metadata
     id="metadata7">
    <rdf:RDF>
      <cc:Work
         rdf:about="">
        <dc:format>image/svg+xml</dc:format>
        <dc:type
           rdf:resource="http://purl.org/dc/dcmitype/StillImage" />
        <dc:title>Title</dc:title>
        <dc:creator>
          <cc:Agent>
            <dc:title>Olivier Fourdan</dc:title>
          </cc:Agent>
        </dc:creator>
      </cc:Work>
    </rdf:RDF>
  </metadata>
  <g
     inkscape:groupmode="layer"
     id="layer2"
     inkscape:label="Grad"
     style="display:inline">
    <path
       style="fill:url(#linearGradient6945);fill-opacity:1;fill-rule:evenodd;stroke:none;stroke-width:1;stroke-linecap:square;stroke-linejoin:miter;stroke-miterlimit:4;stroke-dasharray:none;stroke-opacity:1"
       d="M 0,-3.5 L 18,-3.5 C 18,-3.5 18,19.5 18,19.5 L 0,19.5 L 0,-3.5 z "
       id="path6057"
       sodipodi:nodetypes="ccccc" />
  </g>
  <g
     inkscape:groupmode="layer"
     id="layer4"
     inkscape:label="pressed">
    <rect
       style="opacity:0.5;fill:url(#radialGradient3095);fill-opacity:1.0;stroke:url(#radialGradient3087);stroke-width:1;stroke-linecap:square;stroke-miterlimit:4;stroke-dasharray:none;stroke-opacity:1"
       id="rect3079"
       width="18"
       height="17"
       x="0"
       y="0" />
    <g
       style="display:inline"
       id="g1613"
       transform="translate(3,4)">
      <path
         id="path1412"
         d="M 5.625,1 C 3.044442,1.1965541 1,3.369375 1,6 C 1,8.76 3.24,11 6,11 C 8.76,11 11,8.76 11,6 C 11,3.24 8.76,1 6,1 C 5.870625,1 5.7519127,0.9903334 5.625,1 z M 5.84375,5 C 5.8685692,4.9962042 5.9121175,5.0019333 5.9375,5 C 5.9545364,4.9991355 5.98275,5 6,5 C 6.01725,5 6.0454636,4.9991355 6.0625,5 C 6.0963434,5.0025778 6.1546791,5.0253822 6.1875,5.03125 C 6.2769824,5.0495762 6.3896992,5.0844922 6.46875,5.125 C 6.4829189,5.1327002 6.5175046,5.1478953 6.53125,5.15625 C 6.5447757,5.1649241 6.5806794,5.1782028 6.59375,5.1875 C 6.6001676,5.1923004 6.6187027,5.2138004 6.625,5.21875 C 6.6743945,5.2595195 6.7404805,5.3256055 6.78125,5.375 C 6.7861996,5.3812973 6.8076996,5.3998324 6.8125,5.40625 C 6.8217972,5.4193206 6.8350759,5.4552243 6.84375,5.46875 C 6.8521047,5.4824954 6.8672998,5.5170811 6.875,5.53125 C 6.9155078,5.6103008 6.9504238,5.7230176 6.96875,5.8125 C 6.9746178,5.8453209 6.9974222,5.9036566 7,5.9375 C 7.0008645,5.9545364 7,5.98275 7,6 C 7,6.01725 7.0008645,6.0454636 7,6.0625 C 6.9974222,6.0963434 6.9746178,6.1546791 6.96875,6.1875 C 6.9504238,6.2769824 6.9155078,6.3896992 6.875,6.46875 C 6.8672998,6.4829189 6.8521047,6.5175046 6.84375,6.53125 C 6.8350759,6.5447757 6.8217972,6.5806794 6.8125,6.59375 C 6.8076996,6.6001676 6.7861996,6.6187027 6.78125,6.625 C 6.7404805,6.6743945 6.6743945,6.7404805 6.625,6.78125 C 6.6187027,6.7861996 6.6001676,6.8076996 6.59375,6.8125 C 6.5806794,6.8217972 6.5447757,6.8350759 6.53125,6.84375 C 6.5175046,6.8521047 6.4829189,6.8672998 6.46875,6.875 C 6.3896992,6.9155078 6.2769824,6.9504238 6.1875,6.96875 C 6.1546791,6.9746178 6.0963434,6.9974222 6.0625,7 C 6.0454636,7.0008645 6.01725,7 6,7 C 5.98275,7 5.9545364,7.0008645 5.9375,7 C 5.9036566,6.9974222 5.8453209,6.9746178 5.8125,6.96875 C 5.7230176,6.9504238 5.6103008,6.9155078 5.53125,6.875 C 5.5170811,6.8672998 5.4824954,6.8521047 5.46875,6.84375 C 5.4552243,6.8350759 5.4193206,6.8217972 5.40625,6.8125 C 5.3998324,6.8076996 5.3812973,6.7861996 5.375,6.78125 C 5.3256055,6.7404805 5.2595195,6.6743945 5.21875,6.625 C 5.2138004,6.6187027 5.1923004,6.6001676 5.1875,6.59375 C 5.1782028,6.5806794 5.1649241,6.5447757 5.15625,6.53125 C 5.1478953,6.5175046 5.1327002,6.4829189 5.125,6.46875 C 5.0844922,6.3896992 5.0495762,6.2769824 5.03125,6.1875 C 5.0253822,6.1546791 5.0025778,6.0963434 5,6.0625 C 4.9991355,6.0454636 5,6.01725 5,6 C 5,5.98275 4.9991355,5.9545364 5,5.9375 C 5.0025778,5.9036566 5.0253822,5.8453209 5.03125,5.8125 C 5.0495762,5.7230176 5.0844922,5.6103008 5.125,5.53125 C 5.1327002,5.5170811 5.1478953,5.4824954 5.15625,5.46875 C 5.1649241,5.4552243 5.1782028,5.4193206 5.1875,5.40625 C 5.1923004,5.3998324 5.2138004,5.3812973 5.21875,5.375 C 5.2595195,5.3256055 5.3256055,5.2595195 5.375,5.21875 C 5.3812973,5.2138004 5.3998324,5.1923004 5.40625,5.1875 C 5.4193206,5.1782028 5.4552243,5.1649241 5.46875,5.15625 C 5.4824954,5.1478953 5.5170811,5.1327002 5.53125,5.125 C 5.6103008,5.0844922 5.7230176,5.0495762 5.8125,5.03125 C 5.8207052,5.0297831 5.8354769,5.0012653 5.84375,5 z "
         style="opacity:0.33000004;fill:#000000;fill-opacity:1;stroke:#000000;stroke-width:0;stroke-linecap:round;stroke-linejoin:round;stroke-miterlimit:4;stroke-dasharray:none;stroke-opacity:1" />
      <path
         id="path2287"
         d="M 5.6875,2 C 3.6230536,2.1572433 2,3.8955 2,6 C 2,8.208 3.792,10 6,10 C 8.208,10 10,8.208 10,6 C 10,3.792 8.208,2 6,2 C 5.8965,2 5.7890302,1.9922667 5.6875,2 z M 5.78125,4 C 5.848457,3.993168 5.931,4 6,4 C 7.104,4 8,4.896 8,6 C 8,7.104 7.104,8 6,8 C 4.896,8 4,7.104 4,6 C 4,4.965 4.7731445,4.1024805 5.78125,4 z "
         style="opacity:1;fill:#ffffff;fill-opacity:1;stroke:#ffffff;stroke-width:0;stroke-linecap:round;stroke-linejoin:round;stroke-miterlimit:4;stroke-dasharray:none;stroke-opacity:1" />
    </g>
  </g>
</svg>
