/* XPM */
static char * title_3_inactive_xpm[] = {
"4 25 10 1",
" 	c None",
".	c #000000",
"+	c #E0E0E0 s inactive_hilight_2",
"@	c #C0C0C0 s inactive_color_2",
"#	c #A0A0FF s inactive_shadow_1",
"$	c #B0B0FF s inactive_mid_1",
"%	c #C0C0FF s inactive_color_1",
"&	c #B0B0B0 s inactive_mid_2",
"*	c #A0A0A0 s inactive_shadow_2",
"=	c #D0D0FF s inactive_hilight_1",
"####",
"====",
"%%%%",
"%%%%",
"%%%%",
"%%%%",
"%%%%",
"%%%%",
"%%%%",
"%%%%",
"%%%%",
"%%%%",
"%%%%",
"%%%%",
"%%%%",
"%%%%",
"%%%%",
"%%%%",
"%%%%",
"%%%%",
"%%%%",
"%%%%",
"%%%%",
"%%%%",
"%%%%"};
