/* XPM */
static char * top_right_active_xpm[] = {
"8 26 6 1",
"       c None",
".      c #000000",
"+	c #FFFFFF s active_hilight_1",
"@	c #858585 s active_shadow_1",
"#	c #A8A8A8 s active_mid_1",
"$	c #C2C2C2 s active_color_1",
"@@@@    ",
"+++@@@  ",
"$$$+#@@ ",
"$$$$$#@ ",
"$$$$$#@@",
"$$$$$$#@",
"$$$$$$#@",
"$$$$$$#@",
"$$$$$$#@",
"$$$$$$#@",
"$$$$$$#@",
"$$$$$$#@",
"$$$$$$#@",
"$$$$$$#@",
"$$$$$$#@",
"$$$$$$#@",
"$$$$$$#@",
"$$$$$$#@",
"$$$$$$#@",
"$$$$$$#@",
"$$$$$$#@",
"$$$$$$#@",
"$$$$$$#@",
"$$$$$$#@",
"+++++++@",
"@@@@@@@@"};
