/* XPM */
static char * hide_active_xpm[] = {
"16 19 178 2",
"  	c None",
". 	c #4A4D4A",
"+ 	c #313031",
"@ 	c #F6F1ED",
"# 	c #F0ECE5",
"$ 	c #BEBBB6",
"% 	c #7F7E66",
"& 	c #878579",
"* 	c #ECEAE1",
"= 	c #D4DFCA",
"- 	c #D6E0CC",
"; 	c #EEEBE3",
"> 	c #E9E5DC",
", 	c #85837B",
"' 	c #FBFB49",
") 	c #807F3C",
"! 	c #D4DCC9",
"~ 	c #5FA95A",
"{ 	c #0E870D",
"] 	c #008300",
"^ 	c #008500",
"/ 	c #138C12",
"( 	c #6CB266",
"_ 	c #DCDFCF",
": 	c #E2DFD4",
"< 	c #868569",
"[ 	c #FCF94C",
"} 	c #697228",
"| 	c #168B14",
"1 	c #008900",
"2 	c #008B00",
"3 	c #008D00",
"4 	c #21981F",
"5 	c #C9D5BC",
"6 	c #DCD8CB",
"7 	c #8C8B5C",
"8 	c #FCF44C",
"9 	c #596613",
"0 	c #008800",
"a 	c #008C00",
"b 	c #009000",
"c 	c #009300",
"d 	c #009500",
"e 	c #2EA02A",
"f 	c #D9D7C8",
"g 	c #D6D2C3",
"h 	c #919054",
"i 	c #FCED4D",
"j 	c #6A6815",
"k 	c #008E00",
"l 	c #009700",
"m 	c #009B00",
"n 	c #009D00",
"o 	c #009400",
"p 	c #027102",
"q 	c #0A6009",
"r 	c #0C570B",
"s 	c #778B6D",
"t 	c #D0CCBA",
"u 	c #97964E",
"v 	c #FEE54E",
"w 	c #937F1A",
"x 	c #008100",
"y 	c #009100",
"z 	c #017701",
"A 	c #14630D",
"B 	c #506F22",
"C 	c #94893D",
"D 	c #D2B755",
"E 	c #F7CE5A",
"F 	c #FFC94B",
"G 	c #B9891F",
"H 	c #7B7769",
"I 	c #C9C6B2",
"J 	c #979149",
"K 	c #FFDD4F",
"L 	c #EDC526",
"M 	c #7F751A",
"N 	c #998C3A",
"O 	c #CDB753",
"P 	c #F9D661",
"Q 	c #FFD061",
"R 	c #FFC554",
"S 	c #FEBE3E",
"T 	c #FEB92C",
"U 	c #FEB520",
"V 	c #F8AD17",
"W 	c #705828",
"X 	c #C2C0A9",
"Y 	c #8D803E",
"Z 	c #FFD44A",
"` 	c #FECB24",
" .	c #FFCB29",
"..	c #FFC93F",
"+.	c #FEC33C",
"@.	c #FEBE2E",
"#.	c #FEBA21",
"$.	c #FEB71A",
"%.	c #FDB318",
"&.	c #FDAF16",
"*.	c #FEAC14",
"=.	c #F9A613",
"-.	c #795A22",
";.	c #BCBAA1",
">.	c #6B6446",
",.	c #F7C132",
"'.	c #FEC220",
").	c #FEBF1E",
"!.	c #FEBC1C",
"~.	c #FDB81B",
"{.	c #FBB319",
"].	c #F5AC17",
"^.	c #E79F14",
"/.	c #B57B0F",
"(.	c #97650B",
"_.	c #E1920F",
":.	c #F79D0F",
"<.	c #705221",
"[.	c #B6B398",
"}.	c #A09D85",
"|.	c #68541E",
"1.	c #E7AA19",
"2.	c #F5B119",
"3.	c #F1AB17",
"4.	c #D69513",
"5.	c #8E620C",
"6.	c #455006",
"7.	c #0B6301",
"8.	c #00A100",
"9.	c #6F5A16",
"0.	c #F69619",
"a.	c #69512A",
"b.	c #B0AD90",
"c.	c #9E9C81",
"d.	c #205211",
"e.	c #395205",
"f.	c #285404",
"g.	c #026600",
"h.	c #00C300",
"i.	c #00C800",
"j.	c #00BB00",
"k.	c #5C6423",
"l.	c #F48E25",
"m.	c #5F5237",
"n.	c #A9A687",
"o.	c #87A46C",
"p.	c #0CA20A",
"q.	c #00A900",
"r.	c #00B100",
"s.	c #00B800",
"t.	c #00BE00",
"u.	c #00C100",
"v.	c #13B50F",
"w.	c #775F2E",
"x.	c #EA801E",
"y.	c #5C5947",
"z.	c #A2A07F",
"A.	c #8EA070",
"B.	c #39A42D",
"C.	c #05AC03",
"D.	c #00B300",
"E.	c #00B700",
"F.	c #07B705",
"G.	c #42AE34",
"H.	c #929F73",
"I.	c #884D21",
"J.	c #BC610B",
"K.	c #706F58",
"L.	c #9C9A76",
"M.	c #959A71",
"N.	c #819D62",
"O.	c #829E63",
"P.	c #979A72",
"Q.	c #979572",
"R.	c #514832",
"S.	c #4F452D",
"T.	c #8F8D6C",
"U.	c #96946E",
". . . . . . . . . . . . . . . . ",
"+ + + + + + + + + + + + + + + + ",
"@ @ @ @ @ @ @ @ @ @ @ @ @ @ @ @ ",
"# $ % & # # * = - ; # # # # # # ",
"> , ' ) ! ~ { ] ^ / ( _ > > > > ",
": < [ } | ^ 1 2 3 3 3 4 5 : : : ",
"6 7 8 9 0 a b c d d d c e f 6 6 ",
"g h i j k c l m n o p q r s g g ",
"t u v w x y z A B C D E F G H t ",
"I J K L M N O P Q R S T U V W I ",
"X Y Z `  ...+.@.#.$.%.&.*.=.-.X ",
";.>.,.'.).!.~.{.].^./.(._.:.<.;.",
"[.}.|.1.2.3.4.5.6.7.2 8.9.0.a.[.",
"b.b.c.d.e.f.g.8.h.i.h.j.k.l.m.b.",
"n.n.n.o.p.q.r.s.t.u.t.v.w.x.y.n.",
"z.z.z.z.A.B.C.D.E.F.G.H.I.J.K.z.",
"L.L.L.L.L.L.M.N.O.P.L.Q.R.S.T.L.",
"U.U.U.U.U.U.U.U.U.U.U.U.U.U.U.U.",
"+ + + + + + + + + + + + + + + + "};
