/* XPM */
static char * left_active_xpm[] = {
"6 16 6 1",
" 	c None",
".	c #4A4D4A",
"+	c #313031",
"@	c #F7F3EF",
"#	c #C6C7AD",
"$	c #94926B",
".+@#$+",
".+@#$+",
".+@#$+",
".+@#$+",
".+@#$+",
".+@#$+",
".+@#$+",
".+@#$+",
".+@#$+",
".+@#$+",
".+@#$+",
".+@#$+",
".+@#$+",
".+@#$+",
".+@#$+",
".+@#$+"};
