/* XPM */
static char * maximize_active_xpm[] = {
"16 19 178 2",
"  	c None",
". 	c #4A4D4A",
"+ 	c #313031",
"@ 	c #F6F1ED",
"# 	c #F0ECE5",
"$ 	c #D9D5CF",
"% 	c #888679",
"& 	c #8C8B50",
"* 	c #939242",
"= 	c #93923F",
"- 	c #8C894B",
"; 	c #858276",
"> 	c #E9E5DC",
", 	c #A7A49E",
"' 	c #8C8C43",
") 	c #F4F369",
"! 	c #FFFB69",
"~ 	c #FFF658",
"{ 	c #FFF24E",
"] 	c #FFEE49",
"^ 	c #F2DC3E",
"/ 	c #84762B",
"( 	c #A5A29B",
"_ 	c #E2DFD4",
": 	c #A8A69D",
"< 	c #A7A744",
"[ 	c #FDFA61",
"} 	c #F7EC43",
"| 	c #F2E334",
"1 	c #F4E032",
"2 	c #F9E130",
"3 	c #FDE02F",
"4 	c #FEDD2D",
"5 	c #FCD72B",
"6 	c #987F1F",
"7 	c #A5A39B",
"8 	c #DCD8CB",
"9 	c #D3CFC3",
"0 	c #7F7F3B",
"a 	c #F8F247",
"b 	c #A9A026",
"c 	c #465A0F",
"d 	c #1E5606",
"e 	c #205806",
"f 	c #505D0F",
"g 	c #BCA221",
"h 	c #FBD329",
"i 	c #FDD127",
"j 	c #FACA25",
"k 	c #6E5A22",
"l 	c #D6D2C3",
"m 	c #858379",
"n 	c #DCD535",
"o 	c #656916",
"p 	c #006400",
"q 	c #009300",
"r 	c #009700",
"s 	c #009B00",
"t 	c #009C00",
"u 	c #026600",
"v 	c #807013",
"w 	c #FDCA24",
"x 	c #FDC521",
"y 	c #D09F1A",
"z 	c #827F75",
"A 	c #D0CCBA",
"B 	c #747048",
"C 	c #8F871E",
"D 	c #006F00",
"E 	c #009400",
"F 	c #008800",
"G 	c #0A6009",
"H 	c #0A6109",
"I 	c #009100",
"J 	c #00A500",
"K 	c #007500",
"L 	c #AD8717",
"M 	c #FEC01E",
"N 	c #F5B41B",
"O 	c #6E6041",
"P 	c #C9C6B2",
"Q 	c #766E32",
"R 	c #194C05",
"S 	c #018301",
"T 	c #757E30",
"U 	c #F5E463",
"V 	c #F5CE4F",
"W 	c #6F631A",
"X 	c #00AC00",
"Y 	c #33590A",
"Z 	c #FFBE1F",
"` 	c #F8B018",
" .	c #725B29",
"..	c #C2C0A9",
"+.	c #504A29",
"@.	c #006500",
"#.	c #009600",
"$.	c #1E600F",
"%.	c #FBE763",
"&.	c #FFCE4E",
"*.	c #FEC72C",
"=.	c #F0B81F",
"-.	c #165B03",
";.	c #00B400",
">.	c #057104",
",.	c #EBAF30",
"'.	c #F7A915",
").	c #6F5626",
"!.	c #BCBAA1",
"~.	c #AEAC95",
"{.	c #23981E",
"].	c #009900",
"^.	c #296110",
"/.	c #FFD241",
"(.	c #FEC423",
"_.	c #FDBF1E",
":.	c #EDAF1B",
"<.	c #205C03",
"[.	c #00BB00",
"}.	c #038303",
"|.	c #E0A43E",
"1.	c #F19E14",
"2.	c #665635",
"3.	c #B6B398",
"4.	c #5EA44F",
"5.	c #027402",
"6.	c #AA8217",
"7.	c #F6B71C",
"8.	c #F0AF1A",
"9.	c #9A6E0F",
"0.	c #008700",
"a.	c #00C100",
"b.	c #0C720A",
"c.	c #F3AA43",
"d.	c #CC800C",
"e.	c #6D6A59",
"f.	c #B0AD90",
"g.	c #A6AB88",
"h.	c #139C0F",
"i.	c #00A300",
"j.	c #036F00",
"k.	c #3B5606",
"l.	c #395506",
"m.	c #037C00",
"n.	c #00C800",
"o.	c #55631F",
"p.	c #F69D2E",
"q.	c #654310",
"r.	c #A7A488",
"s.	c #A9A687",
"t.	c #87A46C",
"u.	c #0CA20A",
"v.	c #00A900",
"w.	c #00B100",
"x.	c #00B800",
"y.	c #00BE00",
"z.	c #0F6C06",
"A.	c #D48B2A",
"B.	c #92570B",
"C.	c #75735D",
"D.	c #A2A07F",
"E.	c #8EA070",
"F.	c #39A42D",
"G.	c #05AC03",
"H.	c #00B300",
"I.	c #00A200",
"J.	c #185601",
"K.	c #B46F0C",
"L.	c #7C4B0B",
"M.	c #6C6A53",
"N.	c #9C9A76",
"O.	c #959A71",
"P.	c #7F9B60",
"Q.	c #2A1E05",
"R.	c #684410",
"S.	c #564C31",
"T.	c #888667",
"U.	c #96946E",
". . . . . . . . . . . . . . . . ",
"+ + + + + + + + + + + + + + + + ",
"@ @ @ @ @ @ @ @ @ @ @ @ @ @ @ @ ",
"# # # # $ % & * = - ; $ # # # # ",
"> > > , ' ) ! ~ { ] ^ / ( > > > ",
"_ _ : < [ } | 1 2 3 4 5 6 7 _ _ ",
"8 9 0 a b c d e f g h i j k 9 8 ",
"l m n o p q r s t u v w x y z l ",
"A B C D E F G H I J K L M N O A ",
"P Q R q S T U V W I X Y Z `  .P ",
"..+.@.#.$.%.&.*.=.-.;.>.,.'.)...",
"!.~.{.].^./.(._.:.<.[.}.|.1.2.!.",
"3.3.4.s 5.6.7.8.9.0.a.b.c.d.e.3.",
"f.f.g.h.i.j.k.l.m.n.a.o.p.q.r.f.",
"s.s.s.t.u.v.w.x.y.a.z.A.B.C.s.s.",
"D.D.D.D.E.F.G.H.I.J.K.L.M.D.D.D.",
"N.N.N.N.N.N.O.P.Q.R.S.T.N.N.N.N.",
"U.U.U.U.U.U.U.U.U.U.U.U.U.U.U.U.",
"+ + + + + + + + + + + + + + + + "};
