/* XPM */
static char * bottom_right_inactive_xpm[] = {
"26 12 10 1",
"       c None",
"@      c #000000",
".      c #797C7F",
"+      c #A7A9AF",
"#      c #909297",
"$      c #85878C",
"&      c #949594 s inactive_shadow_2",
"=      c #FFFFFF s inactive_hilight_2",
"-      c #D5D6D5 s inactive_color_2",
"*      c #B4BAB4 s inactive_mid_2",
"                      @-&@",     
"                      @+#@",     
"                      @+.@",     
"                      @+.@",     
"                      @+.@",     
"                      @+.@",     
"@@@@@@@@@@@@@@@@@@@@@@@#.@",     
"-+++++++++++++++++++++#$.@",     
"&+####################$$.@",     
"&+$$$$$$$$$$$$$$$$$$$$$..@",     
"&#......................@ ",     
"@@@@@@@@@@@@@@@@@@@@@@@@  "};    
