/* XPM */
static char * title_3_active_xpm[] = {
"20 19 20 1",
" 	c None",
".	c #000000",
"+	c #DFE3EF",
"@	c #CFD6EF",
"#	c #CCD2EB",
"$	c #C8CFE7",
"%	c #C5CBE3",
"&	c #C1C8DF",
"*	c #BEC4DB",
"=	c #BBC1D7",
"-	c #B7BDD3",
";	c #B4BACF",
">	c #B0B6CB",
",	c #ADB3C7",
"'	c #A9AFC3",
")	c #A6ACBF",
"!	c #A3A8BB",
"~	c #9FA5B7",
"{	c #9CA1B3",
"]	c #989EAF",
"....................",
"+@@@+@@@+@@@+@@@+@@@",
"###+###+###+###+###+",
"$$+$$$+$$$+$$$+$$$+$",
"%+%%%+%%%+%%%+%%%+%%",
"+&&&+&&&+&&&+&&&+&&&",
"***+***+***+***+***+",
"==+===+===+===+===+=",
"-+---+---+---+---+--",
"+;;;+;;;+;;;+;;;+;;;",
">>>+>>>+>>>+>>>+>>>+",
",,+,,,+,,,+,,,+,,,+,",
"'+'''+'''+'''+'''+''",
"+)))+)))+)))+)))+)))",
"!!!+!!!+!!!+!!!+!!!+",
"~~+~~~+~~~+~~~+~~~+~",
"{+{{{+{{{+{{{+{{{+{{",
"+]]]+]]]+]]]+]]]+]]]",
"...................."};
