/* XPM */
static char * title_3_inactive_xpm[] = {
"20 19 17 1",
"       c None",
".      c #000000",
"+      c #D9D9D9",
"@      c #B6B6B6",
"#      c #FFFFFF s inactive_color_1",
"$      c #BABABA",
"%      c #BCBCBC",
"&      c #BEBEBE",
"*      c #C0C0C0",
"=      c #C2C2C2",
"-      c #C5C5C5",
";      c #C7C7C7",
">      c #C9C9C9",
",      c #CBCBCB",
"'      c #CECECE",
")      c #D0D0D0",
"!      c #D4D4D4",
"....................",
"++++++++++++++++++++",
"@@#@@@#@@@#@@@#@@@#@",
"@#@@@#@@@#@@@#@@@#@@",
"#$$$#$$$#$$$#$$$#$$$",
"%%%#%%%#%%%#%%%#%%%#",
"&&#&&&#&&&#&&&#&&&#&",
"*#***#***#***#***#**",
"#===#===#===#===#===",
"---#---#---#---#---#",
";;#;;;#;;;#;;;#;;;#;",
">#>>>#>>>#>>>#>>>#>>",
"#,,,#,,,#,,,#,,,#,,,",
"'''#'''#'''#'''#'''#",
"))#)))#)))#)))#)))#)",
"!#!!!#!!!#!!!#!!!#!!",
"#+++#+++#+++#+++#+++",
"+++#+++#+++#+++#+++#",
"...................."};
