/* XPM */
static char * resize_inactive_xpm[] = {
"23 7 5 1",
" 	c None",
".	c #000000",
"+	c #FFFFFF s inactive_hilight_2",
"@	c #BFBFBF s inactive_color_2",
"#	c #8F8F8F s inactive_shadow_2",
".......................",
"++.+++++++++++++++++++.",
"@#.+@@@@@@@@@@@@@@@@@#.",
"@#.+@@@@@@@@@@@@@@@@@#.",
"@#.+@@@@@@@@@@@@@@@@@#.",
"##.+##################.",
"......................."};
