<?xml version="1.0" encoding="UTF-8" standalone="no"?>
<svg
   viewBox="0 0 128 128"
   style="display:inline;enable-background:new"
   version="1.0"
   id="svg11300"
   height="128"
   width="128"
   sodipodi:docname="org.xfce.xfwm4-tweaks.svg"
   inkscape:version="1.2.2 (b0a8486541, 2022-12-01)"
   inkscape:export-filename="org.xfce.xfwm4-tweaks.png"
   inkscape:export-xdpi="96"
   inkscape:export-ydpi="96"
   xmlns:inkscape="http://www.inkscape.org/namespaces/inkscape"
   xmlns:sodipodi="http://sodipodi.sourceforge.net/DTD/sodipodi-0.dtd"
   xmlns:xlink="http://www.w3.org/1999/xlink"
   xmlns="http://www.w3.org/2000/svg"
   xmlns:svg="http://www.w3.org/2000/svg"
   xmlns:rdf="http://www.w3.org/1999/02/22-rdf-syntax-ns#"
   xmlns:cc="http://creativecommons.org/ns#"
   xmlns:dc="http://purl.org/dc/elements/1.1/">
  <sodipodi:namedview
     pagecolor="#ffffff"
     bordercolor="#666666"
     borderopacity="1"
     objecttolerance="10"
     gridtolerance="10"
     guidetolerance="10"
     inkscape:pageopacity="0"
     inkscape:pageshadow="2"
     inkscape:window-width="1322"
     inkscape:window-height="631"
     id="namedview35"
     showgrid="false"
     inkscape:zoom="7.3750001"
     inkscape:cx="7.9999999"
     inkscape:cy="92.474575"
     inkscape:window-x="484"
     inkscape:window-y="332"
     inkscape:window-maximized="0"
     inkscape:current-layer="svg11300"
     inkscape:showpageshadow="2"
     inkscape:pagecheckerboard="0"
     inkscape:deskcolor="#d1d1d1" />
  <title
     id="title4162">Adwaita Icon Template</title>
  <defs
     id="defs3">
    <linearGradient
       inkscape:collect="always"
       xlink:href="#linearGradient870"
       id="linearGradient872"
       x1="69.432274"
       y1="59.292229"
       x2="69.432274"
       y2="115.19054"
       gradientUnits="userSpaceOnUse"
       gradientTransform="matrix(1.1458333,0,0,1.1458333,-46.486382,-14.147342)" />
    <linearGradient
       inkscape:collect="always"
       id="linearGradient870">
      <stop
         style="stop-color:#f9da02;stop-opacity:1;"
         offset="0"
         id="stop866" />
      <stop
         style="stop-color:#dcb102;stop-opacity:1"
         offset="1"
         id="stop868" />
    </linearGradient>
  </defs>
  <metadata
     id="metadata4">
    <rdf:RDF>
      <cc:Work
         rdf:about="">
        <dc:title>Adwaita Icon Template</dc:title>
      </cc:Work>
    </rdf:RDF>
  </metadata>
  <rect
     style="display:inline;opacity:1;fill:#006888;fill-opacity:1;stroke:none;stroke-width:1;stroke-linecap:butt;stroke-linejoin:miter;stroke-miterlimit:4;stroke-dasharray:none;stroke-dashoffset:0;stroke-opacity:1;marker:none;marker-start:none;marker-mid:none;marker-end:none;paint-order:normal;enable-background:new"
     id="rect834"
     width="88"
     height="70"
     x="31"
     y="21"
     rx="6"
     ry="6" />
  <rect
     style="display:inline;opacity:1;fill:#d2d8dc;fill-opacity:1;stroke:none;stroke-width:1;stroke-linecap:butt;stroke-linejoin:miter;stroke-miterlimit:4;stroke-dasharray:none;stroke-dashoffset:0;stroke-opacity:1;marker:none;marker-start:none;marker-mid:none;marker-end:none;paint-order:normal;enable-background:new"
     id="rect879"
     width="88"
     height="70"
     x="9"
     y="41"
     rx="6"
     ry="6" />
  <rect
     ry="6"
     rx="6"
     y="31"
     x="20"
     height="70"
     width="88"
     id="rect830"
     style="display:inline;opacity:1;fill:#00aade;fill-opacity:1;stroke:none;stroke-width:1;stroke-linecap:butt;stroke-linejoin:miter;stroke-miterlimit:4;stroke-dasharray:none;stroke-dashoffset:0;stroke-opacity:1;marker:none;marker-start:none;marker-mid:none;marker-end:none;paint-order:normal;enable-background:new" />
  <rect
     ry="6"
     rx="6"
     y="17"
     x="31"
     height="70"
     width="88"
     id="rect836"
     style="display:inline;opacity:1;fill:#00aade;fill-opacity:1;stroke:none;stroke-width:1;stroke-linecap:butt;stroke-linejoin:miter;stroke-miterlimit:4;stroke-dasharray:none;stroke-dashoffset:0;stroke-opacity:1;marker:none;marker-start:none;marker-mid:none;marker-end:none;paint-order:normal;enable-background:new" />
  <rect
     style="display:inline;opacity:1;fill:#6acfec;fill-opacity:1;stroke:none;stroke-width:1;stroke-linecap:butt;stroke-linejoin:miter;stroke-miterlimit:4;stroke-dasharray:none;stroke-dashoffset:0;stroke-opacity:1;marker:none;marker-start:none;marker-mid:none;marker-end:none;paint-order:normal;enable-background:new"
     id="rect832"
     width="88"
     height="70"
     x="20"
     y="27"
     rx="6"
     ry="6" />
  <rect
     ry="6"
     rx="6"
     y="37"
     x="9"
     height="70"
     width="88"
     id="rect1711"
     style="display:inline;opacity:1;fill:#f1f3f5;fill-opacity:1;stroke:none;stroke-width:1;stroke-linecap:butt;stroke-linejoin:miter;stroke-miterlimit:4;stroke-dasharray:none;stroke-dashoffset:0;stroke-opacity:1;marker:none;marker-start:none;marker-mid:none;marker-end:none;paint-order:normal;enable-background:new" />
  <path
     id="path864"
     d="m 33.071432,51.5 -3.052503,9.161428 c -0.353569,0.133572 -0.707145,0.275 -1.052862,0.432143 l -8.631066,-4.313572 -5.555006,5.555001 4.321434,8.63893 a 19.64286,19.64286 0 0 0 -0.455714,1.045 L 9.5,75.07143 v 7.85714 l 9.161428,3.0525 c 0.133571,0.35358 0.274995,0.70714 0.432141,1.05286 l -4.313574,8.63107 5.555006,5.555 8.638927,-4.32143 c 0.341781,0.165 0.691432,0.31429 1.045001,0.45571 L 33.071423,106.5 h 7.857144 l 3.052503,-9.16143 c 0.353577,-0.13357 0.707146,-0.275 1.052862,-0.43214 l 8.631066,4.31357 5.555007,-5.555 -4.321435,-8.63893 c 0.165006,-0.34178 0.314291,-0.69142 0.455714,-1.045 l 9.145714,-3.0525 v -7.85714 l -9.161427,-3.0525 A 19.603574,19.603574 0 0 0 54.90643,70.966072 L 59.220005,62.335 53.664998,56.779999 45.026071,61.101428 A 19.611431,19.611431 0 0 0 43.98107,60.645714 L 40.928567,51.5 Z m 3.928563,15.714286 a 11.785716,11.785716 0 1 1 0,23.571424 11.785716,11.785716 0 0 1 0,-23.571424 z"
     style="display:inline;fill:url(#linearGradient872);fill-opacity:1;stroke:#ad7702;stroke-width:1;stroke-opacity:1;enable-background:new"
     inkscape:connector-curvature="0" />
</svg>
